G04 EAGLE Gerber RS-274X export*
G75*
%MOMM*%
%FSLAX34Y34*%
%LPD*%
%INBottom Copper*%
%IPPOS*%
%AMOC8*
5,1,8,0,0,1.08239X$1,22.5*%
G01*
%ADD10R,1.399997X0.400000*%
%ADD11R,0.812800X0.254000*%
%ADD12R,0.254000X0.812800*%
%ADD13R,5.384800X5.384800*%
%ADD14R,1.100000X1.000000*%
%ADD15R,1.000000X1.100000*%
%ADD16R,1.500000X1.300000*%
%ADD17C,1.000000*%
%ADD18R,1.663700X0.431800*%
%ADD19R,2.400000X1.900000*%
%ADD20R,1.800000X1.230000*%
%ADD21R,1.300000X1.500000*%
%ADD22C,1.524000*%
%ADD23C,0.254000*%
%ADD24C,0.756400*%
%ADD25C,0.406400*%
%ADD26C,0.609600*%
%ADD27C,0.355600*%
%ADD28C,0.304800*%
%ADD29C,0.508000*%
%ADD30C,0.558800*%
%ADD31C,0.279400*%
%ADD32C,0.457200*%

G36*
X193113Y359499D02*
X193113Y359499D01*
X193270Y359499D01*
X193320Y359508D01*
X193358Y359510D01*
X193443Y359531D01*
X193597Y359560D01*
X194997Y359938D01*
X194998Y359938D01*
X195000Y359939D01*
X195312Y360052D01*
X196069Y360398D01*
X196105Y360396D01*
X196188Y360381D01*
X196305Y360384D01*
X196421Y360378D01*
X196506Y360389D01*
X196591Y360392D01*
X196704Y360418D01*
X196820Y360434D01*
X196900Y360462D01*
X196983Y360481D01*
X197090Y360529D01*
X197200Y360568D01*
X197273Y360611D01*
X197351Y360646D01*
X197446Y360714D01*
X197545Y360774D01*
X197582Y360807D01*
X198410Y360889D01*
X198412Y360889D01*
X198414Y360889D01*
X198740Y360950D01*
X199544Y361167D01*
X199579Y361159D01*
X199659Y361130D01*
X199775Y361114D01*
X199888Y361088D01*
X199973Y361086D01*
X200058Y361074D01*
X200174Y361081D01*
X200290Y361078D01*
X200375Y361093D01*
X200460Y361098D01*
X200573Y361128D01*
X200687Y361148D01*
X200766Y361179D01*
X200849Y361200D01*
X200954Y361252D01*
X201062Y361294D01*
X201104Y361321D01*
X201934Y361265D01*
X201936Y361265D01*
X201938Y361265D01*
X202270Y361271D01*
X202690Y361312D01*
X202807Y361336D01*
X202925Y361350D01*
X203004Y361375D01*
X203085Y361391D01*
X203195Y361437D01*
X203308Y361474D01*
X203380Y361515D01*
X203456Y361547D01*
X203555Y361614D01*
X203659Y361672D01*
X203721Y361726D01*
X203790Y361773D01*
X203873Y361858D01*
X203964Y361935D01*
X204014Y362001D01*
X204072Y362060D01*
X204137Y362159D01*
X204210Y362254D01*
X204247Y362327D01*
X204292Y362397D01*
X204336Y362507D01*
X204390Y362614D01*
X204411Y362694D01*
X204442Y362770D01*
X204463Y362888D01*
X204494Y363003D01*
X204502Y363100D01*
X204514Y363166D01*
X204513Y363235D01*
X204521Y363334D01*
X204521Y365459D01*
X204520Y365473D01*
X204521Y365486D01*
X204500Y365672D01*
X204481Y365860D01*
X204477Y365873D01*
X204476Y365886D01*
X204418Y366065D01*
X204363Y366245D01*
X204357Y366257D01*
X204353Y366270D01*
X204261Y366434D01*
X204171Y366599D01*
X204163Y366609D01*
X204156Y366621D01*
X204034Y366764D01*
X203914Y366908D01*
X203903Y366917D01*
X203895Y366927D01*
X203747Y367043D01*
X203600Y367161D01*
X203588Y367167D01*
X203578Y367175D01*
X203409Y367260D01*
X203243Y367346D01*
X203230Y367350D01*
X203218Y367356D01*
X203036Y367406D01*
X202856Y367458D01*
X202842Y367459D01*
X202829Y367462D01*
X202641Y367475D01*
X202454Y367490D01*
X202441Y367489D01*
X202428Y367490D01*
X202240Y367465D01*
X202055Y367444D01*
X202042Y367439D01*
X202029Y367438D01*
X201713Y367336D01*
X201202Y367125D01*
X197261Y367125D01*
X193620Y368633D01*
X190833Y371420D01*
X189325Y375061D01*
X189325Y379002D01*
X190833Y382643D01*
X193620Y385430D01*
X196946Y386808D01*
X197261Y386938D01*
X201202Y386938D01*
X204843Y385430D01*
X207630Y382643D01*
X209138Y379002D01*
X209138Y376518D01*
X209139Y376509D01*
X209138Y376500D01*
X209159Y376307D01*
X209178Y376118D01*
X209180Y376109D01*
X209181Y376100D01*
X209240Y375917D01*
X209296Y375733D01*
X209300Y375725D01*
X209303Y375716D01*
X209396Y375549D01*
X209488Y375379D01*
X209493Y375372D01*
X209498Y375364D01*
X209623Y375217D01*
X209746Y375069D01*
X209752Y375064D01*
X209758Y375057D01*
X209910Y374937D01*
X210059Y374817D01*
X210067Y374813D01*
X210074Y374807D01*
X210247Y374720D01*
X210417Y374632D01*
X210425Y374629D01*
X210433Y374625D01*
X210620Y374573D01*
X210804Y374520D01*
X210812Y374519D01*
X210821Y374517D01*
X211014Y374503D01*
X211205Y374487D01*
X211214Y374488D01*
X211223Y374488D01*
X211415Y374512D01*
X211605Y374534D01*
X211613Y374537D01*
X211622Y374538D01*
X211805Y374599D01*
X211987Y374659D01*
X211995Y374663D01*
X212004Y374666D01*
X212171Y374762D01*
X212338Y374857D01*
X212345Y374863D01*
X212353Y374867D01*
X212606Y375082D01*
X224566Y387043D01*
X225451Y387409D01*
X225463Y387415D01*
X225476Y387419D01*
X225640Y387510D01*
X225806Y387599D01*
X225816Y387608D01*
X225828Y387614D01*
X225971Y387736D01*
X226116Y387856D01*
X226125Y387866D01*
X226135Y387875D01*
X226252Y388023D01*
X226370Y388168D01*
X226376Y388180D01*
X226385Y388191D01*
X226470Y388359D01*
X226557Y388525D01*
X226561Y388538D01*
X226567Y388550D01*
X226617Y388730D01*
X226670Y388911D01*
X226671Y388925D01*
X226675Y388938D01*
X226689Y389126D01*
X226705Y389312D01*
X226703Y389326D01*
X226704Y389339D01*
X226681Y389525D01*
X226660Y389712D01*
X226656Y389725D01*
X226654Y389739D01*
X226594Y389916D01*
X226537Y390096D01*
X226530Y390108D01*
X226526Y390120D01*
X226432Y390283D01*
X226340Y390447D01*
X226331Y390457D01*
X226325Y390469D01*
X226110Y390722D01*
X225953Y390880D01*
X225953Y400902D01*
X227292Y402241D01*
X283178Y402241D01*
X283196Y402243D01*
X283214Y402242D01*
X283396Y402263D01*
X283579Y402281D01*
X283596Y402287D01*
X283614Y402289D01*
X283788Y402346D01*
X283964Y402400D01*
X283979Y402408D01*
X283996Y402414D01*
X284157Y402504D01*
X284318Y402591D01*
X284331Y402603D01*
X284347Y402611D01*
X284486Y402732D01*
X284627Y402849D01*
X284638Y402863D01*
X284652Y402875D01*
X284764Y403020D01*
X284879Y403163D01*
X284888Y403179D01*
X284899Y403193D01*
X284981Y403358D01*
X285065Y403520D01*
X285070Y403537D01*
X285078Y403553D01*
X285126Y403731D01*
X285176Y403907D01*
X285178Y403925D01*
X285182Y403942D01*
X285210Y404273D01*
X285210Y425150D01*
X286558Y426498D01*
X286569Y426512D01*
X286582Y426523D01*
X286696Y426667D01*
X286813Y426809D01*
X286821Y426825D01*
X286832Y426839D01*
X286915Y427003D01*
X287001Y427165D01*
X287006Y427182D01*
X287014Y427198D01*
X287064Y427375D01*
X287116Y427551D01*
X287118Y427569D01*
X287122Y427586D01*
X287136Y427769D01*
X287152Y427952D01*
X287150Y427970D01*
X287152Y427988D01*
X287129Y428170D01*
X287109Y428352D01*
X287104Y428369D01*
X287101Y428387D01*
X287043Y428561D01*
X286987Y428736D01*
X286979Y428752D01*
X286973Y428769D01*
X286882Y428928D01*
X286793Y429088D01*
X286781Y429102D01*
X286772Y429118D01*
X286558Y429371D01*
X285210Y430719D01*
X285210Y450156D01*
X286549Y451495D01*
X295040Y451495D01*
X295058Y451497D01*
X295076Y451496D01*
X295258Y451517D01*
X295441Y451535D01*
X295458Y451541D01*
X295476Y451543D01*
X295650Y451600D01*
X295826Y451654D01*
X295841Y451662D01*
X295858Y451668D01*
X296019Y451758D01*
X296180Y451845D01*
X296193Y451857D01*
X296209Y451865D01*
X296348Y451986D01*
X296489Y452103D01*
X296500Y452117D01*
X296514Y452129D01*
X296626Y452274D01*
X296741Y452417D01*
X296750Y452433D01*
X296761Y452447D01*
X296843Y452612D01*
X296927Y452774D01*
X296932Y452791D01*
X296940Y452807D01*
X296988Y452985D01*
X297038Y453161D01*
X297040Y453179D01*
X297044Y453196D01*
X297071Y453527D01*
X297071Y458509D01*
X298132Y459569D01*
X298149Y459590D01*
X298169Y459608D01*
X298276Y459746D01*
X298387Y459881D01*
X298400Y459905D01*
X298416Y459926D01*
X298494Y460082D01*
X298576Y460237D01*
X298583Y460262D01*
X298595Y460286D01*
X298641Y460455D01*
X298690Y460622D01*
X298693Y460649D01*
X298700Y460675D01*
X298727Y461006D01*
X298727Y462579D01*
X298724Y462606D01*
X298726Y462632D01*
X298704Y462806D01*
X298687Y462980D01*
X298679Y463005D01*
X298676Y463032D01*
X298620Y463198D01*
X298569Y463365D01*
X298556Y463388D01*
X298548Y463414D01*
X298460Y463565D01*
X298377Y463719D01*
X298360Y463739D01*
X298347Y463762D01*
X298132Y464015D01*
X296275Y465872D01*
X296275Y477767D01*
X297614Y479106D01*
X300858Y479106D01*
X300885Y479109D01*
X300911Y479107D01*
X301085Y479129D01*
X301259Y479146D01*
X301284Y479154D01*
X301311Y479157D01*
X301476Y479213D01*
X301644Y479264D01*
X301667Y479277D01*
X301692Y479286D01*
X301844Y479373D01*
X301998Y479456D01*
X302018Y479473D01*
X302041Y479487D01*
X302294Y479701D01*
X306345Y483752D01*
X306351Y483759D01*
X306358Y483765D01*
X306478Y483914D01*
X306600Y484063D01*
X306604Y484071D01*
X306610Y484078D01*
X306698Y484249D01*
X306789Y484419D01*
X306791Y484428D01*
X306795Y484436D01*
X306849Y484620D01*
X306903Y484805D01*
X306904Y484814D01*
X306907Y484823D01*
X306922Y485012D01*
X306940Y485206D01*
X306939Y485215D01*
X306940Y485224D01*
X306917Y485413D01*
X306896Y485606D01*
X306894Y485615D01*
X306893Y485624D01*
X306833Y485806D01*
X306775Y485990D01*
X306771Y485998D01*
X306768Y486006D01*
X306673Y486175D01*
X306580Y486342D01*
X306574Y486349D01*
X306570Y486357D01*
X306444Y486503D01*
X306320Y486649D01*
X306313Y486655D01*
X306307Y486662D01*
X306155Y486779D01*
X306004Y486899D01*
X305996Y486903D01*
X305989Y486909D01*
X305817Y486994D01*
X305645Y487081D01*
X305636Y487084D01*
X305628Y487088D01*
X305443Y487138D01*
X305257Y487189D01*
X305248Y487190D01*
X305239Y487192D01*
X304909Y487220D01*
X299709Y487220D01*
X298370Y488559D01*
X298370Y495344D01*
X298367Y495371D01*
X298369Y495397D01*
X298347Y495571D01*
X298330Y495745D01*
X298322Y495770D01*
X298318Y495797D01*
X298263Y495963D01*
X298211Y496130D01*
X298199Y496153D01*
X298190Y496178D01*
X298103Y496330D01*
X298020Y496484D01*
X298003Y496504D01*
X297989Y496527D01*
X297775Y496780D01*
X291758Y502797D01*
X290257Y504297D01*
X289600Y505885D01*
X289600Y516438D01*
X289598Y516456D01*
X289600Y516474D01*
X289578Y516656D01*
X289560Y516839D01*
X289555Y516856D01*
X289553Y516874D01*
X289496Y517048D01*
X289442Y517224D01*
X289433Y517239D01*
X289428Y517256D01*
X289338Y517417D01*
X289250Y517578D01*
X289239Y517591D01*
X289230Y517607D01*
X289110Y517746D01*
X288992Y517887D01*
X288979Y517898D01*
X288967Y517912D01*
X288822Y518024D01*
X288679Y518139D01*
X288663Y518148D01*
X288649Y518159D01*
X288484Y518241D01*
X288321Y518325D01*
X288304Y518330D01*
X288288Y518338D01*
X288110Y518386D01*
X288033Y518408D01*
X286632Y519809D01*
X286632Y532703D01*
X287972Y534043D01*
X295475Y534043D01*
X295501Y534046D01*
X295528Y534044D01*
X295702Y534066D01*
X295876Y534083D01*
X295901Y534091D01*
X295928Y534094D01*
X296093Y534150D01*
X296260Y534201D01*
X296284Y534214D01*
X296309Y534222D01*
X296461Y534310D01*
X296614Y534393D01*
X296635Y534410D01*
X296658Y534423D01*
X296911Y534638D01*
X301650Y539377D01*
X319075Y539377D01*
X323814Y534638D01*
X323835Y534621D01*
X323853Y534601D01*
X323991Y534494D01*
X324126Y534383D01*
X324150Y534370D01*
X324171Y534354D01*
X324328Y534276D01*
X324482Y534194D01*
X324507Y534187D01*
X324531Y534175D01*
X324701Y534129D01*
X324868Y534079D01*
X324894Y534077D01*
X324920Y534070D01*
X325251Y534043D01*
X330856Y534043D01*
X330982Y533940D01*
X330998Y533931D01*
X331012Y533920D01*
X331175Y533837D01*
X331338Y533751D01*
X331355Y533746D01*
X331371Y533738D01*
X331548Y533689D01*
X331723Y533636D01*
X331741Y533635D01*
X331759Y533630D01*
X331942Y533616D01*
X332124Y533600D01*
X332142Y533602D01*
X332160Y533600D01*
X332342Y533624D01*
X332525Y533643D01*
X332542Y533649D01*
X332559Y533651D01*
X332734Y533710D01*
X332909Y533765D01*
X332924Y533773D01*
X332941Y533779D01*
X333100Y533871D01*
X333261Y533960D01*
X333275Y533971D01*
X333290Y533980D01*
X333543Y534195D01*
X334178Y534829D01*
X340510Y534829D01*
X340701Y534638D01*
X340722Y534621D01*
X340739Y534601D01*
X340877Y534494D01*
X341013Y534383D01*
X341036Y534370D01*
X341058Y534354D01*
X341214Y534276D01*
X341368Y534194D01*
X341394Y534187D01*
X341418Y534175D01*
X341587Y534129D01*
X341754Y534079D01*
X341781Y534077D01*
X341807Y534070D01*
X342138Y534043D01*
X347822Y534043D01*
X349162Y532703D01*
X349162Y519809D01*
X348699Y519346D01*
X348688Y519333D01*
X348674Y519321D01*
X348561Y519177D01*
X348444Y519035D01*
X348436Y519019D01*
X348425Y519005D01*
X348341Y518841D01*
X348255Y518679D01*
X348250Y518662D01*
X348242Y518646D01*
X348193Y518469D01*
X348141Y518293D01*
X348139Y518276D01*
X348134Y518258D01*
X348121Y518075D01*
X348104Y517892D01*
X348106Y517875D01*
X348105Y517857D01*
X348128Y517675D01*
X348148Y517492D01*
X348153Y517475D01*
X348155Y517457D01*
X348214Y517284D01*
X348269Y517108D01*
X348278Y517093D01*
X348283Y517076D01*
X348375Y516917D01*
X348464Y516756D01*
X348476Y516742D01*
X348484Y516727D01*
X348699Y516474D01*
X351821Y513352D01*
X351842Y513335D01*
X351859Y513315D01*
X351997Y513208D01*
X352133Y513097D01*
X352156Y513084D01*
X352177Y513068D01*
X352334Y512990D01*
X352488Y512908D01*
X352514Y512901D01*
X352538Y512889D01*
X352707Y512843D01*
X352874Y512793D01*
X352901Y512791D01*
X352927Y512784D01*
X353257Y512757D01*
X365145Y512757D01*
X367972Y509930D01*
X375208Y502694D01*
X375218Y502686D01*
X375227Y502675D01*
X375374Y502558D01*
X375519Y502439D01*
X375531Y502433D01*
X375542Y502424D01*
X375708Y502339D01*
X375875Y502250D01*
X375888Y502247D01*
X375900Y502240D01*
X376080Y502189D01*
X376261Y502136D01*
X376274Y502134D01*
X376287Y502131D01*
X376473Y502116D01*
X376662Y502099D01*
X376675Y502101D01*
X376689Y502100D01*
X376873Y502122D01*
X377062Y502143D01*
X377075Y502147D01*
X377088Y502148D01*
X377265Y502207D01*
X377446Y502264D01*
X377458Y502271D01*
X377471Y502275D01*
X377634Y502368D01*
X377798Y502459D01*
X377809Y502468D01*
X377820Y502474D01*
X377962Y502598D01*
X378105Y502719D01*
X378114Y502730D01*
X378124Y502739D01*
X378238Y502888D01*
X378355Y503035D01*
X378361Y503047D01*
X378369Y503058D01*
X378521Y503353D01*
X379157Y504890D01*
X385611Y511344D01*
X385628Y511365D01*
X385649Y511382D01*
X385756Y511520D01*
X385866Y511655D01*
X385879Y511679D01*
X385895Y511700D01*
X385973Y511857D01*
X386055Y512011D01*
X386063Y512037D01*
X386075Y512061D01*
X386120Y512230D01*
X386170Y512397D01*
X386172Y512424D01*
X386179Y512450D01*
X386206Y512780D01*
X386206Y522915D01*
X386722Y524161D01*
X386726Y524174D01*
X386732Y524186D01*
X386784Y524366D01*
X386839Y524546D01*
X386840Y524560D01*
X386844Y524573D01*
X386859Y524761D01*
X386877Y524947D01*
X386875Y524960D01*
X386877Y524974D01*
X386855Y525160D01*
X386835Y525348D01*
X386831Y525360D01*
X386830Y525374D01*
X386771Y525553D01*
X386715Y525732D01*
X386709Y525744D01*
X386705Y525756D01*
X386612Y525921D01*
X386522Y526085D01*
X386513Y526095D01*
X386507Y526107D01*
X386384Y526249D01*
X386263Y526393D01*
X386252Y526402D01*
X386244Y526412D01*
X386096Y526526D01*
X385948Y526644D01*
X385936Y526650D01*
X385926Y526659D01*
X385757Y526742D01*
X385590Y526828D01*
X385577Y526832D01*
X385565Y526838D01*
X385382Y526887D01*
X385203Y526938D01*
X385189Y526939D01*
X385176Y526942D01*
X384846Y526970D01*
X375053Y526970D01*
X373713Y528309D01*
X373713Y532150D01*
X373711Y532177D01*
X373713Y532204D01*
X373691Y532377D01*
X373673Y532551D01*
X373666Y532576D01*
X373662Y532603D01*
X373607Y532769D01*
X373555Y532936D01*
X373542Y532959D01*
X373534Y532985D01*
X373447Y533136D01*
X373363Y533290D01*
X373346Y533310D01*
X373333Y533334D01*
X373118Y533587D01*
X372411Y534294D01*
X372404Y534300D01*
X372398Y534307D01*
X372249Y534427D01*
X372099Y534549D01*
X372091Y534554D01*
X372084Y534559D01*
X371915Y534647D01*
X371743Y534738D01*
X371735Y534741D01*
X371727Y534745D01*
X371544Y534797D01*
X371357Y534853D01*
X371349Y534854D01*
X371340Y534856D01*
X371149Y534872D01*
X370957Y534889D01*
X370948Y534888D01*
X370939Y534889D01*
X370749Y534867D01*
X370556Y534846D01*
X370548Y534843D01*
X370539Y534842D01*
X370356Y534782D01*
X370172Y534724D01*
X370165Y534720D01*
X370156Y534717D01*
X369988Y534622D01*
X369820Y534530D01*
X369813Y534524D01*
X369805Y534519D01*
X369660Y534394D01*
X369513Y534269D01*
X369507Y534262D01*
X369501Y534256D01*
X369383Y534104D01*
X369263Y533953D01*
X369259Y533945D01*
X369254Y533938D01*
X369166Y533762D01*
X369081Y533594D01*
X369079Y533586D01*
X369075Y533578D01*
X369024Y533389D01*
X368973Y533206D01*
X368972Y533198D01*
X368970Y533189D01*
X368943Y532858D01*
X368943Y528809D01*
X367603Y527470D01*
X354709Y527470D01*
X353370Y528809D01*
X353370Y540703D01*
X354713Y542047D01*
X354862Y542065D01*
X355044Y542083D01*
X355061Y542088D01*
X355079Y542090D01*
X355253Y542147D01*
X355429Y542201D01*
X355445Y542210D01*
X355462Y542215D01*
X355622Y542305D01*
X355783Y542393D01*
X355797Y542404D01*
X355813Y542413D01*
X355952Y542533D01*
X356093Y542651D01*
X356104Y542664D01*
X356117Y542676D01*
X356230Y542821D01*
X356345Y542964D01*
X356353Y542980D01*
X356364Y542994D01*
X356446Y543159D01*
X356530Y543322D01*
X356535Y543339D01*
X356543Y543355D01*
X356591Y543533D01*
X356642Y543709D01*
X356643Y543726D01*
X356648Y543744D01*
X356675Y544074D01*
X356675Y546706D01*
X357599Y548936D01*
X359306Y550643D01*
X361537Y551567D01*
X363951Y551567D01*
X366181Y550643D01*
X367996Y548828D01*
X368014Y548814D01*
X368028Y548797D01*
X368169Y548687D01*
X368308Y548573D01*
X368328Y548563D01*
X368345Y548549D01*
X368505Y548468D01*
X368664Y548385D01*
X368685Y548378D01*
X368705Y548368D01*
X368878Y548321D01*
X369050Y548270D01*
X369072Y548268D01*
X369093Y548262D01*
X369271Y548250D01*
X369451Y548233D01*
X369473Y548236D01*
X369495Y548234D01*
X369671Y548257D01*
X369851Y548277D01*
X369872Y548284D01*
X369894Y548286D01*
X370210Y548388D01*
X371673Y548994D01*
X374087Y548994D01*
X376317Y548070D01*
X378025Y546363D01*
X379087Y543797D01*
X379098Y543777D01*
X379105Y543756D01*
X379193Y543600D01*
X379278Y543442D01*
X379292Y543425D01*
X379303Y543405D01*
X379420Y543270D01*
X379534Y543132D01*
X379551Y543118D01*
X379566Y543101D01*
X379707Y542991D01*
X379847Y542878D01*
X379866Y542868D01*
X379884Y542854D01*
X380044Y542774D01*
X380203Y542691D01*
X380225Y542685D01*
X380244Y542675D01*
X380418Y542628D01*
X380590Y542578D01*
X380612Y542576D01*
X380633Y542570D01*
X380964Y542543D01*
X386947Y542543D01*
X388287Y541203D01*
X388287Y538162D01*
X388289Y538145D01*
X388287Y538127D01*
X388308Y537945D01*
X388327Y537762D01*
X388332Y537745D01*
X388334Y537727D01*
X388391Y537553D01*
X388445Y537377D01*
X388453Y537361D01*
X388459Y537344D01*
X388549Y537184D01*
X388637Y537023D01*
X388648Y537009D01*
X388657Y536994D01*
X388777Y536854D01*
X388894Y536714D01*
X388908Y536702D01*
X388920Y536689D01*
X389065Y536576D01*
X389208Y536461D01*
X389224Y536453D01*
X389238Y536442D01*
X389403Y536360D01*
X389565Y536276D01*
X389582Y536271D01*
X389598Y536263D01*
X389777Y536215D01*
X389952Y536164D01*
X389970Y536163D01*
X389987Y536158D01*
X390318Y536131D01*
X390963Y536131D01*
X390981Y536133D01*
X390999Y536132D01*
X391181Y536153D01*
X391364Y536171D01*
X391381Y536176D01*
X391399Y536178D01*
X391573Y536235D01*
X391749Y536289D01*
X391764Y536298D01*
X391781Y536303D01*
X391942Y536394D01*
X392103Y536481D01*
X392116Y536492D01*
X392132Y536501D01*
X392271Y536621D01*
X392412Y536739D01*
X392423Y536753D01*
X392437Y536764D01*
X392549Y536909D01*
X392664Y537053D01*
X392673Y537068D01*
X392684Y537082D01*
X392766Y537247D01*
X392850Y537410D01*
X392855Y537427D01*
X392863Y537443D01*
X392911Y537621D01*
X392961Y537797D01*
X392963Y537815D01*
X392967Y537832D01*
X392995Y538162D01*
X392995Y538260D01*
X394334Y539599D01*
X406228Y539599D01*
X407345Y538483D01*
X407359Y538471D01*
X407370Y538458D01*
X407514Y538344D01*
X407656Y538228D01*
X407672Y538219D01*
X407686Y538208D01*
X407850Y538125D01*
X408012Y538039D01*
X408029Y538034D01*
X408045Y538026D01*
X408222Y537977D01*
X408398Y537924D01*
X408416Y537923D01*
X408433Y537918D01*
X408616Y537904D01*
X408799Y537888D01*
X408817Y537890D01*
X408835Y537888D01*
X409017Y537911D01*
X409199Y537931D01*
X409216Y537937D01*
X409234Y537939D01*
X409408Y537997D01*
X409583Y538053D01*
X409599Y538061D01*
X409616Y538067D01*
X409774Y538159D01*
X409935Y538248D01*
X409949Y538259D01*
X409965Y538268D01*
X410218Y538483D01*
X411334Y539599D01*
X423228Y539599D01*
X424568Y538260D01*
X424568Y532349D01*
X424571Y532323D01*
X424569Y532296D01*
X424591Y532122D01*
X424608Y531948D01*
X424616Y531923D01*
X424619Y531896D01*
X424675Y531730D01*
X424726Y531564D01*
X424739Y531540D01*
X424747Y531515D01*
X424835Y531363D01*
X424918Y531210D01*
X424935Y531189D01*
X424948Y531166D01*
X425163Y530913D01*
X427624Y528452D01*
X427648Y528432D01*
X427668Y528409D01*
X427803Y528305D01*
X427935Y528197D01*
X427963Y528182D01*
X427988Y528163D01*
X428283Y528012D01*
X429681Y527432D01*
X431389Y525725D01*
X431968Y524326D01*
X431983Y524299D01*
X431993Y524269D01*
X432078Y524122D01*
X432158Y523972D01*
X432178Y523947D01*
X432194Y523920D01*
X432346Y523741D01*
X433166Y521761D01*
X433166Y503414D01*
X432354Y501453D01*
X426125Y495225D01*
X426108Y495204D01*
X426088Y495187D01*
X425981Y495049D01*
X425870Y494914D01*
X425858Y494890D01*
X425841Y494869D01*
X425763Y494712D01*
X425682Y494558D01*
X425674Y494532D01*
X425662Y494508D01*
X425617Y494339D01*
X425567Y494172D01*
X425565Y494145D01*
X425558Y494119D01*
X425530Y493789D01*
X425530Y484563D01*
X425514Y484542D01*
X425403Y484407D01*
X425391Y484383D01*
X425374Y484362D01*
X425296Y484205D01*
X425215Y484051D01*
X425207Y484025D01*
X425195Y484001D01*
X425149Y483832D01*
X425100Y483665D01*
X425097Y483638D01*
X425090Y483613D01*
X425063Y483282D01*
X425063Y467062D01*
X425061Y467033D01*
X425052Y467003D01*
X425025Y466672D01*
X425025Y465255D01*
X425027Y465237D01*
X425026Y465220D01*
X425047Y465037D01*
X425065Y464855D01*
X425070Y464838D01*
X425073Y464820D01*
X425130Y464645D01*
X425183Y464470D01*
X425192Y464454D01*
X425197Y464437D01*
X425288Y464276D01*
X425375Y464116D01*
X425387Y464102D01*
X425395Y464086D01*
X425516Y463947D01*
X425633Y463806D01*
X425647Y463795D01*
X425658Y463782D01*
X425804Y463669D01*
X425947Y463554D01*
X425962Y463546D01*
X425977Y463535D01*
X426141Y463453D01*
X426304Y463369D01*
X426321Y463364D01*
X426337Y463356D01*
X426515Y463308D01*
X426691Y463257D01*
X426709Y463256D01*
X426726Y463251D01*
X427057Y463224D01*
X446336Y463224D01*
X447675Y461884D01*
X447675Y442672D01*
X446336Y441333D01*
X429443Y441333D01*
X429434Y441332D01*
X429425Y441332D01*
X429232Y441311D01*
X429042Y441293D01*
X429034Y441290D01*
X429025Y441289D01*
X428841Y441231D01*
X428658Y441174D01*
X428650Y441170D01*
X428641Y441168D01*
X428473Y441074D01*
X428304Y440983D01*
X428297Y440977D01*
X428289Y440973D01*
X428142Y440848D01*
X427994Y440725D01*
X427989Y440718D01*
X427982Y440712D01*
X427862Y440561D01*
X427742Y440411D01*
X427738Y440403D01*
X427732Y440396D01*
X427645Y440224D01*
X427556Y440054D01*
X427554Y440045D01*
X427550Y440037D01*
X427498Y439850D01*
X427445Y439667D01*
X427444Y439658D01*
X427442Y439649D01*
X427428Y439457D01*
X427412Y439266D01*
X427413Y439257D01*
X427413Y439248D01*
X427437Y439056D01*
X427459Y438866D01*
X427462Y438857D01*
X427463Y438849D01*
X427524Y438666D01*
X427584Y438483D01*
X427588Y438475D01*
X427591Y438467D01*
X427687Y438300D01*
X427782Y438132D01*
X427788Y438126D01*
X427792Y438118D01*
X428007Y437865D01*
X428053Y437819D01*
X428074Y437802D01*
X428091Y437782D01*
X428229Y437675D01*
X428364Y437564D01*
X428388Y437551D01*
X428409Y437535D01*
X428566Y437457D01*
X428720Y437375D01*
X428746Y437368D01*
X428770Y437356D01*
X428939Y437310D01*
X429106Y437260D01*
X429133Y437258D01*
X429158Y437251D01*
X429489Y437224D01*
X446494Y437224D01*
X446633Y437150D01*
X446655Y437144D01*
X446675Y437134D01*
X446847Y437087D01*
X447019Y437035D01*
X447041Y437033D01*
X447063Y437027D01*
X447241Y437015D01*
X447420Y436999D01*
X447442Y437001D01*
X447465Y437000D01*
X447642Y437023D01*
X447820Y437042D01*
X447841Y437049D01*
X447864Y437052D01*
X447935Y437075D01*
X450404Y437075D01*
X450963Y436843D01*
X450976Y436839D01*
X450988Y436833D01*
X451169Y436781D01*
X451349Y436727D01*
X451362Y436726D01*
X451375Y436722D01*
X451563Y436706D01*
X451749Y436689D01*
X451763Y436690D01*
X451776Y436689D01*
X451963Y436711D01*
X452150Y436730D01*
X452163Y436734D01*
X452176Y436736D01*
X452355Y436794D01*
X452534Y436850D01*
X452546Y436857D01*
X452559Y436861D01*
X452723Y436954D01*
X452887Y437043D01*
X452898Y437052D01*
X452909Y437059D01*
X453052Y437182D01*
X453196Y437303D01*
X453204Y437313D01*
X453214Y437322D01*
X453329Y437470D01*
X453446Y437617D01*
X453453Y437629D01*
X453461Y437640D01*
X453544Y437808D01*
X453630Y437975D01*
X453634Y437988D01*
X453640Y438000D01*
X453689Y438182D01*
X453740Y438363D01*
X453741Y438376D01*
X453745Y438389D01*
X453772Y438720D01*
X453772Y444586D01*
X455111Y445926D01*
X462232Y445926D01*
X462250Y445928D01*
X462268Y445926D01*
X462450Y445947D01*
X462633Y445966D01*
X462650Y445971D01*
X462667Y445973D01*
X462842Y446030D01*
X463018Y446084D01*
X463033Y446092D01*
X463050Y446098D01*
X463210Y446188D01*
X463372Y446276D01*
X463385Y446287D01*
X463401Y446296D01*
X463540Y446416D01*
X463681Y446533D01*
X463692Y446547D01*
X463706Y446559D01*
X463818Y446704D01*
X463933Y446847D01*
X463941Y446863D01*
X463952Y446877D01*
X464034Y447042D01*
X464119Y447204D01*
X464124Y447221D01*
X464132Y447237D01*
X464179Y447416D01*
X464230Y447591D01*
X464232Y447609D01*
X464236Y447626D01*
X464263Y447957D01*
X464263Y459178D01*
X465603Y460518D01*
X474706Y460518D01*
X474851Y460532D01*
X474997Y460539D01*
X475051Y460552D01*
X475106Y460558D01*
X475246Y460601D01*
X475388Y460636D01*
X475438Y460660D01*
X475491Y460676D01*
X475620Y460746D01*
X475752Y460808D01*
X475796Y460841D01*
X475845Y460868D01*
X475957Y460961D01*
X476075Y461049D01*
X476112Y461090D01*
X476154Y461126D01*
X476246Y461239D01*
X476344Y461348D01*
X476372Y461396D01*
X476407Y461439D01*
X476474Y461569D01*
X476548Y461695D01*
X476567Y461747D01*
X476592Y461797D01*
X476633Y461937D01*
X476681Y462075D01*
X476688Y462130D01*
X476704Y462184D01*
X476716Y462329D01*
X476735Y462474D01*
X476732Y462529D01*
X476736Y462585D01*
X476719Y462730D01*
X476710Y462876D01*
X476696Y462930D01*
X476690Y462985D01*
X476644Y463124D01*
X476607Y463265D01*
X476580Y463322D01*
X476565Y463367D01*
X476523Y463441D01*
X476465Y463565D01*
X473272Y469094D01*
X473181Y469222D01*
X473095Y469353D01*
X473064Y469385D01*
X473038Y469421D01*
X472922Y469528D01*
X472812Y469640D01*
X472775Y469665D01*
X472743Y469695D01*
X472609Y469778D01*
X472479Y469866D01*
X472438Y469883D01*
X472400Y469906D01*
X472252Y469960D01*
X472107Y470021D01*
X472064Y470030D01*
X472022Y470045D01*
X471867Y470069D01*
X471712Y470100D01*
X471668Y470100D01*
X471624Y470107D01*
X471467Y470100D01*
X471310Y470099D01*
X471261Y470090D01*
X471222Y470089D01*
X471138Y470068D01*
X470984Y470039D01*
X469689Y469690D01*
X469688Y469689D01*
X469686Y469689D01*
X469374Y469576D01*
X468617Y469229D01*
X468582Y469231D01*
X468498Y469246D01*
X468382Y469243D01*
X468265Y469250D01*
X468180Y469238D01*
X468095Y469236D01*
X467982Y469210D01*
X467866Y469194D01*
X467786Y469165D01*
X467703Y469146D01*
X467596Y469099D01*
X467487Y469060D01*
X467413Y469016D01*
X467336Y468981D01*
X467241Y468913D01*
X467141Y468854D01*
X467104Y468820D01*
X466276Y468738D01*
X466274Y468738D01*
X466272Y468738D01*
X465946Y468678D01*
X465143Y468461D01*
X465108Y468469D01*
X465027Y468497D01*
X464912Y468513D01*
X464798Y468539D01*
X464713Y468541D01*
X464628Y468553D01*
X464512Y468546D01*
X464396Y468549D01*
X464312Y468535D01*
X464226Y468530D01*
X464114Y468500D01*
X463999Y468480D01*
X463920Y468449D01*
X463837Y468427D01*
X463732Y468376D01*
X463624Y468334D01*
X463582Y468307D01*
X462752Y468362D01*
X462750Y468362D01*
X462748Y468362D01*
X462416Y468357D01*
X461588Y468275D01*
X461555Y468288D01*
X461480Y468330D01*
X461369Y468365D01*
X461262Y468409D01*
X461178Y468425D01*
X461096Y468451D01*
X460981Y468463D01*
X460866Y468485D01*
X460781Y468484D01*
X460696Y468493D01*
X460580Y468483D01*
X460464Y468482D01*
X460380Y468464D01*
X460295Y468456D01*
X460184Y468423D01*
X460070Y468399D01*
X460024Y468380D01*
X459214Y468571D01*
X459212Y468571D01*
X459210Y468572D01*
X458882Y468621D01*
X458052Y468677D01*
X458022Y468695D01*
X457955Y468748D01*
X457851Y468801D01*
X457752Y468862D01*
X457672Y468892D01*
X457596Y468931D01*
X457484Y468962D01*
X457375Y469003D01*
X457290Y469016D01*
X457208Y469039D01*
X457092Y469047D01*
X456977Y469066D01*
X456892Y469062D01*
X456807Y469068D01*
X456691Y469054D01*
X456575Y469049D01*
X456526Y469037D01*
X455759Y469359D01*
X455757Y469360D01*
X455756Y469361D01*
X455440Y469463D01*
X454630Y469655D01*
X454603Y469678D01*
X454546Y469741D01*
X454452Y469811D01*
X454365Y469887D01*
X454291Y469930D01*
X454222Y469980D01*
X454116Y470030D01*
X454016Y470088D01*
X453935Y470115D01*
X453857Y470151D01*
X453744Y470178D01*
X453634Y470215D01*
X453549Y470226D01*
X453466Y470246D01*
X453350Y470251D01*
X453234Y470265D01*
X453184Y470262D01*
X452481Y470706D01*
X452479Y470706D01*
X452478Y470707D01*
X452183Y470860D01*
X450810Y471437D01*
X450784Y471445D01*
X450760Y471457D01*
X450591Y471504D01*
X450425Y471555D01*
X450398Y471558D01*
X450372Y471565D01*
X450198Y471578D01*
X450024Y471595D01*
X449997Y471593D01*
X449970Y471595D01*
X449797Y471573D01*
X449624Y471556D01*
X449598Y471548D01*
X449571Y471544D01*
X449405Y471489D01*
X449239Y471438D01*
X449215Y471425D01*
X449189Y471416D01*
X449038Y471329D01*
X448885Y471246D01*
X448864Y471229D01*
X448840Y471215D01*
X448587Y471000D01*
X448005Y470418D01*
X446244Y469689D01*
X446216Y469674D01*
X446187Y469664D01*
X446039Y469579D01*
X445889Y469498D01*
X445865Y469479D01*
X445838Y469463D01*
X445585Y469248D01*
X445487Y469150D01*
X443256Y468226D01*
X440842Y468226D01*
X438611Y469150D01*
X436904Y470857D01*
X435980Y473088D01*
X435980Y475502D01*
X436904Y477732D01*
X438611Y479440D01*
X440633Y480277D01*
X440637Y480279D01*
X440642Y480281D01*
X440818Y480376D01*
X440988Y480467D01*
X440992Y480470D01*
X440996Y480473D01*
X441150Y480601D01*
X441299Y480724D01*
X441302Y480727D01*
X441305Y480730D01*
X441429Y480885D01*
X441552Y481036D01*
X441555Y481041D01*
X441557Y481044D01*
X441647Y481216D01*
X441739Y481393D01*
X441741Y481398D01*
X441743Y481402D01*
X441796Y481587D01*
X441853Y481779D01*
X441853Y481784D01*
X441854Y481789D01*
X441870Y481982D01*
X441887Y482180D01*
X441887Y482185D01*
X441887Y482190D01*
X441854Y482520D01*
X441573Y484055D01*
X441572Y484056D01*
X441572Y484058D01*
X441485Y484378D01*
X441203Y485161D01*
X441208Y485196D01*
X441229Y485279D01*
X441236Y485395D01*
X441252Y485510D01*
X441247Y485596D01*
X441252Y485681D01*
X441236Y485796D01*
X441229Y485912D01*
X441208Y485995D01*
X441195Y486080D01*
X441157Y486189D01*
X441127Y486302D01*
X441090Y486379D01*
X441061Y486459D01*
X441002Y486559D01*
X440950Y486664D01*
X440920Y486703D01*
X440907Y487535D01*
X440907Y487537D01*
X440907Y487539D01*
X440874Y487869D01*
X440724Y488688D01*
X440735Y488722D01*
X440770Y488800D01*
X440795Y488913D01*
X440830Y489024D01*
X440839Y489109D01*
X440858Y489192D01*
X440861Y489309D01*
X440874Y489424D01*
X440866Y489510D01*
X440868Y489595D01*
X440848Y489709D01*
X440837Y489825D01*
X440813Y489907D01*
X440798Y489991D01*
X440756Y490100D01*
X440722Y490211D01*
X440699Y490255D01*
X440823Y491078D01*
X440823Y491080D01*
X440823Y491082D01*
X440845Y491413D01*
X440832Y492245D01*
X440848Y492277D01*
X440895Y492348D01*
X440939Y492456D01*
X440992Y492559D01*
X441015Y492641D01*
X441048Y492721D01*
X441070Y492835D01*
X441101Y492947D01*
X441107Y493032D01*
X441123Y493116D01*
X441122Y493233D01*
X441131Y493348D01*
X441120Y493433D01*
X441120Y493519D01*
X441096Y493632D01*
X441081Y493748D01*
X441065Y493795D01*
X441323Y494587D01*
X441324Y494589D01*
X441324Y494590D01*
X441400Y494913D01*
X441524Y495736D01*
X441545Y495765D01*
X441604Y495827D01*
X441665Y495926D01*
X441734Y496020D01*
X441770Y496097D01*
X441815Y496170D01*
X441856Y496279D01*
X441905Y496384D01*
X441925Y496467D01*
X441955Y496547D01*
X441973Y496662D01*
X442001Y496775D01*
X442004Y496861D01*
X442018Y496945D01*
X442013Y497061D01*
X442017Y497178D01*
X442010Y497227D01*
X442394Y497965D01*
X442395Y497967D01*
X442396Y497968D01*
X442524Y498274D01*
X442782Y499065D01*
X442807Y499090D01*
X442875Y499142D01*
X442951Y499230D01*
X443035Y499311D01*
X443084Y499381D01*
X443140Y499445D01*
X443198Y499546D01*
X443264Y499642D01*
X443298Y499721D01*
X443340Y499795D01*
X443377Y499905D01*
X443423Y500012D01*
X443440Y500096D01*
X443467Y500177D01*
X443481Y500292D01*
X443505Y500406D01*
X443506Y500456D01*
X444006Y501121D01*
X444007Y501122D01*
X444009Y501124D01*
X444185Y501405D01*
X444570Y502143D01*
X444599Y502163D01*
X444674Y502203D01*
X444764Y502277D01*
X444860Y502343D01*
X444920Y502404D01*
X444986Y502458D01*
X445059Y502548D01*
X445140Y502632D01*
X445187Y502704D01*
X445241Y502770D01*
X445295Y502873D01*
X445358Y502971D01*
X445389Y503050D01*
X445429Y503126D01*
X445462Y503237D01*
X445504Y503346D01*
X445513Y503395D01*
X446116Y503968D01*
X446117Y503970D01*
X446119Y503971D01*
X446339Y504219D01*
X446840Y504883D01*
X446872Y504898D01*
X446953Y504926D01*
X447054Y504984D01*
X447160Y505033D01*
X447228Y505084D01*
X447302Y505126D01*
X447390Y505203D01*
X447483Y505272D01*
X447541Y505335D01*
X447605Y505392D01*
X447676Y505484D01*
X447754Y505570D01*
X447797Y505644D01*
X447849Y505712D01*
X447900Y505816D01*
X447960Y505916D01*
X447977Y505963D01*
X448666Y506430D01*
X448667Y506431D01*
X448669Y506432D01*
X448927Y506640D01*
X449491Y507175D01*
X449608Y507312D01*
X449730Y507447D01*
X449740Y507465D01*
X449754Y507480D01*
X449842Y507637D01*
X449934Y507793D01*
X449941Y507813D01*
X449951Y507831D01*
X450007Y508003D01*
X450067Y508174D01*
X450069Y508194D01*
X450076Y508214D01*
X450097Y508393D01*
X450121Y508572D01*
X450120Y508593D01*
X450122Y508614D01*
X450107Y508794D01*
X450096Y508974D01*
X450091Y508994D01*
X450089Y509015D01*
X450039Y509188D01*
X449992Y509363D01*
X449983Y509384D01*
X449977Y509402D01*
X449941Y509471D01*
X449850Y509663D01*
X428426Y546772D01*
X429054Y547069D01*
X429076Y547086D01*
X429103Y547096D01*
X429155Y547145D01*
X429213Y547188D01*
X429227Y547213D01*
X429248Y547232D01*
X429277Y547298D01*
X429313Y547360D01*
X429316Y547388D01*
X429328Y547414D01*
X429329Y547486D01*
X429338Y547557D01*
X429330Y547584D01*
X429331Y547613D01*
X429295Y547708D01*
X429284Y547748D01*
X429277Y547757D01*
X429273Y547769D01*
X419773Y564269D01*
X419721Y564328D01*
X419675Y564390D01*
X419656Y564401D01*
X419641Y564418D01*
X419571Y564452D01*
X419504Y564492D01*
X419480Y564496D01*
X419462Y564504D01*
X419417Y564506D01*
X419340Y564519D01*
X400340Y564519D01*
X400312Y564514D01*
X400284Y564516D01*
X400216Y564494D01*
X400145Y564480D01*
X400122Y564464D01*
X400095Y564455D01*
X400040Y564408D01*
X399981Y564367D01*
X399966Y564343D01*
X399945Y564325D01*
X399913Y564260D01*
X399874Y564200D01*
X399869Y564172D01*
X399857Y564146D01*
X399848Y564045D01*
X399841Y564003D01*
X399843Y563993D01*
X399842Y563980D01*
X399899Y563265D01*
X356067Y563265D01*
X355899Y563249D01*
X355730Y563237D01*
X355698Y563229D01*
X355666Y563225D01*
X355504Y563176D01*
X355341Y563131D01*
X355312Y563117D01*
X355281Y563107D01*
X355132Y563027D01*
X354981Y562951D01*
X354956Y562931D01*
X354927Y562915D01*
X354797Y562807D01*
X354664Y562703D01*
X354643Y562679D01*
X354618Y562658D01*
X354512Y562526D01*
X354402Y562398D01*
X354386Y562369D01*
X354365Y562344D01*
X354288Y562194D01*
X354205Y562047D01*
X354193Y562012D01*
X354180Y561987D01*
X354156Y561904D01*
X354097Y561733D01*
X353829Y560671D01*
X353828Y560669D01*
X353828Y560667D01*
X353773Y560340D01*
X353704Y559504D01*
X353693Y559488D01*
X353640Y559422D01*
X353585Y559319D01*
X353522Y559221D01*
X353491Y559141D01*
X353451Y559066D01*
X353418Y558954D01*
X353376Y558846D01*
X353361Y558761D01*
X353337Y558680D01*
X353327Y558563D01*
X353307Y558449D01*
X353309Y558364D01*
X353301Y558279D01*
X353314Y558163D01*
X353317Y558046D01*
X353325Y558010D01*
X352990Y557246D01*
X352989Y557244D01*
X352988Y557242D01*
X352881Y556928D01*
X352675Y556115D01*
X352662Y556101D01*
X352598Y556044D01*
X352527Y555952D01*
X352449Y555865D01*
X352405Y555792D01*
X352353Y555724D01*
X352302Y555620D01*
X352243Y555520D01*
X352214Y555439D01*
X352177Y555362D01*
X352148Y555250D01*
X352109Y555140D01*
X352097Y555055D01*
X352076Y554973D01*
X352069Y554856D01*
X352053Y554741D01*
X352055Y554704D01*
X351806Y554322D01*
X351598Y554005D01*
X351598Y554003D01*
X351596Y554002D01*
X351439Y553710D01*
X351102Y552942D01*
X351087Y552930D01*
X351014Y552885D01*
X350929Y552805D01*
X350838Y552733D01*
X350783Y552668D01*
X350720Y552609D01*
X350653Y552514D01*
X350578Y552425D01*
X350537Y552351D01*
X350487Y552281D01*
X350440Y552175D01*
X350383Y552073D01*
X350358Y551991D01*
X350323Y551914D01*
X350297Y551800D01*
X350262Y551689D01*
X350258Y551652D01*
X349693Y551038D01*
X349692Y551036D01*
X349690Y551035D01*
X349487Y550773D01*
X349028Y550071D01*
X349011Y550061D01*
X348932Y550029D01*
X348835Y549964D01*
X348733Y549908D01*
X348668Y549853D01*
X348597Y549805D01*
X348515Y549723D01*
X348426Y549648D01*
X348373Y549581D01*
X348313Y549520D01*
X348248Y549423D01*
X348176Y549332D01*
X348138Y549256D01*
X348090Y549185D01*
X348046Y549077D01*
X347994Y548973D01*
X347984Y548937D01*
X347325Y548424D01*
X347324Y548423D01*
X347322Y548422D01*
X347078Y548197D01*
X346510Y547580D01*
X346491Y547573D01*
X346408Y547554D01*
X346302Y547507D01*
X346192Y547468D01*
X346119Y547424D01*
X346041Y547389D01*
X345946Y547321D01*
X345846Y547262D01*
X345783Y547204D01*
X345714Y547155D01*
X345634Y547069D01*
X345548Y546991D01*
X345497Y546923D01*
X345439Y546860D01*
X345378Y546761D01*
X345309Y546667D01*
X345293Y546634D01*
X344559Y546236D01*
X344557Y546235D01*
X344556Y546235D01*
X344278Y546053D01*
X343616Y545538D01*
X343597Y545534D01*
X343512Y545529D01*
X343399Y545500D01*
X343284Y545480D01*
X343205Y545448D01*
X343122Y545427D01*
X343018Y545376D01*
X342909Y545333D01*
X342838Y545287D01*
X342761Y545249D01*
X342669Y545178D01*
X342571Y545116D01*
X342509Y545056D01*
X342442Y545004D01*
X342365Y544916D01*
X342281Y544835D01*
X342260Y544805D01*
X341471Y544534D01*
X341469Y544533D01*
X341467Y544532D01*
X341163Y544399D01*
X340426Y544000D01*
X340406Y544000D01*
X340321Y544009D01*
X340205Y543998D01*
X340089Y543997D01*
X340005Y543979D01*
X339920Y543971D01*
X339809Y543938D01*
X339695Y543914D01*
X339617Y543880D01*
X339535Y543856D01*
X339432Y543801D01*
X339325Y543755D01*
X339255Y543707D01*
X339179Y543667D01*
X339089Y543593D01*
X338994Y543527D01*
X338968Y543500D01*
X338144Y543362D01*
X338142Y543362D01*
X338141Y543362D01*
X337819Y543280D01*
X337026Y543008D01*
X337006Y543011D01*
X336924Y543034D01*
X336808Y543042D01*
X336693Y543060D01*
X336608Y543057D01*
X336523Y543063D01*
X336407Y543048D01*
X336291Y543044D01*
X336208Y543023D01*
X336123Y543013D01*
X336013Y542975D01*
X335900Y542948D01*
X335822Y542912D01*
X335741Y542884D01*
X335640Y542826D01*
X335535Y542777D01*
X335505Y542755D01*
X334670Y542755D01*
X334669Y542754D01*
X334667Y542755D01*
X334336Y542727D01*
X333509Y542589D01*
X333490Y542595D01*
X333413Y542631D01*
X333300Y542659D01*
X333189Y542696D01*
X333104Y542706D01*
X333022Y542726D01*
X332905Y542731D01*
X332790Y542745D01*
X332704Y542739D01*
X332619Y542742D01*
X332504Y542724D01*
X332388Y542715D01*
X332306Y542692D01*
X332222Y542679D01*
X332113Y542638D01*
X332000Y542606D01*
X331967Y542590D01*
X331144Y542727D01*
X331142Y542727D01*
X331140Y542728D01*
X330810Y542755D01*
X329973Y542755D01*
X329952Y542765D01*
X329883Y542812D01*
X329776Y542858D01*
X329673Y542912D01*
X329591Y542937D01*
X329513Y542970D01*
X329399Y542994D01*
X329287Y543027D01*
X329202Y543035D01*
X329119Y543052D01*
X329002Y543053D01*
X328886Y543064D01*
X328801Y543054D01*
X328716Y543055D01*
X328602Y543033D01*
X328486Y543020D01*
X328450Y543009D01*
X327661Y543280D01*
X327659Y543280D01*
X327657Y543281D01*
X327336Y543362D01*
X326508Y543500D01*
X326493Y543512D01*
X326431Y543572D01*
X326333Y543634D01*
X326241Y543705D01*
X326164Y543743D01*
X326092Y543789D01*
X325984Y543831D01*
X325879Y543882D01*
X325797Y543903D01*
X325717Y543934D01*
X325602Y543954D01*
X325490Y543984D01*
X325404Y543989D01*
X325320Y544003D01*
X325204Y544000D01*
X325088Y544007D01*
X325051Y544002D01*
X324317Y544399D01*
X324315Y544400D01*
X324313Y544401D01*
X324009Y544534D01*
X323216Y544806D01*
X323203Y544820D01*
X323152Y544889D01*
X323066Y544967D01*
X322986Y545052D01*
X322916Y545101D01*
X322853Y545159D01*
X322753Y545218D01*
X322658Y545286D01*
X322580Y545321D01*
X322507Y545364D01*
X322397Y545403D01*
X322291Y545450D01*
X322207Y545469D01*
X322127Y545497D01*
X322012Y545514D01*
X321898Y545539D01*
X321861Y545540D01*
X321202Y546053D01*
X321200Y546054D01*
X321199Y546055D01*
X320921Y546236D01*
X320183Y546636D01*
X320172Y546652D01*
X320134Y546728D01*
X320061Y546819D01*
X319997Y546916D01*
X319936Y546976D01*
X319883Y547043D01*
X319794Y547118D01*
X319712Y547201D01*
X319641Y547248D01*
X319576Y547303D01*
X319474Y547359D01*
X319377Y547424D01*
X319298Y547456D01*
X319223Y547497D01*
X319112Y547532D01*
X319004Y547576D01*
X318967Y547583D01*
X318402Y548197D01*
X318401Y548198D01*
X318399Y548200D01*
X318155Y548424D01*
X317493Y548939D01*
X317485Y548957D01*
X317459Y549039D01*
X317403Y549141D01*
X317355Y549247D01*
X317306Y549316D01*
X317264Y549391D01*
X317189Y549480D01*
X317121Y549574D01*
X317059Y549633D01*
X317004Y549698D01*
X316912Y549770D01*
X316827Y549849D01*
X316755Y549894D01*
X316688Y549947D01*
X316584Y550000D01*
X316485Y550061D01*
X316450Y550074D01*
X316433Y550100D01*
X316411Y550128D01*
X316393Y550158D01*
X316284Y550284D01*
X316180Y550414D01*
X316153Y550436D01*
X316130Y550463D01*
X315999Y550565D01*
X315871Y550671D01*
X315840Y550688D01*
X315812Y550710D01*
X315663Y550784D01*
X315517Y550863D01*
X315483Y550873D01*
X315452Y550889D01*
X315291Y550932D01*
X315132Y550981D01*
X315097Y550984D01*
X315063Y550993D01*
X314732Y551021D01*
X298489Y551021D01*
X298462Y551018D01*
X298435Y551020D01*
X298261Y550998D01*
X298088Y550981D01*
X298062Y550973D01*
X298036Y550969D01*
X297870Y550914D01*
X297703Y550862D01*
X297679Y550850D01*
X297654Y550841D01*
X297502Y550754D01*
X297349Y550671D01*
X297329Y550654D01*
X297305Y550640D01*
X297052Y550426D01*
X282579Y535952D01*
X282562Y535932D01*
X282542Y535914D01*
X282435Y535776D01*
X282324Y535641D01*
X282311Y535617D01*
X282295Y535596D01*
X282217Y535439D01*
X282135Y535285D01*
X282128Y535260D01*
X282116Y535235D01*
X282070Y535066D01*
X282020Y534899D01*
X282018Y534873D01*
X282011Y534847D01*
X281984Y534516D01*
X281984Y481926D01*
X281987Y481900D01*
X281985Y481873D01*
X282007Y481699D01*
X282024Y481526D01*
X282032Y481500D01*
X282035Y481474D01*
X282091Y481308D01*
X282142Y481141D01*
X282155Y481117D01*
X282163Y481092D01*
X282251Y480940D01*
X282334Y480787D01*
X282351Y480766D01*
X282364Y480743D01*
X282579Y480490D01*
X287905Y475164D01*
X287905Y471006D01*
X287908Y470980D01*
X287906Y470953D01*
X287928Y470780D01*
X287945Y470606D01*
X287953Y470580D01*
X287956Y470553D01*
X288012Y470388D01*
X288063Y470221D01*
X288076Y470197D01*
X288080Y470185D01*
X288080Y459968D01*
X286740Y458628D01*
X277305Y458628D01*
X275966Y459968D01*
X275966Y462664D01*
X275963Y462691D01*
X275965Y462717D01*
X275943Y462891D01*
X275926Y463065D01*
X275918Y463090D01*
X275914Y463117D01*
X275859Y463283D01*
X275807Y463450D01*
X275795Y463473D01*
X275790Y463489D01*
X275790Y468201D01*
X275787Y468228D01*
X275789Y468254D01*
X275767Y468427D01*
X275750Y468602D01*
X275742Y468627D01*
X275738Y468654D01*
X275683Y468819D01*
X275631Y468987D01*
X275619Y469010D01*
X275610Y469035D01*
X275523Y469187D01*
X275440Y469341D01*
X275423Y469361D01*
X275409Y469384D01*
X275195Y469637D01*
X268798Y476034D01*
X268782Y476199D01*
X268774Y476225D01*
X268771Y476251D01*
X268715Y476417D01*
X268664Y476584D01*
X268651Y476608D01*
X268642Y476633D01*
X268568Y476763D01*
X268568Y515645D01*
X268566Y515662D01*
X268567Y515680D01*
X268546Y515862D01*
X268528Y516045D01*
X268523Y516062D01*
X268521Y516080D01*
X268464Y516254D01*
X268410Y516430D01*
X268401Y516446D01*
X268396Y516463D01*
X268305Y516623D01*
X268218Y516784D01*
X268207Y516798D01*
X268198Y516813D01*
X268078Y516953D01*
X267960Y517093D01*
X267946Y517105D01*
X267935Y517118D01*
X267790Y517231D01*
X267646Y517346D01*
X267631Y517354D01*
X267617Y517365D01*
X267452Y517447D01*
X267289Y517531D01*
X267272Y517536D01*
X267256Y517544D01*
X267078Y517592D01*
X266902Y517643D01*
X266884Y517644D01*
X266867Y517649D01*
X266537Y517676D01*
X256553Y517676D01*
X255213Y519015D01*
X255213Y531910D01*
X256607Y533304D01*
X256760Y533353D01*
X256936Y533407D01*
X256951Y533416D01*
X256968Y533421D01*
X257128Y533512D01*
X257290Y533599D01*
X257303Y533610D01*
X257319Y533619D01*
X257458Y533739D01*
X257599Y533857D01*
X257610Y533871D01*
X257624Y533882D01*
X257736Y534027D01*
X257851Y534171D01*
X257859Y534186D01*
X257870Y534200D01*
X257952Y534365D01*
X258037Y534528D01*
X258042Y534545D01*
X258050Y534561D01*
X258097Y534738D01*
X258148Y534915D01*
X258150Y534933D01*
X258154Y534950D01*
X258181Y535280D01*
X258181Y538815D01*
X258209Y538916D01*
X258258Y539079D01*
X258261Y539110D01*
X258269Y539140D01*
X258296Y539471D01*
X258296Y541003D01*
X259220Y543233D01*
X260927Y544941D01*
X263157Y545865D01*
X265572Y545865D01*
X265759Y545787D01*
X265772Y545783D01*
X265784Y545777D01*
X265964Y545725D01*
X266145Y545670D01*
X266158Y545669D01*
X266171Y545665D01*
X266359Y545650D01*
X266545Y545632D01*
X266559Y545634D01*
X266572Y545633D01*
X266759Y545655D01*
X266946Y545674D01*
X266959Y545678D01*
X266972Y545680D01*
X267151Y545738D01*
X267330Y545794D01*
X267342Y545800D01*
X267355Y545804D01*
X267518Y545897D01*
X267683Y545987D01*
X267694Y545996D01*
X267705Y546002D01*
X267847Y546125D01*
X267992Y546246D01*
X268000Y546257D01*
X268010Y546265D01*
X268125Y546414D01*
X268242Y546561D01*
X268249Y546573D01*
X268257Y546584D01*
X268341Y546752D01*
X268426Y546919D01*
X268430Y546932D01*
X268436Y546944D01*
X268485Y547127D01*
X268536Y547306D01*
X268537Y547320D01*
X268541Y547333D01*
X268568Y547664D01*
X268568Y548016D01*
X271395Y550843D01*
X278120Y557568D01*
X280350Y559798D01*
X280355Y559805D01*
X280362Y559810D01*
X280483Y559960D01*
X280605Y560109D01*
X280609Y560117D01*
X280615Y560124D01*
X280702Y560293D01*
X280793Y560465D01*
X280796Y560474D01*
X280800Y560481D01*
X280853Y560665D01*
X280908Y560851D01*
X280909Y560860D01*
X280912Y560868D01*
X280927Y561059D01*
X280945Y561252D01*
X280944Y561261D01*
X280944Y561270D01*
X280922Y561459D01*
X280901Y561652D01*
X280899Y561661D01*
X280898Y561669D01*
X280838Y561851D01*
X280780Y562036D01*
X280775Y562044D01*
X280773Y562052D01*
X280678Y562221D01*
X280585Y562388D01*
X280579Y562395D01*
X280575Y562403D01*
X280449Y562549D01*
X280324Y562695D01*
X280317Y562701D01*
X280312Y562708D01*
X280160Y562825D01*
X280009Y562945D01*
X280001Y562949D01*
X279994Y562954D01*
X279821Y563040D01*
X279650Y563127D01*
X279641Y563130D01*
X279633Y563134D01*
X279447Y563184D01*
X279262Y563235D01*
X279253Y563236D01*
X279244Y563238D01*
X278913Y563265D01*
X265581Y563265D01*
X265638Y563980D01*
X265634Y564009D01*
X265639Y564037D01*
X265622Y564106D01*
X265614Y564178D01*
X265600Y564202D01*
X265593Y564230D01*
X265550Y564288D01*
X265515Y564350D01*
X265492Y564367D01*
X265475Y564390D01*
X265413Y564427D01*
X265356Y564470D01*
X265328Y564477D01*
X265304Y564492D01*
X265204Y564508D01*
X265163Y564519D01*
X265153Y564517D01*
X265140Y564519D01*
X246140Y564519D01*
X246064Y564504D01*
X245986Y564495D01*
X245967Y564484D01*
X245945Y564480D01*
X245881Y564436D01*
X245813Y564397D01*
X245797Y564378D01*
X245781Y564367D01*
X245757Y564329D01*
X245707Y564269D01*
X236207Y547769D01*
X236198Y547742D01*
X236182Y547718D01*
X236167Y547648D01*
X236144Y547580D01*
X236147Y547552D01*
X236141Y547524D01*
X236155Y547454D01*
X236160Y547382D01*
X236173Y547357D01*
X236179Y547329D01*
X236219Y547269D01*
X236252Y547206D01*
X236274Y547188D01*
X236290Y547164D01*
X236373Y547106D01*
X236405Y547079D01*
X236416Y547076D01*
X236427Y547069D01*
X237054Y546772D01*
X215897Y510127D01*
X215834Y509986D01*
X215764Y509849D01*
X215751Y509803D01*
X215731Y509760D01*
X215697Y509610D01*
X215655Y509461D01*
X215652Y509414D01*
X215641Y509368D01*
X215637Y509213D01*
X215626Y509060D01*
X215632Y509013D01*
X215630Y508965D01*
X215657Y508814D01*
X215676Y508660D01*
X215691Y508615D01*
X215699Y508568D01*
X215755Y508425D01*
X215804Y508279D01*
X215827Y508237D01*
X215845Y508193D01*
X215927Y508063D01*
X216004Y507929D01*
X216036Y507894D01*
X216061Y507854D01*
X216168Y507743D01*
X216270Y507627D01*
X216308Y507598D01*
X216341Y507564D01*
X216368Y507545D01*
X217383Y506544D01*
X217384Y506543D01*
X217386Y506542D01*
X217640Y506329D01*
X218319Y505852D01*
X218327Y505836D01*
X218347Y505778D01*
X218418Y505657D01*
X218482Y505532D01*
X218520Y505483D01*
X218551Y505431D01*
X218593Y505381D01*
X218598Y505374D01*
X218619Y505352D01*
X218680Y505280D01*
X218731Y505216D01*
X218749Y505201D01*
X218767Y505179D01*
X218785Y505161D01*
X218832Y505124D01*
X218873Y505080D01*
X218986Y505000D01*
X219038Y504955D01*
X219048Y504950D01*
X219099Y504909D01*
X219152Y504881D01*
X219201Y504847D01*
X219330Y504788D01*
X219456Y504723D01*
X219513Y504706D01*
X219514Y504706D01*
X219518Y504701D01*
X219536Y504687D01*
X219551Y504670D01*
X219694Y504563D01*
X219834Y504452D01*
X219854Y504441D01*
X219873Y504427D01*
X220034Y504350D01*
X220193Y504269D01*
X220215Y504263D01*
X220236Y504253D01*
X220409Y504209D01*
X220581Y504161D01*
X220604Y504160D01*
X220626Y504154D01*
X220803Y504145D01*
X220982Y504132D01*
X221005Y504135D01*
X221028Y504134D01*
X221204Y504160D01*
X221382Y504182D01*
X221404Y504190D01*
X221426Y504193D01*
X221594Y504254D01*
X221763Y504311D01*
X221783Y504322D01*
X221805Y504330D01*
X221958Y504423D01*
X222112Y504512D01*
X222132Y504528D01*
X222149Y504539D01*
X222209Y504594D01*
X222365Y504726D01*
X223811Y506172D01*
X226042Y507096D01*
X228456Y507096D01*
X228794Y506956D01*
X228811Y506951D01*
X228827Y506943D01*
X229003Y506893D01*
X229179Y506840D01*
X229197Y506838D01*
X229214Y506833D01*
X229397Y506819D01*
X229580Y506802D01*
X229598Y506804D01*
X229615Y506802D01*
X229797Y506824D01*
X229980Y506843D01*
X229997Y506849D01*
X230015Y506851D01*
X230189Y506909D01*
X230365Y506963D01*
X230380Y506972D01*
X230397Y506977D01*
X230557Y507069D01*
X230718Y507156D01*
X230731Y507168D01*
X230747Y507177D01*
X230886Y507298D01*
X231026Y507416D01*
X231037Y507429D01*
X231051Y507441D01*
X231162Y507586D01*
X231277Y507730D01*
X231285Y507746D01*
X231296Y507760D01*
X231448Y508056D01*
X231629Y508493D01*
X233336Y510200D01*
X235566Y511124D01*
X237981Y511124D01*
X240211Y510200D01*
X241918Y508493D01*
X242844Y506258D01*
X242846Y506254D01*
X242847Y506250D01*
X242943Y506074D01*
X243034Y505903D01*
X243037Y505900D01*
X243039Y505896D01*
X243165Y505745D01*
X243291Y505593D01*
X243294Y505590D01*
X243297Y505587D01*
X243450Y505464D01*
X243603Y505339D01*
X243607Y505337D01*
X243611Y505334D01*
X243785Y505244D01*
X243960Y505152D01*
X243964Y505151D01*
X243968Y505149D01*
X244157Y505094D01*
X244346Y505039D01*
X244351Y505039D01*
X244355Y505037D01*
X244553Y505021D01*
X244747Y505004D01*
X244752Y505005D01*
X244756Y505005D01*
X244954Y505028D01*
X245147Y505050D01*
X245152Y505051D01*
X245156Y505051D01*
X245345Y505113D01*
X245531Y505173D01*
X245535Y505175D01*
X245539Y505176D01*
X245711Y505274D01*
X245882Y505369D01*
X245886Y505372D01*
X245889Y505374D01*
X246038Y505502D01*
X246188Y505631D01*
X246191Y505634D01*
X246194Y505637D01*
X246314Y505792D01*
X246436Y505948D01*
X246438Y505952D01*
X246441Y505955D01*
X246528Y506130D01*
X246617Y506308D01*
X246618Y506312D01*
X246620Y506316D01*
X246672Y506509D01*
X246723Y506696D01*
X246724Y506700D01*
X246725Y506705D01*
X246734Y506821D01*
X248091Y508178D01*
X260986Y508178D01*
X262325Y506838D01*
X262325Y494944D01*
X261209Y493827D01*
X261198Y493814D01*
X261184Y493802D01*
X261070Y493658D01*
X260954Y493516D01*
X260945Y493500D01*
X260934Y493486D01*
X260851Y493322D01*
X260765Y493160D01*
X260760Y493143D01*
X260752Y493127D01*
X260703Y492950D01*
X260650Y492774D01*
X260649Y492757D01*
X260644Y492739D01*
X260631Y492556D01*
X260614Y492373D01*
X260616Y492356D01*
X260615Y492338D01*
X260638Y492156D01*
X260657Y491973D01*
X260663Y491956D01*
X260665Y491938D01*
X260723Y491765D01*
X260779Y491589D01*
X260788Y491574D01*
X260793Y491557D01*
X260885Y491398D01*
X260974Y491237D01*
X260985Y491223D01*
X260994Y491208D01*
X261209Y490955D01*
X262325Y489838D01*
X262325Y477944D01*
X260986Y476604D01*
X260103Y476604D01*
X260085Y476603D01*
X260068Y476604D01*
X259885Y476583D01*
X259703Y476564D01*
X259686Y476559D01*
X259668Y476557D01*
X259493Y476500D01*
X259318Y476446D01*
X259302Y476438D01*
X259285Y476432D01*
X259125Y476342D01*
X258964Y476255D01*
X258950Y476243D01*
X258934Y476234D01*
X258795Y476114D01*
X258654Y475997D01*
X258643Y475983D01*
X258630Y475971D01*
X258517Y475826D01*
X258402Y475683D01*
X258394Y475667D01*
X258383Y475653D01*
X258301Y475488D01*
X258217Y475326D01*
X258212Y475309D01*
X258204Y475293D01*
X258156Y475115D01*
X258105Y474939D01*
X258104Y474921D01*
X258099Y474904D01*
X258072Y474573D01*
X258072Y473361D01*
X258074Y473343D01*
X258072Y473325D01*
X258094Y473143D01*
X258112Y472960D01*
X258117Y472943D01*
X258119Y472925D01*
X258176Y472751D01*
X258230Y472575D01*
X258239Y472560D01*
X258244Y472543D01*
X258334Y472382D01*
X258422Y472221D01*
X258433Y472208D01*
X258442Y472192D01*
X258562Y472053D01*
X258680Y471912D01*
X258693Y471901D01*
X258705Y471887D01*
X258850Y471775D01*
X258993Y471660D01*
X259009Y471651D01*
X259023Y471640D01*
X259188Y471558D01*
X259351Y471474D01*
X259368Y471469D01*
X259384Y471461D01*
X259562Y471413D01*
X259738Y471363D01*
X259755Y471361D01*
X259773Y471357D01*
X260103Y471329D01*
X266735Y471329D01*
X268075Y469990D01*
X268075Y459968D01*
X266735Y458628D01*
X237295Y458628D01*
X235956Y459968D01*
X235956Y468027D01*
X235954Y468045D01*
X235955Y468062D01*
X235934Y468244D01*
X235916Y468427D01*
X235910Y468444D01*
X235908Y468462D01*
X235852Y468636D01*
X235797Y468812D01*
X235789Y468828D01*
X235783Y468845D01*
X235693Y469005D01*
X235606Y469166D01*
X235594Y469180D01*
X235586Y469196D01*
X235465Y469335D01*
X235348Y469476D01*
X235334Y469487D01*
X235322Y469500D01*
X235177Y469613D01*
X235034Y469728D01*
X235018Y469736D01*
X235004Y469747D01*
X234839Y469829D01*
X234677Y469913D01*
X234660Y469918D01*
X234644Y469926D01*
X234466Y469974D01*
X234290Y470025D01*
X234272Y470026D01*
X234255Y470031D01*
X233924Y470058D01*
X213627Y470058D01*
X213596Y470055D01*
X213565Y470057D01*
X213395Y470035D01*
X213226Y470018D01*
X213197Y470009D01*
X213166Y470005D01*
X212850Y469903D01*
X211971Y469539D01*
X211876Y469526D01*
X211718Y469510D01*
X211677Y469498D01*
X211635Y469491D01*
X211562Y469466D01*
X210120Y469153D01*
X210118Y469152D01*
X210116Y469152D01*
X209799Y469055D01*
X209029Y468748D01*
X209012Y468750D01*
X208953Y468764D01*
X208812Y468771D01*
X208671Y468787D01*
X208611Y468781D01*
X208551Y468784D01*
X208485Y468776D01*
X208476Y468776D01*
X208442Y468770D01*
X208352Y468758D01*
X208270Y468751D01*
X208249Y468744D01*
X208222Y468741D01*
X208197Y468735D01*
X208139Y468717D01*
X208079Y468706D01*
X207950Y468655D01*
X207884Y468636D01*
X207875Y468631D01*
X207814Y468612D01*
X207761Y468582D01*
X207704Y468560D01*
X207586Y468483D01*
X207463Y468415D01*
X207454Y468407D01*
X206631Y468367D01*
X206629Y468367D01*
X206627Y468367D01*
X206298Y468323D01*
X205488Y468147D01*
X205470Y468152D01*
X205414Y468177D01*
X205277Y468206D01*
X205141Y468244D01*
X205080Y468249D01*
X205020Y468262D01*
X204955Y468264D01*
X204947Y468266D01*
X204916Y468265D01*
X204823Y468268D01*
X204740Y468275D01*
X204717Y468272D01*
X204689Y468273D01*
X204663Y468272D01*
X204604Y468263D01*
X204545Y468262D01*
X204409Y468234D01*
X204340Y468225D01*
X204330Y468222D01*
X204265Y468212D01*
X204209Y468192D01*
X204151Y468179D01*
X204020Y468123D01*
X203886Y468075D01*
X203878Y468070D01*
X203060Y468166D01*
X203058Y468166D01*
X203056Y468167D01*
X202724Y468178D01*
X201896Y468138D01*
X201881Y468145D01*
X201830Y468178D01*
X201699Y468230D01*
X201571Y468290D01*
X201512Y468305D01*
X201456Y468327D01*
X201391Y468340D01*
X201382Y468343D01*
X201350Y468349D01*
X201259Y468367D01*
X201180Y468386D01*
X201158Y468387D01*
X201131Y468393D01*
X201106Y468396D01*
X201045Y468397D01*
X200985Y468406D01*
X200846Y468400D01*
X200777Y468403D01*
X200767Y468402D01*
X200703Y468403D01*
X200643Y468392D01*
X200582Y468389D01*
X200446Y468356D01*
X200307Y468331D01*
X200296Y468326D01*
X199505Y468556D01*
X199503Y468556D01*
X199501Y468557D01*
X199176Y468622D01*
X198352Y468719D01*
X198338Y468729D01*
X198293Y468770D01*
X198172Y468843D01*
X198056Y468924D01*
X198001Y468947D01*
X197949Y468979D01*
X197887Y469002D01*
X197879Y469007D01*
X197848Y469017D01*
X197762Y469050D01*
X197686Y469083D01*
X197665Y469087D01*
X197639Y469097D01*
X197615Y469104D01*
X197555Y469115D01*
X197497Y469134D01*
X197360Y469151D01*
X197292Y469166D01*
X197282Y469166D01*
X197219Y469177D01*
X197158Y469176D01*
X197098Y469184D01*
X196957Y469173D01*
X196816Y469171D01*
X196805Y469169D01*
X196062Y469525D01*
X196060Y469526D01*
X196059Y469527D01*
X195749Y469645D01*
X194517Y470002D01*
X194344Y470034D01*
X194172Y470071D01*
X194146Y470071D01*
X194121Y470076D01*
X193946Y470073D01*
X193770Y470075D01*
X193744Y470070D01*
X193718Y470069D01*
X193547Y470032D01*
X193374Y469999D01*
X193350Y469989D01*
X193325Y469984D01*
X193164Y469913D01*
X193001Y469847D01*
X192980Y469833D01*
X192956Y469822D01*
X192812Y469722D01*
X192666Y469624D01*
X192648Y469606D01*
X192626Y469591D01*
X192505Y469464D01*
X192381Y469340D01*
X192365Y469316D01*
X192349Y469300D01*
X192304Y469229D01*
X192192Y469067D01*
X187797Y461455D01*
X187740Y461329D01*
X187676Y461208D01*
X187658Y461146D01*
X187631Y461088D01*
X187601Y460954D01*
X187561Y460822D01*
X187556Y460758D01*
X187541Y460695D01*
X187537Y460558D01*
X187536Y460541D01*
X187456Y460495D01*
X187405Y460450D01*
X187347Y460412D01*
X187253Y460318D01*
X187153Y460231D01*
X187111Y460176D01*
X187062Y460128D01*
X186960Y459980D01*
X186908Y459912D01*
X186892Y459882D01*
X186873Y459855D01*
X169932Y430511D01*
X169324Y430931D01*
X169297Y430942D01*
X169275Y430961D01*
X169206Y430981D01*
X169141Y431009D01*
X169112Y431009D01*
X169084Y431017D01*
X169013Y431009D01*
X168942Y431010D01*
X168915Y430998D01*
X168886Y430995D01*
X168824Y430960D01*
X168759Y430932D01*
X168738Y430912D01*
X168713Y430897D01*
X168650Y430820D01*
X168620Y430790D01*
X168616Y430780D01*
X168607Y430769D01*
X159107Y414269D01*
X159083Y414196D01*
X159052Y414126D01*
X159052Y414102D01*
X159044Y414080D01*
X159051Y414004D01*
X159050Y413927D01*
X159059Y413903D01*
X159060Y413882D01*
X159081Y413843D01*
X159100Y413791D01*
X159101Y413785D01*
X159103Y413783D01*
X159107Y413771D01*
X168607Y397271D01*
X168626Y397249D01*
X168639Y397223D01*
X168692Y397175D01*
X168739Y397122D01*
X168765Y397109D01*
X168787Y397090D01*
X168854Y397067D01*
X168918Y397036D01*
X168947Y397035D01*
X168974Y397025D01*
X169046Y397030D01*
X169117Y397027D01*
X169144Y397037D01*
X169173Y397039D01*
X169263Y397081D01*
X169303Y397096D01*
X169311Y397103D01*
X169324Y397109D01*
X169932Y397529D01*
X191308Y360505D01*
X191399Y360377D01*
X191485Y360246D01*
X191516Y360214D01*
X191542Y360178D01*
X191657Y360071D01*
X191768Y359959D01*
X191805Y359934D01*
X191837Y359904D01*
X191971Y359821D01*
X192101Y359733D01*
X192142Y359716D01*
X192180Y359693D01*
X192328Y359638D01*
X192473Y359578D01*
X192516Y359569D01*
X192558Y359554D01*
X192714Y359530D01*
X192868Y359499D01*
X192912Y359499D01*
X192956Y359492D01*
X193113Y359499D01*
G37*
G36*
X417822Y264784D02*
X417822Y264784D01*
X417913Y264783D01*
X418022Y264804D01*
X418132Y264815D01*
X418219Y264841D01*
X418309Y264858D01*
X418411Y264900D01*
X418517Y264933D01*
X418597Y264976D01*
X418681Y265011D01*
X418774Y265072D01*
X418871Y265125D01*
X418941Y265183D01*
X419017Y265233D01*
X419095Y265312D01*
X419180Y265382D01*
X419237Y265453D01*
X419302Y265518D01*
X419380Y265631D01*
X419433Y265696D01*
X419455Y265738D01*
X419491Y265790D01*
X449865Y318402D01*
X449932Y318549D01*
X450004Y318695D01*
X450014Y318733D01*
X450031Y318769D01*
X450067Y318927D01*
X450109Y319083D01*
X450112Y319123D01*
X450121Y319161D01*
X450125Y319323D01*
X450136Y319485D01*
X450131Y319524D01*
X450132Y319564D01*
X450104Y319723D01*
X450083Y319884D01*
X450070Y319921D01*
X450063Y319960D01*
X450005Y320111D01*
X449952Y320265D01*
X449932Y320299D01*
X449918Y320336D01*
X449830Y320472D01*
X449748Y320612D01*
X449720Y320646D01*
X449701Y320675D01*
X449640Y320738D01*
X449532Y320864D01*
X448891Y321496D01*
X448889Y321497D01*
X448888Y321498D01*
X448633Y321711D01*
X447955Y322188D01*
X447947Y322203D01*
X447927Y322261D01*
X447856Y322383D01*
X447792Y322509D01*
X447755Y322556D01*
X447724Y322608D01*
X447681Y322658D01*
X447676Y322666D01*
X447654Y322689D01*
X447593Y322760D01*
X447542Y322824D01*
X447526Y322839D01*
X447508Y322860D01*
X447490Y322877D01*
X447442Y322915D01*
X447401Y322960D01*
X447288Y323041D01*
X447235Y323085D01*
X447226Y323090D01*
X447176Y323130D01*
X447123Y323158D01*
X447073Y323193D01*
X446944Y323251D01*
X446819Y323316D01*
X446808Y323320D01*
X446325Y323987D01*
X446323Y323988D01*
X446322Y323990D01*
X446106Y324242D01*
X445515Y324824D01*
X445510Y324840D01*
X445500Y324900D01*
X445450Y325032D01*
X445407Y325167D01*
X445378Y325220D01*
X445357Y325277D01*
X445322Y325333D01*
X445319Y325341D01*
X445301Y325368D01*
X445253Y325447D01*
X445213Y325519D01*
X445199Y325536D01*
X445184Y325560D01*
X445170Y325581D01*
X445129Y325626D01*
X445096Y325676D01*
X444998Y325774D01*
X444953Y325827D01*
X444945Y325833D01*
X444902Y325882D01*
X444854Y325918D01*
X444811Y325961D01*
X444694Y326039D01*
X444581Y326124D01*
X444571Y326129D01*
X444203Y326867D01*
X444202Y326868D01*
X444202Y326870D01*
X444030Y327154D01*
X443543Y327825D01*
X443541Y327842D01*
X443541Y327902D01*
X443513Y328041D01*
X443493Y328181D01*
X443473Y328238D01*
X443461Y328297D01*
X443436Y328359D01*
X443434Y328368D01*
X443421Y328398D01*
X443387Y328484D01*
X443359Y328561D01*
X443348Y328580D01*
X443338Y328605D01*
X443327Y328628D01*
X443294Y328680D01*
X443270Y328735D01*
X443189Y328848D01*
X443154Y328907D01*
X443147Y328915D01*
X443113Y328969D01*
X443071Y329013D01*
X443035Y329063D01*
X442933Y329159D01*
X442836Y329261D01*
X442826Y329268D01*
X442585Y330056D01*
X442584Y330058D01*
X442584Y330060D01*
X442461Y330368D01*
X442091Y331110D01*
X442092Y331128D01*
X442102Y331188D01*
X442097Y331329D01*
X442101Y331470D01*
X442090Y331530D01*
X442088Y331591D01*
X442074Y331655D01*
X442074Y331663D01*
X442066Y331694D01*
X442046Y331785D01*
X442032Y331866D01*
X442023Y331887D01*
X442017Y331915D01*
X442010Y331939D01*
X441987Y331994D01*
X441972Y332053D01*
X441910Y332178D01*
X441886Y332242D01*
X441880Y332251D01*
X441855Y332310D01*
X441821Y332360D01*
X441795Y332414D01*
X441708Y332527D01*
X441629Y332644D01*
X441622Y332651D01*
X441514Y333469D01*
X441514Y333470D01*
X441513Y333472D01*
X441443Y333796D01*
X441201Y334590D01*
X441204Y334607D01*
X441223Y334664D01*
X441242Y334804D01*
X441269Y334943D01*
X441268Y335003D01*
X441276Y335063D01*
X441273Y335129D01*
X441274Y335138D01*
X441271Y335171D01*
X441266Y335263D01*
X441266Y335345D01*
X441261Y335367D01*
X441260Y335394D01*
X441257Y335419D01*
X441243Y335478D01*
X441237Y335539D01*
X441198Y335672D01*
X441184Y335739D01*
X441180Y335749D01*
X441165Y335811D01*
X441140Y335867D01*
X441122Y335925D01*
X441056Y336049D01*
X440997Y336177D01*
X440991Y336187D01*
X441019Y337011D01*
X441019Y337012D01*
X441019Y337014D01*
X441003Y337346D01*
X440894Y338168D01*
X440901Y338185D01*
X440930Y338239D01*
X440971Y338374D01*
X441020Y338505D01*
X441030Y338566D01*
X441048Y338625D01*
X441055Y338689D01*
X441057Y338697D01*
X441059Y338727D01*
X441070Y338820D01*
X441083Y338902D01*
X441082Y338926D01*
X441086Y338954D01*
X441086Y338980D01*
X441082Y339039D01*
X441087Y339098D01*
X441070Y339236D01*
X441067Y339305D01*
X441064Y339316D01*
X441060Y339381D01*
X441044Y339439D01*
X441037Y339498D01*
X440992Y339633D01*
X440955Y339770D01*
X440950Y339778D01*
X441114Y340586D01*
X441114Y340588D01*
X441115Y340589D01*
X441153Y340919D01*
X441172Y341482D01*
X441169Y341534D01*
X441173Y341587D01*
X441156Y341735D01*
X441146Y341883D01*
X441132Y341934D01*
X441126Y341987D01*
X441080Y342128D01*
X441041Y342272D01*
X441018Y342319D01*
X441001Y342369D01*
X440928Y342499D01*
X440862Y342632D01*
X440829Y342674D01*
X440803Y342720D01*
X440706Y342833D01*
X440615Y342950D01*
X440575Y342985D01*
X440540Y343025D01*
X440423Y343116D01*
X440310Y343213D01*
X440264Y343239D01*
X440222Y343272D01*
X440089Y343338D01*
X439959Y343411D01*
X439909Y343427D01*
X439862Y343451D01*
X439717Y343490D01*
X439576Y343536D01*
X439524Y343542D01*
X439473Y343555D01*
X439248Y343574D01*
X439176Y343582D01*
X439161Y343581D01*
X439142Y343582D01*
X438451Y343582D01*
X436221Y344506D01*
X434514Y346214D01*
X433590Y348444D01*
X433590Y350858D01*
X434514Y353089D01*
X436221Y354796D01*
X438451Y355720D01*
X440866Y355720D01*
X443096Y354796D01*
X443835Y354057D01*
X443856Y354040D01*
X443873Y354020D01*
X444011Y353913D01*
X444147Y353802D01*
X444170Y353789D01*
X444191Y353773D01*
X444348Y353695D01*
X444502Y353613D01*
X444528Y353606D01*
X444552Y353594D01*
X444721Y353548D01*
X444888Y353498D01*
X444915Y353496D01*
X444941Y353489D01*
X445271Y353462D01*
X446315Y353462D01*
X446432Y353474D01*
X446550Y353476D01*
X446632Y353494D01*
X446715Y353502D01*
X446828Y353536D01*
X446943Y353562D01*
X447020Y353595D01*
X447100Y353620D01*
X447204Y353676D01*
X447312Y353724D01*
X447380Y353772D01*
X447454Y353812D01*
X447545Y353887D01*
X447641Y353955D01*
X447711Y354025D01*
X447764Y354069D01*
X447806Y354122D01*
X447868Y354185D01*
X447885Y354192D01*
X447944Y354207D01*
X448071Y354268D01*
X448202Y354321D01*
X448253Y354355D01*
X448307Y354381D01*
X448361Y354420D01*
X448369Y354424D01*
X448395Y354445D01*
X448469Y354499D01*
X448538Y354544D01*
X448553Y354560D01*
X448575Y354576D01*
X448595Y354592D01*
X448637Y354636D01*
X448684Y354674D01*
X448774Y354780D01*
X448822Y354829D01*
X448828Y354837D01*
X448873Y354884D01*
X448905Y354935D01*
X448944Y354981D01*
X449012Y355105D01*
X449088Y355224D01*
X449092Y355235D01*
X449797Y355662D01*
X449798Y355663D01*
X449800Y355664D01*
X450068Y355859D01*
X450697Y356399D01*
X450714Y356403D01*
X450774Y356408D01*
X450910Y356447D01*
X451048Y356478D01*
X451103Y356503D01*
X451160Y356519D01*
X451220Y356549D01*
X451229Y356552D01*
X451259Y356569D01*
X451341Y356609D01*
X451416Y356643D01*
X451433Y356655D01*
X451457Y356667D01*
X451479Y356680D01*
X451528Y356717D01*
X451582Y356747D01*
X451688Y356837D01*
X451744Y356877D01*
X451750Y356884D01*
X451801Y356922D01*
X451842Y356968D01*
X451889Y357007D01*
X451976Y357117D01*
X452070Y357222D01*
X452076Y357233D01*
X452842Y357538D01*
X452843Y357539D01*
X452845Y357539D01*
X453142Y357687D01*
X453851Y358117D01*
X453869Y358118D01*
X453929Y358113D01*
X454070Y358129D01*
X454211Y358137D01*
X454269Y358153D01*
X454329Y358160D01*
X454392Y358179D01*
X454401Y358180D01*
X454432Y358191D01*
X454521Y358218D01*
X454600Y358239D01*
X454620Y358249D01*
X454646Y358257D01*
X454670Y358266D01*
X454724Y358294D01*
X454781Y358314D01*
X454900Y358385D01*
X454962Y358416D01*
X454970Y358422D01*
X455027Y358452D01*
X455075Y358490D01*
X455127Y358521D01*
X455231Y358615D01*
X455341Y358704D01*
X455348Y358712D01*
X456154Y358887D01*
X456156Y358888D01*
X456157Y358888D01*
X456475Y358985D01*
X457507Y359396D01*
X457588Y359439D01*
X457675Y359472D01*
X457767Y359531D01*
X457864Y359582D01*
X457936Y359640D01*
X458014Y359689D01*
X458093Y359765D01*
X458178Y359834D01*
X458237Y359905D01*
X458303Y359969D01*
X458366Y360059D01*
X458436Y360143D01*
X458480Y360224D01*
X458532Y360300D01*
X458576Y360401D01*
X458628Y360497D01*
X458655Y360585D01*
X458691Y360670D01*
X458714Y360777D01*
X458746Y360882D01*
X458755Y360974D01*
X458774Y361064D01*
X458775Y361174D01*
X458786Y361282D01*
X458777Y361374D01*
X458778Y361467D01*
X458757Y361574D01*
X458746Y361683D01*
X458719Y361771D01*
X458702Y361862D01*
X458660Y361963D01*
X458628Y362068D01*
X458584Y362149D01*
X458549Y362235D01*
X458489Y362326D01*
X458437Y362422D01*
X458378Y362493D01*
X458327Y362570D01*
X458249Y362647D01*
X458179Y362732D01*
X458107Y362789D01*
X458042Y362855D01*
X457951Y362915D01*
X457866Y362984D01*
X457784Y363027D01*
X457707Y363078D01*
X457605Y363119D01*
X457508Y363170D01*
X457495Y363174D01*
X452155Y370057D01*
X452052Y370166D01*
X451955Y370279D01*
X451914Y370311D01*
X451878Y370349D01*
X451756Y370435D01*
X451638Y370528D01*
X451592Y370551D01*
X451549Y370581D01*
X451412Y370641D01*
X451278Y370708D01*
X451228Y370722D01*
X451181Y370743D01*
X451034Y370775D01*
X450890Y370815D01*
X450838Y370818D01*
X450787Y370829D01*
X450638Y370832D01*
X450488Y370842D01*
X450437Y370836D01*
X450385Y370836D01*
X450238Y370809D01*
X450089Y370790D01*
X450033Y370772D01*
X449989Y370764D01*
X449910Y370732D01*
X449773Y370689D01*
X448013Y369960D01*
X447304Y369960D01*
X447277Y369957D01*
X447250Y369959D01*
X447077Y369937D01*
X446903Y369920D01*
X446878Y369912D01*
X446851Y369908D01*
X446686Y369853D01*
X446620Y369833D01*
X438623Y369833D01*
X438592Y369829D01*
X438561Y369832D01*
X438392Y369809D01*
X438223Y369793D01*
X438193Y369783D01*
X438162Y369779D01*
X437846Y369678D01*
X437507Y369538D01*
X422979Y369538D01*
X422957Y369535D01*
X422935Y369537D01*
X422757Y369515D01*
X422578Y369498D01*
X422557Y369491D01*
X422535Y369488D01*
X422364Y369432D01*
X422193Y369379D01*
X422174Y369369D01*
X422153Y369362D01*
X421997Y369273D01*
X421839Y369188D01*
X421822Y369173D01*
X421803Y369162D01*
X421667Y369044D01*
X421530Y368930D01*
X421516Y368913D01*
X421499Y368898D01*
X421390Y368755D01*
X421278Y368616D01*
X421268Y368596D01*
X421254Y368579D01*
X421102Y368284D01*
X420432Y366665D01*
X420354Y366565D01*
X420243Y366429D01*
X420231Y366406D01*
X420214Y366385D01*
X420136Y366228D01*
X420055Y366074D01*
X420047Y366048D01*
X420035Y366024D01*
X419989Y365854D01*
X419940Y365688D01*
X419938Y365661D01*
X419931Y365635D01*
X419903Y365305D01*
X419903Y353745D01*
X419091Y351784D01*
X418982Y351675D01*
X418965Y351654D01*
X418944Y351637D01*
X418837Y351499D01*
X418727Y351363D01*
X418714Y351340D01*
X418698Y351318D01*
X418620Y351161D01*
X418538Y351007D01*
X418530Y350982D01*
X418518Y350958D01*
X418473Y350788D01*
X418423Y350622D01*
X418421Y350595D01*
X418414Y350569D01*
X418387Y350238D01*
X418387Y344890D01*
X417744Y344248D01*
X417739Y344241D01*
X417732Y344235D01*
X417611Y344086D01*
X417489Y343937D01*
X417485Y343929D01*
X417480Y343922D01*
X417391Y343751D01*
X417301Y343581D01*
X417298Y343572D01*
X417294Y343564D01*
X417241Y343380D01*
X417186Y343195D01*
X417185Y343186D01*
X417183Y343177D01*
X417167Y342986D01*
X417150Y342794D01*
X417151Y342785D01*
X417150Y342776D01*
X417172Y342587D01*
X417193Y342394D01*
X417196Y342385D01*
X417197Y342376D01*
X417256Y342194D01*
X417314Y342010D01*
X417319Y342002D01*
X417322Y341994D01*
X417416Y341827D01*
X417509Y341658D01*
X417515Y341651D01*
X417519Y341643D01*
X417645Y341498D01*
X417770Y341351D01*
X417777Y341345D01*
X417783Y341338D01*
X417933Y341221D01*
X418086Y341101D01*
X418094Y341097D01*
X418101Y341091D01*
X418271Y341007D01*
X418445Y340919D01*
X418453Y340916D01*
X418461Y340912D01*
X418647Y340862D01*
X418833Y340811D01*
X418841Y340810D01*
X418850Y340808D01*
X419181Y340780D01*
X420222Y340780D01*
X421562Y339441D01*
X421562Y322465D01*
X421493Y322327D01*
X421411Y322172D01*
X421403Y322147D01*
X421391Y322123D01*
X421346Y321954D01*
X421296Y321787D01*
X421294Y321760D01*
X421287Y321734D01*
X421260Y321403D01*
X421260Y299770D01*
X420448Y297809D01*
X410216Y287577D01*
X408726Y286960D01*
X408255Y286765D01*
X398671Y286765D01*
X398640Y286762D01*
X398608Y286764D01*
X398439Y286742D01*
X398270Y286725D01*
X398240Y286716D01*
X398209Y286712D01*
X397893Y286611D01*
X396495Y286031D01*
X394080Y286031D01*
X392682Y286611D01*
X392652Y286620D01*
X392624Y286634D01*
X392459Y286678D01*
X392296Y286727D01*
X392265Y286730D01*
X392235Y286738D01*
X391904Y286765D01*
X387035Y286765D01*
X385074Y287577D01*
X369288Y303363D01*
X368476Y305324D01*
X368476Y307753D01*
X368474Y307771D01*
X368476Y307788D01*
X368454Y307971D01*
X368436Y308153D01*
X368431Y308170D01*
X368429Y308188D01*
X368372Y308363D01*
X368318Y308538D01*
X368309Y308554D01*
X368304Y308571D01*
X368214Y308731D01*
X368126Y308892D01*
X368115Y308906D01*
X368106Y308922D01*
X367986Y309061D01*
X367868Y309202D01*
X367855Y309213D01*
X367843Y309226D01*
X367698Y309339D01*
X367555Y309454D01*
X367539Y309462D01*
X367525Y309473D01*
X367360Y309555D01*
X367197Y309639D01*
X367180Y309644D01*
X367164Y309652D01*
X366986Y309700D01*
X366810Y309751D01*
X366793Y309752D01*
X366775Y309757D01*
X366445Y309784D01*
X361434Y309784D01*
X361408Y309781D01*
X361381Y309783D01*
X361207Y309761D01*
X361034Y309744D01*
X361008Y309736D01*
X360982Y309733D01*
X360816Y309677D01*
X360649Y309626D01*
X360625Y309613D01*
X360600Y309605D01*
X360448Y309517D01*
X360295Y309434D01*
X360274Y309417D01*
X360251Y309404D01*
X359998Y309189D01*
X358141Y307332D01*
X356993Y307332D01*
X356966Y307329D01*
X356940Y307331D01*
X356766Y307309D01*
X356592Y307292D01*
X356567Y307284D01*
X356540Y307281D01*
X356374Y307225D01*
X356207Y307174D01*
X356184Y307161D01*
X356158Y307153D01*
X356007Y307065D01*
X355853Y306982D01*
X355833Y306965D01*
X355810Y306952D01*
X355557Y306737D01*
X345128Y296309D01*
X343167Y295497D01*
X322558Y295497D01*
X320597Y296309D01*
X310168Y306737D01*
X310148Y306754D01*
X310130Y306774D01*
X309992Y306881D01*
X309857Y306992D01*
X309833Y307005D01*
X309812Y307021D01*
X309655Y307099D01*
X309501Y307181D01*
X309476Y307188D01*
X309452Y307200D01*
X309282Y307246D01*
X309115Y307296D01*
X309089Y307298D01*
X309063Y307305D01*
X308732Y307332D01*
X303384Y307332D01*
X302268Y308449D01*
X302254Y308460D01*
X302242Y308473D01*
X302098Y308587D01*
X301956Y308704D01*
X301940Y308712D01*
X301926Y308723D01*
X301762Y308806D01*
X301600Y308892D01*
X301583Y308897D01*
X301567Y308905D01*
X301390Y308955D01*
X301214Y309007D01*
X301197Y309009D01*
X301179Y309013D01*
X300996Y309027D01*
X300814Y309043D01*
X300796Y309041D01*
X300778Y309043D01*
X300596Y309020D01*
X300413Y309000D01*
X300396Y308995D01*
X300379Y308992D01*
X300205Y308934D01*
X300029Y308878D01*
X300014Y308870D01*
X299997Y308864D01*
X299838Y308773D01*
X299677Y308684D01*
X299663Y308672D01*
X299648Y308663D01*
X299395Y308449D01*
X298278Y307332D01*
X286384Y307332D01*
X285800Y307916D01*
X285790Y307924D01*
X285781Y307935D01*
X285634Y308052D01*
X285489Y308171D01*
X285477Y308177D01*
X285466Y308186D01*
X285299Y308272D01*
X285133Y308360D01*
X285120Y308364D01*
X285108Y308370D01*
X284928Y308421D01*
X284747Y308474D01*
X284734Y308476D01*
X284721Y308479D01*
X284535Y308494D01*
X284346Y308511D01*
X284333Y308509D01*
X284319Y308510D01*
X284135Y308488D01*
X283946Y308467D01*
X283933Y308463D01*
X283920Y308462D01*
X283743Y308403D01*
X283562Y308346D01*
X283550Y308339D01*
X283537Y308335D01*
X283375Y308243D01*
X283210Y308151D01*
X283199Y308142D01*
X283188Y308136D01*
X283046Y308013D01*
X282903Y307891D01*
X282894Y307880D01*
X282884Y307871D01*
X282770Y307723D01*
X282653Y307575D01*
X282647Y307563D01*
X282639Y307552D01*
X282487Y307257D01*
X281071Y303837D01*
X277061Y299827D01*
X271821Y297657D01*
X266151Y297657D01*
X260911Y299827D01*
X256901Y303837D01*
X254731Y309076D01*
X254731Y314747D01*
X256901Y319986D01*
X260911Y323996D01*
X266151Y326166D01*
X269172Y326166D01*
X269181Y326167D01*
X269190Y326167D01*
X269383Y326188D01*
X269572Y326206D01*
X269581Y326209D01*
X269590Y326210D01*
X269774Y326268D01*
X269957Y326325D01*
X269965Y326329D01*
X269974Y326331D01*
X270142Y326425D01*
X270311Y326516D01*
X270318Y326522D01*
X270326Y326526D01*
X270473Y326651D01*
X270621Y326774D01*
X270626Y326781D01*
X270633Y326787D01*
X270753Y326938D01*
X270873Y327088D01*
X270877Y327096D01*
X270883Y327103D01*
X270970Y327275D01*
X271058Y327445D01*
X271061Y327454D01*
X271065Y327462D01*
X271117Y327648D01*
X271170Y327832D01*
X271171Y327841D01*
X271173Y327850D01*
X271187Y328042D01*
X271203Y328233D01*
X271202Y328242D01*
X271202Y328251D01*
X271178Y328441D01*
X271156Y328633D01*
X271153Y328642D01*
X271152Y328650D01*
X271091Y328833D01*
X271031Y329016D01*
X271026Y329024D01*
X271024Y329032D01*
X270928Y329199D01*
X270833Y329367D01*
X270827Y329373D01*
X270823Y329381D01*
X270608Y329634D01*
X242812Y357430D01*
X242812Y378645D01*
X242811Y378653D01*
X242812Y378662D01*
X242791Y378856D01*
X242772Y379045D01*
X242770Y379054D01*
X242769Y379063D01*
X242711Y379247D01*
X242654Y379430D01*
X242650Y379438D01*
X242647Y379446D01*
X242555Y379614D01*
X242462Y379784D01*
X242457Y379791D01*
X242452Y379799D01*
X242328Y379946D01*
X242205Y380093D01*
X242198Y380099D01*
X242192Y380106D01*
X242040Y380226D01*
X241891Y380346D01*
X241883Y380350D01*
X241876Y380355D01*
X241703Y380443D01*
X241534Y380531D01*
X241525Y380534D01*
X241517Y380538D01*
X241331Y380590D01*
X241147Y380643D01*
X241138Y380643D01*
X241129Y380646D01*
X240936Y380660D01*
X240745Y380675D01*
X240737Y380674D01*
X240728Y380675D01*
X240535Y380651D01*
X240346Y380629D01*
X240337Y380626D01*
X240328Y380625D01*
X240145Y380563D01*
X239963Y380504D01*
X239955Y380499D01*
X239947Y380496D01*
X239780Y380400D01*
X239612Y380306D01*
X239605Y380300D01*
X239598Y380296D01*
X239345Y380081D01*
X231341Y372078D01*
X231324Y372057D01*
X231304Y372039D01*
X231197Y371901D01*
X231086Y371766D01*
X231074Y371742D01*
X231057Y371721D01*
X230979Y371564D01*
X230898Y371410D01*
X230890Y371385D01*
X230878Y371361D01*
X230833Y371191D01*
X230783Y371024D01*
X230781Y370998D01*
X230774Y370972D01*
X230746Y370641D01*
X230746Y328338D01*
X230270Y327187D01*
X230261Y327158D01*
X230247Y327130D01*
X230203Y326965D01*
X230153Y326802D01*
X230150Y326771D01*
X230142Y326741D01*
X230115Y326410D01*
X230115Y325609D01*
X229191Y323378D01*
X227484Y321671D01*
X225254Y320747D01*
X222839Y320747D01*
X220609Y321671D01*
X219032Y323248D01*
X219013Y323264D01*
X218996Y323283D01*
X218857Y323391D01*
X218721Y323503D01*
X218698Y323515D01*
X218678Y323531D01*
X218520Y323609D01*
X218365Y323691D01*
X218341Y323699D01*
X218318Y323710D01*
X218148Y323756D01*
X217979Y323806D01*
X217954Y323808D01*
X217929Y323815D01*
X217754Y323827D01*
X217578Y323843D01*
X217553Y323840D01*
X217527Y323841D01*
X217354Y323818D01*
X217178Y323799D01*
X217153Y323791D01*
X217128Y323788D01*
X216962Y323731D01*
X216794Y323678D01*
X216772Y323665D01*
X216747Y323657D01*
X216458Y323494D01*
X216020Y323198D01*
X216019Y323197D01*
X216017Y323196D01*
X215759Y322988D01*
X215116Y322377D01*
X214999Y322241D01*
X214877Y322106D01*
X214867Y322088D01*
X214853Y322072D01*
X214765Y321914D01*
X214673Y321759D01*
X214666Y321739D01*
X214656Y321721D01*
X214600Y321549D01*
X214540Y321379D01*
X214538Y321358D01*
X214531Y321338D01*
X214510Y321159D01*
X214486Y320980D01*
X214487Y320959D01*
X214485Y320938D01*
X214500Y320758D01*
X214511Y320578D01*
X214516Y320558D01*
X214518Y320537D01*
X214568Y320364D01*
X214615Y320189D01*
X214624Y320168D01*
X214630Y320150D01*
X214666Y320081D01*
X214756Y319889D01*
X245989Y265790D01*
X246042Y265717D01*
X246087Y265637D01*
X246160Y265553D01*
X246224Y265463D01*
X246291Y265401D01*
X246350Y265332D01*
X246438Y265265D01*
X246519Y265189D01*
X246597Y265141D01*
X246668Y265086D01*
X246768Y265036D01*
X246862Y264978D01*
X246947Y264947D01*
X247029Y264906D01*
X247136Y264878D01*
X247240Y264839D01*
X247330Y264825D01*
X247418Y264802D01*
X247555Y264791D01*
X247638Y264778D01*
X247685Y264780D01*
X247749Y264775D01*
X417731Y264775D01*
X417822Y264784D01*
G37*
G36*
X324346Y374272D02*
X324346Y374272D01*
X324373Y374270D01*
X324547Y374292D01*
X324721Y374310D01*
X324746Y374317D01*
X324773Y374321D01*
X324938Y374376D01*
X325105Y374428D01*
X325129Y374441D01*
X325154Y374449D01*
X325306Y374536D01*
X325459Y374620D01*
X325480Y374637D01*
X325503Y374650D01*
X325756Y374865D01*
X341860Y390969D01*
X341877Y390989D01*
X341898Y391007D01*
X342005Y391145D01*
X342115Y391280D01*
X342128Y391304D01*
X342144Y391325D01*
X342222Y391482D01*
X342304Y391636D01*
X342312Y391661D01*
X342324Y391686D01*
X342369Y391855D01*
X342419Y392022D01*
X342421Y392048D01*
X342428Y392074D01*
X342455Y392405D01*
X342455Y418541D01*
X351071Y427157D01*
X353354Y429439D01*
X353371Y429460D01*
X353391Y429478D01*
X353498Y429616D01*
X353609Y429751D01*
X353621Y429775D01*
X353638Y429796D01*
X353716Y429952D01*
X353798Y430107D01*
X353805Y430132D01*
X353817Y430156D01*
X353863Y430325D01*
X353912Y430493D01*
X353915Y430519D01*
X353922Y430545D01*
X353949Y430876D01*
X353949Y435884D01*
X355288Y437224D01*
X374046Y437224D01*
X374067Y437218D01*
X374092Y437206D01*
X374260Y437160D01*
X374428Y437110D01*
X374454Y437108D01*
X374480Y437101D01*
X374811Y437074D01*
X380359Y437074D01*
X381946Y436417D01*
X393176Y425187D01*
X393186Y425179D01*
X393195Y425168D01*
X393342Y425051D01*
X393487Y424932D01*
X393499Y424926D01*
X393510Y424917D01*
X393678Y424831D01*
X393843Y424743D01*
X393856Y424740D01*
X393868Y424733D01*
X394050Y424682D01*
X394229Y424629D01*
X394242Y424627D01*
X394255Y424624D01*
X394442Y424609D01*
X394630Y424592D01*
X394644Y424594D01*
X394657Y424593D01*
X394842Y424615D01*
X395030Y424636D01*
X395043Y424640D01*
X395057Y424641D01*
X395234Y424700D01*
X395414Y424757D01*
X395426Y424764D01*
X395439Y424768D01*
X395602Y424861D01*
X395766Y424952D01*
X395777Y424961D01*
X395788Y424967D01*
X395930Y425091D01*
X396073Y425212D01*
X396082Y425223D01*
X396092Y425232D01*
X396206Y425380D01*
X396323Y425528D01*
X396329Y425540D01*
X396337Y425551D01*
X396344Y425564D01*
X398160Y427380D01*
X398219Y427412D01*
X398230Y427421D01*
X398241Y427427D01*
X398384Y427548D01*
X398530Y427668D01*
X398538Y427679D01*
X398548Y427687D01*
X398665Y427835D01*
X398783Y427981D01*
X398790Y427993D01*
X398798Y428003D01*
X398883Y428171D01*
X398971Y428338D01*
X398974Y428350D01*
X398980Y428362D01*
X399031Y428544D01*
X399084Y428724D01*
X399085Y428737D01*
X399088Y428750D01*
X399102Y428939D01*
X399118Y429125D01*
X399117Y429138D01*
X399118Y429152D01*
X399094Y429339D01*
X399073Y429525D01*
X399069Y429538D01*
X399067Y429551D01*
X399007Y429729D01*
X398950Y429908D01*
X398943Y429920D01*
X398939Y429933D01*
X398845Y430096D01*
X398753Y430260D01*
X398745Y430270D01*
X398738Y430282D01*
X398523Y430535D01*
X385983Y443075D01*
X384482Y444576D01*
X384084Y445538D01*
X384078Y445550D01*
X384073Y445563D01*
X383983Y445727D01*
X383894Y445893D01*
X383885Y445903D01*
X383879Y445915D01*
X383758Y446057D01*
X383637Y446203D01*
X383627Y446212D01*
X383618Y446222D01*
X383471Y446338D01*
X383325Y446457D01*
X383313Y446463D01*
X383302Y446471D01*
X383134Y446557D01*
X382968Y446644D01*
X382955Y446648D01*
X382943Y446654D01*
X382761Y446704D01*
X382582Y446757D01*
X382568Y446758D01*
X382555Y446762D01*
X382367Y446776D01*
X382181Y446792D01*
X382167Y446790D01*
X382154Y446791D01*
X381965Y446767D01*
X381781Y446747D01*
X381768Y446742D01*
X381754Y446741D01*
X381575Y446681D01*
X381397Y446623D01*
X381385Y446617D01*
X381373Y446613D01*
X381209Y446519D01*
X381046Y446427D01*
X381036Y446418D01*
X381024Y446412D01*
X380771Y446197D01*
X377073Y442499D01*
X375827Y442499D01*
X375801Y442496D01*
X375774Y442498D01*
X375600Y442476D01*
X375426Y442459D01*
X375401Y442451D01*
X375374Y442447D01*
X375209Y442392D01*
X375042Y442340D01*
X375018Y442328D01*
X374993Y442319D01*
X374841Y442232D01*
X374688Y442149D01*
X374667Y442132D01*
X374644Y442118D01*
X374391Y441904D01*
X373820Y441333D01*
X355288Y441333D01*
X353949Y442672D01*
X353949Y462068D01*
X353994Y462153D01*
X354000Y462175D01*
X354010Y462195D01*
X354058Y462368D01*
X354109Y462539D01*
X354111Y462561D01*
X354117Y462583D01*
X354129Y462762D01*
X354145Y462940D01*
X354143Y462962D01*
X354144Y462985D01*
X354121Y463162D01*
X354102Y463340D01*
X354095Y463362D01*
X354092Y463384D01*
X353991Y463700D01*
X353663Y464492D01*
X353663Y464782D01*
X353661Y464800D01*
X353662Y464818D01*
X353641Y465000D01*
X353623Y465183D01*
X353617Y465200D01*
X353615Y465217D01*
X353558Y465392D01*
X353504Y465568D01*
X353496Y465583D01*
X353490Y465600D01*
X353400Y465760D01*
X353313Y465922D01*
X353301Y465935D01*
X353293Y465951D01*
X353172Y466090D01*
X353055Y466231D01*
X353041Y466242D01*
X353029Y466256D01*
X352884Y466368D01*
X352741Y466483D01*
X352725Y466491D01*
X352711Y466502D01*
X352546Y466584D01*
X352384Y466669D01*
X352367Y466674D01*
X352351Y466682D01*
X352173Y466729D01*
X351997Y466780D01*
X351979Y466782D01*
X351962Y466786D01*
X351631Y466813D01*
X351534Y466813D01*
X350195Y468153D01*
X350195Y480047D01*
X351534Y481387D01*
X361449Y481387D01*
X361467Y481389D01*
X361485Y481387D01*
X361667Y481408D01*
X361850Y481427D01*
X361867Y481432D01*
X361885Y481434D01*
X362059Y481491D01*
X362235Y481545D01*
X362250Y481553D01*
X362267Y481559D01*
X362428Y481649D01*
X362589Y481737D01*
X362602Y481748D01*
X362618Y481757D01*
X362757Y481877D01*
X362898Y481994D01*
X362909Y482008D01*
X362923Y482020D01*
X363035Y482165D01*
X363150Y482308D01*
X363159Y482324D01*
X363170Y482338D01*
X363252Y482503D01*
X363336Y482665D01*
X363341Y482682D01*
X363349Y482698D01*
X363397Y482877D01*
X363447Y483052D01*
X363449Y483070D01*
X363453Y483087D01*
X363481Y483418D01*
X363481Y495258D01*
X363478Y495285D01*
X363480Y495312D01*
X363458Y495486D01*
X363441Y495659D01*
X363433Y495684D01*
X363429Y495711D01*
X363374Y495877D01*
X363322Y496044D01*
X363310Y496067D01*
X363301Y496093D01*
X363214Y496244D01*
X363131Y496398D01*
X363114Y496418D01*
X363100Y496442D01*
X362886Y496695D01*
X360748Y498832D01*
X360728Y498849D01*
X360710Y498869D01*
X360572Y498976D01*
X360437Y499087D01*
X360413Y499099D01*
X360392Y499116D01*
X360235Y499194D01*
X360081Y499276D01*
X360056Y499283D01*
X360032Y499295D01*
X359862Y499341D01*
X359695Y499390D01*
X359669Y499393D01*
X359643Y499400D01*
X359312Y499427D01*
X348697Y499427D01*
X348679Y499425D01*
X348662Y499426D01*
X348479Y499405D01*
X348297Y499387D01*
X348279Y499382D01*
X348262Y499380D01*
X348087Y499323D01*
X347912Y499269D01*
X347896Y499260D01*
X347879Y499255D01*
X347719Y499164D01*
X347558Y499077D01*
X347544Y499066D01*
X347528Y499057D01*
X347389Y498937D01*
X347248Y498819D01*
X347237Y498805D01*
X347224Y498794D01*
X347111Y498649D01*
X346996Y498505D01*
X346988Y498490D01*
X346977Y498476D01*
X346895Y498311D01*
X346810Y498148D01*
X346806Y498131D01*
X346798Y498115D01*
X346750Y497937D01*
X346699Y497761D01*
X346698Y497743D01*
X346693Y497726D01*
X346666Y497396D01*
X346666Y485367D01*
X345326Y484027D01*
X334294Y484027D01*
X334268Y484024D01*
X334241Y484026D01*
X334067Y484004D01*
X333893Y483987D01*
X333868Y483979D01*
X333841Y483976D01*
X333675Y483920D01*
X333509Y483869D01*
X333485Y483856D01*
X333460Y483848D01*
X333308Y483760D01*
X333155Y483677D01*
X333134Y483660D01*
X333111Y483647D01*
X332858Y483432D01*
X330020Y480594D01*
X328059Y479782D01*
X318305Y479782D01*
X318279Y479779D01*
X318252Y479781D01*
X318078Y479759D01*
X317905Y479742D01*
X317879Y479734D01*
X317853Y479731D01*
X317687Y479675D01*
X317520Y479624D01*
X317496Y479611D01*
X317471Y479603D01*
X317319Y479515D01*
X317166Y479432D01*
X317145Y479415D01*
X317122Y479402D01*
X316869Y479187D01*
X312443Y474761D01*
X312426Y474741D01*
X312406Y474723D01*
X312299Y474585D01*
X312188Y474450D01*
X312176Y474426D01*
X312159Y474405D01*
X312081Y474248D01*
X312000Y474094D01*
X311992Y474069D01*
X311980Y474045D01*
X311935Y473875D01*
X311885Y473708D01*
X311882Y473682D01*
X311875Y473656D01*
X311848Y473325D01*
X311848Y472419D01*
X311851Y472392D01*
X311849Y472365D01*
X311871Y472192D01*
X311888Y472018D01*
X311896Y471993D01*
X311899Y471966D01*
X311955Y471800D01*
X312006Y471633D01*
X312019Y471610D01*
X312028Y471584D01*
X312115Y471433D01*
X312198Y471279D01*
X312215Y471259D01*
X312229Y471235D01*
X312443Y470982D01*
X314750Y468676D01*
X315333Y467268D01*
X315348Y467240D01*
X315358Y467211D01*
X315443Y467063D01*
X315524Y466913D01*
X315543Y466889D01*
X315559Y466862D01*
X315774Y466609D01*
X316757Y465626D01*
X317093Y465289D01*
X318017Y463059D01*
X318017Y460644D01*
X317093Y458414D01*
X315386Y456707D01*
X313899Y456091D01*
X313879Y456080D01*
X313858Y456073D01*
X313702Y455985D01*
X313544Y455900D01*
X313527Y455886D01*
X313507Y455875D01*
X313372Y455758D01*
X313234Y455644D01*
X313220Y455627D01*
X313203Y455612D01*
X313093Y455471D01*
X312980Y455331D01*
X312970Y455312D01*
X312956Y455294D01*
X312876Y455133D01*
X312793Y454975D01*
X312787Y454954D01*
X312777Y454933D01*
X312730Y454760D01*
X312680Y454588D01*
X312678Y454566D01*
X312672Y454545D01*
X312645Y454214D01*
X312645Y446615D01*
X311305Y445275D01*
X306971Y445275D01*
X306945Y445272D01*
X306918Y445274D01*
X306744Y445252D01*
X306571Y445235D01*
X306545Y445227D01*
X306519Y445224D01*
X306353Y445168D01*
X306186Y445117D01*
X306162Y445104D01*
X306137Y445096D01*
X305985Y445008D01*
X305832Y444925D01*
X305811Y444908D01*
X305788Y444895D01*
X305535Y444680D01*
X299982Y439127D01*
X299942Y439127D01*
X299924Y439125D01*
X299907Y439127D01*
X299724Y439105D01*
X299542Y439087D01*
X299525Y439082D01*
X299507Y439080D01*
X299332Y439023D01*
X299157Y438969D01*
X299141Y438960D01*
X299124Y438955D01*
X298964Y438865D01*
X298803Y438777D01*
X298789Y438766D01*
X298773Y438757D01*
X298634Y438637D01*
X298493Y438519D01*
X298482Y438506D01*
X298469Y438494D01*
X298356Y438349D01*
X298241Y438206D01*
X298233Y438190D01*
X298222Y438176D01*
X298139Y438010D01*
X298056Y437848D01*
X298051Y437831D01*
X298043Y437815D01*
X297995Y437637D01*
X297944Y437461D01*
X297943Y437444D01*
X297938Y437426D01*
X297911Y437096D01*
X297911Y430876D01*
X297912Y430867D01*
X297911Y430858D01*
X297932Y430666D01*
X297951Y430475D01*
X297954Y430467D01*
X297954Y430458D01*
X298012Y430276D01*
X298069Y430091D01*
X298073Y430083D01*
X298076Y430074D01*
X298169Y429906D01*
X298261Y429737D01*
X298266Y429730D01*
X298271Y429722D01*
X298396Y429575D01*
X298519Y429427D01*
X298526Y429422D01*
X298531Y429415D01*
X298682Y429296D01*
X298832Y429175D01*
X298840Y429171D01*
X298847Y429165D01*
X299020Y429077D01*
X299190Y428989D01*
X299198Y428987D01*
X299206Y428983D01*
X299393Y428931D01*
X299577Y428878D01*
X299585Y428877D01*
X299594Y428875D01*
X299787Y428861D01*
X299978Y428845D01*
X299987Y428846D01*
X299996Y428846D01*
X300188Y428870D01*
X300378Y428892D01*
X300386Y428895D01*
X300395Y428896D01*
X300578Y428957D01*
X300760Y429017D01*
X300768Y429021D01*
X300777Y429024D01*
X300944Y429120D01*
X301111Y429215D01*
X301118Y429221D01*
X301126Y429225D01*
X301379Y429440D01*
X306039Y434100D01*
X306056Y434121D01*
X306076Y434139D01*
X306183Y434276D01*
X306294Y434412D01*
X306307Y434436D01*
X306323Y434457D01*
X306401Y434613D01*
X306483Y434768D01*
X306490Y434793D01*
X306502Y434817D01*
X306548Y434986D01*
X306598Y435153D01*
X306600Y435180D01*
X306607Y435206D01*
X306634Y435537D01*
X306634Y439231D01*
X307974Y440570D01*
X323868Y440570D01*
X325223Y439215D01*
X325207Y439029D01*
X325207Y433336D01*
X323868Y431997D01*
X314837Y431997D01*
X314810Y431994D01*
X314783Y431996D01*
X314610Y431974D01*
X314436Y431957D01*
X314411Y431949D01*
X314384Y431946D01*
X314218Y431890D01*
X314051Y431839D01*
X314028Y431826D01*
X314002Y431817D01*
X313851Y431730D01*
X313697Y431647D01*
X313677Y431630D01*
X313653Y431616D01*
X313400Y431402D01*
X305226Y423227D01*
X305214Y423213D01*
X305201Y423202D01*
X305087Y423057D01*
X304971Y422915D01*
X304962Y422900D01*
X304951Y422886D01*
X304868Y422722D01*
X304782Y422560D01*
X304777Y422543D01*
X304769Y422527D01*
X304719Y422349D01*
X304667Y422174D01*
X304666Y422156D01*
X304661Y422139D01*
X304647Y421956D01*
X304631Y421773D01*
X304633Y421755D01*
X304631Y421737D01*
X304654Y421555D01*
X304674Y421373D01*
X304680Y421356D01*
X304682Y421338D01*
X304740Y421164D01*
X304796Y420989D01*
X304804Y420973D01*
X304810Y420956D01*
X304902Y420797D01*
X304991Y420636D01*
X305002Y420623D01*
X305011Y420607D01*
X305226Y420354D01*
X306770Y418810D01*
X308415Y417165D01*
X308436Y417148D01*
X308453Y417128D01*
X308591Y417021D01*
X308726Y416910D01*
X308750Y416898D01*
X308771Y416881D01*
X308928Y416803D01*
X309082Y416721D01*
X309108Y416714D01*
X309132Y416702D01*
X309301Y416656D01*
X309468Y416607D01*
X309495Y416604D01*
X309520Y416597D01*
X309851Y416570D01*
X323868Y416570D01*
X325207Y415231D01*
X325207Y409336D01*
X323868Y407997D01*
X323553Y407997D01*
X323544Y407996D01*
X323535Y407997D01*
X323343Y407976D01*
X323152Y407957D01*
X323143Y407954D01*
X323135Y407953D01*
X322952Y407896D01*
X322767Y407839D01*
X322759Y407834D01*
X322751Y407832D01*
X322582Y407739D01*
X322413Y407647D01*
X322406Y407641D01*
X322398Y407637D01*
X322251Y407512D01*
X322104Y407389D01*
X322098Y407382D01*
X322091Y407376D01*
X321972Y407225D01*
X321852Y407075D01*
X321847Y407067D01*
X321842Y407060D01*
X321755Y406889D01*
X321666Y406718D01*
X321664Y406710D01*
X321659Y406702D01*
X321608Y406516D01*
X321555Y406331D01*
X321554Y406322D01*
X321551Y406314D01*
X321537Y406119D01*
X321522Y405930D01*
X321523Y405921D01*
X321522Y405912D01*
X321546Y405719D01*
X321569Y405530D01*
X321571Y405522D01*
X321573Y405513D01*
X321634Y405330D01*
X321693Y405147D01*
X321698Y405139D01*
X321701Y405131D01*
X321796Y404965D01*
X321891Y404797D01*
X321897Y404790D01*
X321902Y404782D01*
X322116Y404529D01*
X322701Y403944D01*
X322701Y391050D01*
X321362Y389711D01*
X314149Y389711D01*
X314058Y389701D01*
X313966Y389702D01*
X313858Y389682D01*
X313749Y389671D01*
X313661Y389644D01*
X313571Y389626D01*
X313469Y389585D01*
X313364Y389553D01*
X313283Y389509D01*
X313198Y389474D01*
X313106Y389413D01*
X313010Y389361D01*
X312939Y389302D01*
X312863Y389251D01*
X312765Y389156D01*
X312700Y389103D01*
X312670Y389065D01*
X312624Y389021D01*
X308551Y384389D01*
X308461Y384264D01*
X308365Y384143D01*
X308344Y384100D01*
X308316Y384062D01*
X308253Y383921D01*
X308183Y383784D01*
X308170Y383738D01*
X308151Y383695D01*
X308117Y383545D01*
X308075Y383396D01*
X308072Y383348D01*
X308061Y383302D01*
X308057Y383148D01*
X308046Y382994D01*
X308052Y382947D01*
X308050Y382900D01*
X308077Y382748D01*
X308096Y382595D01*
X308111Y382550D01*
X308119Y382503D01*
X308175Y382359D01*
X308224Y382213D01*
X308248Y382172D01*
X308265Y382128D01*
X308348Y381998D01*
X308425Y381864D01*
X308460Y381823D01*
X308482Y381789D01*
X308542Y381727D01*
X308640Y381611D01*
X309151Y381100D01*
X310075Y378870D01*
X310075Y376301D01*
X310077Y376283D01*
X310075Y376265D01*
X310097Y376083D01*
X310115Y375900D01*
X310120Y375883D01*
X310122Y375866D01*
X310179Y375691D01*
X310233Y375515D01*
X310242Y375500D01*
X310247Y375483D01*
X310337Y375323D01*
X310425Y375161D01*
X310436Y375148D01*
X310445Y375132D01*
X310565Y374993D01*
X310683Y374852D01*
X310696Y374841D01*
X310708Y374827D01*
X310853Y374715D01*
X310996Y374600D01*
X311012Y374592D01*
X311026Y374581D01*
X311191Y374499D01*
X311354Y374414D01*
X311371Y374409D01*
X311387Y374401D01*
X311565Y374354D01*
X311741Y374303D01*
X311758Y374301D01*
X311776Y374297D01*
X312106Y374270D01*
X324320Y374270D01*
X324346Y374272D01*
G37*
%LPC*%
G36*
X197261Y392525D02*
X197261Y392525D01*
X193620Y394033D01*
X190833Y396820D01*
X189325Y400461D01*
X189325Y404671D01*
X189322Y404697D01*
X189324Y404724D01*
X189302Y404898D01*
X189285Y405071D01*
X189277Y405097D01*
X189273Y405123D01*
X189218Y405289D01*
X189166Y405456D01*
X189154Y405480D01*
X189145Y405505D01*
X189058Y405657D01*
X188975Y405810D01*
X188958Y405831D01*
X188944Y405854D01*
X188730Y406107D01*
X182693Y412143D01*
X181959Y413917D01*
X181959Y438709D01*
X182693Y440483D01*
X184337Y442126D01*
X184337Y442127D01*
X189579Y447369D01*
X189593Y447386D01*
X189610Y447401D01*
X189721Y447542D01*
X189834Y447681D01*
X189845Y447700D01*
X189859Y447718D01*
X189939Y447878D01*
X190023Y448036D01*
X190029Y448058D01*
X190039Y448078D01*
X190087Y448251D01*
X190138Y448422D01*
X190140Y448444D01*
X190146Y448466D01*
X190158Y448645D01*
X190174Y448823D01*
X190172Y448845D01*
X190173Y448868D01*
X190150Y449045D01*
X190131Y449223D01*
X190124Y449245D01*
X190121Y449267D01*
X190020Y449583D01*
X189325Y451261D01*
X189325Y455202D01*
X190509Y458062D01*
X190529Y458128D01*
X190557Y458191D01*
X190587Y458320D01*
X190626Y458447D01*
X190632Y458516D01*
X190648Y458583D01*
X190651Y458716D01*
X190653Y458738D01*
X190740Y458788D01*
X190796Y458836D01*
X190842Y458866D01*
X190898Y458923D01*
X190993Y459003D01*
X193620Y461630D01*
X197261Y463138D01*
X201202Y463138D01*
X201760Y462907D01*
X201786Y462899D01*
X201810Y462887D01*
X201978Y462841D01*
X202146Y462790D01*
X202172Y462788D01*
X202198Y462781D01*
X202373Y462769D01*
X202547Y462752D01*
X202573Y462755D01*
X202600Y462753D01*
X202719Y462768D01*
X209768Y462768D01*
X211558Y462027D01*
X211659Y461949D01*
X211794Y461838D01*
X211818Y461826D01*
X211839Y461809D01*
X211996Y461731D01*
X212150Y461650D01*
X212175Y461642D01*
X212199Y461630D01*
X212369Y461585D01*
X212536Y461535D01*
X212562Y461533D01*
X212588Y461526D01*
X212919Y461498D01*
X227483Y461498D01*
X228823Y460159D01*
X228823Y430719D01*
X227475Y429371D01*
X227464Y429357D01*
X227450Y429345D01*
X227336Y429201D01*
X227220Y429059D01*
X227212Y429043D01*
X227200Y429029D01*
X227117Y428865D01*
X227031Y428703D01*
X227026Y428686D01*
X227018Y428670D01*
X226969Y428493D01*
X226917Y428317D01*
X226915Y428300D01*
X226910Y428282D01*
X226897Y428099D01*
X226880Y427916D01*
X226882Y427899D01*
X226881Y427881D01*
X226904Y427699D01*
X226924Y427516D01*
X226929Y427499D01*
X226931Y427481D01*
X226990Y427308D01*
X227045Y427132D01*
X227054Y427117D01*
X227059Y427100D01*
X227151Y426941D01*
X227240Y426780D01*
X227251Y426766D01*
X227260Y426751D01*
X227475Y426498D01*
X228823Y425150D01*
X228823Y410714D01*
X227483Y409374D01*
X217461Y409374D01*
X216122Y410714D01*
X216122Y411715D01*
X216120Y411729D01*
X216121Y411742D01*
X216100Y411928D01*
X216082Y412116D01*
X216078Y412129D01*
X216076Y412142D01*
X216019Y412320D01*
X215963Y412501D01*
X215957Y412513D01*
X215953Y412525D01*
X215861Y412689D01*
X215772Y412855D01*
X215763Y412865D01*
X215757Y412877D01*
X215634Y413020D01*
X215514Y413164D01*
X215504Y413172D01*
X215495Y413183D01*
X215347Y413298D01*
X215200Y413416D01*
X215188Y413422D01*
X215178Y413431D01*
X215009Y413515D01*
X214843Y413602D01*
X214830Y413605D01*
X214818Y413612D01*
X214636Y413661D01*
X214456Y413713D01*
X214443Y413714D01*
X214430Y413718D01*
X214243Y413731D01*
X214055Y413746D01*
X214041Y413744D01*
X214028Y413745D01*
X213842Y413721D01*
X213655Y413699D01*
X213642Y413695D01*
X213629Y413693D01*
X213313Y413592D01*
X211960Y413031D01*
X209546Y413031D01*
X207194Y414005D01*
X207190Y414007D01*
X207186Y414009D01*
X206997Y414065D01*
X206809Y414122D01*
X206804Y414122D01*
X206800Y414124D01*
X206599Y414142D01*
X206408Y414160D01*
X206403Y414160D01*
X206399Y414160D01*
X206200Y414138D01*
X206007Y414118D01*
X206003Y414117D01*
X205999Y414117D01*
X205811Y414057D01*
X205623Y413999D01*
X205619Y413996D01*
X205615Y413995D01*
X205444Y413901D01*
X205270Y413805D01*
X205266Y413802D01*
X205262Y413800D01*
X205113Y413673D01*
X204962Y413546D01*
X204959Y413543D01*
X204955Y413540D01*
X204834Y413386D01*
X204711Y413231D01*
X204709Y413227D01*
X204706Y413224D01*
X204617Y413050D01*
X204527Y412873D01*
X204525Y412869D01*
X204523Y412865D01*
X204470Y412674D01*
X204417Y412486D01*
X204417Y412481D01*
X204415Y412477D01*
X204401Y412276D01*
X204386Y412084D01*
X204386Y412080D01*
X204386Y412075D01*
X204411Y411877D01*
X204434Y411685D01*
X204436Y411680D01*
X204436Y411676D01*
X204499Y411490D01*
X204561Y411302D01*
X204563Y411299D01*
X204565Y411294D01*
X204665Y411121D01*
X204760Y410953D01*
X204763Y410949D01*
X204766Y410945D01*
X204980Y410692D01*
X207630Y408043D01*
X209138Y404402D01*
X209138Y400461D01*
X207630Y396820D01*
X204843Y394033D01*
X201202Y392525D01*
X197261Y392525D01*
G37*
%LPD*%
G36*
X484485Y380219D02*
X484485Y380219D01*
X484558Y380219D01*
X484684Y380243D01*
X484812Y380258D01*
X484881Y380280D01*
X484954Y380294D01*
X485072Y380343D01*
X485195Y380383D01*
X485259Y380419D01*
X485326Y380446D01*
X485433Y380517D01*
X485545Y380581D01*
X485601Y380628D01*
X485662Y380669D01*
X485753Y380760D01*
X485850Y380844D01*
X485895Y380902D01*
X485947Y380953D01*
X486043Y381093D01*
X486097Y381162D01*
X486112Y381191D01*
X486136Y381226D01*
X495548Y397529D01*
X496156Y397109D01*
X496183Y397098D01*
X496205Y397079D01*
X496274Y397059D01*
X496339Y397031D01*
X496368Y397031D01*
X496396Y397023D01*
X496467Y397031D01*
X496538Y397031D01*
X496565Y397042D01*
X496594Y397045D01*
X496656Y397080D01*
X496721Y397108D01*
X496742Y397128D01*
X496767Y397143D01*
X496830Y397220D01*
X496860Y397250D01*
X496864Y397260D01*
X496873Y397271D01*
X506373Y413771D01*
X506383Y413803D01*
X506392Y413816D01*
X506396Y413840D01*
X506397Y413844D01*
X506428Y413914D01*
X506428Y413938D01*
X506436Y413960D01*
X506430Y414036D01*
X506431Y414113D01*
X506421Y414137D01*
X506420Y414158D01*
X506399Y414197D01*
X506373Y414269D01*
X496873Y430769D01*
X496854Y430791D01*
X496841Y430817D01*
X496788Y430865D01*
X496741Y430918D01*
X496715Y430931D01*
X496694Y430950D01*
X496626Y430973D01*
X496562Y431004D01*
X496533Y431006D01*
X496506Y431015D01*
X496434Y431010D01*
X496363Y431013D01*
X496336Y431003D01*
X496307Y431001D01*
X496217Y430959D01*
X496177Y430944D01*
X496169Y430937D01*
X496156Y430931D01*
X495548Y430511D01*
X483627Y451159D01*
X483584Y451218D01*
X483549Y451283D01*
X483467Y451381D01*
X483392Y451486D01*
X483339Y451536D01*
X483292Y451592D01*
X483192Y451672D01*
X483097Y451760D01*
X483035Y451798D01*
X482978Y451844D01*
X482864Y451903D01*
X482754Y451971D01*
X482686Y451996D01*
X482621Y452030D01*
X482497Y452065D01*
X482377Y452110D01*
X482304Y452121D01*
X482234Y452141D01*
X482105Y452152D01*
X481979Y452171D01*
X481906Y452168D01*
X481832Y452174D01*
X481705Y452159D01*
X481576Y452153D01*
X481505Y452136D01*
X481433Y452127D01*
X481311Y452087D01*
X481186Y452056D01*
X481119Y452025D01*
X481050Y452002D01*
X480938Y451939D01*
X480822Y451884D01*
X480763Y451840D01*
X480699Y451804D01*
X480602Y451720D01*
X480499Y451644D01*
X480450Y451589D01*
X480394Y451541D01*
X480316Y451440D01*
X480230Y451344D01*
X480192Y451281D01*
X480148Y451223D01*
X480091Y451108D01*
X480025Y450997D01*
X480001Y450928D01*
X479968Y450863D01*
X479935Y450738D01*
X479893Y450617D01*
X479883Y450545D01*
X479864Y450474D01*
X479850Y450304D01*
X479838Y450218D01*
X479840Y450185D01*
X479837Y450143D01*
X479837Y447936D01*
X479839Y447909D01*
X479837Y447883D01*
X479859Y447709D01*
X479877Y447535D01*
X479884Y447510D01*
X479888Y447483D01*
X479944Y447317D01*
X479995Y447151D01*
X480008Y447127D01*
X480016Y447102D01*
X480103Y446950D01*
X480187Y446796D01*
X480204Y446776D01*
X480217Y446753D01*
X480432Y446500D01*
X482345Y444586D01*
X482345Y423692D01*
X481006Y422352D01*
X476304Y422352D01*
X476287Y422350D01*
X476269Y422352D01*
X476087Y422331D01*
X475904Y422312D01*
X475887Y422307D01*
X475869Y422305D01*
X475695Y422248D01*
X475519Y422194D01*
X475503Y422186D01*
X475486Y422180D01*
X475326Y422090D01*
X475165Y422002D01*
X475151Y421991D01*
X475136Y421982D01*
X474996Y421862D01*
X474856Y421745D01*
X474844Y421731D01*
X474831Y421719D01*
X474718Y421574D01*
X474603Y421431D01*
X474595Y421415D01*
X474584Y421401D01*
X474502Y421236D01*
X474418Y421074D01*
X474413Y421057D01*
X474405Y421041D01*
X474357Y420862D01*
X474306Y420687D01*
X474305Y420669D01*
X474300Y420652D01*
X474273Y420321D01*
X474273Y419449D01*
X470090Y415266D01*
X470078Y415252D01*
X470065Y415240D01*
X469951Y415096D01*
X469835Y414954D01*
X469826Y414939D01*
X469815Y414924D01*
X469732Y414760D01*
X469646Y414599D01*
X469641Y414582D01*
X469633Y414566D01*
X469584Y414388D01*
X469531Y414213D01*
X469530Y414195D01*
X469525Y414178D01*
X469511Y413995D01*
X469495Y413812D01*
X469497Y413794D01*
X469495Y413776D01*
X469518Y413595D01*
X469538Y413411D01*
X469544Y413394D01*
X469546Y413377D01*
X469604Y413204D01*
X469660Y413028D01*
X469668Y413012D01*
X469674Y412995D01*
X469766Y412836D01*
X469855Y412675D01*
X469866Y412662D01*
X469875Y412646D01*
X470090Y412393D01*
X471131Y411352D01*
X474504Y407978D01*
X474504Y406957D01*
X474506Y406942D01*
X474505Y406927D01*
X474505Y406925D01*
X474505Y406921D01*
X474526Y406739D01*
X474544Y406556D01*
X474550Y406539D01*
X474552Y406522D01*
X474609Y406347D01*
X474663Y406171D01*
X474671Y406156D01*
X474677Y406139D01*
X474767Y405979D01*
X474854Y405817D01*
X474866Y405804D01*
X474874Y405788D01*
X474995Y405649D01*
X475112Y405508D01*
X475126Y405497D01*
X475138Y405483D01*
X475283Y405371D01*
X475426Y405256D01*
X475442Y405248D01*
X475456Y405237D01*
X475621Y405155D01*
X475783Y405070D01*
X475800Y405065D01*
X475816Y405057D01*
X475994Y405010D01*
X476170Y404959D01*
X476188Y404957D01*
X476205Y404953D01*
X476536Y404926D01*
X481006Y404926D01*
X482345Y403586D01*
X482345Y382242D01*
X482353Y382169D01*
X482351Y382096D01*
X482372Y381969D01*
X482385Y381841D01*
X482407Y381771D01*
X482419Y381699D01*
X482466Y381579D01*
X482503Y381456D01*
X482538Y381392D01*
X482565Y381324D01*
X482634Y381215D01*
X482695Y381102D01*
X482742Y381046D01*
X482781Y380984D01*
X482871Y380891D01*
X482953Y380793D01*
X483010Y380747D01*
X483061Y380694D01*
X483167Y380621D01*
X483267Y380541D01*
X483332Y380507D01*
X483392Y380465D01*
X483510Y380414D01*
X483624Y380355D01*
X483694Y380335D01*
X483762Y380306D01*
X483887Y380279D01*
X484011Y380244D01*
X484084Y380238D01*
X484155Y380223D01*
X484284Y380221D01*
X484412Y380211D01*
X484485Y380219D01*
G37*
G36*
X336350Y348014D02*
X336350Y348014D01*
X336368Y348013D01*
X336550Y348034D01*
X336733Y348052D01*
X336750Y348058D01*
X336767Y348060D01*
X336942Y348117D01*
X337118Y348171D01*
X337133Y348179D01*
X337150Y348185D01*
X337310Y348275D01*
X337472Y348362D01*
X337485Y348374D01*
X337501Y348382D01*
X337640Y348503D01*
X337781Y348620D01*
X337792Y348634D01*
X337806Y348646D01*
X337918Y348791D01*
X338033Y348934D01*
X338041Y348950D01*
X338052Y348964D01*
X338134Y349129D01*
X338219Y349291D01*
X338224Y349308D01*
X338232Y349324D01*
X338279Y349502D01*
X338330Y349678D01*
X338332Y349696D01*
X338336Y349713D01*
X338363Y350044D01*
X338363Y361903D01*
X339703Y363243D01*
X351138Y363243D01*
X351164Y363246D01*
X351191Y363244D01*
X351365Y363266D01*
X351538Y363283D01*
X351564Y363291D01*
X351591Y363294D01*
X351756Y363350D01*
X351923Y363401D01*
X351947Y363414D01*
X351972Y363422D01*
X352124Y363510D01*
X352277Y363593D01*
X352298Y363610D01*
X352321Y363623D01*
X352574Y363838D01*
X355492Y366756D01*
X355503Y366770D01*
X355517Y366781D01*
X355631Y366925D01*
X355747Y367068D01*
X355756Y367083D01*
X355767Y367097D01*
X355850Y367262D01*
X355936Y367423D01*
X355941Y367440D01*
X355949Y367456D01*
X355998Y367634D01*
X356051Y367809D01*
X356052Y367827D01*
X356057Y367844D01*
X356070Y368027D01*
X356087Y368210D01*
X356085Y368228D01*
X356086Y368246D01*
X356063Y368428D01*
X356044Y368610D01*
X356038Y368627D01*
X356036Y368645D01*
X355978Y368819D01*
X355922Y368994D01*
X355913Y369010D01*
X355908Y369027D01*
X355816Y369186D01*
X355727Y369347D01*
X355716Y369360D01*
X355707Y369376D01*
X355492Y369629D01*
X353949Y371172D01*
X353949Y377384D01*
X355288Y378724D01*
X373820Y378724D01*
X375159Y377384D01*
X375159Y371172D01*
X373820Y369833D01*
X370636Y369833D01*
X370614Y369830D01*
X370592Y369832D01*
X370415Y369810D01*
X370236Y369793D01*
X370214Y369786D01*
X370192Y369783D01*
X370022Y369727D01*
X369851Y369674D01*
X369831Y369664D01*
X369810Y369657D01*
X369654Y369568D01*
X369497Y369483D01*
X369480Y369468D01*
X369460Y369457D01*
X369325Y369339D01*
X369188Y369225D01*
X369174Y369208D01*
X369157Y369193D01*
X369048Y369051D01*
X368935Y368911D01*
X368925Y368891D01*
X368911Y368874D01*
X368760Y368579D01*
X368215Y367264D01*
X366715Y365763D01*
X361532Y360580D01*
X361515Y360560D01*
X361494Y360542D01*
X361387Y360404D01*
X361277Y360269D01*
X361264Y360245D01*
X361248Y360224D01*
X361170Y360067D01*
X361088Y359913D01*
X361080Y359888D01*
X361068Y359864D01*
X361023Y359694D01*
X360973Y359527D01*
X360971Y359501D01*
X360964Y359475D01*
X360937Y359144D01*
X360937Y355529D01*
X360938Y355520D01*
X360937Y355511D01*
X360958Y355317D01*
X360977Y355128D01*
X360979Y355119D01*
X360980Y355110D01*
X361039Y354925D01*
X361095Y354743D01*
X361099Y354735D01*
X361102Y354727D01*
X361195Y354557D01*
X361287Y354389D01*
X361292Y354382D01*
X361297Y354374D01*
X361421Y354227D01*
X361544Y354080D01*
X361551Y354074D01*
X361557Y354067D01*
X361709Y353948D01*
X361858Y353827D01*
X361866Y353823D01*
X361873Y353818D01*
X362046Y353730D01*
X362215Y353642D01*
X362224Y353639D01*
X362232Y353635D01*
X362418Y353583D01*
X362602Y353530D01*
X362611Y353530D01*
X362620Y353527D01*
X362813Y353513D01*
X363004Y353498D01*
X363012Y353499D01*
X363021Y353498D01*
X363214Y353522D01*
X363403Y353544D01*
X363412Y353547D01*
X363421Y353548D01*
X363604Y353610D01*
X363786Y353669D01*
X363794Y353674D01*
X363802Y353677D01*
X363969Y353773D01*
X364137Y353867D01*
X364144Y353873D01*
X364151Y353878D01*
X364404Y354092D01*
X383230Y372918D01*
X383247Y372939D01*
X383267Y372956D01*
X383374Y373094D01*
X383485Y373230D01*
X383498Y373253D01*
X383514Y373274D01*
X383592Y373431D01*
X383674Y373585D01*
X383681Y373611D01*
X383693Y373635D01*
X383739Y373804D01*
X383789Y373971D01*
X383791Y373998D01*
X383798Y374024D01*
X383825Y374354D01*
X383825Y382744D01*
X383824Y382757D01*
X383825Y382771D01*
X383804Y382957D01*
X383785Y383145D01*
X383781Y383157D01*
X383780Y383171D01*
X383722Y383350D01*
X383667Y383530D01*
X383661Y383541D01*
X383656Y383554D01*
X383565Y383718D01*
X383475Y383884D01*
X383467Y383894D01*
X383460Y383906D01*
X383337Y384049D01*
X383217Y384193D01*
X383207Y384201D01*
X383198Y384211D01*
X383050Y384328D01*
X382904Y384445D01*
X382892Y384451D01*
X382881Y384460D01*
X382713Y384544D01*
X382546Y384631D01*
X382534Y384634D01*
X382522Y384640D01*
X382340Y384690D01*
X382159Y384742D01*
X382146Y384743D01*
X382133Y384747D01*
X381947Y384760D01*
X381758Y384775D01*
X381745Y384773D01*
X381732Y384774D01*
X381546Y384750D01*
X381358Y384728D01*
X381346Y384724D01*
X381332Y384722D01*
X381016Y384621D01*
X380620Y384456D01*
X378205Y384456D01*
X377506Y384746D01*
X377485Y384752D01*
X377465Y384762D01*
X377292Y384811D01*
X377121Y384862D01*
X377099Y384864D01*
X377077Y384870D01*
X376898Y384884D01*
X376720Y384900D01*
X376698Y384898D01*
X376676Y384900D01*
X376497Y384877D01*
X376320Y384859D01*
X376298Y384852D01*
X376276Y384849D01*
X376107Y384792D01*
X375935Y384739D01*
X375916Y384728D01*
X375895Y384721D01*
X375740Y384632D01*
X375582Y384546D01*
X375565Y384531D01*
X375546Y384520D01*
X375293Y384306D01*
X373820Y382833D01*
X355288Y382833D01*
X355103Y383017D01*
X355090Y383029D01*
X355078Y383042D01*
X354934Y383156D01*
X354792Y383272D01*
X354776Y383281D01*
X354762Y383292D01*
X354599Y383375D01*
X354436Y383461D01*
X354419Y383466D01*
X354403Y383474D01*
X354227Y383523D01*
X354050Y383576D01*
X354033Y383578D01*
X354015Y383582D01*
X353832Y383596D01*
X353649Y383612D01*
X353632Y383610D01*
X353614Y383612D01*
X353432Y383589D01*
X353249Y383569D01*
X353232Y383564D01*
X353214Y383561D01*
X353040Y383503D01*
X352865Y383447D01*
X352850Y383439D01*
X352833Y383433D01*
X352673Y383341D01*
X352513Y383253D01*
X352499Y383241D01*
X352484Y383232D01*
X352231Y383017D01*
X330528Y361314D01*
X315181Y361314D01*
X315155Y361312D01*
X315128Y361314D01*
X314954Y361292D01*
X314781Y361274D01*
X314755Y361267D01*
X314729Y361263D01*
X314563Y361208D01*
X314396Y361156D01*
X314372Y361143D01*
X314347Y361135D01*
X314195Y361048D01*
X314042Y360964D01*
X314021Y360947D01*
X313998Y360934D01*
X313745Y360719D01*
X304506Y351480D01*
X304500Y351473D01*
X304493Y351467D01*
X304373Y351318D01*
X304251Y351169D01*
X304246Y351161D01*
X304241Y351154D01*
X304152Y350983D01*
X304062Y350813D01*
X304059Y350804D01*
X304055Y350796D01*
X304002Y350612D01*
X303947Y350427D01*
X303946Y350418D01*
X303944Y350409D01*
X303928Y350218D01*
X303911Y350026D01*
X303912Y350017D01*
X303911Y350008D01*
X303933Y349819D01*
X303954Y349626D01*
X303957Y349617D01*
X303958Y349608D01*
X304017Y349426D01*
X304076Y349242D01*
X304080Y349234D01*
X304083Y349226D01*
X304178Y349057D01*
X304271Y348890D01*
X304276Y348883D01*
X304281Y348875D01*
X304407Y348729D01*
X304531Y348583D01*
X304538Y348577D01*
X304544Y348570D01*
X304695Y348453D01*
X304847Y348333D01*
X304855Y348329D01*
X304862Y348323D01*
X305034Y348238D01*
X305206Y348151D01*
X305214Y348148D01*
X305222Y348144D01*
X305409Y348094D01*
X305594Y348043D01*
X305603Y348042D01*
X305611Y348040D01*
X305942Y348012D01*
X336332Y348012D01*
X336350Y348014D01*
G37*
G36*
X453131Y321480D02*
X453131Y321480D01*
X453203Y321480D01*
X453230Y321491D01*
X453259Y321494D01*
X453321Y321528D01*
X453387Y321555D01*
X453407Y321576D01*
X453433Y321590D01*
X453496Y321666D01*
X453526Y321696D01*
X453531Y321707D01*
X453539Y321718D01*
X472602Y354230D01*
X472611Y354258D01*
X472628Y354281D01*
X472643Y354351D01*
X472666Y354418D01*
X472664Y354447D01*
X472670Y354476D01*
X472657Y354546D01*
X472652Y354616D01*
X472639Y354642D01*
X472634Y354671D01*
X472594Y354730D01*
X472562Y354794D01*
X472539Y354812D01*
X472523Y354837D01*
X472442Y354894D01*
X472409Y354921D01*
X472399Y354925D01*
X472387Y354933D01*
X469582Y356280D01*
X469548Y356288D01*
X469505Y356309D01*
X466516Y357176D01*
X466481Y357179D01*
X466435Y357192D01*
X463344Y357555D01*
X463309Y357553D01*
X463261Y357558D01*
X460153Y357408D01*
X460119Y357399D01*
X460071Y357397D01*
X457029Y356737D01*
X456998Y356723D01*
X456950Y356713D01*
X454059Y355561D01*
X454030Y355542D01*
X453985Y355524D01*
X451323Y353912D01*
X451298Y353888D01*
X451256Y353863D01*
X448896Y351835D01*
X448874Y351808D01*
X448838Y351777D01*
X446843Y349387D01*
X446827Y349357D01*
X446796Y349320D01*
X445222Y346635D01*
X445210Y346602D01*
X445186Y346561D01*
X444824Y345614D01*
X444634Y345115D01*
X444633Y345115D01*
X444075Y343653D01*
X444069Y343620D01*
X444068Y343617D01*
X444067Y343614D01*
X444052Y343574D01*
X443435Y340524D01*
X443435Y340489D01*
X443425Y340442D01*
X443319Y337331D01*
X443325Y337297D01*
X443323Y337249D01*
X443730Y334163D01*
X443741Y334131D01*
X443747Y334083D01*
X444656Y331106D01*
X444673Y331076D01*
X444687Y331030D01*
X446073Y328243D01*
X446095Y328216D01*
X446116Y328173D01*
X447943Y325653D01*
X447968Y325629D01*
X447996Y325590D01*
X450213Y323405D01*
X450242Y323386D01*
X450276Y323352D01*
X452822Y321562D01*
X452848Y321550D01*
X452871Y321531D01*
X452939Y321510D01*
X453004Y321482D01*
X453033Y321482D01*
X453061Y321473D01*
X453131Y321480D01*
G37*
G36*
X206121Y470632D02*
X206121Y470632D01*
X206155Y470641D01*
X206203Y470643D01*
X209244Y471303D01*
X209276Y471317D01*
X209323Y471328D01*
X212215Y472479D01*
X212244Y472498D01*
X212288Y472516D01*
X214951Y474128D01*
X214976Y474152D01*
X215017Y474177D01*
X217378Y476205D01*
X217399Y476232D01*
X217436Y476264D01*
X219431Y478653D01*
X219447Y478683D01*
X219478Y478720D01*
X221052Y481405D01*
X221063Y481438D01*
X221088Y481479D01*
X222199Y484387D01*
X222204Y484421D01*
X222222Y484466D01*
X222839Y487516D01*
X222839Y487551D01*
X222848Y487598D01*
X222955Y490709D01*
X222949Y490743D01*
X222951Y490791D01*
X222544Y493877D01*
X222533Y493910D01*
X222527Y493957D01*
X221618Y496934D01*
X221601Y496964D01*
X221587Y497010D01*
X220200Y499797D01*
X220179Y499824D01*
X220158Y499867D01*
X218331Y502387D01*
X218306Y502411D01*
X218277Y502450D01*
X216061Y504635D01*
X216032Y504654D01*
X215998Y504688D01*
X213452Y506478D01*
X213426Y506490D01*
X213403Y506509D01*
X213335Y506530D01*
X213270Y506558D01*
X213241Y506558D01*
X213213Y506567D01*
X213142Y506560D01*
X213071Y506560D01*
X213044Y506549D01*
X213015Y506546D01*
X212953Y506512D01*
X212887Y506485D01*
X212867Y506464D01*
X212841Y506450D01*
X212777Y506374D01*
X212747Y506344D01*
X212743Y506333D01*
X212734Y506323D01*
X193672Y473810D01*
X193662Y473782D01*
X193646Y473759D01*
X193630Y473689D01*
X193607Y473622D01*
X193609Y473593D01*
X193603Y473564D01*
X193617Y473494D01*
X193622Y473424D01*
X193635Y473398D01*
X193640Y473369D01*
X193680Y473310D01*
X193712Y473246D01*
X193734Y473228D01*
X193751Y473203D01*
X193832Y473146D01*
X193864Y473119D01*
X193875Y473115D01*
X193886Y473107D01*
X196692Y471760D01*
X196726Y471752D01*
X196769Y471731D01*
X199758Y470864D01*
X199793Y470861D01*
X199839Y470848D01*
X202930Y470485D01*
X202965Y470488D01*
X203013Y470482D01*
X206121Y470632D01*
G37*
G36*
X462541Y470676D02*
X462541Y470676D01*
X462589Y470673D01*
X465653Y470976D01*
X465686Y470986D01*
X465734Y470990D01*
X468707Y471794D01*
X468738Y471809D01*
X468785Y471822D01*
X471585Y473104D01*
X471609Y473121D01*
X471636Y473131D01*
X471689Y473179D01*
X471746Y473221D01*
X471761Y473246D01*
X471782Y473265D01*
X471812Y473330D01*
X471848Y473391D01*
X471852Y473420D01*
X471864Y473447D01*
X471866Y473518D01*
X471876Y473588D01*
X471868Y473616D01*
X471869Y473645D01*
X471835Y473739D01*
X471824Y473780D01*
X471817Y473789D01*
X471813Y473802D01*
X453544Y506315D01*
X453525Y506337D01*
X453513Y506363D01*
X453461Y506411D01*
X453414Y506465D01*
X453388Y506478D01*
X453366Y506498D01*
X453300Y506521D01*
X453236Y506553D01*
X453206Y506555D01*
X453179Y506564D01*
X453108Y506560D01*
X453037Y506564D01*
X453010Y506554D01*
X452981Y506553D01*
X452890Y506511D01*
X452850Y506497D01*
X452842Y506489D01*
X452829Y506484D01*
X450278Y504758D01*
X450254Y504734D01*
X450214Y504707D01*
X447981Y502585D01*
X447962Y502557D01*
X447926Y502524D01*
X446074Y500064D01*
X446059Y500032D01*
X446030Y499994D01*
X444607Y497262D01*
X444598Y497229D01*
X444575Y497186D01*
X443622Y494258D01*
X443618Y494224D01*
X443603Y494178D01*
X443144Y491132D01*
X443146Y491098D01*
X443139Y491050D01*
X443188Y487971D01*
X443195Y487937D01*
X443196Y487889D01*
X443751Y484860D01*
X443764Y484827D01*
X443772Y484780D01*
X444819Y481883D01*
X444837Y481854D01*
X444853Y481808D01*
X446361Y479124D01*
X446384Y479097D01*
X446408Y479055D01*
X448338Y476655D01*
X448364Y476633D01*
X448394Y476596D01*
X450693Y474546D01*
X450723Y474529D01*
X450759Y474496D01*
X453364Y472853D01*
X453396Y472841D01*
X453437Y472815D01*
X456276Y471623D01*
X456310Y471616D01*
X456355Y471597D01*
X459352Y470889D01*
X459387Y470888D01*
X459433Y470877D01*
X462506Y470671D01*
X462541Y470676D01*
G37*
G36*
X211578Y323067D02*
X211578Y323067D01*
X211649Y323063D01*
X211677Y323073D01*
X211706Y323075D01*
X211796Y323116D01*
X211836Y323131D01*
X211845Y323138D01*
X211857Y323144D01*
X214408Y324869D01*
X214433Y324894D01*
X214473Y324921D01*
X216705Y327042D01*
X216725Y327071D01*
X216760Y327104D01*
X218613Y329564D01*
X218627Y329595D01*
X218657Y329634D01*
X220079Y332365D01*
X220089Y332398D01*
X220111Y332441D01*
X221065Y335369D01*
X221068Y335404D01*
X221083Y335450D01*
X221542Y338495D01*
X221540Y338530D01*
X221548Y338577D01*
X221499Y341657D01*
X221491Y341691D01*
X221490Y341739D01*
X220935Y344768D01*
X220922Y344800D01*
X220914Y344848D01*
X219868Y347744D01*
X219850Y347774D01*
X219833Y347819D01*
X218325Y350504D01*
X218302Y350530D01*
X218279Y350572D01*
X216349Y352972D01*
X216322Y352994D01*
X216292Y353032D01*
X213993Y355081D01*
X213963Y355099D01*
X213927Y355131D01*
X211323Y356774D01*
X211290Y356787D01*
X211250Y356812D01*
X208410Y358005D01*
X208376Y358011D01*
X208332Y358030D01*
X205334Y358739D01*
X205300Y358740D01*
X205253Y358751D01*
X202180Y358956D01*
X202146Y358952D01*
X202098Y358955D01*
X199033Y358652D01*
X199000Y358642D01*
X198952Y358637D01*
X195979Y357834D01*
X195948Y357818D01*
X195901Y357806D01*
X193101Y356524D01*
X193077Y356507D01*
X193050Y356497D01*
X192998Y356449D01*
X192940Y356407D01*
X192925Y356382D01*
X192904Y356362D01*
X192875Y356297D01*
X192838Y356236D01*
X192834Y356207D01*
X192822Y356181D01*
X192820Y356110D01*
X192810Y356039D01*
X192818Y356011D01*
X192817Y355982D01*
X192851Y355889D01*
X192862Y355847D01*
X192869Y355838D01*
X192874Y355825D01*
X211142Y323313D01*
X211161Y323291D01*
X211173Y323264D01*
X211226Y323216D01*
X211272Y323162D01*
X211298Y323150D01*
X211320Y323130D01*
X211387Y323106D01*
X211451Y323075D01*
X211480Y323073D01*
X211507Y323063D01*
X211578Y323067D01*
G37*
G36*
X334305Y545049D02*
X334305Y545049D01*
X334353Y545049D01*
X337374Y545553D01*
X337406Y545565D01*
X337454Y545573D01*
X340350Y546568D01*
X340365Y546576D01*
X340381Y546579D01*
X340399Y546591D01*
X340426Y546601D01*
X343119Y548058D01*
X343146Y548080D01*
X343188Y548103D01*
X345605Y549984D01*
X345627Y550011D01*
X345665Y550040D01*
X347740Y552293D01*
X347757Y552323D01*
X347790Y552358D01*
X349465Y554922D01*
X349478Y554954D01*
X349504Y554994D01*
X350735Y557799D01*
X350742Y557831D01*
X350749Y557843D01*
X350751Y557853D01*
X350761Y557877D01*
X351513Y560846D01*
X351515Y560880D01*
X351527Y560927D01*
X351780Y563979D01*
X351776Y564006D01*
X351780Y564030D01*
X351780Y564031D01*
X351781Y564037D01*
X351765Y564106D01*
X351756Y564176D01*
X351742Y564202D01*
X351735Y564230D01*
X351693Y564287D01*
X351658Y564349D01*
X351634Y564367D01*
X351617Y564390D01*
X351556Y564426D01*
X351499Y564469D01*
X351471Y564477D01*
X351446Y564492D01*
X351348Y564508D01*
X351307Y564519D01*
X351296Y564517D01*
X351282Y564519D01*
X314198Y564519D01*
X314169Y564513D01*
X314140Y564516D01*
X314073Y564494D01*
X314003Y564480D01*
X313979Y564463D01*
X313951Y564454D01*
X313898Y564407D01*
X313839Y564367D01*
X313824Y564343D01*
X313802Y564323D01*
X313770Y564259D01*
X313732Y564200D01*
X313727Y564171D01*
X313715Y564145D01*
X313706Y564045D01*
X313699Y564003D01*
X313700Y564000D01*
X313700Y563997D01*
X313701Y563989D01*
X313700Y563979D01*
X313953Y560927D01*
X313963Y560894D01*
X313967Y560846D01*
X314719Y557877D01*
X314734Y557846D01*
X314745Y557799D01*
X315976Y554994D01*
X315996Y554966D01*
X316015Y554922D01*
X317690Y552358D01*
X317714Y552334D01*
X317740Y552293D01*
X319815Y550040D01*
X319843Y550020D01*
X319875Y549984D01*
X322292Y548103D01*
X322323Y548088D01*
X322361Y548058D01*
X325054Y546601D01*
X325087Y546591D01*
X325129Y546568D01*
X325130Y546568D01*
X326584Y546068D01*
X328026Y545573D01*
X328051Y545570D01*
X328053Y545569D01*
X328066Y545567D01*
X328106Y545553D01*
X331127Y545049D01*
X331161Y545050D01*
X331209Y545042D01*
X334271Y545042D01*
X334305Y545049D01*
G37*
%LPC*%
G36*
X330103Y439038D02*
X330103Y439038D01*
X328748Y440392D01*
X328764Y440578D01*
X328764Y455271D01*
X330103Y456611D01*
X331378Y456611D01*
X331391Y456612D01*
X331404Y456611D01*
X331591Y456632D01*
X331778Y456651D01*
X331791Y456655D01*
X331805Y456656D01*
X331984Y456714D01*
X332163Y456769D01*
X332175Y456775D01*
X332188Y456779D01*
X332353Y456872D01*
X332517Y456961D01*
X332528Y456969D01*
X332539Y456976D01*
X332682Y457098D01*
X332827Y457219D01*
X332835Y457229D01*
X332845Y457238D01*
X332961Y457386D01*
X333079Y457532D01*
X333085Y457544D01*
X333093Y457555D01*
X333177Y457722D01*
X333264Y457890D01*
X333268Y457902D01*
X333274Y457914D01*
X333324Y458096D01*
X333376Y458277D01*
X333377Y458290D01*
X333381Y458303D01*
X333393Y458491D01*
X333409Y458678D01*
X333407Y458691D01*
X333408Y458704D01*
X333384Y458892D01*
X333362Y459078D01*
X333358Y459090D01*
X333356Y459104D01*
X333254Y459420D01*
X333148Y459676D01*
X333148Y462090D01*
X334072Y464321D01*
X335779Y466028D01*
X338010Y466952D01*
X340424Y466952D01*
X342655Y466028D01*
X344362Y464321D01*
X345286Y462090D01*
X345286Y461555D01*
X345289Y461524D01*
X345287Y461493D01*
X345309Y461323D01*
X345326Y461154D01*
X345335Y461125D01*
X345339Y461094D01*
X345440Y460778D01*
X345675Y460212D01*
X345675Y458642D01*
X345676Y458624D01*
X345675Y458607D01*
X345696Y458424D01*
X345715Y458242D01*
X345720Y458225D01*
X345722Y458207D01*
X345779Y458032D01*
X345833Y457857D01*
X345841Y457841D01*
X345847Y457824D01*
X345937Y457664D01*
X346024Y457503D01*
X346036Y457489D01*
X346045Y457473D01*
X346165Y457334D01*
X346282Y457193D01*
X346296Y457182D01*
X346308Y457169D01*
X346453Y457056D01*
X346596Y456941D01*
X346612Y456933D01*
X346626Y456922D01*
X346747Y456862D01*
X348337Y455271D01*
X348337Y440377D01*
X346998Y439038D01*
X330103Y439038D01*
G37*
%LPD*%
G36*
X426288Y410506D02*
X426288Y410506D01*
X426297Y410505D01*
X426488Y410530D01*
X426679Y410552D01*
X426688Y410555D01*
X426697Y410556D01*
X426879Y410617D01*
X427062Y410677D01*
X427070Y410681D01*
X427078Y410684D01*
X427245Y410780D01*
X427413Y410875D01*
X427419Y410881D01*
X427427Y410885D01*
X427680Y411100D01*
X427804Y411224D01*
X446268Y411224D01*
X446295Y411227D01*
X446322Y411225D01*
X446496Y411247D01*
X446669Y411264D01*
X446695Y411272D01*
X446721Y411275D01*
X446887Y411331D01*
X447054Y411382D01*
X447078Y411395D01*
X447103Y411403D01*
X447255Y411491D01*
X447408Y411574D01*
X447428Y411591D01*
X447452Y411604D01*
X447705Y411819D01*
X455238Y419353D01*
X455250Y419366D01*
X455263Y419378D01*
X455377Y419522D01*
X455493Y419664D01*
X455502Y419680D01*
X455513Y419694D01*
X455596Y419858D01*
X455682Y420020D01*
X455687Y420037D01*
X455695Y420053D01*
X455745Y420230D01*
X455797Y420406D01*
X455798Y420423D01*
X455803Y420441D01*
X455817Y420623D01*
X455833Y420807D01*
X455831Y420824D01*
X455833Y420842D01*
X455810Y421024D01*
X455790Y421207D01*
X455784Y421224D01*
X455782Y421242D01*
X455724Y421415D01*
X455668Y421591D01*
X455660Y421606D01*
X455654Y421623D01*
X455562Y421782D01*
X455474Y421943D01*
X455462Y421957D01*
X455453Y421972D01*
X455238Y422225D01*
X453718Y423746D01*
X453669Y423898D01*
X453614Y424078D01*
X453607Y424090D01*
X453603Y424103D01*
X453511Y424267D01*
X453422Y424432D01*
X453413Y424442D01*
X453407Y424454D01*
X453284Y424598D01*
X453164Y424741D01*
X453154Y424750D01*
X453145Y424760D01*
X452996Y424877D01*
X452850Y424994D01*
X452839Y425000D01*
X452828Y425008D01*
X452659Y425093D01*
X452493Y425179D01*
X452480Y425183D01*
X452468Y425189D01*
X452287Y425239D01*
X452106Y425291D01*
X452093Y425292D01*
X452080Y425295D01*
X451893Y425308D01*
X451705Y425324D01*
X451692Y425322D01*
X451678Y425323D01*
X451493Y425299D01*
X451305Y425277D01*
X451292Y425272D01*
X451279Y425271D01*
X450963Y425169D01*
X450761Y425085D01*
X450404Y424938D01*
X449706Y424938D01*
X449689Y424936D01*
X449671Y424937D01*
X449489Y424916D01*
X449306Y424898D01*
X449289Y424892D01*
X449271Y424890D01*
X449097Y424833D01*
X448921Y424779D01*
X448905Y424771D01*
X448888Y424765D01*
X448728Y424675D01*
X448567Y424588D01*
X448553Y424576D01*
X448538Y424568D01*
X448398Y424447D01*
X448258Y424330D01*
X448246Y424316D01*
X448233Y424304D01*
X448120Y424159D01*
X448005Y424016D01*
X447997Y424000D01*
X447986Y423986D01*
X447904Y423821D01*
X447820Y423659D01*
X447815Y423642D01*
X447807Y423626D01*
X447759Y423448D01*
X447708Y423272D01*
X447707Y423254D01*
X447702Y423237D01*
X447699Y423196D01*
X446336Y421833D01*
X427804Y421833D01*
X427680Y421957D01*
X427673Y421962D01*
X427667Y421969D01*
X427519Y422089D01*
X427369Y422212D01*
X427361Y422216D01*
X427354Y422222D01*
X427185Y422309D01*
X427013Y422400D01*
X427004Y422403D01*
X426996Y422407D01*
X426813Y422460D01*
X426627Y422515D01*
X426618Y422516D01*
X426609Y422519D01*
X426419Y422534D01*
X426226Y422552D01*
X426217Y422551D01*
X426208Y422551D01*
X426018Y422529D01*
X425826Y422508D01*
X425817Y422506D01*
X425808Y422505D01*
X425625Y422445D01*
X425442Y422387D01*
X425434Y422382D01*
X425426Y422380D01*
X425257Y422285D01*
X425090Y422192D01*
X425083Y422186D01*
X425075Y422182D01*
X424929Y422056D01*
X424783Y421931D01*
X424777Y421924D01*
X424770Y421919D01*
X424652Y421767D01*
X424533Y421616D01*
X424529Y421608D01*
X424523Y421601D01*
X424437Y421427D01*
X424351Y421257D01*
X424348Y421248D01*
X424344Y421240D01*
X424293Y421049D01*
X424243Y420869D01*
X424242Y420860D01*
X424240Y420851D01*
X424212Y420520D01*
X424212Y412536D01*
X424213Y412527D01*
X424213Y412518D01*
X424233Y412328D01*
X424252Y412135D01*
X424255Y412127D01*
X424256Y412118D01*
X424314Y411935D01*
X424371Y411750D01*
X424375Y411743D01*
X424377Y411734D01*
X424471Y411566D01*
X424562Y411396D01*
X424568Y411390D01*
X424572Y411382D01*
X424698Y411234D01*
X424820Y411087D01*
X424827Y411082D01*
X424833Y411075D01*
X424985Y410954D01*
X425134Y410835D01*
X425142Y410831D01*
X425149Y410825D01*
X425321Y410737D01*
X425491Y410649D01*
X425500Y410647D01*
X425508Y410643D01*
X425693Y410591D01*
X425878Y410538D01*
X425887Y410537D01*
X425896Y410535D01*
X426088Y410521D01*
X426279Y410505D01*
X426288Y410506D01*
G37*
D10*
X315921Y412283D03*
X315921Y424283D03*
X315921Y436283D03*
D11*
X291560Y457942D03*
X291560Y452941D03*
X291560Y447939D03*
X291560Y442938D03*
X291560Y437937D03*
X291560Y432936D03*
X291560Y427934D03*
X291560Y422933D03*
X291560Y417932D03*
X291560Y412931D03*
X291560Y407929D03*
X291560Y402928D03*
D12*
X284523Y395891D03*
X279522Y395891D03*
X274520Y395891D03*
X269519Y395891D03*
X264518Y395891D03*
X259517Y395891D03*
X254515Y395891D03*
X249514Y395891D03*
X244513Y395891D03*
X239512Y395891D03*
X234510Y395891D03*
X229509Y395891D03*
D11*
X222472Y402928D03*
X222472Y407929D03*
X222472Y412931D03*
X222472Y417932D03*
X222472Y422933D03*
X222472Y427934D03*
X222472Y432936D03*
X222472Y437937D03*
X222472Y442938D03*
X222472Y447939D03*
X222472Y452941D03*
X222472Y457942D03*
D12*
X229509Y464979D03*
X234510Y464979D03*
X239512Y464979D03*
X244513Y464979D03*
X249514Y464979D03*
X254515Y464979D03*
X259517Y464979D03*
X264518Y464979D03*
X269519Y464979D03*
X274520Y464979D03*
X279522Y464979D03*
X284523Y464979D03*
D13*
X257016Y430435D03*
D14*
X254539Y483891D03*
X254539Y500891D03*
D15*
X315414Y397497D03*
X315414Y380497D03*
D14*
X304062Y471820D03*
X321062Y471820D03*
X304858Y452562D03*
X321858Y452562D03*
D16*
X336879Y492814D03*
X336879Y473814D03*
X338550Y447824D03*
X338550Y428824D03*
D17*
X167540Y414020D03*
X250140Y557120D03*
X415340Y557120D03*
X497940Y414020D03*
X208840Y342520D03*
X210428Y485520D03*
X332740Y557120D03*
X456640Y485520D03*
X456640Y342520D03*
D18*
X364554Y374278D03*
X364554Y380778D03*
X364554Y387278D03*
X364554Y393778D03*
X364554Y400278D03*
X364554Y406778D03*
X364554Y413278D03*
X364554Y419778D03*
X364554Y426278D03*
X364554Y432778D03*
X364554Y439278D03*
X364554Y445778D03*
X364554Y452278D03*
X364554Y458778D03*
X437070Y458778D03*
X437070Y452278D03*
X437070Y445778D03*
X437070Y439278D03*
X437070Y432778D03*
X437070Y426278D03*
X437070Y419778D03*
X437070Y413278D03*
X437070Y406778D03*
X437070Y400278D03*
X437070Y393778D03*
X437070Y387278D03*
X437070Y380778D03*
X437070Y374278D03*
D19*
X468059Y434139D03*
X468059Y393139D03*
D15*
X400281Y531813D03*
X417281Y531813D03*
D20*
X349650Y354806D03*
X323450Y354806D03*
D14*
X472050Y453231D03*
X455050Y453231D03*
X410600Y350838D03*
X427600Y350838D03*
X417744Y490538D03*
X434744Y490538D03*
D21*
X412775Y330994D03*
X431775Y330994D03*
D15*
X381000Y534756D03*
X381000Y517756D03*
X399819Y492919D03*
X382819Y492919D03*
X400281Y511969D03*
X417281Y511969D03*
D14*
X361156Y517756D03*
X361156Y534756D03*
D15*
X245500Y525463D03*
X262500Y525463D03*
X341875Y526256D03*
X324875Y526256D03*
X310919Y526256D03*
X293919Y526256D03*
D14*
X306156Y494506D03*
X289156Y494506D03*
X357981Y474100D03*
X357981Y491100D03*
D15*
X309331Y315119D03*
X292331Y315119D03*
G36*
X381195Y322963D02*
X373672Y316376D01*
X366427Y324651D01*
X373950Y331238D01*
X381195Y322963D01*
G37*
G36*
X393986Y334161D02*
X386463Y327574D01*
X379218Y335849D01*
X386741Y342436D01*
X393986Y334161D01*
G37*
X352194Y315119D03*
X335194Y315119D03*
D14*
G36*
X452538Y373295D02*
X461229Y380037D01*
X467358Y372137D01*
X458667Y365395D01*
X452538Y373295D01*
G37*
G36*
X439105Y362876D02*
X447796Y369618D01*
X453925Y361718D01*
X445234Y354976D01*
X439105Y362876D01*
G37*
D22*
X199231Y453231D03*
X199231Y427831D03*
X199231Y402431D03*
X199231Y377031D03*
D23*
X222370Y427831D02*
X222472Y427934D01*
D24*
X480219Y410909D03*
X296069Y484981D03*
D25*
X296863Y485775D01*
D23*
X228703Y427934D02*
X222472Y427934D01*
X231204Y430435D02*
X251619Y430435D01*
X256381Y430435D01*
X257016Y430435D01*
X231204Y430435D02*
X228703Y427934D01*
D26*
X248507Y438944D02*
X257016Y430435D01*
X248507Y438944D02*
X247650Y438944D01*
D24*
X247650Y438944D03*
D26*
X315414Y380497D02*
X317342Y382425D01*
X327969Y382425D01*
D24*
X327969Y382425D03*
X346055Y371495D03*
D26*
X341645Y367084D01*
D27*
X340375Y365814D01*
X339760Y365814D01*
X328753Y354806D02*
X323450Y354806D01*
X328753Y354806D02*
X339760Y365814D01*
D26*
X323446Y469436D02*
X321858Y471023D01*
X323446Y472611D02*
X323446Y469436D01*
X321858Y471023D02*
X321858Y452562D01*
X321858Y454824D01*
D25*
X321858Y452562D02*
X321858Y449780D01*
X323446Y451368D01*
D26*
X337145Y428824D02*
X338550Y428824D01*
X337718Y427992D01*
X323446Y472611D02*
X324649Y473814D01*
D28*
X258882Y427934D02*
X256381Y430435D01*
D24*
X236538Y364780D03*
D26*
X236538Y346075D01*
D24*
X218110Y385934D03*
D25*
X218110Y396926D01*
X251619Y430435D01*
D24*
X427038Y365125D03*
D26*
X447675Y417513D02*
X450850Y420688D01*
X447675Y417513D02*
X437748Y417513D01*
D24*
X450850Y420688D03*
X425450Y306388D03*
D28*
X431775Y312713D01*
X431775Y330994D01*
X291560Y427934D02*
X258882Y427934D01*
D24*
X249238Y305594D03*
D28*
X249238Y333375D01*
X236538Y346075D01*
X235744Y346869D01*
X291560Y427934D02*
X295275Y427934D01*
D23*
X296965Y427934D02*
X300831Y431800D01*
X300831Y434975D02*
X301625Y435769D01*
X300831Y434975D02*
X300831Y431800D01*
X296965Y427934D02*
X295275Y427934D01*
X222472Y432936D02*
X222472Y432935D01*
X222472Y432936D02*
X216242Y432936D01*
X214313Y422660D02*
X210753Y419100D01*
D24*
X210753Y419100D03*
D28*
X214313Y431006D02*
X216242Y432936D01*
X214313Y431006D02*
X214313Y422660D01*
D24*
X449197Y431006D03*
D25*
X437070Y430213D02*
X437070Y426278D01*
X437070Y430213D02*
X437070Y431006D01*
X437070Y432778D01*
X436985Y374278D02*
X437070Y374278D01*
X447154Y374278D01*
X451578Y378702D01*
D26*
X418306Y373856D02*
X414569Y370119D01*
X414569Y354806D01*
D25*
X410600Y350838D01*
D26*
X410600Y333169D02*
X412775Y330994D01*
X410600Y333169D02*
X410600Y350838D01*
X412775Y330994D02*
X415925Y327844D01*
X415925Y300831D01*
X407194Y292100D01*
X388096Y292100D02*
X373811Y306385D01*
X373811Y323807D01*
X395288Y292100D02*
X407194Y292100D01*
X395288Y292100D02*
X388096Y292100D01*
X365122Y315119D02*
X352194Y315119D01*
X365122Y315119D02*
X373811Y323807D01*
X352194Y315119D02*
X352194Y310919D01*
X342106Y300831D01*
X323619Y300831D01*
X309331Y315119D01*
D25*
X419511Y487396D02*
X417744Y490538D01*
X437093Y393755D02*
X447177Y393755D01*
X437093Y393755D02*
X437070Y393778D01*
X451578Y389354D02*
X451578Y378702D01*
X451578Y389354D02*
X447177Y393755D01*
X437070Y374278D02*
X436648Y373856D01*
X418306Y373856D01*
D24*
X419891Y436908D03*
D26*
X421420Y436908D02*
X428115Y430213D01*
X421420Y436908D02*
X419891Y436908D01*
X428115Y430213D02*
X437070Y430213D01*
X417744Y490538D02*
X417744Y494388D01*
D25*
X417744Y490538D02*
X420745Y487537D01*
X420745Y468027D01*
X420707Y467989D01*
X420707Y461982D01*
X423910Y458778D01*
D24*
X426244Y522288D03*
D26*
X417281Y531250D01*
X417281Y531813D01*
X426244Y522288D02*
X427831Y520700D01*
X427831Y504475D01*
X417744Y494388D01*
X415294Y370119D02*
X414569Y370119D01*
D24*
X415294Y370119D03*
X395288Y292100D03*
D26*
X437070Y431006D02*
X449197Y431006D01*
D25*
X437070Y458778D02*
X423910Y458778D01*
D26*
X306443Y451771D02*
X306443Y450977D01*
X304062Y454152D02*
X304062Y471820D01*
X304858Y452562D02*
X305470Y452562D01*
D23*
X298404Y442938D02*
X291560Y442938D01*
D28*
X298404Y442938D02*
X306443Y450977D01*
X304858Y452562D01*
X306443Y451771D02*
X304062Y454152D01*
D23*
X291560Y437937D02*
X291560Y432936D01*
D26*
X304062Y471543D02*
X304062Y471820D01*
X304062Y471543D02*
X304006Y471488D01*
D29*
X338550Y447824D02*
X340848Y450122D01*
X340848Y459252D01*
X339217Y460883D01*
D24*
X339217Y460883D03*
D30*
X304062Y471820D02*
X304062Y473924D01*
D26*
X315254Y485117D02*
X326998Y485117D01*
D30*
X334963Y493081D02*
X334963Y494730D01*
D26*
X334963Y493081D02*
X326998Y485117D01*
D30*
X334963Y494730D02*
X336879Y492814D01*
D26*
X315254Y485117D02*
X304062Y473924D01*
D24*
X311949Y461851D03*
D26*
X310228Y465654D02*
X304062Y471820D01*
X310228Y465654D02*
X310228Y464610D01*
X311949Y462889D01*
X311949Y461851D01*
D23*
X291560Y442938D02*
X291560Y437937D01*
D25*
X251559Y497912D02*
X254539Y500891D01*
X251559Y497912D02*
X243917Y497912D01*
X236774Y505055D01*
D24*
X236774Y505055D03*
X304006Y377663D03*
D23*
X306654Y405934D02*
X312359Y405934D01*
X299657Y412931D02*
X291560Y412931D01*
X299657Y412931D02*
X306654Y405934D01*
D28*
X304006Y383901D02*
X304006Y377663D01*
X304006Y383901D02*
X303435Y384342D01*
X312008Y394091D02*
X315414Y397497D01*
X312008Y394091D02*
X303435Y384342D01*
D23*
X315414Y402879D02*
X312359Y405934D01*
D28*
X315414Y402879D02*
X315414Y397497D01*
D23*
X309388Y411163D02*
X302618Y417932D01*
X309388Y411163D02*
X314800Y411163D01*
X315921Y412283D01*
X302618Y417932D02*
X291560Y417932D01*
X313252Y436283D02*
X315921Y436283D01*
X299902Y422933D02*
X291560Y422933D01*
X299902Y422933D02*
X313252Y436283D01*
D29*
X208808Y457942D02*
X203942Y457942D01*
X199231Y453231D01*
X199231Y450195D01*
X186785Y437749D01*
X186785Y414877D01*
X199231Y402431D01*
D23*
X208808Y457942D02*
X222472Y457942D01*
D25*
X382819Y491462D02*
X382819Y492919D01*
X382819Y491462D02*
X382356Y491000D01*
X401356Y530738D02*
X400281Y531813D01*
X401356Y530738D02*
X417281Y514813D01*
X417281Y511969D01*
X400281Y531813D02*
X383944Y531813D01*
X381000Y534756D01*
X390525Y510150D02*
X382819Y502444D01*
X382819Y492919D01*
X390525Y510150D02*
X390525Y522056D01*
X381000Y534756D02*
X378056Y534756D01*
X372880Y539933D02*
X372880Y542925D01*
D24*
X372880Y542925D03*
D25*
X372880Y539933D02*
X378056Y534756D01*
X390525Y522056D02*
X399206Y530738D01*
X401356Y530738D01*
X437047Y445801D02*
X437070Y445778D01*
D24*
X397038Y461247D03*
D25*
X406709Y445778D02*
X437070Y445778D01*
X406709Y445778D02*
X396875Y455613D01*
X396875Y461084D02*
X397038Y461247D01*
D28*
X397831Y461247D01*
D31*
X403447Y466863D01*
X403447Y474696D01*
X391993Y486150D01*
D25*
X396875Y461084D02*
X396875Y455613D01*
D31*
X391993Y486150D02*
X391993Y499150D01*
X393700Y500856D01*
X397669Y500856D01*
X399819Y498706D01*
X399819Y492919D01*
D25*
X437047Y452301D02*
X437070Y452278D01*
X437047Y452301D02*
X413469Y452301D01*
X400281Y510775D02*
X400281Y511969D01*
D24*
X410263Y455507D03*
D25*
X400450Y510606D02*
X400450Y510775D01*
X400281Y510775D01*
X410263Y455507D02*
X413469Y452301D01*
D31*
X408527Y503723D02*
X400281Y511969D01*
X408527Y457243D02*
X410263Y455507D01*
X408527Y457243D02*
X408527Y503723D01*
D25*
X362744Y536344D02*
X361156Y534756D01*
X362744Y536344D02*
X362744Y545499D01*
D24*
X362744Y545499D03*
D25*
X437047Y380801D02*
X437070Y380778D01*
X437047Y380801D02*
X424483Y380801D01*
X413544Y391740D01*
X413544Y421622D01*
X388144Y447022D01*
D24*
X387188Y480219D03*
D25*
X388144Y479263D01*
X388144Y447022D01*
X437047Y387301D02*
X437070Y387278D01*
X437047Y387301D02*
X426963Y387301D01*
X419894Y394370D01*
X419894Y424656D01*
X409575Y434975D01*
X409575Y437356D01*
D24*
X409575Y437356D03*
D25*
X262500Y525463D02*
X262500Y537931D01*
D24*
X264365Y539796D03*
D25*
X262500Y537931D01*
X364554Y452278D02*
X364577Y452301D01*
D28*
X374451Y452809D02*
X376683Y455041D01*
X376683Y462515D01*
X367291Y471907D01*
X365085Y452809D02*
X364554Y452278D01*
X365085Y452809D02*
X374451Y452809D01*
X367291Y471907D02*
X367291Y497678D01*
X361732Y503238D01*
D24*
X338380Y509287D03*
D28*
X310919Y526256D02*
X308769Y524106D01*
X320675Y498475D02*
X323056Y498475D01*
X324748Y509287D02*
X338380Y509287D01*
X327819Y503238D02*
X361732Y503238D01*
X327819Y503238D02*
X323056Y498475D01*
X318294Y500856D02*
X318294Y502833D01*
X319537Y504076D01*
X318294Y500856D02*
X320675Y498475D01*
X319537Y504076D02*
X313248Y504076D01*
X308769Y508555D01*
X308769Y524106D01*
X324748Y509287D02*
X319537Y504076D01*
X365085Y446309D02*
X364554Y445778D01*
X382017Y452832D02*
X382017Y464725D01*
X372625Y474116D02*
X372625Y499888D01*
X372625Y474116D02*
X382017Y464725D01*
X375494Y446309D02*
X365085Y446309D01*
X375494Y446309D02*
X382017Y452832D01*
X372625Y499888D02*
X363567Y508946D01*
X341875Y523531D02*
X341875Y526256D01*
D23*
X341875Y523160D01*
D24*
X316392Y511668D03*
D28*
X350838Y508946D02*
X363567Y508946D01*
X350838Y508946D02*
X342905Y516879D01*
X337344Y516879D01*
X321603Y516879D01*
X316392Y511668D01*
X333685Y520538D02*
X337344Y516879D01*
X345166Y529547D02*
X344488Y530225D01*
X345166Y529547D02*
X342784Y527166D01*
X341875Y526256D01*
X333685Y528948D02*
X333685Y520538D01*
X333685Y528948D02*
X335756Y531019D01*
X338931Y531019D01*
X342784Y527166D01*
D25*
X468059Y400278D02*
X468059Y396081D01*
X468059Y393139D01*
X461678Y386759D02*
X459948Y372716D01*
X461678Y386759D02*
X468059Y393139D01*
D23*
X437458Y400666D02*
X437070Y400278D01*
X473075Y396875D02*
X473075Y392906D01*
X468291Y392906D01*
X468059Y393139D01*
D28*
X449279Y400460D02*
X437665Y400460D01*
X437458Y400666D01*
X449279Y400460D02*
X459187Y410369D01*
X466725Y410369D02*
X470694Y406400D01*
X470694Y398717D01*
X468059Y396081D01*
X466725Y410369D02*
X459187Y410369D01*
D25*
X472050Y438131D02*
X472050Y453231D01*
X470463Y436543D02*
X470463Y434162D01*
X471256Y434956D01*
X470463Y436543D02*
X472050Y438131D01*
X470463Y436543D02*
X468059Y434139D01*
X469649Y436563D02*
X463550Y436563D01*
X469649Y436563D02*
X471256Y434956D01*
D23*
X461127Y434139D02*
X458788Y431800D01*
X461127Y434139D02*
X468059Y434139D01*
D28*
X447866Y406778D02*
X447675Y406588D01*
X447863Y406588D01*
X447866Y406778D02*
X437070Y406778D01*
X456978Y415703D02*
X465138Y415703D01*
X456978Y415703D02*
X447863Y406588D01*
X465138Y415703D02*
X470463Y421028D01*
X470463Y434162D01*
D25*
X364554Y458778D02*
X357981Y465351D01*
X357981Y474100D01*
X364554Y374278D02*
X364554Y369710D01*
X349650Y354806D01*
X364554Y406778D02*
X386178Y406778D01*
X388144Y404813D01*
X388144Y371724D01*
X360113Y343694D01*
X288742Y343694D01*
X267005Y365430D01*
D23*
X264518Y374784D02*
X264518Y395891D01*
X264518Y374784D02*
X264439Y374705D01*
X264439Y367996D01*
X267005Y365430D01*
D25*
X364554Y413278D02*
X389203Y413278D01*
X394494Y407988D02*
X394494Y369094D01*
X362744Y337344D01*
X394494Y407988D02*
X389203Y413278D01*
X285750Y337344D02*
X265691Y357403D01*
X285750Y337344D02*
X362744Y337344D01*
D23*
X265691Y357403D02*
X259517Y363577D01*
X259517Y395891D01*
X269519Y395891D02*
X269519Y371807D01*
D28*
X285952Y355374D02*
X303010Y355374D01*
X285952Y355374D02*
X269519Y371807D01*
X351949Y388125D02*
X351949Y389731D01*
X351949Y388125D02*
X328949Y365125D01*
X312761Y365125D02*
X303010Y355374D01*
X312761Y365125D02*
X328949Y365125D01*
D23*
X351949Y416179D02*
X355548Y419778D01*
X364554Y419778D01*
X351949Y416179D02*
X351949Y389731D01*
D25*
X283120Y330994D02*
X257969Y356145D01*
X364554Y432778D02*
X364577Y432755D01*
X400844Y411412D02*
X400844Y373063D01*
X379500Y432755D02*
X364577Y432755D01*
X379500Y432755D02*
X400844Y411412D01*
D28*
X400844Y373063D02*
X400844Y366388D01*
D25*
X391481Y357025D02*
X365449Y330994D01*
X342106Y330994D01*
X283120Y330994D01*
D28*
X391481Y357025D02*
X400844Y366388D01*
D23*
X257969Y356145D02*
X254515Y359598D01*
X254515Y395891D01*
D25*
X335194Y324081D02*
X335194Y315119D01*
X335194Y324081D02*
X342106Y330994D01*
D24*
X246623Y384969D03*
D25*
X364554Y393778D02*
X375366Y393778D01*
X378619Y390525D01*
X379413Y390525D01*
D24*
X379413Y390525D03*
D23*
X249514Y395891D02*
X249339Y395716D01*
X249339Y390354D01*
X246623Y387638D02*
X246623Y384969D01*
X246623Y387638D02*
X249339Y390354D01*
X292331Y315119D02*
X291649Y314436D01*
D28*
X246623Y359008D02*
X246623Y384969D01*
X246623Y359008D02*
X290513Y315119D01*
X292331Y315119D01*
D23*
X346012Y389731D02*
X346012Y416719D01*
D28*
X288162Y360708D02*
X274599Y374270D01*
X326740Y370459D02*
X346012Y389731D01*
X326740Y370459D02*
X310552Y370459D01*
X300801Y360708D01*
X288162Y360708D01*
X386602Y335756D02*
X386602Y335005D01*
X397323Y355324D02*
X406178Y364179D01*
X406178Y364903D01*
X407194Y365919D01*
D25*
X407194Y416719D01*
X401739Y422174D01*
X401537Y422174D01*
D24*
X401537Y422174D03*
X378969Y421831D03*
D25*
X374661Y426255D02*
X364577Y426255D01*
X364554Y426278D01*
X378969Y421948D02*
X378969Y421831D01*
X378969Y421948D02*
X374661Y426255D01*
D28*
X397323Y355324D02*
X397323Y346477D01*
X386602Y335756D01*
D23*
X274520Y374349D02*
X274520Y395891D01*
X274520Y374349D02*
X274599Y374270D01*
X346012Y416719D02*
X346012Y416941D01*
X346012Y417068D01*
X355223Y426278D01*
X364554Y426278D01*
X244513Y464979D02*
X244513Y471449D01*
X242094Y473869D01*
D28*
X236538Y473869D02*
X211138Y473869D01*
D25*
X207169Y477838D01*
D28*
X207169Y482261D01*
X210428Y485520D01*
D23*
X236538Y473869D02*
X242094Y473869D01*
D24*
X227249Y501027D03*
D23*
X249339Y465154D02*
X249514Y464979D01*
X249339Y465154D02*
X249339Y473448D01*
X244093Y478695D01*
D28*
X227249Y495539D01*
X227249Y501027D01*
D24*
X301625Y400375D03*
D23*
X299776Y400375D01*
X299307Y400844D01*
X299307Y406018D01*
X297396Y407929D01*
X291560Y407929D01*
D32*
X445415Y474295D02*
X456640Y485520D01*
D25*
X445415Y474295D02*
X442049Y474295D01*
D24*
X442049Y474295D03*
X292894Y395288D03*
D23*
X292894Y400844D01*
X291560Y402177D01*
X291560Y402928D01*
D24*
X298450Y369094D03*
D23*
X298450Y372269D01*
X284523Y386196D01*
X284523Y395891D01*
D24*
X288131Y371475D03*
D23*
X279400Y380206D02*
X279400Y395769D01*
X279400Y380206D02*
X288131Y371475D01*
X279400Y395769D02*
X279522Y395891D01*
D24*
X439658Y349651D03*
D28*
X449509Y349651D01*
X456640Y342520D01*
D24*
X224047Y326816D03*
D25*
X226428Y373272D02*
X235744Y382588D01*
X226428Y373272D02*
X226428Y329197D01*
X224047Y326816D01*
D23*
X235744Y382588D02*
X239285Y386129D01*
X239285Y388035D02*
X239336Y388086D01*
X239336Y395715D01*
X239512Y395891D01*
X239285Y388035D02*
X239285Y386129D01*
D28*
X208840Y349250D02*
X208840Y342520D01*
D23*
X234510Y390085D02*
X234510Y395891D01*
X234510Y390085D02*
X227806Y383381D01*
X227013Y383381D01*
D25*
X208840Y365209D01*
X208840Y349250D01*
D28*
X278173Y536936D02*
X296069Y554831D01*
X330451Y554831D02*
X332740Y557120D01*
X330451Y554831D02*
X296069Y554831D01*
D23*
X284348Y465154D02*
X284523Y464979D01*
X284348Y465154D02*
X284348Y473691D01*
X278173Y479866D01*
D28*
X278173Y536936D01*
X272379Y546437D02*
X272379Y478473D01*
X282525Y556584D02*
X286655Y556584D01*
X282525Y556584D02*
X272379Y546437D01*
D24*
X286655Y556584D03*
D23*
X279346Y470516D02*
X279346Y465155D01*
X279522Y464979D01*
X272379Y477483D02*
X272379Y478473D01*
X272379Y477483D02*
X279346Y470516D01*
X222472Y452941D02*
X222296Y452765D01*
X216935Y452765D01*
X210884Y446713D01*
X210884Y445834D01*
D29*
X199231Y434181D01*
X199231Y427831D01*
D23*
X254515Y464979D02*
X254515Y483868D01*
X254539Y483891D01*
D25*
X293919Y506744D02*
X306156Y494506D01*
X293919Y506744D02*
X293919Y526256D01*
D28*
X303229Y535566D01*
X324875Y528188D02*
X324875Y526256D01*
X324875Y528188D02*
X317497Y535566D01*
X303229Y535566D01*
M02*
