G04 EAGLE Gerber RS-274X export*
G75*
%MOMM*%
%FSLAX34Y34*%
%LPD*%
%INTop Copper*%
%IPPOS*%
%AMOC8*
5,1,8,0,0,1.08239X$1,22.5*%
G01*
%ADD10R,0.800000X0.800000*%
%ADD11R,1.100000X1.000000*%
%ADD12R,1.000000X1.100000*%
%ADD13R,1.500000X1.300000*%
%ADD14R,0.610000X4.600000*%
%ADD15R,0.810000X4.600000*%
%ADD16R,3.000000X4.900000*%
%ADD17C,1.000000*%
%ADD18C,1.524000*%
%ADD19C,0.756400*%
%ADD20C,0.406400*%
%ADD21C,0.609600*%
%ADD22C,0.304800*%
%ADD23C,0.508000*%
%ADD24C,0.254000*%
%ADD25C,0.457200*%
%ADD26C,0.355600*%

G36*
X417822Y264784D02*
X417822Y264784D01*
X417913Y264783D01*
X418022Y264804D01*
X418132Y264815D01*
X418219Y264841D01*
X418309Y264858D01*
X418411Y264900D01*
X418517Y264933D01*
X418597Y264976D01*
X418681Y265011D01*
X418774Y265072D01*
X418871Y265125D01*
X418941Y265183D01*
X419017Y265233D01*
X419095Y265312D01*
X419180Y265382D01*
X419237Y265453D01*
X419302Y265518D01*
X419380Y265631D01*
X419433Y265696D01*
X419455Y265738D01*
X419491Y265790D01*
X434393Y291603D01*
X434453Y291736D01*
X434521Y291866D01*
X434536Y291919D01*
X434559Y291970D01*
X434592Y292113D01*
X434632Y292253D01*
X434637Y292308D01*
X434649Y292362D01*
X434653Y292509D01*
X434665Y292654D01*
X434659Y292710D01*
X434660Y292765D01*
X434635Y292909D01*
X434618Y293054D01*
X434601Y293107D01*
X434591Y293162D01*
X434539Y293298D01*
X434493Y293437D01*
X434466Y293485D01*
X434446Y293537D01*
X434367Y293660D01*
X434295Y293788D01*
X434259Y293830D01*
X434229Y293876D01*
X434128Y293982D01*
X434032Y294092D01*
X433988Y294126D01*
X433950Y294166D01*
X433829Y294250D01*
X433714Y294339D01*
X433664Y294364D01*
X433619Y294395D01*
X433485Y294453D01*
X433354Y294518D01*
X433300Y294533D01*
X433249Y294555D01*
X433106Y294585D01*
X432965Y294623D01*
X432902Y294628D01*
X432855Y294638D01*
X432771Y294639D01*
X432634Y294650D01*
X403358Y294650D01*
X402015Y295993D01*
X401997Y296154D01*
X401978Y296342D01*
X401974Y296355D01*
X401973Y296368D01*
X401915Y296546D01*
X401860Y296727D01*
X401854Y296739D01*
X401849Y296751D01*
X401758Y296915D01*
X401668Y297081D01*
X401660Y297091D01*
X401653Y297103D01*
X401530Y297246D01*
X401410Y297390D01*
X401400Y297398D01*
X401391Y297409D01*
X401243Y297525D01*
X401097Y297642D01*
X401085Y297648D01*
X401074Y297657D01*
X400905Y297742D01*
X400739Y297828D01*
X400727Y297831D01*
X400715Y297838D01*
X400533Y297887D01*
X400352Y297939D01*
X400339Y297940D01*
X400326Y297944D01*
X400139Y297957D01*
X399951Y297972D01*
X399938Y297970D01*
X399925Y297971D01*
X399738Y297947D01*
X399551Y297925D01*
X399539Y297921D01*
X399525Y297919D01*
X399209Y297818D01*
X398821Y297657D01*
X393151Y297657D01*
X387911Y299827D01*
X383901Y303837D01*
X381731Y309076D01*
X381731Y314747D01*
X383901Y319986D01*
X387911Y323996D01*
X393151Y326166D01*
X398821Y326166D01*
X399209Y326006D01*
X399222Y326002D01*
X399234Y325996D01*
X399415Y325944D01*
X399595Y325889D01*
X399608Y325888D01*
X399621Y325884D01*
X399810Y325869D01*
X399996Y325851D01*
X400009Y325853D01*
X400022Y325851D01*
X400209Y325873D01*
X400396Y325893D01*
X400409Y325897D01*
X400422Y325898D01*
X400600Y325956D01*
X400780Y326013D01*
X400792Y326019D01*
X400805Y326023D01*
X400969Y326116D01*
X401134Y326206D01*
X401144Y326215D01*
X401156Y326221D01*
X401298Y326344D01*
X401442Y326465D01*
X401450Y326476D01*
X401460Y326484D01*
X401575Y326632D01*
X401693Y326780D01*
X401699Y326792D01*
X401707Y326802D01*
X401791Y326971D01*
X401877Y327138D01*
X401880Y327151D01*
X401886Y327163D01*
X401935Y327346D01*
X401986Y327525D01*
X401987Y327539D01*
X401991Y327552D01*
X402018Y327882D01*
X402018Y344635D01*
X402016Y344652D01*
X402018Y344670D01*
X401996Y344853D01*
X401978Y345035D01*
X401973Y345052D01*
X401971Y345070D01*
X401914Y345245D01*
X401860Y345420D01*
X401851Y345436D01*
X401846Y345453D01*
X401756Y345613D01*
X401668Y345774D01*
X401657Y345788D01*
X401648Y345804D01*
X401528Y345943D01*
X401410Y346084D01*
X401397Y346095D01*
X401385Y346108D01*
X401240Y346221D01*
X401097Y346336D01*
X401081Y346344D01*
X401067Y346355D01*
X400902Y346437D01*
X400739Y346521D01*
X400722Y346526D01*
X400706Y346534D01*
X400528Y346582D01*
X400352Y346633D01*
X400335Y346634D01*
X400317Y346639D01*
X399987Y346666D01*
X301902Y346666D01*
X300221Y347362D01*
X284255Y363329D01*
X283559Y365009D01*
X283559Y366624D01*
X283556Y366650D01*
X283558Y366677D01*
X283536Y366851D01*
X283519Y367025D01*
X283511Y367050D01*
X283507Y367077D01*
X283452Y367242D01*
X283400Y367409D01*
X283388Y367433D01*
X283379Y367458D01*
X283292Y367610D01*
X283209Y367763D01*
X283192Y367784D01*
X283178Y367807D01*
X282990Y368029D01*
X282063Y370268D01*
X282063Y372695D01*
X282103Y372836D01*
X282158Y373016D01*
X282159Y373029D01*
X282163Y373042D01*
X282178Y373231D01*
X282196Y373417D01*
X282194Y373430D01*
X282196Y373444D01*
X282174Y373630D01*
X282154Y373817D01*
X282150Y373830D01*
X282149Y373843D01*
X282090Y374022D01*
X282034Y374202D01*
X282028Y374213D01*
X282024Y374226D01*
X281931Y374390D01*
X281841Y374555D01*
X281832Y374565D01*
X281826Y374577D01*
X281703Y374719D01*
X281582Y374863D01*
X281571Y374871D01*
X281563Y374882D01*
X281415Y374996D01*
X281267Y375114D01*
X281255Y375120D01*
X281245Y375128D01*
X281076Y375212D01*
X280909Y375298D01*
X280896Y375302D01*
X280884Y375308D01*
X280702Y375357D01*
X280522Y375408D01*
X280508Y375409D01*
X280495Y375412D01*
X280165Y375439D01*
X264357Y375439D01*
X264331Y375437D01*
X264304Y375439D01*
X264130Y375417D01*
X263957Y375399D01*
X263931Y375392D01*
X263905Y375388D01*
X263739Y375333D01*
X263572Y375281D01*
X263548Y375268D01*
X263523Y375260D01*
X263371Y375173D01*
X263218Y375089D01*
X263197Y375072D01*
X263174Y375059D01*
X262921Y374844D01*
X241453Y353377D01*
X229403Y353377D01*
X226576Y356204D01*
X210872Y371908D01*
X210862Y371916D01*
X210853Y371926D01*
X210706Y372043D01*
X210560Y372163D01*
X210549Y372169D01*
X210538Y372177D01*
X210371Y372263D01*
X210205Y372351D01*
X210192Y372355D01*
X210180Y372361D01*
X209999Y372413D01*
X209819Y372466D01*
X209806Y372467D01*
X209793Y372471D01*
X209607Y372485D01*
X209418Y372503D01*
X209404Y372501D01*
X209391Y372502D01*
X209206Y372480D01*
X209018Y372459D01*
X209005Y372455D01*
X208992Y372453D01*
X208814Y372395D01*
X208634Y372338D01*
X208622Y372331D01*
X208609Y372327D01*
X208446Y372234D01*
X208281Y372143D01*
X208271Y372134D01*
X208260Y372128D01*
X208117Y372004D01*
X207974Y371882D01*
X207966Y371872D01*
X207956Y371863D01*
X207841Y371713D01*
X207725Y371566D01*
X207719Y371555D01*
X207711Y371544D01*
X207665Y371454D01*
X204843Y368633D01*
X203824Y368210D01*
X203823Y368210D01*
X201202Y367125D01*
X197261Y367125D01*
X193620Y368633D01*
X190833Y371420D01*
X189325Y375061D01*
X189325Y379002D01*
X190833Y382643D01*
X193620Y385430D01*
X196946Y386808D01*
X197261Y386938D01*
X201202Y386938D01*
X204843Y385430D01*
X207630Y382643D01*
X207856Y382096D01*
X207867Y382076D01*
X207874Y382055D01*
X207962Y381898D01*
X208047Y381741D01*
X208061Y381724D01*
X208072Y381704D01*
X208189Y381569D01*
X208303Y381431D01*
X208320Y381417D01*
X208335Y381400D01*
X208476Y381290D01*
X208616Y381177D01*
X208635Y381167D01*
X208653Y381153D01*
X208813Y381073D01*
X208972Y380990D01*
X208994Y380984D01*
X209014Y380974D01*
X209187Y380927D01*
X209359Y380877D01*
X209381Y380875D01*
X209402Y380869D01*
X209733Y380842D01*
X210610Y380842D01*
X210624Y380843D01*
X210637Y380842D01*
X210824Y380863D01*
X211011Y380882D01*
X211024Y380886D01*
X211037Y380887D01*
X211216Y380945D01*
X211396Y381000D01*
X211408Y381006D01*
X211420Y381011D01*
X211584Y381102D01*
X211750Y381192D01*
X211760Y381200D01*
X211772Y381207D01*
X211914Y381329D01*
X212059Y381450D01*
X212068Y381460D01*
X212078Y381469D01*
X212194Y381617D01*
X212311Y381763D01*
X212318Y381775D01*
X212326Y381786D01*
X212411Y381955D01*
X212497Y382121D01*
X212501Y382133D01*
X212507Y382145D01*
X212556Y382327D01*
X212608Y382508D01*
X212609Y382521D01*
X212613Y382534D01*
X212626Y382720D01*
X212641Y382909D01*
X212640Y382922D01*
X212641Y382935D01*
X212616Y383121D01*
X212594Y383309D01*
X212590Y383321D01*
X212588Y383335D01*
X212487Y383651D01*
X212041Y384727D01*
X212041Y387141D01*
X212965Y389371D01*
X214672Y391079D01*
X216903Y392003D01*
X219317Y392003D01*
X221548Y391079D01*
X223255Y389371D01*
X223834Y387973D01*
X223849Y387945D01*
X223859Y387916D01*
X223944Y387768D01*
X224024Y387618D01*
X224044Y387594D01*
X224060Y387567D01*
X224274Y387314D01*
X226707Y384881D01*
X226728Y384864D01*
X226745Y384844D01*
X226883Y384737D01*
X227018Y384626D01*
X227042Y384614D01*
X227063Y384597D01*
X227219Y384520D01*
X227374Y384438D01*
X227400Y384430D01*
X227424Y384418D01*
X227593Y384373D01*
X227760Y384323D01*
X227787Y384321D01*
X227812Y384314D01*
X228143Y384286D01*
X238523Y384286D01*
X238541Y384288D01*
X238559Y384287D01*
X238741Y384308D01*
X238924Y384326D01*
X238941Y384332D01*
X238958Y384334D01*
X239133Y384391D01*
X239309Y384445D01*
X239324Y384453D01*
X239341Y384459D01*
X239501Y384549D01*
X239663Y384636D01*
X239676Y384648D01*
X239692Y384656D01*
X239831Y384777D01*
X239972Y384894D01*
X239983Y384908D01*
X239997Y384920D01*
X240109Y385065D01*
X240224Y385208D01*
X240232Y385224D01*
X240243Y385238D01*
X240325Y385403D01*
X240410Y385565D01*
X240415Y385582D01*
X240423Y385598D01*
X240470Y385776D01*
X240521Y385952D01*
X240523Y385970D01*
X240527Y385987D01*
X240540Y386141D01*
X241478Y388406D01*
X243185Y390114D01*
X245416Y391037D01*
X247830Y391037D01*
X250061Y390114D01*
X250514Y389660D01*
X250535Y389643D01*
X250552Y389623D01*
X250690Y389516D01*
X250826Y389405D01*
X250849Y389393D01*
X250870Y389376D01*
X251027Y389298D01*
X251181Y389216D01*
X251207Y389209D01*
X251231Y389197D01*
X251400Y389151D01*
X251567Y389102D01*
X251594Y389099D01*
X251620Y389092D01*
X251950Y389065D01*
X285862Y389065D01*
X285876Y389067D01*
X285889Y389065D01*
X286075Y389086D01*
X286263Y389105D01*
X286276Y389109D01*
X286289Y389111D01*
X286467Y389168D01*
X286648Y389223D01*
X286660Y389230D01*
X286672Y389234D01*
X286837Y389325D01*
X287002Y389415D01*
X287012Y389424D01*
X287024Y389430D01*
X287168Y389553D01*
X287311Y389673D01*
X287320Y389683D01*
X287330Y389692D01*
X287446Y389841D01*
X287564Y389987D01*
X287570Y389998D01*
X287578Y390009D01*
X287663Y390178D01*
X287749Y390344D01*
X287753Y390357D01*
X287759Y390369D01*
X287809Y390551D01*
X287860Y390731D01*
X287862Y390744D01*
X287865Y390757D01*
X287878Y390944D01*
X287893Y391132D01*
X287892Y391145D01*
X287893Y391159D01*
X287868Y391345D01*
X287846Y391532D01*
X287842Y391545D01*
X287841Y391558D01*
X287739Y391874D01*
X286825Y394080D01*
X286825Y396495D01*
X287749Y398725D01*
X289456Y400432D01*
X291687Y401356D01*
X294105Y401356D01*
X294128Y401358D01*
X294150Y401357D01*
X294328Y401378D01*
X294506Y401396D01*
X294527Y401403D01*
X294550Y401405D01*
X294720Y401462D01*
X294891Y401514D01*
X294911Y401525D01*
X294932Y401532D01*
X295088Y401621D01*
X295245Y401706D01*
X295262Y401720D01*
X295282Y401731D01*
X295417Y401849D01*
X295554Y401964D01*
X295568Y401981D01*
X295585Y401996D01*
X295695Y402138D01*
X295807Y402278D01*
X295817Y402297D01*
X295830Y402315D01*
X295982Y402610D01*
X296480Y403813D01*
X298187Y405520D01*
X300422Y406446D01*
X300439Y406444D01*
X300613Y406466D01*
X300786Y406484D01*
X300812Y406491D01*
X300838Y406495D01*
X301004Y406550D01*
X301171Y406602D01*
X301195Y406615D01*
X301220Y406623D01*
X301372Y406710D01*
X301525Y406794D01*
X301546Y406811D01*
X301569Y406824D01*
X301822Y407039D01*
X305060Y410277D01*
X306740Y410973D01*
X416365Y410973D01*
X416391Y410975D01*
X416418Y410973D01*
X416592Y410995D01*
X416765Y411013D01*
X416791Y411020D01*
X416817Y411024D01*
X416983Y411079D01*
X417150Y411131D01*
X417174Y411144D01*
X417199Y411152D01*
X417351Y411239D01*
X417504Y411323D01*
X417525Y411340D01*
X417548Y411353D01*
X417801Y411568D01*
X423225Y416992D01*
X423242Y417012D01*
X423262Y417030D01*
X423369Y417168D01*
X423480Y417303D01*
X423493Y417327D01*
X423509Y417348D01*
X423587Y417505D01*
X423669Y417659D01*
X423676Y417684D01*
X423688Y417709D01*
X423734Y417878D01*
X423783Y418045D01*
X423786Y418071D01*
X423793Y418097D01*
X423820Y418428D01*
X423820Y473191D01*
X424516Y474871D01*
X425802Y476158D01*
X425863Y476183D01*
X426042Y476257D01*
X426070Y476272D01*
X426099Y476282D01*
X426247Y476367D01*
X426397Y476447D01*
X426421Y476467D01*
X426448Y476483D01*
X426701Y476698D01*
X426827Y476823D01*
X435353Y485349D01*
X436854Y486850D01*
X438441Y487507D01*
X438771Y487507D01*
X438830Y487513D01*
X438889Y487511D01*
X439030Y487533D01*
X439172Y487547D01*
X439228Y487564D01*
X439286Y487574D01*
X439420Y487623D01*
X439557Y487665D01*
X439609Y487693D01*
X439664Y487714D01*
X439785Y487789D01*
X439911Y487857D01*
X439956Y487895D01*
X440006Y487926D01*
X440110Y488023D01*
X440220Y488115D01*
X440257Y488161D01*
X440300Y488201D01*
X440383Y488317D01*
X440472Y488429D01*
X440499Y488481D01*
X440534Y488529D01*
X440592Y488659D01*
X440658Y488786D01*
X440674Y488842D01*
X440698Y488896D01*
X440730Y489035D01*
X440769Y489173D01*
X440774Y489231D01*
X440787Y489289D01*
X440790Y489432D01*
X440802Y489574D01*
X440795Y489633D01*
X440797Y489691D01*
X440772Y489832D01*
X440755Y489974D01*
X440737Y490030D01*
X440727Y490088D01*
X440688Y490186D01*
X440823Y491078D01*
X440823Y491080D01*
X440823Y491082D01*
X440845Y491413D01*
X440832Y492245D01*
X440848Y492277D01*
X440895Y492348D01*
X440939Y492456D01*
X440992Y492559D01*
X441015Y492641D01*
X441048Y492721D01*
X441070Y492835D01*
X441101Y492947D01*
X441107Y493032D01*
X441123Y493116D01*
X441122Y493233D01*
X441131Y493348D01*
X441120Y493433D01*
X441120Y493519D01*
X441096Y493632D01*
X441081Y493748D01*
X441065Y493795D01*
X441323Y494587D01*
X441324Y494589D01*
X441324Y494590D01*
X441400Y494913D01*
X441524Y495736D01*
X441545Y495765D01*
X441604Y495827D01*
X441665Y495926D01*
X441734Y496020D01*
X441770Y496097D01*
X441815Y496170D01*
X441856Y496279D01*
X441905Y496384D01*
X441925Y496467D01*
X441955Y496547D01*
X441973Y496662D01*
X442001Y496775D01*
X442004Y496861D01*
X442018Y496945D01*
X442013Y497061D01*
X442017Y497178D01*
X442010Y497227D01*
X442394Y497965D01*
X442395Y497967D01*
X442396Y497968D01*
X442524Y498274D01*
X442782Y499065D01*
X442807Y499090D01*
X442875Y499142D01*
X442951Y499230D01*
X443035Y499311D01*
X443084Y499381D01*
X443140Y499445D01*
X443198Y499546D01*
X443264Y499642D01*
X443298Y499721D01*
X443340Y499795D01*
X443377Y499905D01*
X443423Y500012D01*
X443440Y500096D01*
X443467Y500177D01*
X443481Y500292D01*
X443505Y500406D01*
X443506Y500456D01*
X444006Y501121D01*
X444007Y501122D01*
X444009Y501124D01*
X444185Y501405D01*
X444570Y502143D01*
X444599Y502163D01*
X444674Y502203D01*
X444764Y502277D01*
X444860Y502343D01*
X444920Y502404D01*
X444986Y502458D01*
X445059Y502548D01*
X445140Y502632D01*
X445187Y502704D01*
X445241Y502770D01*
X445295Y502873D01*
X445358Y502971D01*
X445389Y503050D01*
X445429Y503126D01*
X445462Y503237D01*
X445504Y503346D01*
X445513Y503395D01*
X446116Y503968D01*
X446117Y503970D01*
X446119Y503971D01*
X446339Y504219D01*
X446840Y504883D01*
X446872Y504898D01*
X446953Y504926D01*
X447054Y504984D01*
X447160Y505033D01*
X447228Y505084D01*
X447302Y505126D01*
X447390Y505203D01*
X447483Y505272D01*
X447541Y505335D01*
X447605Y505392D01*
X447676Y505484D01*
X447754Y505570D01*
X447797Y505644D01*
X447849Y505712D01*
X447900Y505816D01*
X447960Y505916D01*
X447977Y505963D01*
X448666Y506430D01*
X448667Y506431D01*
X448669Y506432D01*
X448927Y506640D01*
X449491Y507175D01*
X449608Y507312D01*
X449730Y507447D01*
X449740Y507465D01*
X449754Y507480D01*
X449842Y507637D01*
X449934Y507793D01*
X449941Y507813D01*
X449951Y507831D01*
X450007Y508003D01*
X450067Y508174D01*
X450069Y508194D01*
X450076Y508214D01*
X450097Y508393D01*
X450121Y508572D01*
X450120Y508593D01*
X450122Y508614D01*
X450107Y508794D01*
X450096Y508974D01*
X450091Y508994D01*
X450089Y509015D01*
X450039Y509188D01*
X449992Y509363D01*
X449983Y509384D01*
X449977Y509402D01*
X449941Y509471D01*
X449850Y509663D01*
X428426Y546772D01*
X429054Y547069D01*
X429076Y547086D01*
X429103Y547096D01*
X429155Y547145D01*
X429213Y547188D01*
X429227Y547213D01*
X429248Y547232D01*
X429277Y547298D01*
X429313Y547360D01*
X429316Y547388D01*
X429328Y547414D01*
X429329Y547486D01*
X429338Y547557D01*
X429330Y547584D01*
X429331Y547613D01*
X429295Y547708D01*
X429284Y547748D01*
X429277Y547757D01*
X429273Y547769D01*
X419773Y564269D01*
X419721Y564328D01*
X419675Y564390D01*
X419656Y564401D01*
X419641Y564418D01*
X419571Y564452D01*
X419504Y564492D01*
X419480Y564496D01*
X419462Y564504D01*
X419417Y564506D01*
X419340Y564519D01*
X400340Y564519D01*
X400312Y564514D01*
X400284Y564516D01*
X400216Y564494D01*
X400145Y564480D01*
X400122Y564464D01*
X400095Y564455D01*
X400040Y564408D01*
X399981Y564367D01*
X399966Y564343D01*
X399945Y564325D01*
X399913Y564260D01*
X399874Y564200D01*
X399869Y564172D01*
X399857Y564146D01*
X399848Y564045D01*
X399841Y564003D01*
X399843Y563993D01*
X399842Y563980D01*
X399899Y563265D01*
X356067Y563265D01*
X355899Y563249D01*
X355730Y563237D01*
X355698Y563229D01*
X355666Y563225D01*
X355504Y563176D01*
X355341Y563131D01*
X355312Y563117D01*
X355281Y563107D01*
X355132Y563027D01*
X354981Y562951D01*
X354956Y562931D01*
X354927Y562915D01*
X354797Y562807D01*
X354664Y562703D01*
X354643Y562679D01*
X354618Y562658D01*
X354512Y562526D01*
X354402Y562398D01*
X354386Y562369D01*
X354365Y562344D01*
X354288Y562194D01*
X354205Y562047D01*
X354193Y562012D01*
X354180Y561987D01*
X354156Y561904D01*
X354097Y561733D01*
X353829Y560671D01*
X353828Y560669D01*
X353828Y560667D01*
X353773Y560340D01*
X353704Y559504D01*
X353693Y559488D01*
X353640Y559422D01*
X353585Y559319D01*
X353522Y559221D01*
X353491Y559141D01*
X353451Y559066D01*
X353418Y558954D01*
X353376Y558846D01*
X353361Y558761D01*
X353337Y558680D01*
X353327Y558563D01*
X353307Y558449D01*
X353309Y558364D01*
X353301Y558279D01*
X353314Y558163D01*
X353317Y558046D01*
X353325Y558010D01*
X352990Y557246D01*
X352989Y557244D01*
X352988Y557242D01*
X352881Y556928D01*
X352675Y556115D01*
X352662Y556101D01*
X352598Y556044D01*
X352527Y555952D01*
X352449Y555865D01*
X352405Y555792D01*
X352353Y555724D01*
X352302Y555620D01*
X352243Y555520D01*
X352214Y555439D01*
X352177Y555362D01*
X352148Y555250D01*
X352109Y555140D01*
X352097Y555055D01*
X352076Y554973D01*
X352069Y554856D01*
X352053Y554741D01*
X352055Y554704D01*
X351806Y554322D01*
X351598Y554005D01*
X351598Y554003D01*
X351596Y554002D01*
X351439Y553710D01*
X351102Y552942D01*
X351087Y552930D01*
X351014Y552885D01*
X350929Y552805D01*
X350838Y552733D01*
X350783Y552668D01*
X350720Y552609D01*
X350653Y552514D01*
X350578Y552425D01*
X350537Y552351D01*
X350487Y552281D01*
X350440Y552175D01*
X350383Y552073D01*
X350358Y551991D01*
X350323Y551914D01*
X350297Y551800D01*
X350262Y551689D01*
X350258Y551652D01*
X349693Y551038D01*
X349692Y551036D01*
X349690Y551035D01*
X349487Y550773D01*
X349028Y550071D01*
X349011Y550061D01*
X348932Y550029D01*
X348835Y549964D01*
X348733Y549908D01*
X348668Y549853D01*
X348597Y549805D01*
X348515Y549723D01*
X348426Y549648D01*
X348373Y549581D01*
X348313Y549520D01*
X348248Y549423D01*
X348176Y549332D01*
X348138Y549256D01*
X348090Y549185D01*
X348046Y549077D01*
X347994Y548973D01*
X347984Y548937D01*
X347325Y548424D01*
X347324Y548423D01*
X347322Y548422D01*
X347078Y548197D01*
X346510Y547580D01*
X346491Y547573D01*
X346408Y547554D01*
X346302Y547507D01*
X346192Y547468D01*
X346119Y547424D01*
X346041Y547389D01*
X345946Y547321D01*
X345846Y547262D01*
X345783Y547204D01*
X345714Y547155D01*
X345634Y547069D01*
X345548Y546991D01*
X345497Y546923D01*
X345439Y546860D01*
X345378Y546761D01*
X345309Y546667D01*
X345293Y546634D01*
X344559Y546236D01*
X344557Y546235D01*
X344556Y546235D01*
X344278Y546053D01*
X343616Y545538D01*
X343597Y545534D01*
X343512Y545529D01*
X343399Y545500D01*
X343284Y545480D01*
X343205Y545448D01*
X343122Y545427D01*
X343018Y545375D01*
X342909Y545333D01*
X342838Y545287D01*
X342761Y545249D01*
X342668Y545178D01*
X342571Y545116D01*
X342509Y545056D01*
X342441Y545004D01*
X342365Y544916D01*
X342281Y544835D01*
X342260Y544805D01*
X341471Y544534D01*
X341469Y544533D01*
X341467Y544532D01*
X341163Y544399D01*
X340426Y544000D01*
X340406Y544000D01*
X340321Y544009D01*
X340205Y543998D01*
X340089Y543997D01*
X340005Y543979D01*
X339920Y543971D01*
X339809Y543938D01*
X339695Y543914D01*
X339617Y543880D01*
X339535Y543856D01*
X339432Y543801D01*
X339325Y543755D01*
X339255Y543707D01*
X339179Y543667D01*
X339089Y543593D01*
X338994Y543527D01*
X338968Y543500D01*
X338144Y543362D01*
X338143Y543362D01*
X338141Y543362D01*
X337819Y543280D01*
X337026Y543008D01*
X337006Y543011D01*
X336924Y543034D01*
X336808Y543042D01*
X336693Y543060D01*
X336608Y543057D01*
X336523Y543063D01*
X336407Y543048D01*
X336291Y543044D01*
X336208Y543023D01*
X336123Y543013D01*
X336013Y542975D01*
X335900Y542948D01*
X335822Y542912D01*
X335741Y542884D01*
X335640Y542826D01*
X335535Y542777D01*
X335505Y542755D01*
X334670Y542755D01*
X334669Y542754D01*
X334667Y542755D01*
X334336Y542727D01*
X333509Y542589D01*
X333490Y542595D01*
X333413Y542631D01*
X333300Y542659D01*
X333189Y542696D01*
X333105Y542706D01*
X333021Y542726D01*
X332905Y542731D01*
X332790Y542745D01*
X332704Y542739D01*
X332619Y542742D01*
X332504Y542724D01*
X332388Y542715D01*
X332306Y542692D01*
X332222Y542679D01*
X332113Y542638D01*
X332001Y542606D01*
X331967Y542590D01*
X331144Y542727D01*
X331142Y542727D01*
X331140Y542728D01*
X330810Y542755D01*
X329973Y542755D01*
X329952Y542765D01*
X329883Y542812D01*
X329776Y542858D01*
X329673Y542912D01*
X329591Y542937D01*
X329513Y542970D01*
X329399Y542994D01*
X329287Y543027D01*
X329202Y543035D01*
X329119Y543052D01*
X329002Y543053D01*
X328886Y543064D01*
X328801Y543054D01*
X328716Y543055D01*
X328602Y543033D01*
X328486Y543020D01*
X328451Y543009D01*
X327661Y543280D01*
X327659Y543280D01*
X327657Y543281D01*
X327336Y543362D01*
X326508Y543500D01*
X326493Y543512D01*
X326431Y543572D01*
X326333Y543634D01*
X326241Y543705D01*
X326164Y543743D01*
X326092Y543789D01*
X325984Y543831D01*
X325879Y543882D01*
X325797Y543903D01*
X325717Y543934D01*
X325602Y543954D01*
X325490Y543984D01*
X325404Y543989D01*
X325320Y544003D01*
X325204Y544000D01*
X325088Y544007D01*
X325051Y544002D01*
X324317Y544399D01*
X324315Y544400D01*
X324313Y544401D01*
X324009Y544534D01*
X323216Y544806D01*
X323203Y544820D01*
X323152Y544889D01*
X323065Y544967D01*
X322986Y545052D01*
X322916Y545101D01*
X322853Y545159D01*
X322753Y545218D01*
X322658Y545286D01*
X322580Y545321D01*
X322507Y545364D01*
X322397Y545403D01*
X322291Y545450D01*
X322207Y545469D01*
X322127Y545498D01*
X322011Y545514D01*
X321898Y545539D01*
X321861Y545540D01*
X321202Y546053D01*
X321200Y546054D01*
X321199Y546055D01*
X320921Y546236D01*
X320183Y546636D01*
X320172Y546652D01*
X320134Y546728D01*
X320061Y546819D01*
X319997Y546916D01*
X319936Y546976D01*
X319883Y547043D01*
X319794Y547118D01*
X319712Y547201D01*
X319641Y547248D01*
X319576Y547303D01*
X319474Y547359D01*
X319377Y547424D01*
X319298Y547456D01*
X319223Y547497D01*
X319112Y547532D01*
X319004Y547576D01*
X318967Y547583D01*
X318402Y548197D01*
X318401Y548198D01*
X318399Y548200D01*
X318155Y548424D01*
X317493Y548939D01*
X317485Y548957D01*
X317459Y549039D01*
X317403Y549141D01*
X317355Y549247D01*
X317306Y549316D01*
X317264Y549391D01*
X317189Y549480D01*
X317121Y549574D01*
X317059Y549633D01*
X317004Y549698D01*
X316912Y549770D01*
X316827Y549849D01*
X316755Y549894D01*
X316688Y549947D01*
X316584Y550000D01*
X316485Y550061D01*
X316450Y550074D01*
X315993Y550773D01*
X315992Y550774D01*
X315991Y550776D01*
X315787Y551038D01*
X314793Y552118D01*
X314741Y552164D01*
X314696Y552216D01*
X314591Y552297D01*
X314492Y552386D01*
X314432Y552420D01*
X314378Y552462D01*
X314259Y552522D01*
X314144Y552589D01*
X314079Y552611D01*
X314018Y552642D01*
X313889Y552676D01*
X313764Y552719D01*
X313695Y552728D01*
X313629Y552746D01*
X313450Y552761D01*
X313364Y552772D01*
X313335Y552770D01*
X313298Y552773D01*
X292268Y552773D01*
X292241Y552771D01*
X292215Y552773D01*
X292041Y552751D01*
X291867Y552733D01*
X291842Y552726D01*
X291815Y552722D01*
X291650Y552667D01*
X291482Y552615D01*
X291459Y552603D01*
X291434Y552594D01*
X291282Y552507D01*
X291128Y552424D01*
X291108Y552407D01*
X291085Y552393D01*
X290832Y552178D01*
X290093Y551439D01*
X287862Y550515D01*
X285448Y550515D01*
X283217Y551439D01*
X281510Y553146D01*
X280586Y555377D01*
X280586Y557791D01*
X281559Y560139D01*
X281639Y560293D01*
X281730Y560464D01*
X281732Y560473D01*
X281736Y560481D01*
X281789Y560666D01*
X281844Y560850D01*
X281845Y560859D01*
X281848Y560868D01*
X281863Y561059D01*
X281881Y561251D01*
X281880Y561260D01*
X281881Y561270D01*
X281858Y561460D01*
X281838Y561652D01*
X281835Y561660D01*
X281834Y561669D01*
X281774Y561852D01*
X281716Y562035D01*
X281712Y562043D01*
X281709Y562052D01*
X281614Y562220D01*
X281521Y562388D01*
X281515Y562395D01*
X281511Y562403D01*
X281386Y562548D01*
X281261Y562695D01*
X281254Y562701D01*
X281248Y562708D01*
X281096Y562825D01*
X280945Y562945D01*
X280937Y562949D01*
X280930Y562954D01*
X280757Y563040D01*
X280586Y563127D01*
X280578Y563129D01*
X280569Y563134D01*
X280383Y563184D01*
X280198Y563235D01*
X280189Y563236D01*
X280180Y563238D01*
X279850Y563265D01*
X265581Y563265D01*
X265638Y563980D01*
X265634Y564009D01*
X265639Y564037D01*
X265622Y564106D01*
X265614Y564178D01*
X265600Y564202D01*
X265593Y564230D01*
X265550Y564288D01*
X265515Y564350D01*
X265492Y564367D01*
X265475Y564390D01*
X265413Y564427D01*
X265356Y564470D01*
X265328Y564477D01*
X265304Y564492D01*
X265204Y564508D01*
X265163Y564519D01*
X265153Y564517D01*
X265140Y564519D01*
X246140Y564519D01*
X246064Y564504D01*
X245986Y564495D01*
X245967Y564484D01*
X245945Y564480D01*
X245881Y564436D01*
X245813Y564397D01*
X245797Y564378D01*
X245781Y564367D01*
X245757Y564329D01*
X245707Y564269D01*
X236207Y547769D01*
X236198Y547742D01*
X236182Y547718D01*
X236167Y547648D01*
X236144Y547580D01*
X236147Y547552D01*
X236141Y547524D01*
X236155Y547454D01*
X236160Y547382D01*
X236173Y547357D01*
X236179Y547329D01*
X236219Y547269D01*
X236252Y547206D01*
X236274Y547188D01*
X236290Y547164D01*
X236373Y547106D01*
X236405Y547079D01*
X236416Y547076D01*
X236427Y547069D01*
X237054Y546772D01*
X215897Y510127D01*
X215834Y509986D01*
X215764Y509849D01*
X215751Y509803D01*
X215732Y509760D01*
X215697Y509610D01*
X215656Y509461D01*
X215652Y509414D01*
X215641Y509368D01*
X215637Y509213D01*
X215626Y509060D01*
X215632Y509013D01*
X215630Y508965D01*
X215657Y508814D01*
X215676Y508660D01*
X215691Y508615D01*
X215699Y508568D01*
X215755Y508425D01*
X215804Y508279D01*
X215827Y508237D01*
X215845Y508193D01*
X215928Y508063D01*
X216004Y507929D01*
X216036Y507894D01*
X216061Y507854D01*
X216169Y507742D01*
X216270Y507627D01*
X216308Y507598D01*
X216341Y507564D01*
X216368Y507545D01*
X217383Y506544D01*
X217384Y506543D01*
X217386Y506542D01*
X217640Y506329D01*
X218319Y505852D01*
X218327Y505837D01*
X218346Y505779D01*
X218418Y505657D01*
X218482Y505531D01*
X218519Y505484D01*
X218550Y505432D01*
X218593Y505382D01*
X218598Y505374D01*
X218620Y505351D01*
X218681Y505280D01*
X218731Y505216D01*
X218748Y505201D01*
X218766Y505180D01*
X218784Y505163D01*
X218831Y505125D01*
X218873Y505080D01*
X218986Y504999D01*
X219038Y504955D01*
X219047Y504950D01*
X219097Y504910D01*
X219151Y504882D01*
X219201Y504847D01*
X219329Y504789D01*
X219454Y504724D01*
X219513Y504707D01*
X219514Y504706D01*
X219518Y504701D01*
X219536Y504687D01*
X219551Y504670D01*
X219694Y504563D01*
X219834Y504452D01*
X219854Y504441D01*
X219873Y504427D01*
X220034Y504350D01*
X220193Y504269D01*
X220215Y504263D01*
X220236Y504253D01*
X220409Y504209D01*
X220581Y504161D01*
X220604Y504160D01*
X220626Y504154D01*
X220803Y504145D01*
X220982Y504132D01*
X221005Y504135D01*
X221028Y504134D01*
X221204Y504160D01*
X221382Y504182D01*
X221404Y504190D01*
X221426Y504193D01*
X221594Y504254D01*
X221763Y504311D01*
X221783Y504322D01*
X221805Y504330D01*
X221958Y504423D01*
X222112Y504512D01*
X222132Y504528D01*
X222149Y504539D01*
X222209Y504594D01*
X222365Y504726D01*
X223811Y506172D01*
X226042Y507096D01*
X228456Y507096D01*
X228794Y506956D01*
X228811Y506951D01*
X228827Y506943D01*
X229002Y506893D01*
X229179Y506840D01*
X229197Y506838D01*
X229214Y506833D01*
X229396Y506819D01*
X229580Y506802D01*
X229598Y506804D01*
X229615Y506802D01*
X229798Y506824D01*
X229980Y506843D01*
X229997Y506849D01*
X230015Y506851D01*
X230190Y506909D01*
X230365Y506963D01*
X230380Y506972D01*
X230397Y506977D01*
X230557Y507068D01*
X230718Y507156D01*
X230732Y507168D01*
X230747Y507177D01*
X230885Y507297D01*
X231026Y507416D01*
X231037Y507430D01*
X231051Y507441D01*
X231162Y507587D01*
X231277Y507730D01*
X231285Y507746D01*
X231296Y507760D01*
X231448Y508056D01*
X231629Y508493D01*
X233336Y510200D01*
X235566Y511124D01*
X237981Y511124D01*
X240211Y510200D01*
X241918Y508493D01*
X242842Y506262D01*
X242842Y503848D01*
X241918Y501618D01*
X240787Y500486D01*
X240774Y500470D01*
X240757Y500456D01*
X240646Y500314D01*
X240532Y500175D01*
X240522Y500156D01*
X240509Y500139D01*
X240428Y499978D01*
X240343Y499819D01*
X240337Y499799D01*
X240328Y499780D01*
X240280Y499606D01*
X240229Y499433D01*
X240227Y499412D01*
X240221Y499391D01*
X240209Y499213D01*
X240192Y499032D01*
X240195Y499011D01*
X240193Y498990D01*
X240216Y498812D01*
X240236Y498632D01*
X240242Y498611D01*
X240245Y498590D01*
X240302Y498421D01*
X240357Y498248D01*
X240368Y498229D01*
X240374Y498209D01*
X240464Y498054D01*
X240552Y497896D01*
X240566Y497879D01*
X240577Y497861D01*
X240792Y497609D01*
X241227Y497177D01*
X241262Y487282D01*
X240149Y486162D01*
X240138Y486148D01*
X240124Y486136D01*
X240011Y485992D01*
X239895Y485850D01*
X239887Y485834D01*
X239876Y485820D01*
X239793Y485656D01*
X239708Y485493D01*
X239703Y485476D01*
X239695Y485460D01*
X239646Y485283D01*
X239594Y485107D01*
X239593Y485089D01*
X239588Y485072D01*
X239575Y484889D01*
X239559Y484706D01*
X239561Y484688D01*
X239560Y484670D01*
X239584Y484488D01*
X239604Y484306D01*
X239610Y484289D01*
X239612Y484271D01*
X239671Y484097D01*
X239727Y483922D01*
X239736Y483907D01*
X239741Y483890D01*
X239834Y483730D01*
X239923Y483571D01*
X239935Y483557D01*
X239944Y483542D01*
X240159Y483289D01*
X241280Y482177D01*
X241284Y480774D01*
X241287Y480750D01*
X241285Y480727D01*
X241308Y480550D01*
X241326Y480373D01*
X241333Y480351D01*
X241336Y480328D01*
X241392Y480159D01*
X241445Y479989D01*
X241456Y479968D01*
X241464Y479946D01*
X241553Y479791D01*
X241638Y479635D01*
X241653Y479618D01*
X241665Y479597D01*
X241879Y479344D01*
X248725Y472499D01*
X249382Y470912D01*
X249382Y455616D01*
X248725Y454029D01*
X245853Y451158D01*
X245842Y451144D01*
X245828Y451132D01*
X245714Y450988D01*
X245598Y450846D01*
X245590Y450830D01*
X245579Y450816D01*
X245495Y450652D01*
X245410Y450490D01*
X245405Y450473D01*
X245396Y450457D01*
X245347Y450280D01*
X245295Y450104D01*
X245293Y450087D01*
X245288Y450069D01*
X245275Y449886D01*
X245258Y449703D01*
X245260Y449686D01*
X245259Y449668D01*
X245282Y449486D01*
X245302Y449303D01*
X245307Y449286D01*
X245309Y449268D01*
X245368Y449095D01*
X245423Y448919D01*
X245432Y448904D01*
X245438Y448887D01*
X245530Y448727D01*
X245618Y448567D01*
X245630Y448554D01*
X245639Y448538D01*
X245853Y448285D01*
X249030Y445108D01*
X249054Y445088D01*
X249075Y445065D01*
X249210Y444961D01*
X249341Y444853D01*
X249369Y444839D01*
X249394Y444820D01*
X249689Y444668D01*
X251088Y444089D01*
X252795Y442381D01*
X253719Y440151D01*
X253719Y437737D01*
X252791Y435498D01*
X252700Y435378D01*
X252592Y435247D01*
X252577Y435219D01*
X252558Y435194D01*
X252406Y434899D01*
X252173Y434334D01*
X246104Y428265D01*
X244129Y427447D01*
X243995Y427431D01*
X243822Y427413D01*
X243797Y427405D01*
X243770Y427402D01*
X243604Y427346D01*
X243437Y427295D01*
X243414Y427282D01*
X243388Y427274D01*
X243237Y427187D01*
X243083Y427103D01*
X243063Y427086D01*
X243039Y427073D01*
X242786Y426858D01*
X240929Y425001D01*
X229035Y425001D01*
X227695Y426341D01*
X227695Y439239D01*
X227693Y439266D01*
X227695Y439292D01*
X227673Y439466D01*
X227656Y439639D01*
X227648Y439665D01*
X227644Y439692D01*
X227589Y439858D01*
X227537Y440024D01*
X227525Y440048D01*
X227516Y440073D01*
X227459Y440173D01*
X227459Y447347D01*
X227458Y447360D01*
X227459Y447374D01*
X227438Y447560D01*
X227419Y447748D01*
X227415Y447760D01*
X227414Y447774D01*
X227356Y447953D01*
X227301Y448132D01*
X227294Y448144D01*
X227290Y448157D01*
X227198Y448322D01*
X227109Y448486D01*
X227101Y448497D01*
X227094Y448508D01*
X226972Y448651D01*
X226851Y448796D01*
X226841Y448804D01*
X226832Y448814D01*
X226684Y448930D01*
X226538Y449048D01*
X226526Y449054D01*
X226515Y449063D01*
X226347Y449147D01*
X226180Y449234D01*
X226167Y449237D01*
X226155Y449243D01*
X225974Y449293D01*
X225793Y449345D01*
X225780Y449346D01*
X225767Y449350D01*
X225579Y449363D01*
X225392Y449378D01*
X225379Y449376D01*
X225365Y449377D01*
X225178Y449353D01*
X224992Y449331D01*
X224980Y449327D01*
X224966Y449325D01*
X224650Y449224D01*
X222673Y448405D01*
X209256Y448405D01*
X209230Y448402D01*
X209203Y448404D01*
X209029Y448382D01*
X208856Y448365D01*
X208830Y448357D01*
X208803Y448353D01*
X208638Y448298D01*
X208471Y448246D01*
X208447Y448234D01*
X208422Y448225D01*
X208270Y448138D01*
X208117Y448055D01*
X208096Y448038D01*
X208073Y448024D01*
X207820Y447810D01*
X204843Y444833D01*
X201304Y443367D01*
X201202Y443325D01*
X197261Y443325D01*
X193620Y444833D01*
X190833Y447620D01*
X189325Y451261D01*
X189325Y455202D01*
X190509Y458062D01*
X190529Y458128D01*
X190557Y458191D01*
X190587Y458320D01*
X190626Y458447D01*
X190632Y458516D01*
X190648Y458583D01*
X190651Y458716D01*
X190664Y458848D01*
X190657Y458917D01*
X190659Y458985D01*
X190636Y459116D01*
X190622Y459249D01*
X190602Y459314D01*
X190590Y459382D01*
X190542Y459506D01*
X190502Y459633D01*
X190469Y459693D01*
X190444Y459757D01*
X190373Y459870D01*
X190309Y459986D01*
X190265Y460039D01*
X190228Y460097D01*
X190135Y460193D01*
X190050Y460294D01*
X189996Y460337D01*
X189948Y460387D01*
X189839Y460462D01*
X189735Y460545D01*
X189674Y460577D01*
X189617Y460616D01*
X189495Y460668D01*
X189377Y460729D01*
X189311Y460748D01*
X189247Y460775D01*
X189117Y460803D01*
X188990Y460839D01*
X188921Y460844D01*
X188854Y460858D01*
X188720Y460860D01*
X188588Y460870D01*
X188520Y460862D01*
X188451Y460862D01*
X188320Y460837D01*
X188188Y460821D01*
X188123Y460800D01*
X188055Y460787D01*
X187932Y460737D01*
X187806Y460695D01*
X187746Y460661D01*
X187683Y460635D01*
X187572Y460561D01*
X187456Y460495D01*
X187405Y460450D01*
X187347Y460412D01*
X187253Y460318D01*
X187153Y460231D01*
X187111Y460176D01*
X187062Y460128D01*
X186960Y459980D01*
X186908Y459912D01*
X186892Y459882D01*
X186873Y459855D01*
X169932Y430511D01*
X169324Y430931D01*
X169297Y430942D01*
X169275Y430961D01*
X169206Y430981D01*
X169141Y431009D01*
X169112Y431009D01*
X169084Y431017D01*
X169013Y431009D01*
X168942Y431010D01*
X168915Y430998D01*
X168886Y430995D01*
X168824Y430960D01*
X168759Y430932D01*
X168738Y430912D01*
X168713Y430897D01*
X168650Y430820D01*
X168620Y430790D01*
X168616Y430780D01*
X168607Y430769D01*
X159107Y414269D01*
X159083Y414196D01*
X159052Y414126D01*
X159052Y414102D01*
X159044Y414080D01*
X159051Y414004D01*
X159050Y413927D01*
X159059Y413903D01*
X159060Y413882D01*
X159081Y413843D01*
X159100Y413791D01*
X159101Y413785D01*
X159103Y413783D01*
X159107Y413771D01*
X168607Y397271D01*
X168626Y397249D01*
X168639Y397223D01*
X168692Y397175D01*
X168739Y397122D01*
X168765Y397109D01*
X168787Y397090D01*
X168854Y397067D01*
X168918Y397036D01*
X168947Y397035D01*
X168974Y397025D01*
X169046Y397030D01*
X169117Y397027D01*
X169144Y397037D01*
X169173Y397039D01*
X169263Y397081D01*
X169303Y397096D01*
X169311Y397103D01*
X169324Y397109D01*
X169932Y397529D01*
X191308Y360505D01*
X191399Y360377D01*
X191485Y360246D01*
X191517Y360214D01*
X191542Y360178D01*
X191657Y360071D01*
X191768Y359959D01*
X191805Y359934D01*
X191837Y359904D01*
X191971Y359821D01*
X192101Y359733D01*
X192142Y359716D01*
X192180Y359693D01*
X192328Y359639D01*
X192473Y359578D01*
X192516Y359569D01*
X192558Y359554D01*
X192713Y359530D01*
X192868Y359499D01*
X192912Y359499D01*
X192956Y359492D01*
X193113Y359499D01*
X193270Y359499D01*
X193319Y359509D01*
X193358Y359510D01*
X193442Y359531D01*
X193597Y359560D01*
X194997Y359938D01*
X194998Y359939D01*
X195000Y359939D01*
X195312Y360052D01*
X196069Y360398D01*
X196105Y360396D01*
X196188Y360381D01*
X196305Y360384D01*
X196421Y360378D01*
X196506Y360389D01*
X196591Y360392D01*
X196704Y360418D01*
X196820Y360434D01*
X196900Y360462D01*
X196983Y360481D01*
X197090Y360529D01*
X197200Y360568D01*
X197273Y360611D01*
X197351Y360646D01*
X197446Y360714D01*
X197545Y360774D01*
X197582Y360807D01*
X198410Y360889D01*
X198412Y360889D01*
X198414Y360889D01*
X198740Y360950D01*
X199544Y361167D01*
X199579Y361159D01*
X199659Y361130D01*
X199775Y361114D01*
X199888Y361088D01*
X199973Y361086D01*
X200058Y361074D01*
X200174Y361081D01*
X200290Y361078D01*
X200375Y361093D01*
X200460Y361098D01*
X200573Y361128D01*
X200687Y361148D01*
X200766Y361179D01*
X200849Y361200D01*
X200954Y361252D01*
X201062Y361294D01*
X201104Y361321D01*
X201934Y361265D01*
X201936Y361265D01*
X201938Y361265D01*
X202270Y361271D01*
X203098Y361353D01*
X203131Y361339D01*
X203206Y361298D01*
X203317Y361263D01*
X203424Y361219D01*
X203508Y361203D01*
X203590Y361177D01*
X203706Y361164D01*
X203820Y361142D01*
X203905Y361143D01*
X203990Y361134D01*
X204106Y361145D01*
X204222Y361146D01*
X204306Y361163D01*
X204391Y361171D01*
X204503Y361204D01*
X204616Y361228D01*
X204662Y361248D01*
X205472Y361056D01*
X205474Y361056D01*
X205476Y361056D01*
X205804Y361007D01*
X206634Y360951D01*
X206664Y360932D01*
X206731Y360879D01*
X206835Y360827D01*
X206934Y360765D01*
X207014Y360735D01*
X207090Y360697D01*
X207202Y360666D01*
X207312Y360625D01*
X207396Y360612D01*
X207478Y360589D01*
X207594Y360580D01*
X207709Y360562D01*
X207794Y360565D01*
X207880Y360559D01*
X207995Y360574D01*
X208111Y360578D01*
X208160Y360590D01*
X208927Y360268D01*
X208929Y360268D01*
X208931Y360267D01*
X209246Y360164D01*
X210056Y359973D01*
X210083Y359949D01*
X210140Y359886D01*
X210234Y359817D01*
X210321Y359740D01*
X210395Y359698D01*
X210464Y359647D01*
X210570Y359598D01*
X210671Y359540D01*
X210751Y359513D01*
X210829Y359477D01*
X210942Y359449D01*
X211052Y359412D01*
X211137Y359402D01*
X211220Y359381D01*
X211336Y359377D01*
X211452Y359362D01*
X211502Y359366D01*
X212206Y358922D01*
X212207Y358921D01*
X212209Y358920D01*
X212503Y358767D01*
X213270Y358445D01*
X213293Y358417D01*
X213339Y358345D01*
X213420Y358262D01*
X213494Y358172D01*
X213560Y358118D01*
X213619Y358056D01*
X213715Y357990D01*
X213805Y357917D01*
X213881Y357877D01*
X213951Y357828D01*
X214058Y357782D01*
X214161Y357728D01*
X214243Y357703D01*
X214321Y357670D01*
X214435Y357646D01*
X214547Y357613D01*
X214596Y357608D01*
X215217Y357055D01*
X215219Y357053D01*
X215220Y357052D01*
X215486Y356853D01*
X216189Y356409D01*
X216207Y356378D01*
X216241Y356299D01*
X216307Y356203D01*
X216365Y356102D01*
X216421Y356038D01*
X216469Y355968D01*
X216553Y355887D01*
X216630Y355799D01*
X216698Y355748D01*
X216759Y355688D01*
X216857Y355626D01*
X216950Y355555D01*
X217026Y355517D01*
X217098Y355471D01*
X217207Y355429D01*
X217311Y355378D01*
X217360Y355365D01*
X217881Y354717D01*
X217882Y354715D01*
X217883Y354714D01*
X218112Y354474D01*
X218733Y353920D01*
X218746Y353886D01*
X218766Y353803D01*
X218815Y353698D01*
X218856Y353589D01*
X218901Y353516D01*
X218937Y353439D01*
X219006Y353345D01*
X219068Y353246D01*
X219126Y353184D01*
X219177Y353115D01*
X219263Y353037D01*
X219343Y352952D01*
X219412Y352903D01*
X219475Y352846D01*
X219576Y352786D01*
X219670Y352718D01*
X219716Y352698D01*
X220123Y351973D01*
X220124Y351971D01*
X220125Y351969D01*
X220311Y351695D01*
X220833Y351046D01*
X220840Y351011D01*
X220846Y350926D01*
X220877Y350814D01*
X220899Y350700D01*
X220932Y350620D01*
X220955Y350538D01*
X221008Y350435D01*
X221052Y350327D01*
X221099Y350256D01*
X221138Y350180D01*
X221210Y350089D01*
X221275Y349992D01*
X221335Y349931D01*
X221388Y349864D01*
X221477Y349789D01*
X221559Y349707D01*
X221601Y349679D01*
X221884Y348897D01*
X221884Y348895D01*
X221885Y348893D01*
X222023Y348592D01*
X222431Y347866D01*
X222432Y347830D01*
X222424Y347745D01*
X222437Y347630D01*
X222439Y347513D01*
X222458Y347430D01*
X222467Y347345D01*
X222503Y347234D01*
X222528Y347121D01*
X222563Y347043D01*
X222589Y346961D01*
X222645Y346859D01*
X222693Y346753D01*
X222743Y346684D01*
X222784Y346609D01*
X222859Y346520D01*
X222927Y346426D01*
X222963Y346391D01*
X223113Y345573D01*
X223114Y345571D01*
X223114Y345569D01*
X223201Y345249D01*
X223484Y344466D01*
X223479Y344431D01*
X223457Y344349D01*
X223450Y344232D01*
X223434Y344117D01*
X223439Y344032D01*
X223434Y343947D01*
X223450Y343831D01*
X223457Y343715D01*
X223479Y343632D01*
X223491Y343548D01*
X223530Y343438D01*
X223559Y343326D01*
X223597Y343249D01*
X223625Y343168D01*
X223685Y343069D01*
X223736Y342964D01*
X223766Y342924D01*
X223779Y342092D01*
X223780Y342090D01*
X223779Y342088D01*
X223812Y341758D01*
X223962Y340940D01*
X223952Y340906D01*
X223917Y340828D01*
X223891Y340714D01*
X223856Y340603D01*
X223847Y340518D01*
X223828Y340435D01*
X223825Y340319D01*
X223813Y340203D01*
X223820Y340118D01*
X223818Y340033D01*
X223839Y339918D01*
X223849Y339802D01*
X223873Y339720D01*
X223888Y339636D01*
X223931Y339528D01*
X223964Y339416D01*
X223987Y339372D01*
X223863Y338549D01*
X223863Y338547D01*
X223863Y338546D01*
X223841Y338215D01*
X223854Y337383D01*
X223838Y337351D01*
X223791Y337280D01*
X223747Y337172D01*
X223694Y337068D01*
X223671Y336986D01*
X223639Y336907D01*
X223617Y336793D01*
X223585Y336681D01*
X223579Y336595D01*
X223563Y336512D01*
X223564Y336395D01*
X223555Y336279D01*
X223566Y336194D01*
X223567Y336109D01*
X223591Y335995D01*
X223605Y335880D01*
X223621Y335832D01*
X223527Y335545D01*
X223498Y335412D01*
X223461Y335282D01*
X223455Y335216D01*
X223441Y335152D01*
X223439Y335016D01*
X223428Y334880D01*
X223435Y334815D01*
X223434Y334749D01*
X223459Y334615D01*
X223475Y334481D01*
X223495Y334418D01*
X223507Y334353D01*
X223557Y334227D01*
X223600Y334098D01*
X223632Y334040D01*
X223656Y333979D01*
X223731Y333866D01*
X223797Y333747D01*
X223841Y333697D01*
X223877Y333642D01*
X223972Y333545D01*
X224061Y333442D01*
X224113Y333402D01*
X224159Y333355D01*
X224271Y333279D01*
X224379Y333196D01*
X224438Y333166D01*
X224492Y333129D01*
X224617Y333077D01*
X224739Y333016D01*
X224803Y332999D01*
X224864Y332974D01*
X224997Y332947D01*
X225128Y332912D01*
X225203Y332906D01*
X225572Y332753D01*
X225585Y332749D01*
X225597Y332743D01*
X225777Y332691D01*
X225957Y332636D01*
X225971Y332635D01*
X225984Y332631D01*
X226172Y332616D01*
X226358Y332598D01*
X226371Y332600D01*
X226385Y332599D01*
X226571Y332620D01*
X226759Y332640D01*
X226771Y332644D01*
X226785Y332645D01*
X226963Y332704D01*
X227143Y332760D01*
X227155Y332766D01*
X227167Y332770D01*
X227331Y332863D01*
X227496Y332953D01*
X227506Y332962D01*
X227518Y332968D01*
X227660Y333091D01*
X227804Y333212D01*
X227813Y333223D01*
X227823Y333231D01*
X227938Y333379D01*
X228055Y333527D01*
X228061Y333539D01*
X228070Y333549D01*
X228153Y333717D01*
X228239Y333885D01*
X228243Y333898D01*
X228249Y333910D01*
X228298Y334092D01*
X228349Y334273D01*
X228350Y334286D01*
X228353Y334299D01*
X228381Y334630D01*
X228381Y346884D01*
X229720Y348223D01*
X261614Y348223D01*
X262954Y346884D01*
X262954Y327882D01*
X262955Y327869D01*
X262954Y327856D01*
X262975Y327669D01*
X262994Y327482D01*
X262998Y327469D01*
X262999Y327456D01*
X263057Y327277D01*
X263112Y327097D01*
X263118Y327085D01*
X263123Y327072D01*
X263214Y326908D01*
X263304Y326743D01*
X263312Y326733D01*
X263319Y326721D01*
X263442Y326577D01*
X263562Y326434D01*
X263572Y326425D01*
X263581Y326415D01*
X263730Y326298D01*
X263875Y326181D01*
X263887Y326175D01*
X263898Y326167D01*
X264067Y326082D01*
X264233Y325996D01*
X264245Y325992D01*
X264257Y325986D01*
X264439Y325936D01*
X264620Y325884D01*
X264633Y325883D01*
X264646Y325880D01*
X264833Y325867D01*
X265021Y325851D01*
X265034Y325853D01*
X265047Y325852D01*
X265234Y325876D01*
X265421Y325898D01*
X265433Y325902D01*
X265447Y325904D01*
X265763Y326006D01*
X266151Y326166D01*
X271821Y326166D01*
X277061Y323996D01*
X281071Y319986D01*
X283241Y314747D01*
X283241Y309076D01*
X281071Y303837D01*
X277061Y299827D01*
X271821Y297657D01*
X266151Y297657D01*
X265763Y297818D01*
X265750Y297822D01*
X265738Y297828D01*
X265557Y297880D01*
X265377Y297934D01*
X265364Y297935D01*
X265351Y297939D01*
X265162Y297955D01*
X264976Y297972D01*
X264963Y297971D01*
X264950Y297972D01*
X264763Y297950D01*
X264576Y297931D01*
X264563Y297927D01*
X264550Y297925D01*
X264372Y297867D01*
X264192Y297811D01*
X264180Y297804D01*
X264167Y297800D01*
X264003Y297708D01*
X263838Y297618D01*
X263828Y297609D01*
X263816Y297602D01*
X263674Y297479D01*
X263530Y297358D01*
X263522Y297348D01*
X263512Y297339D01*
X263397Y297191D01*
X263279Y297044D01*
X263273Y297032D01*
X263265Y297021D01*
X263181Y296853D01*
X263095Y296685D01*
X263092Y296673D01*
X263086Y296661D01*
X263037Y296478D01*
X262986Y296298D01*
X262985Y296285D01*
X262981Y296272D01*
X262958Y295994D01*
X261614Y294650D01*
X232846Y294650D01*
X232700Y294636D01*
X232554Y294629D01*
X232500Y294616D01*
X232445Y294610D01*
X232306Y294567D01*
X232164Y294532D01*
X232113Y294508D01*
X232060Y294492D01*
X231932Y294422D01*
X231800Y294360D01*
X231755Y294327D01*
X231706Y294300D01*
X231594Y294207D01*
X231477Y294119D01*
X231440Y294078D01*
X231397Y294042D01*
X231306Y293929D01*
X231208Y293820D01*
X231179Y293772D01*
X231145Y293729D01*
X231078Y293599D01*
X231003Y293473D01*
X230985Y293421D01*
X230959Y293371D01*
X230919Y293231D01*
X230871Y293093D01*
X230863Y293038D01*
X230848Y292984D01*
X230836Y292839D01*
X230816Y292694D01*
X230820Y292639D01*
X230815Y292583D01*
X230832Y292438D01*
X230841Y292292D01*
X230855Y292238D01*
X230862Y292183D01*
X230907Y292044D01*
X230945Y291903D01*
X230972Y291846D01*
X230987Y291801D01*
X231028Y291727D01*
X231087Y291603D01*
X245989Y265790D01*
X246042Y265717D01*
X246087Y265637D01*
X246160Y265553D01*
X246224Y265463D01*
X246291Y265401D01*
X246350Y265332D01*
X246438Y265265D01*
X246519Y265189D01*
X246597Y265141D01*
X246668Y265086D01*
X246768Y265036D01*
X246862Y264978D01*
X246947Y264947D01*
X247029Y264906D01*
X247136Y264878D01*
X247240Y264839D01*
X247330Y264825D01*
X247418Y264802D01*
X247555Y264791D01*
X247638Y264778D01*
X247685Y264780D01*
X247749Y264775D01*
X417731Y264775D01*
X417822Y264784D01*
G37*
%LPC*%
G36*
X408368Y431288D02*
X408368Y431288D01*
X406137Y432211D01*
X404430Y433919D01*
X403506Y436149D01*
X403506Y437194D01*
X403504Y437221D01*
X403506Y437248D01*
X403484Y437422D01*
X403466Y437595D01*
X403459Y437621D01*
X403455Y437647D01*
X403400Y437813D01*
X403348Y437980D01*
X403335Y438004D01*
X403327Y438029D01*
X403240Y438181D01*
X403156Y438334D01*
X403139Y438354D01*
X403126Y438378D01*
X402911Y438631D01*
X400146Y441396D01*
X400125Y441413D01*
X400108Y441433D01*
X399970Y441540D01*
X399834Y441651D01*
X399811Y441664D01*
X399790Y441680D01*
X399633Y441758D01*
X399479Y441840D01*
X399453Y441847D01*
X399429Y441859D01*
X399260Y441905D01*
X399093Y441955D01*
X399066Y441957D01*
X399040Y441964D01*
X398710Y441991D01*
X391040Y441991D01*
X360516Y472515D01*
X360496Y472532D01*
X360478Y472552D01*
X360340Y472659D01*
X360205Y472770D01*
X360181Y472782D01*
X360160Y472799D01*
X360003Y472877D01*
X359849Y472959D01*
X359824Y472966D01*
X359799Y472978D01*
X359630Y473024D01*
X359463Y473073D01*
X359437Y473076D01*
X359411Y473083D01*
X359080Y473110D01*
X339439Y473110D01*
X339430Y473109D01*
X339421Y473110D01*
X339227Y473089D01*
X339038Y473070D01*
X339029Y473067D01*
X339021Y473066D01*
X338836Y473008D01*
X338653Y472952D01*
X338645Y472947D01*
X338637Y472945D01*
X338468Y472852D01*
X338299Y472760D01*
X338292Y472754D01*
X338284Y472750D01*
X338137Y472625D01*
X337990Y472502D01*
X337984Y472495D01*
X337977Y472489D01*
X337858Y472338D01*
X337737Y472188D01*
X337733Y472181D01*
X337728Y472174D01*
X337640Y472001D01*
X337552Y471831D01*
X337549Y471823D01*
X337545Y471815D01*
X337493Y471628D01*
X337440Y471444D01*
X337440Y471435D01*
X337437Y471427D01*
X337423Y471234D01*
X337408Y471043D01*
X337409Y471034D01*
X337408Y471025D01*
X337432Y470832D01*
X337455Y470643D01*
X337457Y470635D01*
X337458Y470626D01*
X337520Y470444D01*
X337579Y470260D01*
X337584Y470252D01*
X337587Y470244D01*
X337683Y470077D01*
X337777Y469910D01*
X337783Y469903D01*
X337788Y469895D01*
X338002Y469642D01*
X340597Y467047D01*
X340621Y467028D01*
X340642Y467004D01*
X340777Y466900D01*
X340909Y466792D01*
X340936Y466778D01*
X340961Y466759D01*
X341256Y466607D01*
X342655Y466028D01*
X344362Y464321D01*
X345286Y462090D01*
X345286Y459676D01*
X344362Y457445D01*
X342655Y455738D01*
X340424Y454814D01*
X338010Y454814D01*
X335779Y455738D01*
X334072Y457445D01*
X333493Y458844D01*
X333478Y458871D01*
X333468Y458901D01*
X333383Y459049D01*
X333303Y459199D01*
X333283Y459223D01*
X333267Y459250D01*
X333053Y459503D01*
X328423Y464133D01*
X328402Y464150D01*
X328385Y464170D01*
X328247Y464277D01*
X328111Y464388D01*
X328087Y464401D01*
X328066Y464417D01*
X327910Y464494D01*
X327755Y464577D01*
X327730Y464584D01*
X327706Y464596D01*
X327537Y464642D01*
X327370Y464691D01*
X327343Y464694D01*
X327317Y464701D01*
X326986Y464728D01*
X320048Y464728D01*
X320031Y464726D01*
X320013Y464727D01*
X319831Y464706D01*
X319648Y464688D01*
X319631Y464683D01*
X319613Y464681D01*
X319439Y464624D01*
X319263Y464570D01*
X319247Y464561D01*
X319230Y464556D01*
X319070Y464465D01*
X318909Y464378D01*
X318895Y464367D01*
X318880Y464358D01*
X318740Y464238D01*
X318600Y464120D01*
X318588Y464106D01*
X318575Y464095D01*
X318462Y463950D01*
X318347Y463806D01*
X318339Y463791D01*
X318328Y463777D01*
X318246Y463612D01*
X318162Y463449D01*
X318157Y463432D01*
X318149Y463416D01*
X318101Y463238D01*
X318050Y463062D01*
X318049Y463044D01*
X318044Y463027D01*
X318017Y462697D01*
X318017Y460644D01*
X317093Y458414D01*
X315386Y456707D01*
X313156Y455783D01*
X310741Y455783D01*
X308511Y456707D01*
X306804Y458414D01*
X305879Y460647D01*
X305879Y460650D01*
X305857Y460824D01*
X305840Y460998D01*
X305832Y461023D01*
X305829Y461050D01*
X305773Y461215D01*
X305722Y461382D01*
X305709Y461406D01*
X305700Y461431D01*
X305613Y461583D01*
X305530Y461736D01*
X305513Y461757D01*
X305500Y461780D01*
X305285Y462033D01*
X303185Y464133D01*
X303164Y464150D01*
X303147Y464170D01*
X303009Y464277D01*
X302874Y464388D01*
X302850Y464400D01*
X302829Y464417D01*
X302672Y464495D01*
X302518Y464577D01*
X302492Y464584D01*
X302468Y464596D01*
X302299Y464642D01*
X302132Y464691D01*
X302105Y464694D01*
X302080Y464701D01*
X301749Y464728D01*
X270239Y464728D01*
X268278Y465540D01*
X266492Y467326D01*
X252652Y481166D01*
X251824Y483165D01*
X251817Y483220D01*
X251800Y483389D01*
X251791Y483419D01*
X251787Y483450D01*
X251686Y483766D01*
X251667Y483810D01*
X251667Y514851D01*
X251665Y514869D01*
X251667Y514886D01*
X251646Y515069D01*
X251627Y515251D01*
X251622Y515268D01*
X251620Y515286D01*
X251563Y515461D01*
X251509Y515636D01*
X251501Y515652D01*
X251495Y515669D01*
X251405Y515829D01*
X251317Y515990D01*
X251306Y516004D01*
X251297Y516020D01*
X251177Y516159D01*
X251060Y516300D01*
X251046Y516311D01*
X251034Y516324D01*
X250889Y516437D01*
X250746Y516552D01*
X250730Y516560D01*
X250716Y516571D01*
X250551Y516653D01*
X250389Y516737D01*
X250372Y516742D01*
X250356Y516750D01*
X250177Y516798D01*
X250002Y516849D01*
X249984Y516850D01*
X249967Y516855D01*
X249636Y516882D01*
X246234Y516882D01*
X244895Y518222D01*
X244895Y531116D01*
X246234Y532455D01*
X258018Y532455D01*
X258036Y532457D01*
X258054Y532456D01*
X258236Y532477D01*
X258419Y532495D01*
X258436Y532501D01*
X258453Y532503D01*
X258628Y532560D01*
X258804Y532614D01*
X258819Y532622D01*
X258836Y532628D01*
X258996Y532718D01*
X259158Y532805D01*
X259171Y532817D01*
X259187Y532825D01*
X259326Y532946D01*
X259467Y533063D01*
X259478Y533077D01*
X259492Y533089D01*
X259604Y533234D01*
X259719Y533377D01*
X259727Y533393D01*
X259738Y533407D01*
X259820Y533572D01*
X259905Y533734D01*
X259910Y533751D01*
X259918Y533767D01*
X259965Y533945D01*
X260016Y534121D01*
X260018Y534139D01*
X260022Y534156D01*
X260049Y534487D01*
X260049Y534687D01*
X260047Y534714D01*
X260049Y534741D01*
X260027Y534914D01*
X260009Y535088D01*
X260001Y535114D01*
X259998Y535140D01*
X259943Y535305D01*
X259891Y535473D01*
X259878Y535496D01*
X259870Y535522D01*
X259783Y535674D01*
X259699Y535827D01*
X259682Y535847D01*
X259669Y535871D01*
X259454Y536124D01*
X259220Y536358D01*
X258296Y538589D01*
X258296Y541003D01*
X259220Y543233D01*
X260927Y544941D01*
X263157Y545865D01*
X265572Y545865D01*
X267507Y545063D01*
X267537Y545054D01*
X267565Y545040D01*
X267729Y544996D01*
X267892Y544946D01*
X267923Y544944D01*
X267954Y544935D01*
X268284Y544908D01*
X270780Y544908D01*
X272367Y544251D01*
X280656Y535962D01*
X280677Y535945D01*
X280694Y535925D01*
X280832Y535818D01*
X280967Y535707D01*
X280991Y535695D01*
X281012Y535678D01*
X281169Y535600D01*
X281323Y535518D01*
X281349Y535511D01*
X281373Y535499D01*
X281542Y535453D01*
X281709Y535404D01*
X281736Y535401D01*
X281761Y535394D01*
X282092Y535367D01*
X289783Y535367D01*
X289850Y535301D01*
X289864Y535289D01*
X289875Y535276D01*
X290019Y535162D01*
X290161Y535046D01*
X290177Y535037D01*
X290191Y535026D01*
X290355Y534943D01*
X290517Y534857D01*
X290534Y534852D01*
X290550Y534844D01*
X290727Y534795D01*
X290903Y534742D01*
X290921Y534741D01*
X290938Y534736D01*
X291121Y534722D01*
X291304Y534706D01*
X291322Y534708D01*
X291339Y534706D01*
X291521Y534729D01*
X291704Y534749D01*
X291721Y534755D01*
X291739Y534757D01*
X291912Y534815D01*
X292088Y534871D01*
X292104Y534879D01*
X292120Y534885D01*
X292280Y534977D01*
X292440Y535066D01*
X292454Y535077D01*
X292469Y535086D01*
X292722Y535301D01*
X292789Y535367D01*
X300907Y535367D01*
X300955Y535343D01*
X301117Y535257D01*
X301134Y535252D01*
X301150Y535244D01*
X301327Y535195D01*
X301503Y535142D01*
X301521Y535141D01*
X301538Y535136D01*
X301720Y535123D01*
X301904Y535106D01*
X301922Y535108D01*
X301939Y535106D01*
X302121Y535129D01*
X302304Y535149D01*
X302321Y535155D01*
X302339Y535157D01*
X302513Y535215D01*
X302688Y535271D01*
X302704Y535279D01*
X302721Y535285D01*
X302863Y535367D01*
X311107Y535367D01*
X311155Y535343D01*
X311317Y535257D01*
X311334Y535252D01*
X311350Y535244D01*
X311527Y535195D01*
X311703Y535142D01*
X311721Y535141D01*
X311738Y535136D01*
X311920Y535123D01*
X312104Y535106D01*
X312122Y535108D01*
X312139Y535106D01*
X312321Y535129D01*
X312504Y535149D01*
X312521Y535155D01*
X312539Y535157D01*
X312713Y535215D01*
X312888Y535271D01*
X312904Y535279D01*
X312921Y535285D01*
X313063Y535367D01*
X321307Y535367D01*
X321355Y535343D01*
X321517Y535257D01*
X321534Y535252D01*
X321550Y535244D01*
X321727Y535195D01*
X321903Y535142D01*
X321921Y535141D01*
X321938Y535136D01*
X322120Y535123D01*
X322304Y535106D01*
X322322Y535108D01*
X322339Y535106D01*
X322521Y535129D01*
X322704Y535149D01*
X322721Y535155D01*
X322739Y535157D01*
X322913Y535215D01*
X323088Y535271D01*
X323104Y535279D01*
X323121Y535285D01*
X323263Y535367D01*
X331507Y535367D01*
X331555Y535343D01*
X331717Y535257D01*
X331734Y535252D01*
X331750Y535244D01*
X331927Y535195D01*
X332103Y535142D01*
X332121Y535141D01*
X332138Y535136D01*
X332320Y535123D01*
X332504Y535106D01*
X332522Y535108D01*
X332539Y535106D01*
X332721Y535129D01*
X332904Y535149D01*
X332921Y535155D01*
X332939Y535157D01*
X333113Y535215D01*
X333288Y535271D01*
X333304Y535279D01*
X333321Y535285D01*
X333463Y535367D01*
X341707Y535367D01*
X341755Y535343D01*
X341917Y535257D01*
X341934Y535252D01*
X341950Y535244D01*
X342127Y535195D01*
X342303Y535142D01*
X342321Y535141D01*
X342338Y535136D01*
X342520Y535123D01*
X342704Y535106D01*
X342722Y535108D01*
X342739Y535106D01*
X342921Y535129D01*
X343104Y535149D01*
X343121Y535155D01*
X343139Y535157D01*
X343313Y535215D01*
X343488Y535271D01*
X343504Y535279D01*
X343521Y535285D01*
X343663Y535367D01*
X351907Y535367D01*
X351955Y535343D01*
X352117Y535257D01*
X352134Y535252D01*
X352150Y535244D01*
X352327Y535195D01*
X352503Y535142D01*
X352521Y535141D01*
X352538Y535136D01*
X352720Y535123D01*
X352904Y535106D01*
X352922Y535108D01*
X352939Y535106D01*
X353121Y535129D01*
X353304Y535149D01*
X353321Y535155D01*
X353339Y535157D01*
X353513Y535215D01*
X353688Y535271D01*
X353704Y535279D01*
X353721Y535285D01*
X353863Y535367D01*
X354367Y535367D01*
X354394Y535370D01*
X354420Y535368D01*
X354594Y535390D01*
X354768Y535407D01*
X354793Y535415D01*
X354820Y535418D01*
X354986Y535474D01*
X355153Y535525D01*
X355176Y535538D01*
X355202Y535547D01*
X355353Y535634D01*
X355507Y535717D01*
X355527Y535734D01*
X355550Y535747D01*
X355803Y535962D01*
X355825Y535984D01*
X358314Y538473D01*
X358326Y538487D01*
X358339Y538498D01*
X358453Y538643D01*
X358569Y538784D01*
X358578Y538800D01*
X358589Y538814D01*
X358672Y538978D01*
X358758Y539140D01*
X358763Y539157D01*
X358771Y539173D01*
X358820Y539350D01*
X358873Y539526D01*
X358874Y539544D01*
X358879Y539561D01*
X358893Y539744D01*
X358909Y539927D01*
X358907Y539945D01*
X358909Y539963D01*
X358886Y540144D01*
X358866Y540327D01*
X358860Y540344D01*
X358858Y540362D01*
X358800Y540535D01*
X358744Y540711D01*
X358736Y540727D01*
X358730Y540744D01*
X358638Y540903D01*
X358549Y541063D01*
X358538Y541077D01*
X358529Y541093D01*
X358314Y541346D01*
X357599Y542061D01*
X356675Y544291D01*
X356675Y546706D01*
X357599Y548936D01*
X359306Y550643D01*
X361537Y551567D01*
X362324Y551567D01*
X362351Y551570D01*
X362377Y551568D01*
X362551Y551590D01*
X362725Y551607D01*
X362750Y551615D01*
X362777Y551618D01*
X362942Y551674D01*
X363110Y551725D01*
X363133Y551738D01*
X363158Y551747D01*
X363310Y551834D01*
X363464Y551917D01*
X363484Y551934D01*
X363507Y551947D01*
X363760Y552162D01*
X366284Y554686D01*
X367872Y555344D01*
X377094Y555344D01*
X378681Y554686D01*
X384641Y548727D01*
X385298Y547139D01*
X385298Y536093D01*
X385301Y536067D01*
X385299Y536040D01*
X385321Y535866D01*
X385338Y535693D01*
X385346Y535667D01*
X385350Y535641D01*
X385405Y535475D01*
X385457Y535308D01*
X385469Y535284D01*
X385478Y535259D01*
X385565Y535107D01*
X385648Y534954D01*
X385665Y534933D01*
X385679Y534910D01*
X385893Y534657D01*
X386523Y534028D01*
X386523Y490565D01*
X386524Y490557D01*
X386523Y490548D01*
X386544Y490356D01*
X386563Y490165D01*
X386565Y490156D01*
X386566Y490147D01*
X386624Y489965D01*
X386681Y489780D01*
X386685Y489772D01*
X386688Y489764D01*
X386781Y489595D01*
X386873Y489426D01*
X386878Y489419D01*
X386883Y489411D01*
X387008Y489263D01*
X387130Y489117D01*
X387137Y489111D01*
X387143Y489104D01*
X387295Y488984D01*
X387444Y488864D01*
X387452Y488860D01*
X387459Y488855D01*
X387631Y488767D01*
X387801Y488679D01*
X387810Y488676D01*
X387818Y488672D01*
X388004Y488620D01*
X388188Y488567D01*
X388197Y488567D01*
X388206Y488564D01*
X388398Y488550D01*
X388590Y488535D01*
X388598Y488536D01*
X388607Y488535D01*
X388800Y488559D01*
X388989Y488581D01*
X388998Y488584D01*
X389007Y488585D01*
X389190Y488647D01*
X389372Y488706D01*
X389380Y488711D01*
X389388Y488714D01*
X389554Y488809D01*
X389723Y488904D01*
X389730Y488910D01*
X389737Y488914D01*
X389990Y489129D01*
X391654Y490793D01*
X391671Y490814D01*
X391692Y490831D01*
X391798Y490969D01*
X391909Y491105D01*
X391922Y491128D01*
X391938Y491149D01*
X392016Y491306D01*
X392098Y491460D01*
X392106Y491486D01*
X392118Y491510D01*
X392163Y491679D01*
X392213Y491846D01*
X392215Y491873D01*
X392222Y491899D01*
X392249Y492230D01*
X392249Y534028D01*
X393589Y535367D01*
X403583Y535367D01*
X404923Y534028D01*
X404923Y486133D01*
X403583Y484794D01*
X398712Y484794D01*
X398685Y484791D01*
X398658Y484793D01*
X398484Y484771D01*
X398311Y484754D01*
X398285Y484746D01*
X398259Y484743D01*
X398093Y484687D01*
X397926Y484636D01*
X397902Y484623D01*
X397877Y484614D01*
X397725Y484527D01*
X397572Y484444D01*
X397551Y484427D01*
X397528Y484414D01*
X397275Y484199D01*
X393851Y480775D01*
X393834Y480754D01*
X393814Y480737D01*
X393707Y480599D01*
X393596Y480463D01*
X393584Y480440D01*
X393567Y480419D01*
X393489Y480262D01*
X393407Y480108D01*
X393400Y480082D01*
X393388Y480058D01*
X393342Y479889D01*
X393293Y479722D01*
X393290Y479695D01*
X393283Y479669D01*
X393256Y479338D01*
X393256Y479012D01*
X392332Y476781D01*
X390856Y475305D01*
X390851Y475298D01*
X390844Y475292D01*
X390723Y475143D01*
X390601Y474994D01*
X390597Y474986D01*
X390591Y474979D01*
X390503Y474808D01*
X390413Y474638D01*
X390410Y474629D01*
X390406Y474621D01*
X390353Y474437D01*
X390298Y474252D01*
X390297Y474243D01*
X390294Y474234D01*
X390279Y474042D01*
X390261Y473851D01*
X390262Y473842D01*
X390262Y473833D01*
X390284Y473644D01*
X390305Y473451D01*
X390307Y473442D01*
X390309Y473433D01*
X390368Y473250D01*
X390426Y473067D01*
X390431Y473059D01*
X390433Y473051D01*
X390528Y472884D01*
X390621Y472715D01*
X390627Y472708D01*
X390631Y472700D01*
X390756Y472555D01*
X390882Y472408D01*
X390889Y472402D01*
X390894Y472395D01*
X391045Y472278D01*
X391197Y472158D01*
X391206Y472154D01*
X391213Y472148D01*
X391384Y472063D01*
X391556Y471976D01*
X391565Y471973D01*
X391573Y471969D01*
X391759Y471919D01*
X391944Y471868D01*
X391953Y471867D01*
X391962Y471865D01*
X392293Y471837D01*
X404878Y471837D01*
X406465Y471180D01*
X409096Y468549D01*
X409754Y466962D01*
X409754Y463607D01*
X409755Y463589D01*
X409754Y463572D01*
X409775Y463389D01*
X409794Y463206D01*
X409799Y463189D01*
X409801Y463172D01*
X409858Y462997D01*
X409912Y462822D01*
X409920Y462806D01*
X409926Y462789D01*
X410016Y462629D01*
X410103Y462468D01*
X410115Y462454D01*
X410124Y462438D01*
X410244Y462299D01*
X410361Y462158D01*
X410375Y462147D01*
X410387Y462134D01*
X410532Y462021D01*
X410675Y461906D01*
X410691Y461898D01*
X410705Y461887D01*
X410870Y461805D01*
X411032Y461720D01*
X411049Y461716D01*
X411065Y461708D01*
X411243Y461660D01*
X411325Y461636D01*
X413701Y460652D01*
X415408Y458945D01*
X416332Y456714D01*
X416332Y454300D01*
X415408Y452069D01*
X413701Y450362D01*
X411470Y449438D01*
X411144Y449438D01*
X411117Y449436D01*
X411090Y449438D01*
X410916Y449416D01*
X410743Y449398D01*
X410717Y449391D01*
X410691Y449387D01*
X410525Y449332D01*
X410358Y449280D01*
X410334Y449268D01*
X410309Y449259D01*
X410158Y449172D01*
X410004Y449089D01*
X409984Y449072D01*
X409960Y449058D01*
X409707Y448843D01*
X408846Y447983D01*
X408467Y447825D01*
X408455Y447819D01*
X408442Y447815D01*
X408278Y447724D01*
X408112Y447635D01*
X408102Y447627D01*
X408090Y447620D01*
X407947Y447498D01*
X407802Y447379D01*
X407793Y447368D01*
X407783Y447360D01*
X407666Y447212D01*
X407548Y447066D01*
X407542Y447054D01*
X407533Y447044D01*
X407448Y446876D01*
X407361Y446710D01*
X407357Y446697D01*
X407351Y446685D01*
X407301Y446504D01*
X407248Y446323D01*
X407247Y446310D01*
X407243Y446297D01*
X407229Y446109D01*
X407213Y445922D01*
X407215Y445909D01*
X407214Y445895D01*
X407237Y445708D01*
X407258Y445522D01*
X407262Y445509D01*
X407264Y445496D01*
X407324Y445319D01*
X407382Y445139D01*
X407388Y445127D01*
X407392Y445114D01*
X407486Y444953D01*
X407578Y444787D01*
X407587Y444777D01*
X407593Y444765D01*
X407808Y444512D01*
X408301Y444020D01*
X408321Y444003D01*
X408339Y443983D01*
X408477Y443876D01*
X408612Y443765D01*
X408636Y443752D01*
X408657Y443736D01*
X408813Y443658D01*
X408968Y443576D01*
X408993Y443569D01*
X409017Y443557D01*
X409187Y443511D01*
X409354Y443461D01*
X409380Y443459D01*
X409406Y443452D01*
X409737Y443425D01*
X410782Y443425D01*
X413013Y442501D01*
X414720Y440794D01*
X415644Y438563D01*
X415644Y436149D01*
X414720Y433919D01*
X413013Y432211D01*
X410782Y431288D01*
X408368Y431288D01*
G37*
%LPD*%
G36*
X418955Y363350D02*
X418955Y363350D01*
X418973Y363348D01*
X419155Y363369D01*
X419338Y363388D01*
X419355Y363393D01*
X419373Y363395D01*
X419547Y363452D01*
X419723Y363506D01*
X419739Y363514D01*
X419756Y363520D01*
X419916Y363610D01*
X420077Y363698D01*
X420091Y363709D01*
X420106Y363718D01*
X420246Y363838D01*
X420386Y363955D01*
X420398Y363969D01*
X420411Y363981D01*
X420524Y364126D01*
X420639Y364269D01*
X420647Y364285D01*
X420658Y364299D01*
X420740Y364464D01*
X420824Y364626D01*
X420829Y364643D01*
X420837Y364659D01*
X420885Y364838D01*
X420936Y365013D01*
X420937Y365031D01*
X420942Y365048D01*
X420969Y365379D01*
X420969Y366332D01*
X421893Y368563D01*
X423600Y370270D01*
X425830Y371194D01*
X428245Y371194D01*
X429643Y370614D01*
X429673Y370605D01*
X429701Y370591D01*
X429866Y370547D01*
X430029Y370498D01*
X430060Y370495D01*
X430090Y370487D01*
X430421Y370460D01*
X462880Y370460D01*
X462907Y370462D01*
X462933Y370460D01*
X463107Y370482D01*
X463281Y370500D01*
X463306Y370507D01*
X463333Y370511D01*
X463499Y370566D01*
X463666Y370618D01*
X463689Y370631D01*
X463715Y370639D01*
X463866Y370726D01*
X464020Y370810D01*
X464040Y370827D01*
X464063Y370840D01*
X464316Y371055D01*
X473981Y380719D01*
X473992Y380733D01*
X474006Y380744D01*
X474120Y380889D01*
X474236Y381030D01*
X474244Y381046D01*
X474255Y381060D01*
X474339Y381224D01*
X474424Y381386D01*
X474430Y381403D01*
X474438Y381419D01*
X474487Y381597D01*
X474539Y381772D01*
X474541Y381790D01*
X474546Y381807D01*
X474559Y381990D01*
X474576Y382173D01*
X474574Y382191D01*
X474575Y382209D01*
X474552Y382391D01*
X474532Y382573D01*
X474527Y382590D01*
X474525Y382608D01*
X474466Y382782D01*
X474411Y382957D01*
X474402Y382973D01*
X474396Y382990D01*
X474305Y383149D01*
X474216Y383309D01*
X474204Y383323D01*
X474195Y383339D01*
X473981Y383592D01*
X472201Y385372D01*
X472201Y397266D01*
X474058Y399123D01*
X474075Y399144D01*
X474095Y399161D01*
X474202Y399299D01*
X474313Y399435D01*
X474325Y399458D01*
X474342Y399479D01*
X474420Y399636D01*
X474502Y399790D01*
X474509Y399816D01*
X474521Y399840D01*
X474567Y400009D01*
X474616Y400176D01*
X474619Y400203D01*
X474626Y400229D01*
X474653Y400559D01*
X474653Y403311D01*
X474651Y403329D01*
X474652Y403347D01*
X474631Y403529D01*
X474613Y403712D01*
X474608Y403729D01*
X474606Y403747D01*
X474549Y403921D01*
X474495Y404097D01*
X474486Y404112D01*
X474481Y404129D01*
X474390Y404290D01*
X474303Y404451D01*
X474292Y404464D01*
X474283Y404480D01*
X474163Y404619D01*
X474045Y404760D01*
X474031Y404771D01*
X474020Y404785D01*
X473875Y404897D01*
X473731Y405012D01*
X473716Y405021D01*
X473702Y405032D01*
X473537Y405114D01*
X473374Y405198D01*
X473357Y405203D01*
X473341Y405211D01*
X473163Y405259D01*
X472987Y405309D01*
X472969Y405311D01*
X472952Y405315D01*
X472622Y405343D01*
X459799Y405343D01*
X457838Y406155D01*
X449470Y414523D01*
X449464Y414528D01*
X449463Y414529D01*
X449454Y414536D01*
X449446Y414543D01*
X449425Y414566D01*
X449291Y414670D01*
X449159Y414778D01*
X449131Y414793D01*
X449106Y414812D01*
X448811Y414963D01*
X447412Y415543D01*
X445705Y417250D01*
X444781Y419480D01*
X444781Y421895D01*
X445705Y424125D01*
X447412Y425832D01*
X449643Y426756D01*
X452057Y426756D01*
X454577Y425712D01*
X454581Y425711D01*
X454585Y425709D01*
X454774Y425653D01*
X454962Y425596D01*
X454967Y425596D01*
X454971Y425594D01*
X455172Y425576D01*
X455363Y425558D01*
X455368Y425558D01*
X455372Y425558D01*
X455571Y425579D01*
X455764Y425599D01*
X455768Y425601D01*
X455772Y425601D01*
X455960Y425661D01*
X456148Y425719D01*
X456152Y425721D01*
X456156Y425723D01*
X456325Y425816D01*
X456501Y425913D01*
X456505Y425915D01*
X456509Y425918D01*
X456658Y426045D01*
X456809Y426172D01*
X456812Y426175D01*
X456816Y426178D01*
X456937Y426332D01*
X457060Y426487D01*
X457062Y426491D01*
X457065Y426494D01*
X457153Y426667D01*
X457244Y426845D01*
X457246Y426849D01*
X457248Y426853D01*
X457301Y427045D01*
X457354Y427232D01*
X457354Y427236D01*
X457356Y427241D01*
X457370Y427439D01*
X457385Y427633D01*
X457385Y427638D01*
X457385Y427642D01*
X457360Y427839D01*
X457337Y428033D01*
X457335Y428037D01*
X457335Y428042D01*
X457272Y428228D01*
X457210Y428415D01*
X457208Y428419D01*
X457206Y428423D01*
X457107Y428595D01*
X457011Y428765D01*
X457008Y428768D01*
X457005Y428772D01*
X456791Y429025D01*
X455201Y430615D01*
X455201Y442510D01*
X456540Y443849D01*
X469435Y443849D01*
X470774Y442510D01*
X470774Y435725D01*
X470777Y435698D01*
X470775Y435671D01*
X470797Y435498D01*
X470814Y435324D01*
X470822Y435299D01*
X470825Y435272D01*
X470881Y435106D01*
X470932Y434939D01*
X470945Y434916D01*
X470954Y434890D01*
X471041Y434739D01*
X471124Y434585D01*
X471141Y434565D01*
X471154Y434541D01*
X471369Y434288D01*
X482379Y423278D01*
X482380Y423278D01*
X483880Y421778D01*
X484537Y420190D01*
X484537Y416014D01*
X484540Y415987D01*
X484538Y415960D01*
X484560Y415786D01*
X484577Y415613D01*
X484585Y415587D01*
X484589Y415561D01*
X484644Y415395D01*
X484696Y415228D01*
X484708Y415204D01*
X484717Y415179D01*
X484804Y415028D01*
X484887Y414874D01*
X484904Y414854D01*
X484918Y414830D01*
X485132Y414577D01*
X485364Y414346D01*
X486287Y412116D01*
X486287Y409701D01*
X485477Y407744D01*
X485469Y407720D01*
X485467Y407715D01*
X485465Y407709D01*
X485454Y407687D01*
X485410Y407522D01*
X485360Y407359D01*
X485358Y407338D01*
X485355Y407328D01*
X485355Y407317D01*
X485349Y407298D01*
X485322Y406967D01*
X485322Y400559D01*
X485325Y400533D01*
X485323Y400506D01*
X485345Y400332D01*
X485362Y400159D01*
X485370Y400133D01*
X485373Y400107D01*
X485429Y399941D01*
X485480Y399774D01*
X485493Y399750D01*
X485502Y399725D01*
X485589Y399573D01*
X485672Y399420D01*
X485689Y399399D01*
X485702Y399376D01*
X485917Y399123D01*
X487774Y397266D01*
X487774Y391645D01*
X487782Y391572D01*
X487780Y391499D01*
X487801Y391373D01*
X487814Y391245D01*
X487836Y391175D01*
X487848Y391103D01*
X487895Y390983D01*
X487932Y390860D01*
X487967Y390795D01*
X487994Y390727D01*
X488063Y390619D01*
X488124Y390506D01*
X488171Y390450D01*
X488210Y390388D01*
X488300Y390295D01*
X488382Y390197D01*
X488439Y390151D01*
X488490Y390098D01*
X488595Y390025D01*
X488696Y389944D01*
X488761Y389910D01*
X488821Y389869D01*
X488939Y389818D01*
X489053Y389759D01*
X489123Y389739D01*
X489191Y389709D01*
X489316Y389683D01*
X489440Y389647D01*
X489513Y389641D01*
X489584Y389626D01*
X489713Y389625D01*
X489841Y389614D01*
X489914Y389623D01*
X489987Y389622D01*
X490113Y389646D01*
X490241Y389661D01*
X490310Y389684D01*
X490383Y389698D01*
X490502Y389746D01*
X490624Y389786D01*
X490688Y389822D01*
X490755Y389850D01*
X490862Y389921D01*
X490974Y389984D01*
X491030Y390032D01*
X491091Y390073D01*
X491182Y390163D01*
X491279Y390247D01*
X491324Y390305D01*
X491376Y390357D01*
X491472Y390497D01*
X491526Y390565D01*
X491541Y390595D01*
X491565Y390630D01*
X495548Y397529D01*
X496156Y397109D01*
X496183Y397098D01*
X496205Y397079D01*
X496274Y397059D01*
X496339Y397031D01*
X496368Y397031D01*
X496396Y397023D01*
X496467Y397031D01*
X496538Y397031D01*
X496565Y397042D01*
X496594Y397045D01*
X496656Y397080D01*
X496721Y397108D01*
X496742Y397128D01*
X496767Y397143D01*
X496830Y397220D01*
X496860Y397250D01*
X496864Y397260D01*
X496873Y397271D01*
X506373Y413771D01*
X506383Y413803D01*
X506392Y413816D01*
X506396Y413840D01*
X506397Y413844D01*
X506428Y413914D01*
X506428Y413938D01*
X506436Y413960D01*
X506430Y414036D01*
X506431Y414113D01*
X506421Y414137D01*
X506420Y414158D01*
X506399Y414197D01*
X506373Y414269D01*
X496873Y430769D01*
X496854Y430791D01*
X496841Y430817D01*
X496788Y430865D01*
X496741Y430918D01*
X496715Y430931D01*
X496694Y430950D01*
X496626Y430973D01*
X496562Y431004D01*
X496533Y431006D01*
X496506Y431015D01*
X496434Y431010D01*
X496363Y431013D01*
X496336Y431003D01*
X496307Y431001D01*
X496217Y430959D01*
X496177Y430944D01*
X496169Y430937D01*
X496156Y430931D01*
X495548Y430511D01*
X473272Y469094D01*
X473181Y469222D01*
X473095Y469353D01*
X473064Y469385D01*
X473038Y469421D01*
X472923Y469528D01*
X472812Y469640D01*
X472775Y469665D01*
X472743Y469695D01*
X472609Y469777D01*
X472479Y469866D01*
X472438Y469883D01*
X472400Y469906D01*
X472252Y469960D01*
X472107Y470021D01*
X472064Y470030D01*
X472022Y470045D01*
X471867Y470069D01*
X471712Y470100D01*
X471668Y470100D01*
X471624Y470107D01*
X471467Y470100D01*
X471310Y470099D01*
X471261Y470090D01*
X471222Y470089D01*
X471137Y470068D01*
X470983Y470039D01*
X469689Y469690D01*
X469688Y469689D01*
X469686Y469689D01*
X469374Y469576D01*
X468617Y469229D01*
X468582Y469231D01*
X468498Y469246D01*
X468381Y469243D01*
X468265Y469250D01*
X468181Y469238D01*
X468095Y469236D01*
X467982Y469210D01*
X467867Y469194D01*
X467786Y469165D01*
X467703Y469146D01*
X467597Y469099D01*
X467487Y469060D01*
X467413Y469016D01*
X467336Y468981D01*
X467241Y468913D01*
X467141Y468854D01*
X467104Y468820D01*
X466276Y468738D01*
X466274Y468738D01*
X466272Y468738D01*
X465946Y468678D01*
X465143Y468461D01*
X465108Y468469D01*
X465027Y468497D01*
X464912Y468513D01*
X464798Y468539D01*
X464713Y468541D01*
X464628Y468553D01*
X464512Y468546D01*
X464396Y468549D01*
X464312Y468535D01*
X464226Y468530D01*
X464114Y468500D01*
X463999Y468480D01*
X463920Y468449D01*
X463837Y468427D01*
X463732Y468376D01*
X463624Y468334D01*
X463582Y468307D01*
X462752Y468362D01*
X462750Y468362D01*
X462748Y468362D01*
X462416Y468357D01*
X461588Y468275D01*
X461555Y468288D01*
X461480Y468330D01*
X461369Y468365D01*
X461262Y468409D01*
X461178Y468425D01*
X461096Y468451D01*
X460981Y468463D01*
X460866Y468485D01*
X460781Y468484D01*
X460696Y468493D01*
X460580Y468483D01*
X460464Y468482D01*
X460380Y468464D01*
X460295Y468456D01*
X460184Y468423D01*
X460070Y468399D01*
X460024Y468380D01*
X459214Y468571D01*
X459212Y468571D01*
X459210Y468572D01*
X458882Y468621D01*
X458052Y468677D01*
X458022Y468695D01*
X457955Y468748D01*
X457851Y468801D01*
X457752Y468862D01*
X457672Y468892D01*
X457596Y468931D01*
X457484Y468962D01*
X457375Y469003D01*
X457290Y469016D01*
X457208Y469039D01*
X457092Y469047D01*
X456977Y469066D01*
X456892Y469062D01*
X456807Y469068D01*
X456691Y469054D01*
X456575Y469049D01*
X456526Y469037D01*
X455759Y469359D01*
X455757Y469360D01*
X455756Y469361D01*
X455440Y469463D01*
X454630Y469655D01*
X454603Y469678D01*
X454546Y469741D01*
X454452Y469811D01*
X454365Y469887D01*
X454291Y469930D01*
X454222Y469980D01*
X454116Y470030D01*
X454016Y470088D01*
X453935Y470115D01*
X453857Y470151D01*
X453744Y470178D01*
X453634Y470215D01*
X453549Y470226D01*
X453466Y470246D01*
X453350Y470251D01*
X453234Y470265D01*
X453184Y470262D01*
X452481Y470706D01*
X452479Y470706D01*
X452478Y470707D01*
X452183Y470861D01*
X451416Y471183D01*
X451393Y471210D01*
X451347Y471282D01*
X451266Y471366D01*
X451192Y471456D01*
X451126Y471510D01*
X451067Y471571D01*
X450971Y471637D01*
X450881Y471711D01*
X450806Y471751D01*
X450735Y471799D01*
X450628Y471845D01*
X450525Y471900D01*
X450444Y471924D01*
X450365Y471958D01*
X450251Y471981D01*
X450140Y472015D01*
X450055Y472022D01*
X449971Y472040D01*
X449893Y472042D01*
X449853Y472062D01*
X449810Y472075D01*
X449769Y472093D01*
X449616Y472130D01*
X449466Y472172D01*
X449421Y472176D01*
X449377Y472186D01*
X449220Y472191D01*
X449064Y472203D01*
X449020Y472198D01*
X448975Y472199D01*
X448820Y472174D01*
X448665Y472155D01*
X448622Y472141D01*
X448578Y472133D01*
X448431Y472077D01*
X448282Y472028D01*
X448244Y472006D01*
X448202Y471990D01*
X448069Y471906D01*
X447933Y471829D01*
X447899Y471799D01*
X447861Y471775D01*
X447747Y471667D01*
X447629Y471564D01*
X447602Y471529D01*
X447569Y471498D01*
X447479Y471369D01*
X447384Y471245D01*
X447361Y471200D01*
X447338Y471168D01*
X447303Y471088D01*
X447232Y470950D01*
X447194Y470857D01*
X445487Y469150D01*
X443251Y468224D01*
X443235Y468225D01*
X443061Y468203D01*
X442888Y468186D01*
X442862Y468178D01*
X442836Y468175D01*
X442670Y468119D01*
X442503Y468068D01*
X442479Y468055D01*
X442454Y468047D01*
X442302Y467959D01*
X442149Y467876D01*
X442128Y467859D01*
X442105Y467846D01*
X441852Y467631D01*
X440867Y466646D01*
X440850Y466625D01*
X440829Y466607D01*
X440722Y466469D01*
X440611Y466334D01*
X440599Y466310D01*
X440583Y466289D01*
X440505Y466132D01*
X440423Y465978D01*
X440415Y465953D01*
X440403Y465929D01*
X440358Y465759D01*
X440308Y465592D01*
X440306Y465566D01*
X440299Y465540D01*
X440272Y465209D01*
X440272Y402246D01*
X439575Y400565D01*
X434390Y395380D01*
X432710Y394684D01*
X387299Y394684D01*
X387285Y394682D01*
X387272Y394683D01*
X387085Y394662D01*
X386898Y394644D01*
X386885Y394640D01*
X386872Y394638D01*
X386692Y394580D01*
X386513Y394525D01*
X386501Y394519D01*
X386489Y394515D01*
X386324Y394423D01*
X386159Y394334D01*
X386149Y394325D01*
X386137Y394319D01*
X385994Y394196D01*
X385850Y394076D01*
X385842Y394066D01*
X385831Y394057D01*
X385715Y393908D01*
X385598Y393762D01*
X385591Y393750D01*
X385583Y393740D01*
X385498Y393571D01*
X385412Y393405D01*
X385408Y393392D01*
X385402Y393380D01*
X385353Y393199D01*
X385301Y393018D01*
X385300Y393005D01*
X385296Y392992D01*
X385283Y392805D01*
X385268Y392617D01*
X385269Y392603D01*
X385268Y392590D01*
X385293Y392404D01*
X385315Y392217D01*
X385319Y392204D01*
X385321Y392191D01*
X385422Y391875D01*
X385481Y391732D01*
X385481Y389318D01*
X384557Y387087D01*
X382850Y385380D01*
X380620Y384456D01*
X378205Y384456D01*
X375975Y385380D01*
X374950Y386405D01*
X374929Y386422D01*
X374912Y386442D01*
X374774Y386549D01*
X374638Y386660D01*
X374615Y386673D01*
X374594Y386689D01*
X374437Y386767D01*
X374283Y386849D01*
X374257Y386856D01*
X374233Y386868D01*
X374064Y386914D01*
X373897Y386964D01*
X373870Y386966D01*
X373844Y386973D01*
X373514Y387000D01*
X335842Y387000D01*
X335833Y386999D01*
X335825Y387000D01*
X335633Y386979D01*
X335442Y386960D01*
X335433Y386957D01*
X335424Y386957D01*
X335242Y386899D01*
X335057Y386842D01*
X335049Y386838D01*
X335040Y386835D01*
X334872Y386742D01*
X334703Y386650D01*
X334696Y386645D01*
X334688Y386640D01*
X334541Y386515D01*
X334393Y386392D01*
X334388Y386385D01*
X334381Y386380D01*
X334262Y386229D01*
X334141Y386079D01*
X334137Y386071D01*
X334131Y386064D01*
X334044Y385891D01*
X333956Y385721D01*
X333953Y385713D01*
X333949Y385705D01*
X333897Y385518D01*
X333844Y385334D01*
X333844Y385326D01*
X333841Y385317D01*
X333827Y385121D01*
X333811Y384933D01*
X333812Y384924D01*
X333812Y384915D01*
X333836Y384723D01*
X333858Y384533D01*
X333861Y384525D01*
X333862Y384516D01*
X333924Y384333D01*
X333983Y384151D01*
X333988Y384143D01*
X333990Y384134D01*
X334086Y383967D01*
X334181Y383800D01*
X334187Y383793D01*
X334191Y383785D01*
X334406Y383532D01*
X340514Y377424D01*
X340535Y377407D01*
X340552Y377387D01*
X340690Y377280D01*
X340826Y377169D01*
X340849Y377157D01*
X340871Y377140D01*
X341027Y377062D01*
X341181Y376981D01*
X341207Y376973D01*
X341231Y376961D01*
X341400Y376915D01*
X341567Y376866D01*
X341594Y376863D01*
X341620Y376856D01*
X341951Y376829D01*
X342672Y376829D01*
X342703Y376832D01*
X342734Y376830D01*
X342904Y376852D01*
X343073Y376869D01*
X343103Y376878D01*
X343134Y376882D01*
X343450Y376984D01*
X344848Y377563D01*
X347263Y377563D01*
X349493Y376639D01*
X351200Y374932D01*
X352124Y372702D01*
X352124Y370287D01*
X351200Y368057D01*
X349959Y366815D01*
X349953Y366808D01*
X349946Y366803D01*
X349825Y366652D01*
X349704Y366504D01*
X349699Y366496D01*
X349694Y366489D01*
X349605Y366319D01*
X349515Y366148D01*
X349512Y366139D01*
X349508Y366132D01*
X349455Y365947D01*
X349400Y365762D01*
X349399Y365753D01*
X349397Y365745D01*
X349381Y365554D01*
X349364Y365361D01*
X349365Y365352D01*
X349364Y365343D01*
X349386Y365152D01*
X349407Y364961D01*
X349410Y364952D01*
X349411Y364944D01*
X349470Y364762D01*
X349529Y364577D01*
X349533Y364569D01*
X349536Y364561D01*
X349630Y364394D01*
X349724Y364225D01*
X349729Y364218D01*
X349734Y364210D01*
X349859Y364065D01*
X349984Y363918D01*
X349991Y363912D01*
X349997Y363905D01*
X350148Y363789D01*
X350300Y363668D01*
X350308Y363664D01*
X350315Y363659D01*
X350486Y363574D01*
X350659Y363486D01*
X350668Y363483D01*
X350675Y363479D01*
X350861Y363430D01*
X351047Y363378D01*
X351056Y363377D01*
X351064Y363375D01*
X351395Y363348D01*
X418938Y363348D01*
X418955Y363350D01*
G37*
G36*
X453131Y321480D02*
X453131Y321480D01*
X453203Y321480D01*
X453230Y321491D01*
X453259Y321494D01*
X453321Y321528D01*
X453387Y321555D01*
X453407Y321576D01*
X453433Y321590D01*
X453496Y321666D01*
X453526Y321696D01*
X453531Y321707D01*
X453539Y321718D01*
X472602Y354230D01*
X472611Y354258D01*
X472628Y354281D01*
X472643Y354351D01*
X472666Y354418D01*
X472664Y354447D01*
X472670Y354476D01*
X472657Y354546D01*
X472652Y354616D01*
X472639Y354642D01*
X472634Y354671D01*
X472594Y354730D01*
X472562Y354794D01*
X472539Y354812D01*
X472523Y354837D01*
X472442Y354894D01*
X472409Y354921D01*
X472399Y354925D01*
X472387Y354933D01*
X469582Y356280D01*
X469548Y356288D01*
X469505Y356309D01*
X466516Y357176D01*
X466481Y357179D01*
X466435Y357192D01*
X463344Y357555D01*
X463309Y357553D01*
X463261Y357558D01*
X460153Y357408D01*
X460119Y357399D01*
X460071Y357397D01*
X457029Y356737D01*
X456998Y356723D01*
X456950Y356713D01*
X454059Y355561D01*
X454030Y355542D01*
X453985Y355524D01*
X451323Y353912D01*
X451298Y353888D01*
X451256Y353863D01*
X448896Y351835D01*
X448874Y351808D01*
X448838Y351777D01*
X446843Y349387D01*
X446827Y349357D01*
X446796Y349320D01*
X445222Y346635D01*
X445210Y346602D01*
X445186Y346561D01*
X444824Y345614D01*
X444634Y345115D01*
X444633Y345115D01*
X444075Y343653D01*
X444069Y343620D01*
X444068Y343617D01*
X444067Y343614D01*
X444052Y343574D01*
X443435Y340524D01*
X443435Y340489D01*
X443425Y340442D01*
X443319Y337331D01*
X443325Y337297D01*
X443323Y337249D01*
X443730Y334163D01*
X443741Y334131D01*
X443747Y334083D01*
X444656Y331106D01*
X444673Y331076D01*
X444687Y331030D01*
X446073Y328243D01*
X446095Y328216D01*
X446116Y328173D01*
X447943Y325653D01*
X447968Y325629D01*
X447996Y325590D01*
X450213Y323405D01*
X450242Y323386D01*
X450276Y323352D01*
X452822Y321562D01*
X452848Y321550D01*
X452871Y321531D01*
X452939Y321510D01*
X453004Y321482D01*
X453033Y321482D01*
X453061Y321473D01*
X453131Y321480D01*
G37*
G36*
X206121Y470632D02*
X206121Y470632D01*
X206155Y470641D01*
X206203Y470643D01*
X209244Y471303D01*
X209276Y471317D01*
X209323Y471328D01*
X212215Y472479D01*
X212244Y472498D01*
X212288Y472516D01*
X214951Y474128D01*
X214976Y474152D01*
X215017Y474177D01*
X217378Y476205D01*
X217399Y476232D01*
X217436Y476264D01*
X219431Y478653D01*
X219447Y478683D01*
X219478Y478720D01*
X221052Y481405D01*
X221063Y481438D01*
X221088Y481479D01*
X222199Y484387D01*
X222204Y484421D01*
X222222Y484466D01*
X222839Y487516D01*
X222839Y487551D01*
X222848Y487598D01*
X222955Y490709D01*
X222949Y490743D01*
X222951Y490791D01*
X222544Y493877D01*
X222533Y493910D01*
X222527Y493957D01*
X221618Y496934D01*
X221601Y496964D01*
X221587Y497010D01*
X220200Y499797D01*
X220179Y499824D01*
X220158Y499867D01*
X218331Y502387D01*
X218306Y502411D01*
X218277Y502450D01*
X216061Y504635D01*
X216032Y504654D01*
X215998Y504688D01*
X213452Y506478D01*
X213426Y506490D01*
X213403Y506509D01*
X213335Y506530D01*
X213270Y506558D01*
X213241Y506558D01*
X213213Y506567D01*
X213142Y506560D01*
X213071Y506560D01*
X213044Y506549D01*
X213015Y506546D01*
X212953Y506512D01*
X212887Y506485D01*
X212867Y506464D01*
X212841Y506450D01*
X212777Y506374D01*
X212747Y506344D01*
X212743Y506333D01*
X212734Y506323D01*
X193672Y473810D01*
X193662Y473782D01*
X193646Y473759D01*
X193630Y473689D01*
X193607Y473622D01*
X193609Y473593D01*
X193603Y473564D01*
X193617Y473494D01*
X193622Y473424D01*
X193635Y473398D01*
X193640Y473369D01*
X193680Y473310D01*
X193712Y473246D01*
X193734Y473228D01*
X193751Y473203D01*
X193832Y473146D01*
X193864Y473119D01*
X193875Y473115D01*
X193886Y473107D01*
X196692Y471760D01*
X196726Y471752D01*
X196769Y471731D01*
X199758Y470864D01*
X199793Y470861D01*
X199839Y470848D01*
X202930Y470485D01*
X202965Y470488D01*
X203013Y470482D01*
X206121Y470632D01*
G37*
G36*
X462541Y470676D02*
X462541Y470676D01*
X462589Y470673D01*
X465653Y470976D01*
X465686Y470986D01*
X465734Y470990D01*
X468707Y471794D01*
X468738Y471809D01*
X468785Y471822D01*
X471585Y473104D01*
X471609Y473121D01*
X471636Y473131D01*
X471689Y473179D01*
X471746Y473221D01*
X471761Y473246D01*
X471782Y473265D01*
X471812Y473330D01*
X471848Y473391D01*
X471852Y473420D01*
X471864Y473447D01*
X471866Y473518D01*
X471876Y473588D01*
X471868Y473616D01*
X471869Y473645D01*
X471835Y473739D01*
X471824Y473780D01*
X471817Y473789D01*
X471813Y473802D01*
X453544Y506315D01*
X453525Y506337D01*
X453513Y506363D01*
X453461Y506411D01*
X453414Y506465D01*
X453388Y506478D01*
X453366Y506498D01*
X453300Y506521D01*
X453236Y506553D01*
X453206Y506555D01*
X453179Y506564D01*
X453108Y506560D01*
X453037Y506564D01*
X453010Y506554D01*
X452981Y506553D01*
X452890Y506511D01*
X452850Y506497D01*
X452842Y506489D01*
X452829Y506484D01*
X450278Y504758D01*
X450254Y504734D01*
X450214Y504707D01*
X447981Y502585D01*
X447962Y502557D01*
X447926Y502524D01*
X446074Y500064D01*
X446059Y500032D01*
X446030Y499994D01*
X444607Y497262D01*
X444598Y497229D01*
X444575Y497186D01*
X443622Y494258D01*
X443618Y494224D01*
X443603Y494178D01*
X443144Y491132D01*
X443146Y491098D01*
X443139Y491050D01*
X443188Y487971D01*
X443195Y487937D01*
X443196Y487889D01*
X443751Y484860D01*
X443764Y484827D01*
X443772Y484780D01*
X444819Y481883D01*
X444837Y481854D01*
X444853Y481808D01*
X446361Y479124D01*
X446384Y479097D01*
X446408Y479055D01*
X448338Y476655D01*
X448364Y476633D01*
X448394Y476596D01*
X450693Y474546D01*
X450723Y474529D01*
X450759Y474496D01*
X453364Y472853D01*
X453396Y472841D01*
X453437Y472815D01*
X456276Y471623D01*
X456310Y471616D01*
X456355Y471597D01*
X459352Y470889D01*
X459387Y470888D01*
X459433Y470877D01*
X462506Y470671D01*
X462541Y470676D01*
G37*
G36*
X211578Y323067D02*
X211578Y323067D01*
X211649Y323063D01*
X211677Y323073D01*
X211706Y323075D01*
X211796Y323116D01*
X211836Y323131D01*
X211845Y323138D01*
X211857Y323144D01*
X214408Y324869D01*
X214433Y324894D01*
X214473Y324921D01*
X216705Y327042D01*
X216725Y327071D01*
X216760Y327104D01*
X218613Y329564D01*
X218627Y329595D01*
X218657Y329634D01*
X220079Y332365D01*
X220089Y332398D01*
X220111Y332441D01*
X221065Y335369D01*
X221068Y335404D01*
X221083Y335450D01*
X221542Y338495D01*
X221540Y338530D01*
X221548Y338577D01*
X221499Y341657D01*
X221491Y341691D01*
X221490Y341739D01*
X220935Y344768D01*
X220922Y344800D01*
X220914Y344848D01*
X219868Y347744D01*
X219850Y347774D01*
X219833Y347819D01*
X218325Y350504D01*
X218302Y350530D01*
X218279Y350572D01*
X216349Y352972D01*
X216322Y352994D01*
X216292Y353032D01*
X213993Y355081D01*
X213963Y355099D01*
X213927Y355131D01*
X211323Y356774D01*
X211290Y356787D01*
X211250Y356812D01*
X208410Y358005D01*
X208376Y358011D01*
X208332Y358030D01*
X205334Y358739D01*
X205300Y358740D01*
X205253Y358751D01*
X202180Y358956D01*
X202146Y358952D01*
X202098Y358955D01*
X199033Y358652D01*
X199000Y358642D01*
X198952Y358637D01*
X195979Y357834D01*
X195948Y357818D01*
X195901Y357806D01*
X193101Y356524D01*
X193077Y356507D01*
X193050Y356497D01*
X192998Y356449D01*
X192940Y356407D01*
X192925Y356382D01*
X192904Y356362D01*
X192875Y356297D01*
X192838Y356236D01*
X192834Y356207D01*
X192822Y356181D01*
X192820Y356110D01*
X192810Y356039D01*
X192818Y356011D01*
X192817Y355982D01*
X192851Y355889D01*
X192862Y355847D01*
X192869Y355838D01*
X192874Y355825D01*
X211142Y323313D01*
X211161Y323291D01*
X211173Y323264D01*
X211226Y323216D01*
X211272Y323162D01*
X211298Y323150D01*
X211320Y323130D01*
X211387Y323106D01*
X211451Y323075D01*
X211480Y323073D01*
X211507Y323063D01*
X211578Y323067D01*
G37*
G36*
X334305Y545049D02*
X334305Y545049D01*
X334353Y545049D01*
X337374Y545553D01*
X337406Y545565D01*
X337454Y545573D01*
X340350Y546568D01*
X340365Y546576D01*
X340381Y546579D01*
X340399Y546591D01*
X340426Y546601D01*
X343119Y548058D01*
X343146Y548080D01*
X343188Y548103D01*
X345605Y549984D01*
X345627Y550011D01*
X345665Y550040D01*
X347740Y552293D01*
X347757Y552323D01*
X347790Y552358D01*
X349465Y554922D01*
X349478Y554954D01*
X349504Y554994D01*
X350735Y557799D01*
X350742Y557831D01*
X350749Y557843D01*
X350751Y557853D01*
X350761Y557877D01*
X351513Y560846D01*
X351515Y560880D01*
X351527Y560927D01*
X351780Y563979D01*
X351776Y564006D01*
X351780Y564030D01*
X351780Y564031D01*
X351781Y564037D01*
X351765Y564106D01*
X351756Y564176D01*
X351742Y564202D01*
X351735Y564230D01*
X351693Y564287D01*
X351658Y564349D01*
X351634Y564367D01*
X351617Y564390D01*
X351556Y564426D01*
X351499Y564469D01*
X351471Y564477D01*
X351446Y564492D01*
X351348Y564508D01*
X351307Y564519D01*
X351296Y564517D01*
X351282Y564519D01*
X314198Y564519D01*
X314169Y564513D01*
X314140Y564516D01*
X314073Y564494D01*
X314003Y564480D01*
X313979Y564463D01*
X313951Y564454D01*
X313898Y564407D01*
X313839Y564367D01*
X313824Y564343D01*
X313802Y564323D01*
X313770Y564259D01*
X313732Y564200D01*
X313727Y564171D01*
X313715Y564145D01*
X313706Y564045D01*
X313699Y564003D01*
X313700Y564000D01*
X313700Y563997D01*
X313701Y563989D01*
X313700Y563979D01*
X313953Y560927D01*
X313963Y560894D01*
X313967Y560846D01*
X314719Y557877D01*
X314734Y557846D01*
X314745Y557799D01*
X315976Y554994D01*
X315996Y554966D01*
X316015Y554922D01*
X317690Y552358D01*
X317714Y552334D01*
X317740Y552293D01*
X319815Y550040D01*
X319843Y550020D01*
X319875Y549984D01*
X322292Y548103D01*
X322323Y548088D01*
X322361Y548058D01*
X325054Y546601D01*
X325087Y546591D01*
X325129Y546568D01*
X325130Y546568D01*
X326584Y546068D01*
X328026Y545573D01*
X328051Y545570D01*
X328053Y545569D01*
X328066Y545567D01*
X328106Y545553D01*
X331127Y545049D01*
X331161Y545050D01*
X331209Y545042D01*
X334271Y545042D01*
X334305Y545049D01*
G37*
%LPC*%
G36*
X377762Y415763D02*
X377762Y415763D01*
X375531Y416686D01*
X373824Y418394D01*
X372900Y420624D01*
X372900Y423038D01*
X373824Y425269D01*
X375531Y426976D01*
X377762Y427900D01*
X380176Y427900D01*
X382502Y426937D01*
X382505Y426934D01*
X382529Y426921D01*
X382550Y426905D01*
X382707Y426827D01*
X382861Y426745D01*
X382887Y426737D01*
X382911Y426725D01*
X383080Y426680D01*
X383247Y426630D01*
X383274Y426628D01*
X383300Y426621D01*
X383630Y426594D01*
X396532Y426594D01*
X396559Y426596D01*
X396586Y426594D01*
X396760Y426616D01*
X396933Y426634D01*
X396959Y426641D01*
X396985Y426645D01*
X397151Y426700D01*
X397318Y426752D01*
X397342Y426765D01*
X397367Y426773D01*
X397518Y426860D01*
X397672Y426944D01*
X397692Y426961D01*
X397716Y426974D01*
X397969Y427189D01*
X398099Y427319D01*
X400329Y428243D01*
X402744Y428243D01*
X404974Y427319D01*
X406681Y425612D01*
X407605Y423381D01*
X407605Y420967D01*
X406681Y418736D01*
X404974Y417029D01*
X402744Y416105D01*
X400329Y416105D01*
X398099Y417029D01*
X397767Y417361D01*
X397746Y417378D01*
X397729Y417399D01*
X397591Y417506D01*
X397455Y417616D01*
X397432Y417629D01*
X397410Y417645D01*
X397253Y417723D01*
X397099Y417805D01*
X397074Y417813D01*
X397050Y417825D01*
X396880Y417870D01*
X396714Y417920D01*
X396687Y417922D01*
X396661Y417929D01*
X396330Y417956D01*
X384518Y417956D01*
X384491Y417954D01*
X384464Y417956D01*
X384290Y417934D01*
X384117Y417916D01*
X384091Y417909D01*
X384065Y417905D01*
X383899Y417850D01*
X383732Y417798D01*
X383708Y417785D01*
X383683Y417777D01*
X383532Y417690D01*
X383378Y417606D01*
X383358Y417589D01*
X383334Y417576D01*
X383081Y417361D01*
X382406Y416686D01*
X380176Y415763D01*
X377762Y415763D01*
G37*
%LPD*%
%LPC*%
G36*
X197261Y417925D02*
X197261Y417925D01*
X193620Y419433D01*
X190833Y422220D01*
X189325Y425861D01*
X189325Y429802D01*
X190833Y433443D01*
X193620Y436230D01*
X197261Y437738D01*
X201202Y437738D01*
X204843Y436230D01*
X207630Y433443D01*
X209138Y429802D01*
X209138Y425861D01*
X207630Y422220D01*
X204843Y419433D01*
X201202Y417925D01*
X197261Y417925D01*
G37*
%LPD*%
%LPC*%
G36*
X197261Y392525D02*
X197261Y392525D01*
X193620Y394033D01*
X190833Y396820D01*
X189325Y400461D01*
X189325Y404402D01*
X190833Y408043D01*
X193620Y410830D01*
X197261Y412338D01*
X201202Y412338D01*
X204843Y410830D01*
X207630Y408043D01*
X209138Y404402D01*
X209138Y400461D01*
X207630Y396820D01*
X204843Y394033D01*
X201202Y392525D01*
X197261Y392525D01*
G37*
%LPD*%
D10*
G36*
X238971Y488222D02*
X230972Y488195D01*
X230945Y496194D01*
X238944Y496221D01*
X238971Y488222D01*
G37*
G36*
X239023Y473222D02*
X231024Y473195D01*
X230997Y481194D01*
X238996Y481221D01*
X239023Y473222D01*
G37*
D11*
X235246Y446264D03*
X235246Y463264D03*
D12*
X234982Y415788D03*
X234982Y432788D03*
D13*
X233184Y394500D03*
X233184Y375500D03*
D14*
X368186Y510081D03*
X357986Y510081D03*
X347786Y510081D03*
X337586Y510081D03*
X327386Y510081D03*
X317186Y510081D03*
X306986Y510081D03*
X296786Y510081D03*
D15*
X380186Y510081D03*
X398586Y510081D03*
X284786Y510081D03*
X266386Y510081D03*
D16*
X419305Y321437D03*
X245667Y321437D03*
D17*
X167540Y414020D03*
X250140Y557120D03*
X415340Y557120D03*
X497940Y414020D03*
X208840Y342520D03*
X210428Y485520D03*
X332740Y557120D03*
X456640Y485520D03*
X456640Y342520D03*
D11*
X462988Y391319D03*
X479988Y391319D03*
X479988Y436563D03*
X462988Y436563D03*
D18*
X199231Y453231D03*
X199231Y427831D03*
X199231Y402431D03*
X199231Y377031D03*
D12*
X252181Y524669D03*
X235181Y524669D03*
D19*
X480219Y410909D03*
D20*
X480219Y391550D02*
X479988Y391319D01*
X296786Y510081D02*
X296069Y509363D01*
X296069Y484981D01*
D19*
X296069Y484981D03*
X247650Y438944D03*
D21*
X240330Y446264D01*
X235246Y446264D01*
X234982Y432788D02*
X243082Y432788D01*
X247650Y437356D02*
X247650Y438944D01*
X247650Y437356D02*
X243082Y432788D01*
D19*
X327969Y382425D03*
X346055Y371495D03*
D21*
X236538Y372146D02*
X233184Y375500D01*
X236538Y372146D02*
X236538Y364780D01*
D19*
X236538Y364780D03*
D21*
X233184Y375500D02*
X228544Y375500D01*
X218110Y385934D01*
D19*
X218110Y385934D03*
D20*
X462988Y436563D02*
X480219Y419331D01*
D19*
X427038Y365125D03*
D21*
X346055Y371495D02*
X338899Y371495D01*
X327969Y382425D01*
X479988Y391319D02*
X479988Y410677D01*
X480219Y410909D01*
D20*
X480219Y419331D01*
D21*
X465931Y365125D02*
X427038Y365125D01*
X465931Y365125D02*
X479988Y379181D01*
X479988Y391319D01*
D19*
X450850Y420688D03*
D21*
X460860Y410677D01*
X479988Y410677D01*
D20*
X245064Y456475D02*
X245064Y470053D01*
X235246Y446657D02*
X235246Y446264D01*
X235010Y477208D02*
X237909Y477208D01*
X245064Y470053D01*
X245064Y456475D02*
X235246Y446657D01*
D22*
X419305Y321437D02*
X425450Y315292D01*
X425450Y306388D01*
D19*
X425450Y306388D03*
D22*
X245667Y309164D02*
X245667Y321437D01*
X245667Y309164D02*
X249238Y305594D01*
D19*
X249238Y305594D03*
X210753Y419100D03*
D21*
X231670Y419100D01*
X234982Y415788D01*
X233184Y413990D02*
X233184Y394500D01*
X233184Y413990D02*
X234982Y415788D01*
D19*
X449197Y431006D03*
D20*
X452438Y391319D02*
X462988Y391319D01*
X452438Y391319D02*
X451578Y392178D01*
D19*
X419891Y436908D03*
D21*
X419891Y437359D01*
X419100Y438150D01*
D19*
X426244Y522288D03*
X415294Y370119D03*
X395288Y292100D03*
D21*
X257002Y519848D02*
X252181Y524669D01*
X257002Y519848D02*
X257002Y484871D01*
X257175Y484698D01*
X257175Y484188D01*
X271300Y470063D01*
X330038Y470063D02*
X339217Y460883D01*
D19*
X339217Y460883D03*
D21*
X304800Y470063D02*
X271300Y470063D01*
X304800Y470063D02*
X330038Y470063D01*
D19*
X311949Y461851D03*
D21*
X311949Y462914D01*
X304800Y470063D01*
D19*
X236774Y505055D03*
D20*
X235349Y492598D02*
X234958Y492208D01*
X235349Y492598D02*
X235349Y503631D01*
X236774Y505055D01*
D19*
X304006Y377663D03*
D22*
X302419Y379250D01*
X261938Y379250D01*
X211138Y377031D02*
X199231Y377031D01*
X211138Y377031D02*
X230981Y357188D01*
X239875Y357188D01*
X261938Y379250D01*
X235246Y463264D02*
X235532Y463550D01*
D23*
X235246Y463264D02*
X231746Y463264D01*
X221713Y453231D01*
X199231Y453231D01*
D19*
X372880Y542925D03*
D20*
X367353Y537399D01*
X363347Y537399D01*
X357986Y532037D01*
X357986Y510081D01*
X368186Y510081D02*
X368186Y487477D01*
X388144Y467519D01*
D19*
X397038Y461247D03*
D20*
X404019Y467519D02*
X388144Y467519D01*
X405435Y466103D02*
X405435Y462928D01*
X405435Y466103D02*
X404019Y467519D01*
X405435Y462928D02*
X403754Y461247D01*
X397038Y461247D01*
X406400Y451644D02*
X410263Y455507D01*
X406400Y451644D02*
X395038Y451644D01*
D19*
X410263Y455507D03*
D20*
X347754Y488156D02*
X347663Y488156D01*
X353147Y482763D02*
X363920Y482763D01*
X353147Y482763D02*
X347754Y488156D01*
X347663Y488156D02*
X347663Y509957D01*
X347786Y510081D01*
X363920Y482763D02*
X395038Y451644D01*
D19*
X362744Y545499D03*
D20*
X368731Y551025D02*
X376235Y551025D01*
X380980Y546280D01*
X368731Y551025D02*
X363204Y545499D01*
X362744Y545499D01*
X380980Y546280D02*
X380980Y510874D01*
X380186Y510081D01*
D19*
X387188Y480219D03*
D20*
X398463Y509957D02*
X398586Y510081D01*
X398463Y509957D02*
X398463Y491494D01*
X387188Y480219D01*
D19*
X409575Y437356D03*
D20*
X265113Y496094D02*
X265113Y508807D01*
X266386Y510081D01*
D22*
X401130Y445802D02*
X409575Y437356D01*
X401130Y445802D02*
X392619Y445802D01*
X361500Y476921D01*
X265541Y496094D02*
X265113Y496094D01*
X265113Y489744D02*
X265113Y508807D01*
X277936Y476921D02*
X361500Y476921D01*
X277936Y476921D02*
X265113Y489744D01*
D19*
X264365Y539796D03*
D20*
X265158Y540590D01*
X269921Y540590D01*
X284163Y526348D01*
X284163Y510704D02*
X284786Y510081D01*
X284163Y510704D02*
X284163Y526348D01*
D19*
X338380Y509287D03*
D22*
X337586Y510081D01*
D19*
X316392Y511668D03*
D22*
X317186Y510874D02*
X317186Y510081D01*
X317186Y510874D02*
X316392Y511668D01*
D19*
X246623Y384969D03*
X379413Y390525D03*
D20*
X377825Y392113D01*
D22*
X309848Y385255D02*
X246909Y385255D01*
X246623Y384969D01*
D20*
X309848Y385255D02*
X315913Y391319D01*
X378619Y391319D01*
X379413Y390525D01*
D19*
X401537Y422174D03*
D20*
X401436Y422275D01*
X379413Y422275D01*
X378969Y421831D01*
D19*
X378969Y421831D03*
D22*
X213064Y488156D02*
X211307Y486399D01*
X210428Y485520D01*
D19*
X227249Y501027D03*
D24*
X225935Y501027D01*
X211307Y486399D01*
D20*
X454309Y483189D02*
X456640Y485520D01*
D25*
X428393Y472281D02*
X428393Y415693D01*
X419100Y406400D01*
D19*
X301625Y400375D03*
D25*
X307650Y406400D01*
X419100Y406400D01*
D26*
X430527Y474663D02*
X430774Y474663D01*
D20*
X428393Y472281D01*
X430774Y474663D02*
X439300Y483189D01*
X454309Y483189D01*
D19*
X442049Y474295D03*
D25*
X435699Y467945D01*
X435699Y403155D01*
X312738Y399256D02*
X305594Y392113D01*
X312738Y399256D02*
X431800Y399256D01*
D19*
X292894Y395288D03*
D25*
X431800Y399256D02*
X435699Y403155D01*
D20*
X305594Y392113D02*
X296069Y392113D01*
X292894Y395288D01*
D25*
X298450Y367506D02*
X307181Y358775D01*
X298450Y367506D02*
X298450Y369094D01*
D19*
X298450Y369094D03*
D25*
X307181Y358775D02*
X420688Y358775D01*
D26*
X456640Y344108D02*
X456640Y342520D01*
D22*
X456640Y344108D02*
X443504Y357243D01*
X423013Y357243D02*
X421481Y358775D01*
X423013Y357243D02*
X443504Y357243D01*
X421481Y358775D02*
X420688Y358775D01*
D25*
X420688Y351239D02*
X302811Y351239D01*
X288131Y365919D01*
X288131Y371475D01*
D19*
X288131Y371475D03*
X439658Y349651D03*
D22*
X438071Y351239D02*
X420688Y351239D01*
X438071Y351239D02*
X439658Y349651D01*
D19*
X224047Y326816D03*
D22*
X208840Y342023D01*
X208840Y342520D01*
D19*
X286655Y556584D03*
D22*
X332204Y556584D02*
X332740Y557120D01*
X332204Y556584D02*
X286655Y556584D01*
M02*
