G04 EAGLE Gerber RS-274X export*
G75*
%MOMM*%
%FSLAX34Y34*%
%LPD*%
%INSilkscreen Top*%
%IPPOS*%
%AMOC8*
5,1,8,0,0,1.08239X$1,22.5*%
G01*
%ADD10C,0.101600*%
%ADD11C,0.152400*%
%ADD12R,0.014731X0.014731*%
%ADD13R,0.147319X0.014731*%
%ADD14R,0.265175X0.014731*%
%ADD15R,0.383031X0.014731*%
%ADD16R,0.515619X0.014731*%
%ADD17R,0.633475X0.014731*%
%ADD18R,0.751331X0.014731*%
%ADD19R,0.883919X0.014731*%
%ADD20R,1.001775X0.014731*%
%ADD21R,1.119631X0.014731*%
%ADD22R,1.134363X0.014731*%
%ADD23R,1.149094X0.014731*%
%ADD24R,1.163825X0.014731*%
%ADD25R,1.178556X0.014731*%
%ADD26R,1.193288X0.014731*%
%ADD27R,1.222756X0.014731*%
%ADD28R,1.237488X0.014731*%
%ADD29R,1.266950X0.014731*%
%ADD30R,1.281681X0.014731*%
%ADD31R,1.311144X0.014731*%
%ADD32R,1.325881X0.014731*%
%ADD33R,1.355344X0.014731*%
%ADD34R,1.370075X0.014731*%
%ADD35R,1.384806X0.014731*%
%ADD36R,1.399538X0.014731*%
%ADD37R,1.414275X0.014731*%
%ADD38R,1.443738X0.014731*%
%ADD39R,1.458469X0.014731*%
%ADD40R,1.487931X0.014731*%
%ADD41R,1.502663X0.014731*%
%ADD42R,1.517394X0.014731*%
%ADD43R,1.532125X0.014731*%
%ADD44R,1.546856X0.014731*%
%ADD45R,1.576319X0.014731*%
%ADD46R,1.605788X0.014731*%
%ADD47R,1.620519X0.014731*%
%ADD48R,1.649981X0.014731*%
%ADD49R,1.664713X0.014731*%
%ADD50R,1.694175X0.014731*%
%ADD51R,1.708913X0.014731*%
%ADD52R,1.738375X0.014731*%
%ADD53R,1.753106X0.014731*%
%ADD54R,1.767838X0.014731*%
%ADD55R,1.782569X0.014731*%
%ADD56R,1.797306X0.014731*%
%ADD57R,0.117856X0.014731*%
%ADD58R,1.826769X0.014731*%
%ADD59R,0.235713X0.014731*%
%ADD60R,0.353569X0.014731*%
%ADD61R,1.856231X0.014731*%
%ADD62R,0.486156X0.014731*%
%ADD63R,1.870963X0.014731*%
%ADD64R,0.604013X0.014731*%
%ADD65R,0.721869X0.014731*%
%ADD66R,1.885694X0.014731*%
%ADD67R,0.839719X0.014731*%
%ADD68R,0.972306X0.014731*%
%ADD69R,1.090169X0.014731*%
%ADD70R,1.208025X0.014731*%
%ADD71R,1.252219X0.014731*%
%ADD72R,1.296412X0.014731*%
%ADD73R,1.340612X0.014731*%
%ADD74R,1.826763X0.014731*%
%ADD75R,1.414269X0.014731*%
%ADD76R,1.812031X0.014731*%
%ADD77R,1.429000X0.014731*%
%ADD78R,1.458462X0.014731*%
%ADD79R,1.473200X0.014731*%
%ADD80R,1.723644X0.014731*%
%ADD81R,1.694181X0.014731*%
%ADD82R,1.679450X0.014731*%
%ADD83R,1.561594X0.014731*%
%ADD84R,1.576325X0.014731*%
%ADD85R,1.591056X0.014731*%
%ADD86R,1.635250X0.014731*%
%ADD87R,1.561588X0.014731*%
%ADD88R,1.443731X0.014731*%
%ADD89R,1.797300X0.014731*%
%ADD90R,1.841500X0.014731*%
%ADD91R,1.311150X0.014731*%
%ADD92R,1.296419X0.014731*%
%ADD93R,1.193294X0.014731*%
%ADD94R,0.957575X0.014731*%
%ADD95R,0.589281X0.014731*%
%ADD96R,0.471425X0.014731*%
%ADD97R,0.220975X0.014731*%
%ADD98R,1.812038X0.014731*%
%ADD99R,0.103119X0.014731*%
%ADD100R,0.029463X0.014731*%
%ADD101R,0.162050X0.014731*%
%ADD102R,0.397763X0.014731*%
%ADD103R,0.648206X0.014731*%
%ADD104R,1.679444X0.014731*%
%ADD105R,1.016506X0.014731*%
%ADD106R,1.104900X0.014731*%
%ADD107R,1.222750X0.014731*%
%ADD108R,1.429006X0.014731*%
%ADD109R,1.208019X0.014731*%
%ADD110R,0.987044X0.014731*%
%ADD111R,0.854456X0.014731*%
%ADD112R,0.618744X0.014731*%
%ADD113R,0.500888X0.014731*%
%ADD114R,0.368300X0.014731*%
%ADD115R,0.132587X0.014731*%
%ADD116R,1.664719X0.014731*%
%ADD117R,1.075438X0.014731*%
%ADD118R,0.942844X0.014731*%
%ADD119R,0.707131X0.014731*%
%ADD120R,0.456694X0.014731*%
%ADD121R,0.088388X0.014731*%
%ADD122C,0.076200*%
%ADD123C,0.127000*%
%ADD124C,0.050800*%
%ADD125C,0.150000*%


D10*
X386505Y550495D02*
X388924Y548332D01*
X388924Y548331D02*
X389010Y548257D01*
X389098Y548186D01*
X389189Y548118D01*
X389282Y548054D01*
X389377Y547992D01*
X389475Y547934D01*
X389574Y547880D01*
X389675Y547829D01*
X389778Y547781D01*
X389883Y547737D01*
X389988Y547697D01*
X390096Y547660D01*
X390204Y547628D01*
X390314Y547599D01*
X390424Y547574D01*
X390535Y547552D01*
X390647Y547535D01*
X390760Y547522D01*
X390873Y547512D01*
X390986Y547507D01*
X391099Y547505D01*
X391213Y547507D01*
X391326Y547514D01*
X391439Y547524D01*
X391551Y547538D01*
X391663Y547556D01*
X391774Y547578D01*
X391884Y547604D01*
X391994Y547634D01*
X392102Y547667D01*
X392209Y547705D01*
X392314Y547746D01*
X392419Y547790D01*
X392521Y547838D01*
X392622Y547890D01*
X392721Y547946D01*
X392818Y548004D01*
X392913Y548066D01*
X393005Y548132D01*
X393095Y548200D01*
X393183Y548272D01*
X393268Y548346D01*
X393351Y548424D01*
X393431Y548504D01*
X393508Y548587D01*
X393582Y548673D01*
X393653Y548762D01*
X393721Y548852D01*
X393785Y548945D01*
X393847Y549041D01*
X393905Y549138D01*
X393959Y549237D01*
X394010Y549338D01*
X394058Y549441D01*
X394102Y549546D01*
X394142Y549651D01*
X394179Y549759D01*
X394211Y549867D01*
X394240Y549977D01*
X394265Y550087D01*
X394287Y550199D01*
X394304Y550310D01*
X394317Y550423D01*
X394327Y550536D01*
X394332Y550649D01*
X394334Y550762D01*
X394332Y550876D01*
X394325Y550989D01*
X394315Y551102D01*
X394301Y551214D01*
X394283Y551326D01*
X394261Y551437D01*
X394235Y551547D01*
X394205Y551657D01*
X394172Y551765D01*
X394134Y551872D01*
X394093Y551978D01*
X394049Y552082D01*
X394000Y552184D01*
X393949Y552285D01*
X393893Y552384D01*
X393835Y552481D01*
X393773Y552576D01*
X393707Y552668D01*
X393639Y552758D01*
X393567Y552846D01*
X393493Y552931D01*
X393415Y553014D01*
X393335Y553094D01*
X393252Y553171D01*
X397196Y556609D02*
X394293Y559205D01*
X397195Y556609D02*
X397269Y556541D01*
X397340Y556469D01*
X397408Y556395D01*
X397474Y556319D01*
X397536Y556240D01*
X397595Y556158D01*
X397651Y556074D01*
X397704Y555989D01*
X397753Y555901D01*
X397799Y555811D01*
X397841Y555720D01*
X397880Y555627D01*
X397915Y555532D01*
X397946Y555437D01*
X397974Y555340D01*
X397998Y555242D01*
X398018Y555144D01*
X398034Y555044D01*
X398047Y554944D01*
X398055Y554844D01*
X398060Y554743D01*
X398061Y554643D01*
X398058Y554542D01*
X398051Y554442D01*
X398040Y554342D01*
X398025Y554242D01*
X398006Y554143D01*
X397984Y554045D01*
X397957Y553948D01*
X397927Y553852D01*
X397894Y553757D01*
X397856Y553663D01*
X397815Y553571D01*
X397771Y553481D01*
X397723Y553393D01*
X397671Y553306D01*
X397617Y553221D01*
X397559Y553139D01*
X397498Y553059D01*
X397433Y552982D01*
X397366Y552906D01*
X397296Y552834D01*
X397224Y552764D01*
X397148Y552698D01*
X397070Y552634D01*
X396990Y552573D01*
X396907Y552516D01*
X396823Y552461D01*
X396736Y552410D01*
X396647Y552363D01*
X396557Y552319D01*
X396464Y552278D01*
X396371Y552241D01*
X396276Y552208D01*
X396180Y552178D01*
X396082Y552152D01*
X395984Y552130D01*
X395885Y552112D01*
X395785Y552098D01*
X395685Y552087D01*
X395585Y552081D01*
X395484Y552078D01*
X395383Y552079D01*
X395283Y552084D01*
X395183Y552093D01*
X395083Y552106D01*
X394984Y552123D01*
X394885Y552144D01*
X394787Y552168D01*
X394691Y552196D01*
X394595Y552228D01*
X394501Y552264D01*
X394408Y552303D01*
X394317Y552346D01*
X394228Y552392D01*
X394140Y552442D01*
X394054Y552495D01*
X393971Y552551D01*
X393890Y552610D01*
X393811Y552673D01*
X393735Y552739D01*
X393735Y552738D02*
X391799Y554469D01*
X402329Y552020D02*
X397445Y540713D01*
X408136Y546828D01*
X403546Y535258D02*
X405966Y533095D01*
X405965Y533094D02*
X406051Y533020D01*
X406139Y532949D01*
X406230Y532881D01*
X406323Y532817D01*
X406418Y532755D01*
X406516Y532697D01*
X406615Y532643D01*
X406716Y532592D01*
X406819Y532544D01*
X406924Y532500D01*
X407029Y532460D01*
X407137Y532423D01*
X407245Y532391D01*
X407355Y532362D01*
X407465Y532337D01*
X407576Y532315D01*
X407688Y532298D01*
X407801Y532285D01*
X407914Y532275D01*
X408027Y532270D01*
X408140Y532268D01*
X408254Y532270D01*
X408367Y532277D01*
X408480Y532287D01*
X408592Y532301D01*
X408704Y532319D01*
X408815Y532341D01*
X408925Y532367D01*
X409035Y532397D01*
X409143Y532430D01*
X409250Y532468D01*
X409355Y532509D01*
X409460Y532553D01*
X409562Y532601D01*
X409663Y532653D01*
X409762Y532709D01*
X409859Y532767D01*
X409954Y532829D01*
X410046Y532895D01*
X410136Y532963D01*
X410224Y533035D01*
X410309Y533109D01*
X410392Y533187D01*
X410472Y533267D01*
X410549Y533350D01*
X410623Y533436D01*
X410694Y533525D01*
X410762Y533615D01*
X410826Y533708D01*
X410888Y533804D01*
X410946Y533901D01*
X411000Y534000D01*
X411051Y534101D01*
X411099Y534204D01*
X411143Y534309D01*
X411183Y534414D01*
X411220Y534522D01*
X411252Y534630D01*
X411281Y534740D01*
X411306Y534850D01*
X411328Y534962D01*
X411345Y535073D01*
X411358Y535186D01*
X411368Y535299D01*
X411373Y535412D01*
X411375Y535525D01*
X411373Y535639D01*
X411366Y535752D01*
X411356Y535865D01*
X411342Y535977D01*
X411324Y536089D01*
X411302Y536200D01*
X411276Y536310D01*
X411246Y536420D01*
X411213Y536528D01*
X411175Y536635D01*
X411134Y536741D01*
X411090Y536845D01*
X411041Y536947D01*
X410990Y537048D01*
X410934Y537147D01*
X410876Y537244D01*
X410814Y537339D01*
X410748Y537431D01*
X410680Y537521D01*
X410608Y537609D01*
X410534Y537694D01*
X410456Y537777D01*
X410376Y537857D01*
X410293Y537934D01*
X414237Y541373D02*
X411334Y543968D01*
X414237Y541372D02*
X414311Y541304D01*
X414382Y541232D01*
X414450Y541158D01*
X414516Y541082D01*
X414578Y541003D01*
X414637Y540921D01*
X414693Y540837D01*
X414746Y540752D01*
X414795Y540664D01*
X414841Y540574D01*
X414883Y540483D01*
X414922Y540390D01*
X414957Y540295D01*
X414988Y540200D01*
X415016Y540103D01*
X415040Y540005D01*
X415060Y539907D01*
X415076Y539807D01*
X415089Y539707D01*
X415097Y539607D01*
X415102Y539506D01*
X415103Y539406D01*
X415100Y539305D01*
X415093Y539205D01*
X415082Y539105D01*
X415067Y539005D01*
X415048Y538906D01*
X415026Y538808D01*
X414999Y538711D01*
X414969Y538615D01*
X414936Y538520D01*
X414898Y538426D01*
X414857Y538334D01*
X414813Y538244D01*
X414765Y538156D01*
X414713Y538069D01*
X414659Y537984D01*
X414601Y537902D01*
X414540Y537822D01*
X414475Y537745D01*
X414408Y537669D01*
X414338Y537597D01*
X414266Y537527D01*
X414190Y537461D01*
X414112Y537397D01*
X414032Y537336D01*
X413949Y537279D01*
X413865Y537224D01*
X413778Y537173D01*
X413689Y537126D01*
X413599Y537082D01*
X413506Y537041D01*
X413413Y537004D01*
X413318Y536971D01*
X413222Y536941D01*
X413124Y536915D01*
X413026Y536893D01*
X412927Y536875D01*
X412827Y536861D01*
X412727Y536850D01*
X412627Y536844D01*
X412526Y536841D01*
X412425Y536842D01*
X412325Y536847D01*
X412225Y536856D01*
X412125Y536869D01*
X412026Y536886D01*
X411927Y536907D01*
X411829Y536931D01*
X411733Y536959D01*
X411637Y536991D01*
X411543Y537027D01*
X411450Y537066D01*
X411359Y537109D01*
X411270Y537155D01*
X411182Y537205D01*
X411096Y537258D01*
X411013Y537314D01*
X410932Y537373D01*
X410853Y537436D01*
X410777Y537502D01*
X410776Y537501D02*
X408841Y539232D01*
X455131Y407280D02*
X458377Y407280D01*
X458377Y407279D02*
X458490Y407281D01*
X458603Y407287D01*
X458716Y407297D01*
X458829Y407311D01*
X458941Y407328D01*
X459052Y407350D01*
X459162Y407375D01*
X459272Y407405D01*
X459380Y407438D01*
X459487Y407475D01*
X459593Y407515D01*
X459697Y407560D01*
X459800Y407608D01*
X459901Y407659D01*
X460000Y407714D01*
X460097Y407772D01*
X460192Y407834D01*
X460285Y407899D01*
X460375Y407967D01*
X460463Y408038D01*
X460549Y408113D01*
X460632Y408190D01*
X460712Y408270D01*
X460789Y408353D01*
X460864Y408439D01*
X460935Y408527D01*
X461003Y408617D01*
X461068Y408710D01*
X461130Y408805D01*
X461188Y408902D01*
X461243Y409001D01*
X461294Y409102D01*
X461342Y409205D01*
X461387Y409309D01*
X461427Y409415D01*
X461464Y409522D01*
X461497Y409630D01*
X461527Y409740D01*
X461552Y409850D01*
X461574Y409961D01*
X461591Y410073D01*
X461605Y410186D01*
X461615Y410299D01*
X461621Y410412D01*
X461623Y410525D01*
X461621Y410638D01*
X461615Y410751D01*
X461605Y410864D01*
X461591Y410977D01*
X461574Y411089D01*
X461552Y411200D01*
X461527Y411310D01*
X461497Y411420D01*
X461464Y411528D01*
X461427Y411635D01*
X461387Y411741D01*
X461342Y411845D01*
X461294Y411948D01*
X461243Y412049D01*
X461188Y412148D01*
X461130Y412245D01*
X461068Y412340D01*
X461003Y412433D01*
X460935Y412523D01*
X460864Y412611D01*
X460789Y412697D01*
X460712Y412780D01*
X460632Y412860D01*
X460549Y412937D01*
X460463Y413012D01*
X460375Y413083D01*
X460285Y413151D01*
X460192Y413216D01*
X460097Y413278D01*
X460000Y413336D01*
X459901Y413391D01*
X459800Y413442D01*
X459697Y413490D01*
X459593Y413535D01*
X459487Y413575D01*
X459380Y413612D01*
X459272Y413645D01*
X459162Y413675D01*
X459052Y413700D01*
X458941Y413722D01*
X458829Y413739D01*
X458716Y413753D01*
X458603Y413763D01*
X458490Y413769D01*
X458377Y413771D01*
X459026Y418964D02*
X455131Y418964D01*
X459026Y418963D02*
X459127Y418961D01*
X459227Y418955D01*
X459327Y418945D01*
X459427Y418932D01*
X459526Y418914D01*
X459625Y418893D01*
X459722Y418868D01*
X459819Y418839D01*
X459914Y418806D01*
X460008Y418770D01*
X460100Y418730D01*
X460191Y418687D01*
X460280Y418640D01*
X460367Y418590D01*
X460453Y418536D01*
X460536Y418479D01*
X460616Y418419D01*
X460695Y418356D01*
X460771Y418289D01*
X460844Y418220D01*
X460914Y418148D01*
X460982Y418074D01*
X461047Y417997D01*
X461108Y417917D01*
X461167Y417835D01*
X461222Y417751D01*
X461274Y417665D01*
X461323Y417577D01*
X461368Y417487D01*
X461410Y417395D01*
X461448Y417302D01*
X461482Y417207D01*
X461513Y417112D01*
X461540Y417015D01*
X461563Y416917D01*
X461583Y416818D01*
X461598Y416718D01*
X461610Y416618D01*
X461618Y416518D01*
X461622Y416417D01*
X461622Y416317D01*
X461618Y416216D01*
X461610Y416116D01*
X461598Y416016D01*
X461583Y415916D01*
X461563Y415817D01*
X461540Y415719D01*
X461513Y415622D01*
X461482Y415527D01*
X461448Y415432D01*
X461410Y415339D01*
X461368Y415247D01*
X461323Y415157D01*
X461274Y415069D01*
X461222Y414983D01*
X461167Y414899D01*
X461108Y414817D01*
X461047Y414737D01*
X460982Y414660D01*
X460914Y414586D01*
X460844Y414514D01*
X460771Y414445D01*
X460695Y414378D01*
X460616Y414315D01*
X460536Y414255D01*
X460453Y414198D01*
X460367Y414144D01*
X460280Y414094D01*
X460191Y414047D01*
X460100Y414004D01*
X460008Y413964D01*
X459914Y413928D01*
X459819Y413895D01*
X459722Y413866D01*
X459625Y413841D01*
X459526Y413820D01*
X459427Y413802D01*
X459327Y413789D01*
X459227Y413779D01*
X459127Y413773D01*
X459026Y413771D01*
X456429Y413771D01*
X465912Y418964D02*
X469807Y407280D01*
X473701Y418964D01*
X477991Y407280D02*
X481237Y407280D01*
X481237Y407279D02*
X481350Y407281D01*
X481463Y407287D01*
X481576Y407297D01*
X481689Y407311D01*
X481801Y407328D01*
X481912Y407350D01*
X482022Y407375D01*
X482132Y407405D01*
X482240Y407438D01*
X482347Y407475D01*
X482453Y407515D01*
X482557Y407560D01*
X482660Y407608D01*
X482761Y407659D01*
X482860Y407714D01*
X482957Y407772D01*
X483052Y407834D01*
X483145Y407899D01*
X483235Y407967D01*
X483323Y408038D01*
X483409Y408113D01*
X483492Y408190D01*
X483572Y408270D01*
X483649Y408353D01*
X483724Y408439D01*
X483795Y408527D01*
X483863Y408617D01*
X483928Y408710D01*
X483990Y408805D01*
X484048Y408902D01*
X484103Y409001D01*
X484154Y409102D01*
X484202Y409205D01*
X484247Y409309D01*
X484287Y409415D01*
X484324Y409522D01*
X484357Y409630D01*
X484387Y409740D01*
X484412Y409850D01*
X484434Y409961D01*
X484451Y410073D01*
X484465Y410186D01*
X484475Y410299D01*
X484481Y410412D01*
X484483Y410525D01*
X484481Y410638D01*
X484475Y410751D01*
X484465Y410864D01*
X484451Y410977D01*
X484434Y411089D01*
X484412Y411200D01*
X484387Y411310D01*
X484357Y411420D01*
X484324Y411528D01*
X484287Y411635D01*
X484247Y411741D01*
X484202Y411845D01*
X484154Y411948D01*
X484103Y412049D01*
X484048Y412148D01*
X483990Y412245D01*
X483928Y412340D01*
X483863Y412433D01*
X483795Y412523D01*
X483724Y412611D01*
X483649Y412697D01*
X483572Y412780D01*
X483492Y412860D01*
X483409Y412937D01*
X483323Y413012D01*
X483235Y413083D01*
X483145Y413151D01*
X483052Y413216D01*
X482957Y413278D01*
X482860Y413336D01*
X482761Y413391D01*
X482660Y413442D01*
X482557Y413490D01*
X482453Y413535D01*
X482347Y413575D01*
X482240Y413612D01*
X482132Y413645D01*
X482022Y413675D01*
X481912Y413700D01*
X481801Y413722D01*
X481689Y413739D01*
X481576Y413753D01*
X481463Y413763D01*
X481350Y413769D01*
X481237Y413771D01*
X481886Y418964D02*
X477991Y418964D01*
X481886Y418963D02*
X481987Y418961D01*
X482087Y418955D01*
X482187Y418945D01*
X482287Y418932D01*
X482386Y418914D01*
X482485Y418893D01*
X482582Y418868D01*
X482679Y418839D01*
X482774Y418806D01*
X482868Y418770D01*
X482960Y418730D01*
X483051Y418687D01*
X483140Y418640D01*
X483227Y418590D01*
X483313Y418536D01*
X483396Y418479D01*
X483476Y418419D01*
X483555Y418356D01*
X483631Y418289D01*
X483704Y418220D01*
X483774Y418148D01*
X483842Y418074D01*
X483907Y417997D01*
X483968Y417917D01*
X484027Y417835D01*
X484082Y417751D01*
X484134Y417665D01*
X484183Y417577D01*
X484228Y417487D01*
X484270Y417395D01*
X484308Y417302D01*
X484342Y417207D01*
X484373Y417112D01*
X484400Y417015D01*
X484423Y416917D01*
X484443Y416818D01*
X484458Y416718D01*
X484470Y416618D01*
X484478Y416518D01*
X484482Y416417D01*
X484482Y416317D01*
X484478Y416216D01*
X484470Y416116D01*
X484458Y416016D01*
X484443Y415916D01*
X484423Y415817D01*
X484400Y415719D01*
X484373Y415622D01*
X484342Y415527D01*
X484308Y415432D01*
X484270Y415339D01*
X484228Y415247D01*
X484183Y415157D01*
X484134Y415069D01*
X484082Y414983D01*
X484027Y414899D01*
X483968Y414817D01*
X483907Y414737D01*
X483842Y414660D01*
X483774Y414586D01*
X483704Y414514D01*
X483631Y414445D01*
X483555Y414378D01*
X483476Y414315D01*
X483396Y414255D01*
X483313Y414198D01*
X483227Y414144D01*
X483140Y414094D01*
X483051Y414047D01*
X482960Y414004D01*
X482868Y413964D01*
X482774Y413928D01*
X482679Y413895D01*
X482582Y413866D01*
X482485Y413841D01*
X482386Y413820D01*
X482287Y413802D01*
X482187Y413789D01*
X482087Y413779D01*
X481987Y413773D01*
X481886Y413771D01*
X479289Y413771D01*
D11*
X421693Y478133D02*
X421693Y494389D01*
X426209Y494389D01*
X426342Y494387D01*
X426474Y494381D01*
X426606Y494371D01*
X426738Y494358D01*
X426870Y494340D01*
X427000Y494319D01*
X427131Y494294D01*
X427260Y494265D01*
X427388Y494232D01*
X427516Y494196D01*
X427642Y494156D01*
X427767Y494112D01*
X427891Y494064D01*
X428013Y494013D01*
X428134Y493958D01*
X428253Y493900D01*
X428371Y493838D01*
X428486Y493773D01*
X428600Y493704D01*
X428711Y493633D01*
X428820Y493557D01*
X428927Y493479D01*
X429032Y493398D01*
X429134Y493313D01*
X429234Y493226D01*
X429331Y493136D01*
X429426Y493043D01*
X429517Y492947D01*
X429606Y492849D01*
X429692Y492748D01*
X429775Y492644D01*
X429855Y492538D01*
X429931Y492430D01*
X430005Y492320D01*
X430075Y492207D01*
X430142Y492093D01*
X430205Y491976D01*
X430265Y491858D01*
X430322Y491738D01*
X430375Y491616D01*
X430424Y491493D01*
X430470Y491369D01*
X430512Y491243D01*
X430550Y491116D01*
X430585Y490988D01*
X430616Y490859D01*
X430643Y490730D01*
X430666Y490599D01*
X430686Y490468D01*
X430701Y490336D01*
X430713Y490204D01*
X430721Y490072D01*
X430725Y489939D01*
X430725Y489807D01*
X430721Y489674D01*
X430713Y489542D01*
X430701Y489410D01*
X430686Y489278D01*
X430666Y489147D01*
X430643Y489016D01*
X430616Y488887D01*
X430585Y488758D01*
X430550Y488630D01*
X430512Y488503D01*
X430470Y488377D01*
X430424Y488253D01*
X430375Y488130D01*
X430322Y488008D01*
X430265Y487888D01*
X430205Y487770D01*
X430142Y487653D01*
X430075Y487539D01*
X430005Y487426D01*
X429931Y487316D01*
X429855Y487208D01*
X429775Y487102D01*
X429692Y486998D01*
X429606Y486897D01*
X429517Y486799D01*
X429426Y486703D01*
X429331Y486610D01*
X429234Y486520D01*
X429134Y486433D01*
X429032Y486348D01*
X428927Y486267D01*
X428820Y486189D01*
X428711Y486113D01*
X428600Y486042D01*
X428486Y485973D01*
X428371Y485908D01*
X428253Y485846D01*
X428134Y485788D01*
X428013Y485733D01*
X427891Y485682D01*
X427767Y485634D01*
X427642Y485590D01*
X427516Y485550D01*
X427388Y485514D01*
X427260Y485481D01*
X427131Y485452D01*
X427000Y485427D01*
X426870Y485406D01*
X426738Y485388D01*
X426606Y485375D01*
X426474Y485365D01*
X426342Y485359D01*
X426209Y485357D01*
X426209Y485358D02*
X421693Y485358D01*
X436592Y490776D02*
X441108Y494389D01*
X441108Y478133D01*
X445623Y478133D02*
X436592Y478133D01*
X219235Y364168D02*
X219094Y347913D01*
X219235Y364168D02*
X223751Y364129D01*
X223750Y364129D02*
X223884Y364126D01*
X224018Y364119D01*
X224151Y364107D01*
X224284Y364092D01*
X224417Y364074D01*
X224549Y364051D01*
X224680Y364024D01*
X224810Y363993D01*
X224939Y363959D01*
X225068Y363920D01*
X225195Y363878D01*
X225320Y363833D01*
X225445Y363783D01*
X225567Y363730D01*
X225689Y363673D01*
X225808Y363613D01*
X225926Y363549D01*
X226041Y363481D01*
X226155Y363411D01*
X226266Y363336D01*
X226376Y363259D01*
X226483Y363179D01*
X226587Y363095D01*
X226689Y363008D01*
X226788Y362918D01*
X226885Y362826D01*
X226979Y362730D01*
X227070Y362632D01*
X227158Y362531D01*
X227242Y362428D01*
X227324Y362322D01*
X227403Y362214D01*
X227478Y362103D01*
X227551Y361990D01*
X227619Y361876D01*
X227685Y361759D01*
X227747Y361640D01*
X227805Y361520D01*
X227860Y361397D01*
X227911Y361274D01*
X227958Y361148D01*
X228002Y361022D01*
X228041Y360894D01*
X228078Y360765D01*
X228110Y360635D01*
X228138Y360505D01*
X228163Y360373D01*
X228183Y360241D01*
X228200Y360108D01*
X228212Y359975D01*
X228221Y359841D01*
X228226Y359707D01*
X228227Y359574D01*
X228224Y359440D01*
X228217Y359306D01*
X228205Y359173D01*
X228190Y359040D01*
X228172Y358907D01*
X228149Y358775D01*
X228122Y358644D01*
X228091Y358514D01*
X228057Y358385D01*
X228018Y358256D01*
X227976Y358129D01*
X227931Y358004D01*
X227881Y357879D01*
X227828Y357757D01*
X227771Y357635D01*
X227711Y357516D01*
X227647Y357398D01*
X227579Y357283D01*
X227509Y357169D01*
X227434Y357058D01*
X227357Y356948D01*
X227277Y356841D01*
X227193Y356737D01*
X227106Y356635D01*
X227016Y356536D01*
X226924Y356439D01*
X226828Y356345D01*
X226730Y356254D01*
X226629Y356166D01*
X226526Y356082D01*
X226420Y356000D01*
X226312Y355921D01*
X226201Y355846D01*
X226088Y355773D01*
X225974Y355705D01*
X225857Y355639D01*
X225738Y355577D01*
X225618Y355519D01*
X225495Y355464D01*
X225372Y355413D01*
X225247Y355366D01*
X225120Y355322D01*
X224992Y355283D01*
X224863Y355246D01*
X224733Y355214D01*
X224603Y355186D01*
X224471Y355161D01*
X224339Y355141D01*
X224206Y355124D01*
X224073Y355112D01*
X223939Y355103D01*
X223805Y355098D01*
X223672Y355097D01*
X223672Y355098D02*
X219157Y355137D01*
X233992Y347783D02*
X238507Y347743D01*
X238508Y347743D02*
X238640Y347744D01*
X238773Y347749D01*
X238905Y347757D01*
X239037Y347770D01*
X239169Y347786D01*
X239300Y347806D01*
X239430Y347830D01*
X239560Y347858D01*
X239688Y347890D01*
X239816Y347925D01*
X239943Y347964D01*
X240068Y348007D01*
X240193Y348053D01*
X240315Y348104D01*
X240436Y348157D01*
X240556Y348215D01*
X240674Y348275D01*
X240790Y348339D01*
X240904Y348407D01*
X241016Y348478D01*
X241126Y348552D01*
X241234Y348629D01*
X241339Y348710D01*
X241442Y348793D01*
X241543Y348880D01*
X241641Y348969D01*
X241736Y349061D01*
X241828Y349156D01*
X241918Y349254D01*
X242005Y349354D01*
X242089Y349457D01*
X242169Y349562D01*
X242247Y349670D01*
X242321Y349779D01*
X242393Y349891D01*
X242460Y350005D01*
X242525Y350121D01*
X242586Y350239D01*
X242643Y350358D01*
X242697Y350479D01*
X242748Y350602D01*
X242795Y350726D01*
X242838Y350851D01*
X242877Y350978D01*
X242913Y351105D01*
X242945Y351234D01*
X242973Y351364D01*
X242998Y351494D01*
X243018Y351625D01*
X243035Y351757D01*
X243048Y351889D01*
X243057Y352021D01*
X243062Y352153D01*
X243063Y352286D01*
X243060Y352418D01*
X243054Y352551D01*
X243043Y352683D01*
X243029Y352815D01*
X243010Y352946D01*
X242988Y353077D01*
X242962Y353207D01*
X242933Y353336D01*
X242899Y353464D01*
X242862Y353592D01*
X242821Y353718D01*
X242776Y353843D01*
X242728Y353966D01*
X242676Y354088D01*
X242621Y354209D01*
X242562Y354327D01*
X242499Y354444D01*
X242433Y354559D01*
X242364Y354672D01*
X242292Y354783D01*
X242216Y354892D01*
X242137Y354999D01*
X242055Y355103D01*
X241970Y355205D01*
X241882Y355304D01*
X241791Y355401D01*
X241698Y355494D01*
X241601Y355586D01*
X241502Y355674D01*
X241401Y355759D01*
X241297Y355841D01*
X241190Y355921D01*
X241082Y355997D01*
X240971Y356069D01*
X240858Y356139D01*
X240743Y356205D01*
X240626Y356268D01*
X240508Y356327D01*
X240388Y356383D01*
X240266Y356435D01*
X240142Y356484D01*
X240018Y356529D01*
X239892Y356570D01*
X239764Y356608D01*
X239636Y356642D01*
X239507Y356672D01*
X239377Y356698D01*
X239247Y356720D01*
X239115Y356739D01*
X238984Y356754D01*
X238851Y356765D01*
X238719Y356772D01*
X238586Y356775D01*
X239552Y363991D02*
X234134Y364038D01*
X239553Y363990D02*
X239672Y363987D01*
X239791Y363980D01*
X239910Y363969D01*
X240029Y363954D01*
X240147Y363935D01*
X240264Y363913D01*
X240380Y363886D01*
X240496Y363856D01*
X240610Y363822D01*
X240724Y363784D01*
X240836Y363742D01*
X240946Y363697D01*
X241055Y363648D01*
X241162Y363596D01*
X241268Y363540D01*
X241371Y363480D01*
X241473Y363417D01*
X241572Y363351D01*
X241670Y363282D01*
X241764Y363209D01*
X241857Y363133D01*
X241947Y363054D01*
X242034Y362973D01*
X242118Y362888D01*
X242200Y362801D01*
X242278Y362711D01*
X242354Y362619D01*
X242427Y362524D01*
X242496Y362427D01*
X242562Y362327D01*
X242625Y362226D01*
X242684Y362122D01*
X242740Y362016D01*
X242792Y361909D01*
X242841Y361800D01*
X242887Y361689D01*
X242928Y361577D01*
X242966Y361464D01*
X243000Y361350D01*
X243030Y361234D01*
X243056Y361118D01*
X243079Y361000D01*
X243098Y360882D01*
X243112Y360764D01*
X243123Y360645D01*
X243130Y360526D01*
X243133Y360406D01*
X243132Y360287D01*
X243127Y360167D01*
X243118Y360048D01*
X243105Y359930D01*
X243088Y359811D01*
X243068Y359694D01*
X243043Y359577D01*
X243015Y359461D01*
X242982Y359346D01*
X242946Y359232D01*
X242907Y359119D01*
X242863Y359008D01*
X242816Y358898D01*
X242765Y358790D01*
X242711Y358684D01*
X242653Y358579D01*
X242592Y358477D01*
X242527Y358376D01*
X242460Y358278D01*
X242389Y358182D01*
X242314Y358088D01*
X242237Y357997D01*
X242157Y357909D01*
X242074Y357823D01*
X241988Y357740D01*
X241899Y357660D01*
X241808Y357582D01*
X241715Y357508D01*
X241619Y357437D01*
X241520Y357370D01*
X241420Y357305D01*
X241317Y357244D01*
X241212Y357186D01*
X241106Y357132D01*
X240998Y357082D01*
X240888Y357035D01*
X240777Y356991D01*
X240664Y356952D01*
X240550Y356916D01*
X240435Y356884D01*
X240319Y356855D01*
X240202Y356831D01*
X240084Y356810D01*
X239966Y356794D01*
X239847Y356781D01*
X239728Y356772D01*
X239609Y356767D01*
X239490Y356766D01*
X239489Y356766D02*
X235877Y356798D01*
X218369Y497557D02*
X218369Y513813D01*
X222884Y513813D01*
X223017Y513811D01*
X223149Y513805D01*
X223281Y513795D01*
X223413Y513782D01*
X223545Y513764D01*
X223675Y513743D01*
X223806Y513718D01*
X223935Y513689D01*
X224063Y513656D01*
X224191Y513620D01*
X224317Y513580D01*
X224442Y513536D01*
X224566Y513488D01*
X224688Y513437D01*
X224809Y513382D01*
X224928Y513324D01*
X225046Y513262D01*
X225161Y513197D01*
X225275Y513128D01*
X225386Y513057D01*
X225495Y512981D01*
X225602Y512903D01*
X225707Y512822D01*
X225809Y512737D01*
X225909Y512650D01*
X226006Y512560D01*
X226101Y512467D01*
X226192Y512371D01*
X226281Y512273D01*
X226367Y512172D01*
X226450Y512068D01*
X226530Y511962D01*
X226606Y511854D01*
X226680Y511744D01*
X226750Y511631D01*
X226817Y511517D01*
X226880Y511400D01*
X226940Y511282D01*
X226997Y511162D01*
X227050Y511040D01*
X227099Y510917D01*
X227145Y510793D01*
X227187Y510667D01*
X227225Y510540D01*
X227260Y510412D01*
X227291Y510283D01*
X227318Y510154D01*
X227341Y510023D01*
X227361Y509892D01*
X227376Y509760D01*
X227388Y509628D01*
X227396Y509496D01*
X227400Y509363D01*
X227400Y509231D01*
X227396Y509098D01*
X227388Y508966D01*
X227376Y508834D01*
X227361Y508702D01*
X227341Y508571D01*
X227318Y508440D01*
X227291Y508311D01*
X227260Y508182D01*
X227225Y508054D01*
X227187Y507927D01*
X227145Y507801D01*
X227099Y507677D01*
X227050Y507554D01*
X226997Y507432D01*
X226940Y507312D01*
X226880Y507194D01*
X226817Y507077D01*
X226750Y506963D01*
X226680Y506850D01*
X226606Y506740D01*
X226530Y506632D01*
X226450Y506526D01*
X226367Y506422D01*
X226281Y506321D01*
X226192Y506223D01*
X226101Y506127D01*
X226006Y506034D01*
X225909Y505944D01*
X225809Y505857D01*
X225707Y505772D01*
X225602Y505691D01*
X225495Y505613D01*
X225386Y505537D01*
X225275Y505466D01*
X225161Y505397D01*
X225046Y505332D01*
X224928Y505270D01*
X224809Y505212D01*
X224688Y505157D01*
X224566Y505106D01*
X224442Y505058D01*
X224317Y505014D01*
X224191Y504974D01*
X224063Y504938D01*
X223935Y504905D01*
X223806Y504876D01*
X223675Y504851D01*
X223545Y504830D01*
X223413Y504812D01*
X223281Y504799D01*
X223149Y504789D01*
X223017Y504783D01*
X222884Y504781D01*
X222884Y504782D02*
X218369Y504782D01*
X233268Y501169D02*
X236880Y513813D01*
X233268Y501169D02*
X242299Y501169D01*
X239590Y504782D02*
X239590Y497557D01*
X352170Y545788D02*
X352170Y562044D01*
X356686Y562044D01*
X356819Y562042D01*
X356951Y562036D01*
X357083Y562026D01*
X357215Y562013D01*
X357347Y561995D01*
X357477Y561974D01*
X357608Y561949D01*
X357737Y561920D01*
X357865Y561887D01*
X357993Y561851D01*
X358119Y561811D01*
X358244Y561767D01*
X358368Y561719D01*
X358490Y561668D01*
X358611Y561613D01*
X358730Y561555D01*
X358848Y561493D01*
X358963Y561428D01*
X359077Y561359D01*
X359188Y561288D01*
X359297Y561212D01*
X359404Y561134D01*
X359509Y561053D01*
X359611Y560968D01*
X359711Y560881D01*
X359808Y560791D01*
X359903Y560698D01*
X359994Y560602D01*
X360083Y560504D01*
X360169Y560403D01*
X360252Y560299D01*
X360332Y560193D01*
X360408Y560085D01*
X360482Y559975D01*
X360552Y559862D01*
X360619Y559748D01*
X360682Y559631D01*
X360742Y559513D01*
X360799Y559393D01*
X360852Y559271D01*
X360901Y559148D01*
X360947Y559024D01*
X360989Y558898D01*
X361027Y558771D01*
X361062Y558643D01*
X361093Y558514D01*
X361120Y558385D01*
X361143Y558254D01*
X361163Y558123D01*
X361178Y557991D01*
X361190Y557859D01*
X361198Y557727D01*
X361202Y557594D01*
X361202Y557462D01*
X361198Y557329D01*
X361190Y557197D01*
X361178Y557065D01*
X361163Y556933D01*
X361143Y556802D01*
X361120Y556671D01*
X361093Y556542D01*
X361062Y556413D01*
X361027Y556285D01*
X360989Y556158D01*
X360947Y556032D01*
X360901Y555908D01*
X360852Y555785D01*
X360799Y555663D01*
X360742Y555543D01*
X360682Y555425D01*
X360619Y555308D01*
X360552Y555194D01*
X360482Y555081D01*
X360408Y554971D01*
X360332Y554863D01*
X360252Y554757D01*
X360169Y554653D01*
X360083Y554552D01*
X359994Y554454D01*
X359903Y554358D01*
X359808Y554265D01*
X359711Y554175D01*
X359611Y554088D01*
X359509Y554003D01*
X359404Y553922D01*
X359297Y553844D01*
X359188Y553768D01*
X359077Y553697D01*
X358963Y553628D01*
X358848Y553563D01*
X358730Y553501D01*
X358611Y553443D01*
X358490Y553388D01*
X358368Y553337D01*
X358244Y553289D01*
X358119Y553245D01*
X357993Y553205D01*
X357865Y553169D01*
X357737Y553136D01*
X357608Y553107D01*
X357477Y553082D01*
X357347Y553061D01*
X357215Y553043D01*
X357083Y553030D01*
X356951Y553020D01*
X356819Y553014D01*
X356686Y553012D01*
X356686Y553013D02*
X352170Y553013D01*
X367070Y545788D02*
X372488Y545788D01*
X372606Y545790D01*
X372724Y545796D01*
X372842Y545805D01*
X372959Y545819D01*
X373076Y545836D01*
X373193Y545857D01*
X373308Y545882D01*
X373423Y545911D01*
X373537Y545944D01*
X373649Y545980D01*
X373760Y546020D01*
X373870Y546063D01*
X373979Y546110D01*
X374086Y546160D01*
X374191Y546215D01*
X374294Y546272D01*
X374395Y546333D01*
X374495Y546397D01*
X374592Y546464D01*
X374687Y546534D01*
X374779Y546608D01*
X374870Y546684D01*
X374957Y546764D01*
X375042Y546846D01*
X375124Y546931D01*
X375204Y547018D01*
X375280Y547109D01*
X375354Y547201D01*
X375424Y547296D01*
X375491Y547393D01*
X375555Y547493D01*
X375616Y547594D01*
X375673Y547697D01*
X375728Y547802D01*
X375778Y547909D01*
X375825Y548018D01*
X375868Y548128D01*
X375908Y548239D01*
X375944Y548351D01*
X375977Y548465D01*
X376006Y548580D01*
X376031Y548695D01*
X376052Y548812D01*
X376069Y548929D01*
X376083Y549046D01*
X376092Y549164D01*
X376098Y549282D01*
X376100Y549400D01*
X376101Y549400D02*
X376101Y551206D01*
X376100Y551206D02*
X376098Y551324D01*
X376092Y551442D01*
X376083Y551560D01*
X376069Y551677D01*
X376052Y551794D01*
X376031Y551911D01*
X376006Y552026D01*
X375977Y552141D01*
X375944Y552255D01*
X375908Y552367D01*
X375868Y552478D01*
X375825Y552588D01*
X375778Y552697D01*
X375728Y552804D01*
X375673Y552909D01*
X375616Y553012D01*
X375555Y553113D01*
X375491Y553213D01*
X375424Y553310D01*
X375354Y553405D01*
X375280Y553497D01*
X375204Y553588D01*
X375124Y553675D01*
X375042Y553760D01*
X374957Y553842D01*
X374870Y553922D01*
X374779Y553998D01*
X374687Y554072D01*
X374592Y554142D01*
X374495Y554209D01*
X374395Y554273D01*
X374294Y554334D01*
X374191Y554391D01*
X374086Y554446D01*
X373979Y554496D01*
X373870Y554543D01*
X373760Y554586D01*
X373649Y554626D01*
X373537Y554662D01*
X373423Y554695D01*
X373308Y554724D01*
X373193Y554749D01*
X373076Y554770D01*
X372959Y554787D01*
X372842Y554801D01*
X372724Y554810D01*
X372606Y554816D01*
X372488Y554818D01*
X372488Y554819D02*
X367070Y554819D01*
X367070Y562044D01*
X376101Y562044D01*
D12*
X443680Y471992D03*
D13*
X444195Y471844D03*
D14*
X444784Y471697D03*
D15*
X445226Y471550D03*
D16*
X445742Y471402D03*
D17*
X446184Y471255D03*
D18*
X446773Y471108D03*
D19*
X447289Y470960D03*
D20*
X447731Y470813D03*
D21*
X448173Y470666D03*
D22*
X448247Y470519D03*
D23*
X448173Y470371D03*
D24*
X448099Y470224D03*
D25*
X448173Y470077D03*
D26*
X448099Y469929D03*
D27*
X448099Y469782D03*
D28*
X448026Y469635D03*
X448026Y469487D03*
D29*
X448026Y469340D03*
D30*
X447952Y469193D03*
D31*
X447952Y469045D03*
X447952Y468898D03*
D32*
X447878Y468751D03*
D33*
X447878Y468603D03*
D34*
X447805Y468456D03*
D35*
X447878Y468309D03*
D36*
X447805Y468161D03*
D37*
X447731Y468014D03*
D38*
X447731Y467867D03*
X447731Y467719D03*
D39*
X447657Y467572D03*
D40*
X447657Y467425D03*
D41*
X447584Y467277D03*
D42*
X447657Y467130D03*
D43*
X447584Y466983D03*
D44*
X447510Y466836D03*
D45*
X447510Y466688D03*
X447510Y466541D03*
D46*
X447510Y466394D03*
D47*
X447436Y466246D03*
X447436Y466099D03*
D48*
X447436Y465952D03*
D49*
X447363Y465804D03*
D50*
X447363Y465657D03*
X447363Y465510D03*
D51*
X447289Y465362D03*
D52*
X447289Y465215D03*
D53*
X447215Y465068D03*
D54*
X447289Y464920D03*
D55*
X447215Y464773D03*
D56*
X447142Y464626D03*
D57*
X426664Y464626D03*
D58*
X447142Y464478D03*
D59*
X427253Y464478D03*
D58*
X447142Y464331D03*
D60*
X427695Y464331D03*
D61*
X447142Y464184D03*
D62*
X428211Y464184D03*
D63*
X447068Y464036D03*
D64*
X428653Y464036D03*
D63*
X447068Y463889D03*
D65*
X429242Y463889D03*
D66*
X447142Y463742D03*
D67*
X429684Y463742D03*
D66*
X447142Y463594D03*
D68*
X430200Y463594D03*
D63*
X447215Y463447D03*
D69*
X430642Y463447D03*
D66*
X447289Y463300D03*
D21*
X430789Y463300D03*
D66*
X447289Y463153D03*
D23*
X430789Y463153D03*
D66*
X447436Y463005D03*
D24*
X430715Y463005D03*
D66*
X447436Y462858D03*
D25*
X430642Y462858D03*
D63*
X447510Y462711D03*
D26*
X430715Y462711D03*
D66*
X447584Y462563D03*
D70*
X430642Y462563D03*
D66*
X447584Y462416D03*
D28*
X430642Y462416D03*
D66*
X447731Y462269D03*
D71*
X430568Y462269D03*
D66*
X447731Y462121D03*
D71*
X430568Y462121D03*
D63*
X447805Y461974D03*
D30*
X430568Y461974D03*
D66*
X447878Y461827D03*
D72*
X430494Y461827D03*
D66*
X447878Y461679D03*
D32*
X430494Y461679D03*
D66*
X448026Y461532D03*
D32*
X430494Y461532D03*
D66*
X448026Y461385D03*
D73*
X430421Y461385D03*
D63*
X448099Y461237D03*
D34*
X430421Y461237D03*
D61*
X448026Y461090D03*
D35*
X430347Y461090D03*
D61*
X448026Y460943D03*
D36*
X430421Y460943D03*
D74*
X448026Y460795D03*
D75*
X430347Y460795D03*
D76*
X447952Y460648D03*
D77*
X430273Y460648D03*
D55*
X447952Y460501D03*
D78*
X430273Y460501D03*
D55*
X447952Y460353D03*
D78*
X430273Y460353D03*
D54*
X447878Y460206D03*
D79*
X430200Y460206D03*
D52*
X447878Y460059D03*
D41*
X430200Y460059D03*
D80*
X447805Y459911D03*
D41*
X430200Y459911D03*
D51*
X447878Y459764D03*
D43*
X430200Y459764D03*
D81*
X447805Y459617D03*
D44*
X430126Y459617D03*
D82*
X447731Y459470D03*
D83*
X430052Y459470D03*
D48*
X447731Y459322D03*
D84*
X430126Y459322D03*
D48*
X447731Y459175D03*
D85*
X430052Y459175D03*
D86*
X447657Y459028D03*
D47*
X430052Y459028D03*
D46*
X447657Y458880D03*
D86*
X429979Y458880D03*
D46*
X447657Y458733D03*
D86*
X429979Y458733D03*
D84*
X447657Y458586D03*
D49*
X429979Y458586D03*
D87*
X447584Y458438D03*
D82*
X429905Y458438D03*
D44*
X447510Y458291D03*
D51*
X429905Y458291D03*
D43*
X447584Y458144D03*
D51*
X429905Y458144D03*
D42*
X447510Y457996D03*
D80*
X429832Y457996D03*
D40*
X447510Y457849D03*
D53*
X429832Y457849D03*
D79*
X447436Y457702D03*
D54*
X429758Y457702D03*
D79*
X447436Y457554D03*
D55*
X429832Y457554D03*
D88*
X447436Y457407D03*
D89*
X429758Y457407D03*
D77*
X447363Y457260D03*
D76*
X429684Y457260D03*
D36*
X447363Y457112D03*
D90*
X429684Y457112D03*
D36*
X447363Y456965D03*
D90*
X429684Y456965D03*
D35*
X447289Y456818D03*
D63*
X429684Y456818D03*
D33*
X447289Y456670D03*
D66*
X429611Y456670D03*
D73*
X447215Y456523D03*
D63*
X429684Y456523D03*
D32*
X447289Y456376D03*
D66*
X429758Y456376D03*
D91*
X447215Y456228D03*
D66*
X429758Y456228D03*
D92*
X447142Y456081D03*
D63*
X429832Y456081D03*
D29*
X447142Y455934D03*
D66*
X429905Y455934D03*
D29*
X447142Y455787D03*
D66*
X429905Y455787D03*
D71*
X447068Y455639D03*
D66*
X430053Y455639D03*
D27*
X447068Y455492D03*
D66*
X430053Y455492D03*
D70*
X446994Y455345D03*
D63*
X430126Y455345D03*
D93*
X447068Y455197D03*
D66*
X430200Y455197D03*
D25*
X446994Y455050D03*
D66*
X430200Y455050D03*
D24*
X446921Y454903D03*
D66*
X430347Y454903D03*
D23*
X446994Y454755D03*
D66*
X430347Y454755D03*
D22*
X446921Y454608D03*
D63*
X430421Y454608D03*
D69*
X446994Y454461D03*
D66*
X430494Y454461D03*
D94*
X447510Y454313D03*
D66*
X430494Y454313D03*
D67*
X448099Y454166D03*
D66*
X430642Y454166D03*
D65*
X448541Y454019D03*
D66*
X430642Y454019D03*
D95*
X449057Y453871D03*
D61*
X430642Y453871D03*
D96*
X449499Y453724D03*
D90*
X430568Y453724D03*
D60*
X450088Y453577D03*
D90*
X430568Y453577D03*
D97*
X450604Y453429D03*
D98*
X430568Y453429D03*
D99*
X451046Y453282D03*
D56*
X430494Y453282D03*
D100*
X441249Y453135D03*
D55*
X430568Y453135D03*
D101*
X441764Y452987D03*
D54*
X430494Y452987D03*
D14*
X442280Y452840D03*
D53*
X430421Y452840D03*
D102*
X442796Y452693D03*
D80*
X430421Y452693D03*
D16*
X443238Y452545D03*
D80*
X430421Y452545D03*
D103*
X443753Y452398D03*
D81*
X430421Y452398D03*
D18*
X444269Y452251D03*
D104*
X430347Y452251D03*
D19*
X444784Y452104D03*
D49*
X430273Y452104D03*
D105*
X445300Y451956D03*
D48*
X430347Y451956D03*
D106*
X445742Y451809D03*
D86*
X430273Y451809D03*
D22*
X445742Y451662D03*
D47*
X430200Y451662D03*
D23*
X445668Y451514D03*
D85*
X430200Y451514D03*
D24*
X445595Y451367D03*
D85*
X430200Y451367D03*
D25*
X445668Y451220D03*
D87*
X430200Y451220D03*
D26*
X445595Y451072D03*
D44*
X430126Y451072D03*
D107*
X445595Y450925D03*
D43*
X430053Y450925D03*
D28*
X445521Y450778D03*
D42*
X430126Y450778D03*
D28*
X445521Y450630D03*
D41*
X430052Y450630D03*
D29*
X445521Y450483D03*
D79*
X430052Y450483D03*
D30*
X445447Y450336D03*
D39*
X429979Y450336D03*
D31*
X445447Y450188D03*
D39*
X429979Y450188D03*
D31*
X445447Y450041D03*
D108*
X429979Y450041D03*
D32*
X445374Y449894D03*
D75*
X429905Y449894D03*
D33*
X445374Y449746D03*
D35*
X429905Y449746D03*
D34*
X445300Y449599D03*
D35*
X429905Y449599D03*
X445374Y449452D03*
D34*
X429832Y449452D03*
D36*
X445300Y449304D03*
D73*
X429832Y449304D03*
D75*
X445226Y449157D03*
D73*
X429832Y449157D03*
D38*
X445226Y449010D03*
D91*
X429832Y449010D03*
D38*
X445226Y448862D03*
D72*
X429758Y448862D03*
D79*
X445226Y448715D03*
D30*
X429684Y448715D03*
D40*
X445153Y448568D03*
D29*
X429758Y448568D03*
D41*
X445079Y448421D03*
D71*
X429684Y448421D03*
D42*
X445153Y448273D03*
D27*
X429684Y448273D03*
D43*
X445079Y448126D03*
D109*
X429611Y448126D03*
D87*
X445079Y447979D03*
D109*
X429611Y447979D03*
D45*
X445005Y447831D03*
D25*
X429611Y447831D03*
D45*
X445005Y447684D03*
D24*
X429537Y447684D03*
D46*
X445005Y447537D03*
D23*
X429463Y447537D03*
D47*
X444932Y447389D03*
D22*
X429537Y447389D03*
D47*
X444932Y447242D03*
D106*
X429537Y447242D03*
D48*
X444932Y447095D03*
D110*
X429979Y447095D03*
D49*
X444858Y446947D03*
D111*
X430494Y446947D03*
D50*
X444858Y446800D03*
D18*
X431010Y446800D03*
D50*
X444858Y446653D03*
D112*
X431526Y446653D03*
D51*
X444784Y446505D03*
D113*
X431968Y446505D03*
D52*
X444784Y446358D03*
D114*
X432483Y446358D03*
D53*
X444711Y446211D03*
D14*
X432999Y446211D03*
D54*
X444785Y446063D03*
D115*
X433515Y446063D03*
D55*
X444711Y445916D03*
D12*
X433956Y445916D03*
D56*
X444637Y445769D03*
D58*
X444637Y445621D03*
X444637Y445474D03*
D61*
X444637Y445327D03*
D63*
X444564Y445179D03*
X444564Y445032D03*
D66*
X444637Y444885D03*
X444637Y444738D03*
X444785Y444590D03*
X444785Y444443D03*
D63*
X444858Y444296D03*
D66*
X444932Y444148D03*
X444932Y444001D03*
X445079Y443854D03*
X445079Y443706D03*
D63*
X445153Y443559D03*
D66*
X445226Y443412D03*
X445226Y443264D03*
D63*
X445300Y443117D03*
D66*
X445374Y442970D03*
X445374Y442822D03*
X445521Y442675D03*
X445521Y442528D03*
D63*
X445595Y442380D03*
D61*
X445521Y442233D03*
X445521Y442086D03*
D74*
X445521Y441938D03*
D76*
X445447Y441791D03*
D55*
X445447Y441644D03*
X445447Y441496D03*
D54*
X445374Y441349D03*
D52*
X445374Y441202D03*
D80*
X445300Y441055D03*
D51*
X445374Y440907D03*
D81*
X445300Y440760D03*
D82*
X445226Y440613D03*
D116*
X445300Y440465D03*
D48*
X445226Y440318D03*
D47*
X445226Y440171D03*
D46*
X445153Y440023D03*
X445153Y439876D03*
D84*
X445153Y439729D03*
D87*
X445079Y439581D03*
D43*
X445079Y439434D03*
X445079Y439287D03*
D42*
X445005Y439139D03*
D40*
X445005Y438992D03*
D79*
X444932Y438845D03*
X444932Y438697D03*
D88*
X444932Y438550D03*
D77*
X444858Y438403D03*
D36*
X444858Y438255D03*
X444858Y438108D03*
D35*
X444784Y437961D03*
D33*
X444784Y437813D03*
D73*
X444711Y437666D03*
D32*
X444784Y437519D03*
D91*
X444711Y437372D03*
D92*
X444637Y437224D03*
D29*
X444637Y437077D03*
X444637Y436930D03*
D28*
X444637Y436782D03*
D27*
X444564Y436635D03*
D70*
X444490Y436488D03*
D93*
X444564Y436340D03*
D25*
X444490Y436193D03*
D23*
X444490Y436046D03*
X444490Y435898D03*
D22*
X444416Y435751D03*
D117*
X444564Y435604D03*
D118*
X445079Y435456D03*
D67*
X445595Y435309D03*
D119*
X446110Y435162D03*
D95*
X446552Y435014D03*
D120*
X447068Y434867D03*
D60*
X447584Y434720D03*
D97*
X448099Y434572D03*
D121*
X448615Y434425D03*
D10*
X214599Y383275D02*
X214599Y370067D01*
X214599Y383275D02*
X218268Y383275D01*
X218388Y383273D01*
X218508Y383267D01*
X218628Y383257D01*
X218747Y383244D01*
X218866Y383226D01*
X218984Y383205D01*
X219101Y383179D01*
X219218Y383150D01*
X219333Y383117D01*
X219447Y383080D01*
X219560Y383040D01*
X219672Y382996D01*
X219782Y382948D01*
X219891Y382897D01*
X219998Y382842D01*
X220102Y382783D01*
X220205Y382722D01*
X220306Y382657D01*
X220405Y382588D01*
X220502Y382517D01*
X220596Y382442D01*
X220687Y382365D01*
X220776Y382284D01*
X220862Y382200D01*
X220946Y382114D01*
X221027Y382025D01*
X221104Y381934D01*
X221179Y381840D01*
X221250Y381743D01*
X221319Y381644D01*
X221384Y381543D01*
X221445Y381441D01*
X221504Y381336D01*
X221559Y381229D01*
X221610Y381120D01*
X221658Y381010D01*
X221702Y380898D01*
X221742Y380785D01*
X221779Y380671D01*
X221812Y380556D01*
X221841Y380439D01*
X221867Y380322D01*
X221888Y380204D01*
X221906Y380085D01*
X221919Y379966D01*
X221929Y379846D01*
X221935Y379726D01*
X221937Y379606D01*
X221935Y379486D01*
X221929Y379366D01*
X221919Y379246D01*
X221906Y379127D01*
X221888Y379008D01*
X221867Y378890D01*
X221841Y378773D01*
X221812Y378656D01*
X221779Y378541D01*
X221742Y378427D01*
X221702Y378314D01*
X221658Y378202D01*
X221610Y378092D01*
X221559Y377983D01*
X221504Y377876D01*
X221445Y377772D01*
X221384Y377669D01*
X221319Y377568D01*
X221250Y377469D01*
X221179Y377372D01*
X221104Y377278D01*
X221027Y377187D01*
X220946Y377098D01*
X220862Y377012D01*
X220776Y376928D01*
X220687Y376847D01*
X220596Y376770D01*
X220502Y376695D01*
X220405Y376624D01*
X220306Y376555D01*
X220205Y376490D01*
X220103Y376429D01*
X219998Y376370D01*
X219891Y376315D01*
X219782Y376264D01*
X219672Y376216D01*
X219560Y376172D01*
X219447Y376132D01*
X219333Y376095D01*
X219218Y376062D01*
X219101Y376033D01*
X218984Y376007D01*
X218866Y375986D01*
X218747Y375968D01*
X218628Y375955D01*
X218508Y375945D01*
X218388Y375939D01*
X218268Y375937D01*
X218268Y375938D02*
X214599Y375938D01*
X219002Y375938D02*
X221937Y370067D01*
X218768Y457126D02*
X215099Y457126D01*
X218768Y457126D02*
X218888Y457124D01*
X219008Y457118D01*
X219128Y457108D01*
X219247Y457095D01*
X219366Y457077D01*
X219484Y457056D01*
X219601Y457030D01*
X219718Y457001D01*
X219833Y456968D01*
X219947Y456931D01*
X220060Y456891D01*
X220172Y456847D01*
X220282Y456799D01*
X220391Y456748D01*
X220498Y456693D01*
X220602Y456634D01*
X220705Y456573D01*
X220806Y456508D01*
X220905Y456439D01*
X221002Y456368D01*
X221096Y456293D01*
X221187Y456216D01*
X221276Y456135D01*
X221362Y456051D01*
X221446Y455965D01*
X221527Y455876D01*
X221604Y455785D01*
X221679Y455691D01*
X221750Y455594D01*
X221819Y455495D01*
X221884Y455394D01*
X221945Y455292D01*
X222004Y455187D01*
X222059Y455080D01*
X222110Y454971D01*
X222158Y454861D01*
X222202Y454749D01*
X222242Y454636D01*
X222279Y454522D01*
X222312Y454407D01*
X222341Y454290D01*
X222367Y454173D01*
X222388Y454055D01*
X222406Y453936D01*
X222419Y453817D01*
X222429Y453697D01*
X222435Y453577D01*
X222437Y453457D01*
X222435Y453337D01*
X222429Y453217D01*
X222419Y453097D01*
X222406Y452978D01*
X222388Y452859D01*
X222367Y452741D01*
X222341Y452624D01*
X222312Y452507D01*
X222279Y452392D01*
X222242Y452278D01*
X222202Y452165D01*
X222158Y452053D01*
X222110Y451943D01*
X222059Y451834D01*
X222004Y451727D01*
X221945Y451623D01*
X221884Y451520D01*
X221819Y451419D01*
X221750Y451320D01*
X221679Y451223D01*
X221604Y451129D01*
X221527Y451038D01*
X221446Y450949D01*
X221362Y450863D01*
X221276Y450779D01*
X221187Y450698D01*
X221096Y450621D01*
X221002Y450546D01*
X220905Y450475D01*
X220806Y450406D01*
X220705Y450341D01*
X220603Y450280D01*
X220498Y450221D01*
X220391Y450166D01*
X220282Y450115D01*
X220172Y450067D01*
X220060Y450023D01*
X219947Y449983D01*
X219833Y449946D01*
X219718Y449913D01*
X219601Y449884D01*
X219484Y449858D01*
X219366Y449837D01*
X219247Y449819D01*
X219128Y449806D01*
X219008Y449796D01*
X218888Y449790D01*
X218768Y449788D01*
X215099Y449788D01*
X215099Y462996D01*
X218768Y462996D01*
X218875Y462994D01*
X218982Y462988D01*
X219089Y462978D01*
X219195Y462965D01*
X219301Y462947D01*
X219406Y462926D01*
X219510Y462901D01*
X219614Y462872D01*
X219716Y462839D01*
X219816Y462802D01*
X219916Y462762D01*
X220014Y462718D01*
X220110Y462671D01*
X220204Y462620D01*
X220297Y462566D01*
X220387Y462509D01*
X220476Y462448D01*
X220562Y462384D01*
X220645Y462317D01*
X220727Y462247D01*
X220805Y462174D01*
X220881Y462098D01*
X220954Y462020D01*
X221024Y461938D01*
X221091Y461855D01*
X221155Y461769D01*
X221216Y461680D01*
X221273Y461590D01*
X221327Y461497D01*
X221378Y461403D01*
X221425Y461307D01*
X221469Y461209D01*
X221509Y461109D01*
X221546Y461009D01*
X221579Y460907D01*
X221608Y460803D01*
X221633Y460699D01*
X221654Y460594D01*
X221672Y460488D01*
X221685Y460382D01*
X221695Y460275D01*
X221701Y460168D01*
X221703Y460061D01*
X221701Y459954D01*
X221695Y459847D01*
X221685Y459740D01*
X221672Y459634D01*
X221654Y459528D01*
X221633Y459423D01*
X221608Y459319D01*
X221579Y459215D01*
X221546Y459113D01*
X221509Y459013D01*
X221469Y458913D01*
X221425Y458815D01*
X221378Y458719D01*
X221327Y458625D01*
X221273Y458532D01*
X221216Y458442D01*
X221155Y458353D01*
X221091Y458267D01*
X221024Y458184D01*
X220954Y458102D01*
X220881Y458024D01*
X220805Y457948D01*
X220727Y457875D01*
X220645Y457805D01*
X220562Y457738D01*
X220476Y457674D01*
X220387Y457613D01*
X220297Y457556D01*
X220204Y457502D01*
X220110Y457451D01*
X220014Y457404D01*
X219916Y457360D01*
X219816Y457320D01*
X219716Y457283D01*
X219614Y457250D01*
X219510Y457221D01*
X219406Y457196D01*
X219301Y457175D01*
X219195Y457157D01*
X219089Y457144D01*
X218982Y457134D01*
X218875Y457128D01*
X218768Y457126D01*
X214662Y436174D02*
X214662Y422966D01*
X214662Y436174D02*
X218331Y436174D01*
X218451Y436172D01*
X218571Y436166D01*
X218691Y436156D01*
X218810Y436143D01*
X218929Y436125D01*
X219047Y436104D01*
X219164Y436078D01*
X219281Y436049D01*
X219396Y436016D01*
X219510Y435979D01*
X219623Y435939D01*
X219735Y435895D01*
X219845Y435847D01*
X219954Y435796D01*
X220061Y435741D01*
X220166Y435682D01*
X220268Y435621D01*
X220369Y435556D01*
X220468Y435487D01*
X220565Y435416D01*
X220659Y435341D01*
X220750Y435264D01*
X220839Y435183D01*
X220925Y435099D01*
X221009Y435013D01*
X221090Y434924D01*
X221167Y434833D01*
X221242Y434739D01*
X221313Y434642D01*
X221382Y434543D01*
X221447Y434442D01*
X221508Y434340D01*
X221567Y434235D01*
X221622Y434128D01*
X221673Y434019D01*
X221721Y433909D01*
X221765Y433797D01*
X221805Y433684D01*
X221842Y433570D01*
X221875Y433455D01*
X221904Y433338D01*
X221930Y433221D01*
X221951Y433103D01*
X221969Y432984D01*
X221982Y432865D01*
X221992Y432745D01*
X221998Y432625D01*
X222000Y432505D01*
X222000Y426635D01*
X221998Y426515D01*
X221992Y426395D01*
X221982Y426275D01*
X221969Y426156D01*
X221951Y426037D01*
X221930Y425919D01*
X221904Y425802D01*
X221875Y425685D01*
X221842Y425570D01*
X221805Y425456D01*
X221765Y425343D01*
X221721Y425231D01*
X221673Y425121D01*
X221622Y425012D01*
X221567Y424905D01*
X221508Y424801D01*
X221447Y424698D01*
X221382Y424597D01*
X221313Y424498D01*
X221242Y424401D01*
X221167Y424307D01*
X221090Y424216D01*
X221009Y424127D01*
X220925Y424041D01*
X220839Y423957D01*
X220750Y423876D01*
X220659Y423799D01*
X220565Y423724D01*
X220468Y423653D01*
X220369Y423584D01*
X220268Y423519D01*
X220166Y423458D01*
X220061Y423399D01*
X219954Y423344D01*
X219845Y423293D01*
X219735Y423245D01*
X219623Y423201D01*
X219510Y423161D01*
X219396Y423124D01*
X219281Y423091D01*
X219164Y423062D01*
X219047Y423036D01*
X218929Y423015D01*
X218810Y422997D01*
X218691Y422984D01*
X218571Y422974D01*
X218451Y422968D01*
X218331Y422966D01*
X214662Y422966D01*
X217599Y396803D02*
X220534Y396803D01*
X217599Y396803D02*
X217492Y396805D01*
X217385Y396811D01*
X217278Y396821D01*
X217172Y396834D01*
X217066Y396852D01*
X216961Y396873D01*
X216857Y396898D01*
X216753Y396927D01*
X216651Y396960D01*
X216551Y396997D01*
X216451Y397037D01*
X216353Y397081D01*
X216257Y397128D01*
X216163Y397179D01*
X216070Y397233D01*
X215980Y397290D01*
X215891Y397351D01*
X215805Y397415D01*
X215722Y397482D01*
X215640Y397552D01*
X215562Y397625D01*
X215486Y397701D01*
X215413Y397779D01*
X215343Y397861D01*
X215276Y397944D01*
X215212Y398030D01*
X215151Y398119D01*
X215094Y398209D01*
X215040Y398302D01*
X214989Y398396D01*
X214942Y398492D01*
X214898Y398590D01*
X214858Y398690D01*
X214821Y398790D01*
X214788Y398892D01*
X214759Y398996D01*
X214734Y399100D01*
X214713Y399205D01*
X214695Y399311D01*
X214682Y399417D01*
X214672Y399524D01*
X214666Y399631D01*
X214664Y399738D01*
X214664Y407075D01*
X214666Y407182D01*
X214672Y407289D01*
X214682Y407396D01*
X214695Y407502D01*
X214713Y407608D01*
X214734Y407713D01*
X214759Y407817D01*
X214788Y407921D01*
X214821Y408023D01*
X214858Y408123D01*
X214898Y408223D01*
X214942Y408321D01*
X214989Y408417D01*
X215040Y408511D01*
X215094Y408604D01*
X215151Y408694D01*
X215212Y408783D01*
X215276Y408869D01*
X215343Y408952D01*
X215413Y409034D01*
X215486Y409112D01*
X215562Y409188D01*
X215640Y409261D01*
X215722Y409331D01*
X215805Y409398D01*
X215891Y409462D01*
X215980Y409523D01*
X216070Y409580D01*
X216163Y409634D01*
X216257Y409685D01*
X216353Y409732D01*
X216451Y409776D01*
X216551Y409816D01*
X216651Y409853D01*
X216753Y409886D01*
X216857Y409915D01*
X216961Y409940D01*
X217066Y409961D01*
X217172Y409979D01*
X217278Y409992D01*
X217385Y410002D01*
X217492Y410008D01*
X217599Y410010D01*
X217599Y410011D02*
X220534Y410011D01*
D11*
X424719Y369344D02*
X424719Y353088D01*
X424719Y369344D02*
X429234Y369344D01*
X429234Y369345D02*
X429367Y369343D01*
X429499Y369337D01*
X429631Y369327D01*
X429763Y369314D01*
X429895Y369296D01*
X430025Y369275D01*
X430156Y369250D01*
X430285Y369221D01*
X430413Y369188D01*
X430541Y369152D01*
X430667Y369112D01*
X430792Y369068D01*
X430916Y369020D01*
X431038Y368969D01*
X431159Y368914D01*
X431278Y368856D01*
X431396Y368794D01*
X431511Y368729D01*
X431625Y368660D01*
X431736Y368589D01*
X431845Y368513D01*
X431952Y368435D01*
X432057Y368354D01*
X432159Y368269D01*
X432259Y368182D01*
X432356Y368092D01*
X432451Y367999D01*
X432542Y367903D01*
X432631Y367805D01*
X432717Y367704D01*
X432800Y367600D01*
X432880Y367494D01*
X432956Y367386D01*
X433030Y367276D01*
X433100Y367163D01*
X433167Y367049D01*
X433230Y366932D01*
X433290Y366814D01*
X433347Y366694D01*
X433400Y366572D01*
X433449Y366449D01*
X433495Y366325D01*
X433537Y366199D01*
X433575Y366072D01*
X433610Y365944D01*
X433641Y365815D01*
X433668Y365686D01*
X433691Y365555D01*
X433711Y365424D01*
X433726Y365292D01*
X433738Y365160D01*
X433746Y365028D01*
X433750Y364895D01*
X433750Y364763D01*
X433746Y364630D01*
X433738Y364498D01*
X433726Y364366D01*
X433711Y364234D01*
X433691Y364103D01*
X433668Y363972D01*
X433641Y363843D01*
X433610Y363714D01*
X433575Y363586D01*
X433537Y363459D01*
X433495Y363333D01*
X433449Y363209D01*
X433400Y363086D01*
X433347Y362964D01*
X433290Y362844D01*
X433230Y362726D01*
X433167Y362609D01*
X433100Y362495D01*
X433030Y362382D01*
X432956Y362272D01*
X432880Y362164D01*
X432800Y362058D01*
X432717Y361954D01*
X432631Y361853D01*
X432542Y361755D01*
X432451Y361659D01*
X432356Y361566D01*
X432259Y361476D01*
X432159Y361389D01*
X432057Y361304D01*
X431952Y361223D01*
X431845Y361145D01*
X431736Y361069D01*
X431625Y360998D01*
X431511Y360929D01*
X431396Y360864D01*
X431278Y360802D01*
X431159Y360744D01*
X431038Y360689D01*
X430916Y360638D01*
X430792Y360590D01*
X430667Y360546D01*
X430541Y360506D01*
X430413Y360470D01*
X430285Y360437D01*
X430156Y360408D01*
X430025Y360383D01*
X429895Y360362D01*
X429763Y360344D01*
X429631Y360331D01*
X429499Y360321D01*
X429367Y360315D01*
X429234Y360313D01*
X424719Y360313D01*
X444585Y369344D02*
X444710Y369342D01*
X444835Y369336D01*
X444960Y369327D01*
X445084Y369313D01*
X445208Y369296D01*
X445332Y369275D01*
X445454Y369250D01*
X445576Y369221D01*
X445697Y369189D01*
X445817Y369153D01*
X445936Y369113D01*
X446053Y369070D01*
X446169Y369023D01*
X446284Y368972D01*
X446396Y368918D01*
X446508Y368860D01*
X446617Y368800D01*
X446724Y368735D01*
X446830Y368668D01*
X446933Y368597D01*
X447034Y368523D01*
X447133Y368446D01*
X447229Y368366D01*
X447323Y368283D01*
X447414Y368198D01*
X447503Y368109D01*
X447588Y368018D01*
X447671Y367924D01*
X447751Y367828D01*
X447828Y367729D01*
X447902Y367628D01*
X447973Y367525D01*
X448040Y367419D01*
X448105Y367312D01*
X448165Y367203D01*
X448223Y367091D01*
X448277Y366979D01*
X448328Y366864D01*
X448375Y366748D01*
X448418Y366631D01*
X448458Y366512D01*
X448494Y366392D01*
X448526Y366271D01*
X448555Y366149D01*
X448580Y366027D01*
X448601Y365903D01*
X448618Y365779D01*
X448632Y365655D01*
X448641Y365530D01*
X448647Y365405D01*
X448649Y365280D01*
X444585Y369344D02*
X444442Y369342D01*
X444300Y369336D01*
X444157Y369326D01*
X444015Y369313D01*
X443874Y369295D01*
X443732Y369274D01*
X443592Y369249D01*
X443452Y369220D01*
X443313Y369187D01*
X443175Y369150D01*
X443038Y369110D01*
X442903Y369066D01*
X442768Y369018D01*
X442635Y368966D01*
X442503Y368911D01*
X442373Y368852D01*
X442245Y368790D01*
X442118Y368724D01*
X441993Y368655D01*
X441870Y368583D01*
X441750Y368507D01*
X441631Y368428D01*
X441514Y368345D01*
X441400Y368260D01*
X441288Y368171D01*
X441179Y368080D01*
X441072Y367985D01*
X440967Y367888D01*
X440866Y367787D01*
X440767Y367684D01*
X440671Y367579D01*
X440578Y367470D01*
X440488Y367359D01*
X440401Y367246D01*
X440317Y367131D01*
X440237Y367013D01*
X440159Y366893D01*
X440085Y366771D01*
X440015Y366647D01*
X439947Y366521D01*
X439884Y366393D01*
X439823Y366264D01*
X439766Y366133D01*
X439713Y366001D01*
X439664Y365867D01*
X439618Y365732D01*
X447294Y362119D02*
X447388Y362211D01*
X447478Y362305D01*
X447566Y362402D01*
X447651Y362502D01*
X447733Y362604D01*
X447812Y362709D01*
X447887Y362816D01*
X447959Y362925D01*
X448028Y363036D01*
X448094Y363150D01*
X448156Y363265D01*
X448215Y363382D01*
X448270Y363501D01*
X448321Y363621D01*
X448369Y363743D01*
X448414Y363866D01*
X448454Y363990D01*
X448491Y364116D01*
X448524Y364243D01*
X448553Y364370D01*
X448579Y364499D01*
X448600Y364628D01*
X448618Y364758D01*
X448631Y364888D01*
X448641Y365018D01*
X448647Y365149D01*
X448649Y365280D01*
X447295Y362119D02*
X439618Y353088D01*
X448649Y353088D01*
X456925Y361755D02*
X456925Y367173D01*
X456925Y361755D02*
X460086Y357691D01*
X456925Y361755D02*
X453764Y357691D01*
X456925Y361755D02*
X461892Y363561D01*
X456925Y361755D02*
X451958Y363561D01*
D122*
X172114Y396429D02*
X171070Y398188D01*
X172114Y396428D02*
X172161Y396353D01*
X172211Y396279D01*
X172265Y396208D01*
X172322Y396139D01*
X172382Y396072D01*
X172444Y396009D01*
X172509Y395948D01*
X172577Y395890D01*
X172647Y395835D01*
X172720Y395783D01*
X172795Y395734D01*
X172872Y395689D01*
X172950Y395647D01*
X173031Y395608D01*
X173113Y395573D01*
X173197Y395542D01*
X173282Y395514D01*
X173368Y395490D01*
X173455Y395470D01*
X173542Y395454D01*
X173631Y395441D01*
X173720Y395433D01*
X173809Y395428D01*
X173898Y395427D01*
X173987Y395430D01*
X174076Y395437D01*
X174165Y395448D01*
X174253Y395463D01*
X174340Y395481D01*
X174427Y395503D01*
X174512Y395529D01*
X174596Y395559D01*
X174679Y395592D01*
X174760Y395629D01*
X174840Y395670D01*
X174918Y395714D01*
X174993Y395761D01*
X175067Y395811D01*
X175138Y395865D01*
X175207Y395922D01*
X175274Y395982D01*
X175337Y396044D01*
X175398Y396109D01*
X175456Y396177D01*
X175511Y396247D01*
X175563Y396320D01*
X175612Y396395D01*
X175657Y396472D01*
X175699Y396551D01*
X175738Y396631D01*
X175773Y396713D01*
X175804Y396797D01*
X175832Y396882D01*
X175856Y396968D01*
X175876Y397055D01*
X175892Y397142D01*
X175905Y397231D01*
X175913Y397320D01*
X175918Y397409D01*
X175919Y397498D01*
X175916Y397587D01*
X175909Y397676D01*
X175898Y397765D01*
X175883Y397853D01*
X175865Y397940D01*
X175843Y398027D01*
X175817Y398112D01*
X175787Y398196D01*
X175754Y398279D01*
X175717Y398360D01*
X175676Y398440D01*
X175632Y398518D01*
X178657Y399838D02*
X177403Y401949D01*
X178657Y399838D02*
X178695Y399769D01*
X178731Y399698D01*
X178763Y399626D01*
X178791Y399552D01*
X178816Y399477D01*
X178837Y399400D01*
X178854Y399323D01*
X178868Y399245D01*
X178878Y399167D01*
X178884Y399088D01*
X178886Y399009D01*
X178884Y398930D01*
X178879Y398851D01*
X178870Y398772D01*
X178857Y398694D01*
X178840Y398617D01*
X178820Y398540D01*
X178795Y398465D01*
X178768Y398391D01*
X178736Y398318D01*
X178702Y398247D01*
X178663Y398178D01*
X178622Y398111D01*
X178577Y398045D01*
X178530Y397982D01*
X178479Y397922D01*
X178425Y397863D01*
X178369Y397808D01*
X178310Y397755D01*
X178248Y397705D01*
X178185Y397659D01*
X178119Y397615D01*
X178051Y397575D01*
X177981Y397538D01*
X177909Y397504D01*
X177836Y397474D01*
X177761Y397447D01*
X177686Y397424D01*
X177609Y397405D01*
X177531Y397390D01*
X177453Y397378D01*
X177374Y397370D01*
X177295Y397366D01*
X177216Y397365D01*
X177137Y397369D01*
X177058Y397376D01*
X176980Y397387D01*
X176902Y397402D01*
X176826Y397421D01*
X176750Y397443D01*
X176675Y397469D01*
X176601Y397499D01*
X176530Y397532D01*
X176459Y397568D01*
X176391Y397608D01*
X176325Y397651D01*
X176260Y397697D01*
X176199Y397746D01*
X176139Y397799D01*
X176082Y397854D01*
X176028Y397911D01*
X175977Y397972D01*
X175929Y398034D01*
X175883Y398099D01*
X175841Y398166D01*
X175842Y398166D02*
X175006Y399574D01*
X180929Y396011D02*
X175849Y390139D01*
X183436Y391788D01*
X178539Y385608D02*
X179583Y383849D01*
X179584Y383848D02*
X179631Y383773D01*
X179681Y383699D01*
X179735Y383628D01*
X179792Y383559D01*
X179852Y383492D01*
X179914Y383429D01*
X179979Y383368D01*
X180047Y383310D01*
X180117Y383255D01*
X180190Y383203D01*
X180265Y383154D01*
X180342Y383109D01*
X180420Y383067D01*
X180501Y383028D01*
X180583Y382993D01*
X180667Y382962D01*
X180752Y382934D01*
X180838Y382910D01*
X180925Y382890D01*
X181012Y382874D01*
X181101Y382861D01*
X181190Y382853D01*
X181279Y382848D01*
X181368Y382847D01*
X181457Y382850D01*
X181546Y382857D01*
X181635Y382868D01*
X181723Y382883D01*
X181810Y382901D01*
X181897Y382923D01*
X181982Y382949D01*
X182066Y382979D01*
X182149Y383012D01*
X182230Y383049D01*
X182310Y383090D01*
X182388Y383134D01*
X182463Y383181D01*
X182537Y383231D01*
X182608Y383285D01*
X182677Y383342D01*
X182744Y383402D01*
X182807Y383464D01*
X182868Y383529D01*
X182926Y383597D01*
X182981Y383667D01*
X183033Y383740D01*
X183082Y383815D01*
X183127Y383892D01*
X183169Y383971D01*
X183208Y384051D01*
X183243Y384133D01*
X183274Y384217D01*
X183302Y384302D01*
X183326Y384388D01*
X183346Y384475D01*
X183362Y384562D01*
X183375Y384651D01*
X183383Y384740D01*
X183388Y384829D01*
X183389Y384918D01*
X183386Y385007D01*
X183379Y385096D01*
X183368Y385185D01*
X183353Y385273D01*
X183335Y385360D01*
X183313Y385447D01*
X183287Y385532D01*
X183257Y385616D01*
X183224Y385699D01*
X183187Y385780D01*
X183146Y385860D01*
X183102Y385938D01*
X186126Y387258D02*
X184873Y389369D01*
X186127Y387258D02*
X186165Y387189D01*
X186201Y387118D01*
X186233Y387046D01*
X186261Y386972D01*
X186286Y386897D01*
X186307Y386820D01*
X186324Y386743D01*
X186338Y386665D01*
X186348Y386587D01*
X186354Y386508D01*
X186356Y386429D01*
X186354Y386350D01*
X186349Y386271D01*
X186340Y386192D01*
X186327Y386114D01*
X186310Y386037D01*
X186290Y385960D01*
X186265Y385885D01*
X186238Y385811D01*
X186206Y385738D01*
X186172Y385667D01*
X186133Y385598D01*
X186092Y385531D01*
X186047Y385465D01*
X186000Y385402D01*
X185949Y385342D01*
X185895Y385283D01*
X185839Y385228D01*
X185780Y385175D01*
X185718Y385125D01*
X185655Y385079D01*
X185589Y385035D01*
X185521Y384995D01*
X185451Y384958D01*
X185379Y384924D01*
X185306Y384894D01*
X185231Y384867D01*
X185156Y384844D01*
X185079Y384825D01*
X185001Y384810D01*
X184923Y384798D01*
X184844Y384790D01*
X184765Y384786D01*
X184686Y384785D01*
X184607Y384789D01*
X184528Y384796D01*
X184450Y384807D01*
X184372Y384822D01*
X184296Y384841D01*
X184220Y384863D01*
X184145Y384889D01*
X184071Y384919D01*
X184000Y384952D01*
X183929Y384988D01*
X183861Y385028D01*
X183795Y385071D01*
X183730Y385117D01*
X183669Y385166D01*
X183609Y385219D01*
X183552Y385274D01*
X183498Y385331D01*
X183447Y385392D01*
X183399Y385454D01*
X183353Y385519D01*
X183311Y385586D01*
X182475Y386994D01*
D10*
X266116Y550455D02*
X269362Y550455D01*
X269475Y550457D01*
X269588Y550463D01*
X269701Y550473D01*
X269814Y550487D01*
X269926Y550504D01*
X270037Y550526D01*
X270147Y550551D01*
X270257Y550581D01*
X270365Y550614D01*
X270472Y550651D01*
X270578Y550691D01*
X270682Y550736D01*
X270785Y550784D01*
X270886Y550835D01*
X270985Y550890D01*
X271082Y550948D01*
X271177Y551010D01*
X271270Y551075D01*
X271360Y551143D01*
X271448Y551214D01*
X271534Y551289D01*
X271617Y551366D01*
X271697Y551446D01*
X271774Y551529D01*
X271849Y551615D01*
X271920Y551703D01*
X271988Y551793D01*
X272053Y551886D01*
X272115Y551981D01*
X272173Y552078D01*
X272228Y552177D01*
X272279Y552278D01*
X272327Y552381D01*
X272372Y552485D01*
X272412Y552591D01*
X272449Y552698D01*
X272482Y552806D01*
X272512Y552916D01*
X272537Y553026D01*
X272559Y553137D01*
X272576Y553249D01*
X272590Y553362D01*
X272600Y553475D01*
X272606Y553588D01*
X272608Y553701D01*
X272606Y553814D01*
X272600Y553927D01*
X272590Y554040D01*
X272576Y554153D01*
X272559Y554265D01*
X272537Y554376D01*
X272512Y554486D01*
X272482Y554596D01*
X272449Y554704D01*
X272412Y554811D01*
X272372Y554917D01*
X272327Y555021D01*
X272279Y555124D01*
X272228Y555225D01*
X272173Y555324D01*
X272115Y555421D01*
X272053Y555516D01*
X271988Y555609D01*
X271920Y555699D01*
X271849Y555787D01*
X271774Y555873D01*
X271697Y555956D01*
X271617Y556036D01*
X271534Y556113D01*
X271448Y556188D01*
X271360Y556259D01*
X271270Y556327D01*
X271177Y556392D01*
X271082Y556454D01*
X270985Y556512D01*
X270886Y556567D01*
X270785Y556618D01*
X270682Y556666D01*
X270578Y556711D01*
X270472Y556751D01*
X270365Y556788D01*
X270257Y556821D01*
X270147Y556851D01*
X270037Y556876D01*
X269926Y556898D01*
X269814Y556915D01*
X269701Y556929D01*
X269588Y556939D01*
X269475Y556945D01*
X269362Y556947D01*
X270011Y562139D02*
X266116Y562139D01*
X270011Y562139D02*
X270112Y562137D01*
X270212Y562131D01*
X270312Y562121D01*
X270412Y562108D01*
X270511Y562090D01*
X270610Y562069D01*
X270707Y562044D01*
X270804Y562015D01*
X270899Y561982D01*
X270993Y561946D01*
X271085Y561906D01*
X271176Y561863D01*
X271265Y561816D01*
X271352Y561766D01*
X271438Y561712D01*
X271521Y561655D01*
X271601Y561595D01*
X271680Y561532D01*
X271756Y561465D01*
X271829Y561396D01*
X271899Y561324D01*
X271967Y561250D01*
X272032Y561173D01*
X272093Y561093D01*
X272152Y561011D01*
X272207Y560927D01*
X272259Y560841D01*
X272308Y560753D01*
X272353Y560663D01*
X272395Y560571D01*
X272433Y560478D01*
X272467Y560383D01*
X272498Y560288D01*
X272525Y560191D01*
X272548Y560093D01*
X272568Y559994D01*
X272583Y559894D01*
X272595Y559794D01*
X272603Y559694D01*
X272607Y559593D01*
X272607Y559493D01*
X272603Y559392D01*
X272595Y559292D01*
X272583Y559192D01*
X272568Y559092D01*
X272548Y558993D01*
X272525Y558895D01*
X272498Y558798D01*
X272467Y558703D01*
X272433Y558608D01*
X272395Y558515D01*
X272353Y558423D01*
X272308Y558333D01*
X272259Y558245D01*
X272207Y558159D01*
X272152Y558075D01*
X272093Y557993D01*
X272032Y557913D01*
X271967Y557836D01*
X271899Y557762D01*
X271829Y557690D01*
X271756Y557621D01*
X271680Y557554D01*
X271601Y557491D01*
X271521Y557431D01*
X271438Y557374D01*
X271352Y557320D01*
X271265Y557270D01*
X271176Y557223D01*
X271085Y557180D01*
X270993Y557140D01*
X270899Y557104D01*
X270804Y557071D01*
X270707Y557042D01*
X270610Y557017D01*
X270511Y556996D01*
X270412Y556978D01*
X270312Y556965D01*
X270212Y556955D01*
X270112Y556949D01*
X270011Y556947D01*
X270011Y556946D02*
X267414Y556946D01*
X276897Y562139D02*
X280792Y550455D01*
X284686Y562139D01*
X288976Y550455D02*
X292222Y550455D01*
X292335Y550457D01*
X292448Y550463D01*
X292561Y550473D01*
X292674Y550487D01*
X292786Y550504D01*
X292897Y550526D01*
X293007Y550551D01*
X293117Y550581D01*
X293225Y550614D01*
X293332Y550651D01*
X293438Y550691D01*
X293542Y550736D01*
X293645Y550784D01*
X293746Y550835D01*
X293845Y550890D01*
X293942Y550948D01*
X294037Y551010D01*
X294130Y551075D01*
X294220Y551143D01*
X294308Y551214D01*
X294394Y551289D01*
X294477Y551366D01*
X294557Y551446D01*
X294634Y551529D01*
X294709Y551615D01*
X294780Y551703D01*
X294848Y551793D01*
X294913Y551886D01*
X294975Y551981D01*
X295033Y552078D01*
X295088Y552177D01*
X295139Y552278D01*
X295187Y552381D01*
X295232Y552485D01*
X295272Y552591D01*
X295309Y552698D01*
X295342Y552806D01*
X295372Y552916D01*
X295397Y553026D01*
X295419Y553137D01*
X295436Y553249D01*
X295450Y553362D01*
X295460Y553475D01*
X295466Y553588D01*
X295468Y553701D01*
X295466Y553814D01*
X295460Y553927D01*
X295450Y554040D01*
X295436Y554153D01*
X295419Y554265D01*
X295397Y554376D01*
X295372Y554486D01*
X295342Y554596D01*
X295309Y554704D01*
X295272Y554811D01*
X295232Y554917D01*
X295187Y555021D01*
X295139Y555124D01*
X295088Y555225D01*
X295033Y555324D01*
X294975Y555421D01*
X294913Y555516D01*
X294848Y555609D01*
X294780Y555699D01*
X294709Y555787D01*
X294634Y555873D01*
X294557Y555956D01*
X294477Y556036D01*
X294394Y556113D01*
X294308Y556188D01*
X294220Y556259D01*
X294130Y556327D01*
X294037Y556392D01*
X293942Y556454D01*
X293845Y556512D01*
X293746Y556567D01*
X293645Y556618D01*
X293542Y556666D01*
X293438Y556711D01*
X293332Y556751D01*
X293225Y556788D01*
X293117Y556821D01*
X293007Y556851D01*
X292897Y556876D01*
X292786Y556898D01*
X292674Y556915D01*
X292561Y556929D01*
X292448Y556939D01*
X292335Y556945D01*
X292222Y556947D01*
X292871Y562139D02*
X288976Y562139D01*
X292871Y562139D02*
X292972Y562137D01*
X293072Y562131D01*
X293172Y562121D01*
X293272Y562108D01*
X293371Y562090D01*
X293470Y562069D01*
X293567Y562044D01*
X293664Y562015D01*
X293759Y561982D01*
X293853Y561946D01*
X293945Y561906D01*
X294036Y561863D01*
X294125Y561816D01*
X294212Y561766D01*
X294298Y561712D01*
X294381Y561655D01*
X294461Y561595D01*
X294540Y561532D01*
X294616Y561465D01*
X294689Y561396D01*
X294759Y561324D01*
X294827Y561250D01*
X294892Y561173D01*
X294953Y561093D01*
X295012Y561011D01*
X295067Y560927D01*
X295119Y560841D01*
X295168Y560753D01*
X295213Y560663D01*
X295255Y560571D01*
X295293Y560478D01*
X295327Y560383D01*
X295358Y560288D01*
X295385Y560191D01*
X295408Y560093D01*
X295428Y559994D01*
X295443Y559894D01*
X295455Y559794D01*
X295463Y559694D01*
X295467Y559593D01*
X295467Y559493D01*
X295463Y559392D01*
X295455Y559292D01*
X295443Y559192D01*
X295428Y559092D01*
X295408Y558993D01*
X295385Y558895D01*
X295358Y558798D01*
X295327Y558703D01*
X295293Y558608D01*
X295255Y558515D01*
X295213Y558423D01*
X295168Y558333D01*
X295119Y558245D01*
X295067Y558159D01*
X295012Y558075D01*
X294953Y557993D01*
X294892Y557913D01*
X294827Y557836D01*
X294759Y557762D01*
X294689Y557690D01*
X294616Y557621D01*
X294540Y557554D01*
X294461Y557491D01*
X294381Y557431D01*
X294298Y557374D01*
X294212Y557320D01*
X294125Y557270D01*
X294036Y557223D01*
X293945Y557180D01*
X293853Y557140D01*
X293759Y557104D01*
X293664Y557071D01*
X293567Y557042D01*
X293470Y557017D01*
X293371Y556996D01*
X293272Y556978D01*
X293172Y556965D01*
X293072Y556955D01*
X292972Y556949D01*
X292871Y556947D01*
X292871Y556946D02*
X290274Y556946D01*
D123*
X234993Y482208D02*
X232493Y482199D01*
X234993Y482208D02*
X237493Y482216D01*
X234993Y482208D02*
X232475Y487199D01*
X237475Y487216D02*
X234993Y482208D01*
X237475Y487216D02*
X232475Y487199D01*
X229940Y497190D02*
X239940Y497225D01*
X240028Y472225D01*
X230028Y472190D01*
X229940Y497190D01*
D122*
X249985Y476688D02*
X259383Y476721D01*
X249985Y476688D02*
X249975Y479298D01*
X249977Y479398D01*
X249982Y479498D01*
X249991Y479597D01*
X250004Y479697D01*
X250021Y479795D01*
X250042Y479893D01*
X250066Y479990D01*
X250094Y480086D01*
X250126Y480181D01*
X250161Y480275D01*
X250200Y480367D01*
X250242Y480457D01*
X250288Y480546D01*
X250337Y480633D01*
X250389Y480719D01*
X250445Y480802D01*
X250504Y480883D01*
X250566Y480961D01*
X250631Y481037D01*
X250698Y481111D01*
X250769Y481182D01*
X250842Y481250D01*
X250918Y481316D01*
X250996Y481378D01*
X251076Y481437D01*
X251159Y481494D01*
X251244Y481547D01*
X251331Y481596D01*
X251419Y481643D01*
X251510Y481686D01*
X251602Y481725D01*
X251695Y481761D01*
X251790Y481794D01*
X251885Y481822D01*
X251982Y481847D01*
X252080Y481868D01*
X252178Y481886D01*
X252278Y481900D01*
X252377Y481910D01*
X252477Y481916D01*
X252577Y481918D01*
X256754Y481933D01*
X256854Y481931D01*
X256954Y481926D01*
X257053Y481917D01*
X257153Y481904D01*
X257251Y481887D01*
X257349Y481866D01*
X257446Y481842D01*
X257542Y481814D01*
X257637Y481782D01*
X257731Y481747D01*
X257823Y481708D01*
X257913Y481666D01*
X258002Y481620D01*
X258089Y481571D01*
X258175Y481519D01*
X258258Y481463D01*
X258339Y481404D01*
X258417Y481342D01*
X258493Y481277D01*
X258567Y481210D01*
X258638Y481139D01*
X258706Y481066D01*
X258772Y480990D01*
X258834Y480912D01*
X258893Y480832D01*
X258950Y480749D01*
X259003Y480664D01*
X259052Y480577D01*
X259099Y480489D01*
X259142Y480398D01*
X259181Y480306D01*
X259217Y480213D01*
X259250Y480118D01*
X259278Y480023D01*
X259303Y479926D01*
X259324Y479828D01*
X259342Y479730D01*
X259356Y479630D01*
X259366Y479531D01*
X259372Y479431D01*
X259374Y479331D01*
X259373Y479331D02*
X259383Y476721D01*
X252040Y486144D02*
X249942Y488747D01*
X259340Y488780D01*
X259331Y491390D02*
X259349Y486169D01*
D124*
X225416Y469494D02*
X225416Y440034D01*
X225416Y469494D02*
X245076Y469494D01*
X245076Y440034D01*
X225416Y440034D01*
D122*
X252128Y449806D02*
X261526Y449806D01*
X252128Y449806D02*
X252128Y452416D01*
X252127Y452416D02*
X252129Y452517D01*
X252135Y452618D01*
X252145Y452719D01*
X252158Y452819D01*
X252176Y452919D01*
X252197Y453018D01*
X252223Y453116D01*
X252252Y453213D01*
X252284Y453309D01*
X252321Y453403D01*
X252361Y453496D01*
X252405Y453588D01*
X252452Y453677D01*
X252503Y453765D01*
X252557Y453851D01*
X252614Y453934D01*
X252674Y454016D01*
X252738Y454094D01*
X252804Y454171D01*
X252874Y454244D01*
X252946Y454315D01*
X253021Y454383D01*
X253099Y454448D01*
X253179Y454510D01*
X253261Y454569D01*
X253346Y454625D01*
X253433Y454677D01*
X253521Y454726D01*
X253612Y454772D01*
X253704Y454813D01*
X253798Y454852D01*
X253893Y454886D01*
X253989Y454917D01*
X254087Y454944D01*
X254185Y454968D01*
X254285Y454987D01*
X254385Y455003D01*
X254485Y455015D01*
X254586Y455023D01*
X254687Y455027D01*
X254789Y455027D01*
X254890Y455023D01*
X254991Y455015D01*
X255091Y455003D01*
X255191Y454987D01*
X255291Y454968D01*
X255389Y454944D01*
X255487Y454917D01*
X255583Y454886D01*
X255678Y454852D01*
X255772Y454813D01*
X255864Y454772D01*
X255955Y454726D01*
X256044Y454677D01*
X256130Y454625D01*
X256215Y454569D01*
X256297Y454510D01*
X256377Y454448D01*
X256455Y454383D01*
X256530Y454315D01*
X256602Y454244D01*
X256672Y454171D01*
X256738Y454094D01*
X256802Y454016D01*
X256862Y453934D01*
X256919Y453851D01*
X256973Y453765D01*
X257024Y453677D01*
X257071Y453588D01*
X257115Y453496D01*
X257155Y453403D01*
X257192Y453309D01*
X257224Y453213D01*
X257253Y453116D01*
X257279Y453018D01*
X257300Y452919D01*
X257318Y452819D01*
X257331Y452719D01*
X257341Y452618D01*
X257347Y452517D01*
X257349Y452416D01*
X257349Y449806D01*
X257349Y452938D02*
X261526Y455027D01*
X254477Y464114D02*
X254382Y464112D01*
X254288Y464106D01*
X254194Y464097D01*
X254100Y464084D01*
X254007Y464067D01*
X253915Y464046D01*
X253823Y464021D01*
X253733Y463993D01*
X253644Y463961D01*
X253556Y463926D01*
X253470Y463887D01*
X253385Y463845D01*
X253302Y463799D01*
X253221Y463750D01*
X253142Y463698D01*
X253065Y463643D01*
X252991Y463584D01*
X252919Y463523D01*
X252849Y463459D01*
X252782Y463392D01*
X252718Y463322D01*
X252657Y463250D01*
X252598Y463176D01*
X252543Y463099D01*
X252491Y463020D01*
X252442Y462939D01*
X252396Y462856D01*
X252354Y462771D01*
X252315Y462685D01*
X252280Y462597D01*
X252248Y462508D01*
X252220Y462418D01*
X252195Y462326D01*
X252174Y462234D01*
X252157Y462141D01*
X252144Y462047D01*
X252135Y461953D01*
X252129Y461859D01*
X252127Y461764D01*
X252128Y461764D02*
X252130Y461656D01*
X252136Y461547D01*
X252146Y461439D01*
X252159Y461332D01*
X252177Y461225D01*
X252198Y461118D01*
X252223Y461013D01*
X252252Y460908D01*
X252284Y460805D01*
X252321Y460703D01*
X252361Y460602D01*
X252404Y460503D01*
X252451Y460405D01*
X252502Y460309D01*
X252556Y460215D01*
X252613Y460123D01*
X252674Y460033D01*
X252738Y459945D01*
X252804Y459860D01*
X252874Y459777D01*
X252947Y459697D01*
X253023Y459619D01*
X253101Y459544D01*
X253182Y459472D01*
X253266Y459403D01*
X253352Y459337D01*
X253440Y459274D01*
X253531Y459215D01*
X253623Y459158D01*
X253718Y459105D01*
X253815Y459056D01*
X253913Y459010D01*
X254012Y458967D01*
X254114Y458928D01*
X254216Y458893D01*
X256305Y463331D02*
X256236Y463400D01*
X256165Y463466D01*
X256092Y463530D01*
X256016Y463591D01*
X255937Y463649D01*
X255857Y463703D01*
X255774Y463755D01*
X255690Y463803D01*
X255604Y463849D01*
X255516Y463890D01*
X255426Y463929D01*
X255335Y463964D01*
X255243Y463995D01*
X255150Y464023D01*
X255056Y464047D01*
X254961Y464067D01*
X254865Y464084D01*
X254768Y464097D01*
X254671Y464106D01*
X254574Y464112D01*
X254477Y464114D01*
X256304Y463330D02*
X261526Y458892D01*
X261526Y464114D01*
D124*
X225152Y439018D02*
X225152Y409558D01*
X225152Y439018D02*
X244812Y439018D01*
X244812Y409558D01*
X225152Y409558D01*
D122*
X260687Y418769D02*
X260687Y420858D01*
X260687Y418769D02*
X260685Y418680D01*
X260679Y418592D01*
X260670Y418504D01*
X260657Y418416D01*
X260640Y418329D01*
X260620Y418243D01*
X260595Y418158D01*
X260568Y418073D01*
X260536Y417990D01*
X260502Y417909D01*
X260463Y417829D01*
X260422Y417751D01*
X260377Y417674D01*
X260329Y417600D01*
X260278Y417527D01*
X260224Y417457D01*
X260166Y417390D01*
X260106Y417324D01*
X260044Y417262D01*
X259978Y417202D01*
X259911Y417144D01*
X259841Y417090D01*
X259768Y417039D01*
X259694Y416991D01*
X259617Y416946D01*
X259539Y416905D01*
X259459Y416866D01*
X259378Y416832D01*
X259295Y416800D01*
X259210Y416773D01*
X259125Y416748D01*
X259039Y416728D01*
X258952Y416711D01*
X258864Y416698D01*
X258776Y416689D01*
X258688Y416683D01*
X258599Y416681D01*
X253377Y416681D01*
X253377Y416680D02*
X253286Y416682D01*
X253195Y416688D01*
X253104Y416698D01*
X253014Y416712D01*
X252925Y416730D01*
X252836Y416751D01*
X252749Y416777D01*
X252663Y416806D01*
X252578Y416839D01*
X252494Y416876D01*
X252412Y416916D01*
X252333Y416960D01*
X252255Y417007D01*
X252179Y417058D01*
X252105Y417112D01*
X252034Y417169D01*
X251966Y417229D01*
X251900Y417292D01*
X251837Y417358D01*
X251777Y417426D01*
X251720Y417497D01*
X251666Y417571D01*
X251615Y417647D01*
X251568Y417724D01*
X251524Y417804D01*
X251484Y417886D01*
X251447Y417970D01*
X251414Y418054D01*
X251385Y418141D01*
X251359Y418228D01*
X251338Y418317D01*
X251320Y418406D01*
X251306Y418496D01*
X251296Y418587D01*
X251290Y418678D01*
X251288Y418769D01*
X251289Y418769D02*
X251289Y420858D01*
X251289Y424326D02*
X252333Y424326D01*
X251289Y424326D02*
X251289Y429547D01*
X260687Y426937D01*
D124*
X243014Y404730D02*
X243014Y365270D01*
X223354Y365270D02*
X223354Y404730D01*
X243014Y404730D01*
X243014Y365270D02*
X223354Y365270D01*
D11*
X223011Y408330D02*
X243141Y408330D01*
D122*
X260992Y383704D02*
X260992Y381616D01*
X260990Y381527D01*
X260984Y381439D01*
X260975Y381351D01*
X260962Y381263D01*
X260945Y381176D01*
X260925Y381090D01*
X260900Y381005D01*
X260873Y380920D01*
X260841Y380837D01*
X260807Y380756D01*
X260768Y380676D01*
X260727Y380598D01*
X260682Y380521D01*
X260634Y380447D01*
X260583Y380374D01*
X260529Y380304D01*
X260471Y380237D01*
X260411Y380171D01*
X260349Y380109D01*
X260283Y380049D01*
X260216Y379991D01*
X260146Y379937D01*
X260073Y379886D01*
X259999Y379838D01*
X259922Y379793D01*
X259844Y379752D01*
X259764Y379713D01*
X259683Y379679D01*
X259600Y379647D01*
X259515Y379620D01*
X259430Y379595D01*
X259344Y379575D01*
X259257Y379558D01*
X259169Y379545D01*
X259081Y379536D01*
X258993Y379530D01*
X258904Y379528D01*
X253683Y379528D01*
X253683Y379527D02*
X253592Y379529D01*
X253501Y379535D01*
X253410Y379545D01*
X253320Y379559D01*
X253231Y379577D01*
X253142Y379598D01*
X253055Y379624D01*
X252969Y379653D01*
X252884Y379686D01*
X252800Y379723D01*
X252718Y379763D01*
X252639Y379807D01*
X252561Y379854D01*
X252485Y379905D01*
X252411Y379959D01*
X252340Y380016D01*
X252272Y380076D01*
X252206Y380139D01*
X252143Y380205D01*
X252083Y380273D01*
X252026Y380344D01*
X251972Y380418D01*
X251921Y380494D01*
X251874Y380571D01*
X251830Y380651D01*
X251790Y380733D01*
X251753Y380817D01*
X251720Y380901D01*
X251691Y380988D01*
X251665Y381075D01*
X251644Y381164D01*
X251626Y381253D01*
X251612Y381343D01*
X251602Y381434D01*
X251596Y381525D01*
X251594Y381616D01*
X251594Y383704D01*
X260992Y387173D02*
X260992Y390306D01*
X260990Y390395D01*
X260984Y390483D01*
X260975Y390571D01*
X260962Y390659D01*
X260945Y390746D01*
X260925Y390832D01*
X260900Y390917D01*
X260873Y391002D01*
X260841Y391085D01*
X260807Y391166D01*
X260768Y391246D01*
X260727Y391324D01*
X260682Y391401D01*
X260634Y391475D01*
X260583Y391548D01*
X260529Y391618D01*
X260471Y391685D01*
X260411Y391751D01*
X260349Y391813D01*
X260283Y391873D01*
X260216Y391931D01*
X260146Y391985D01*
X260073Y392036D01*
X259999Y392084D01*
X259922Y392129D01*
X259844Y392170D01*
X259764Y392209D01*
X259683Y392243D01*
X259600Y392275D01*
X259515Y392302D01*
X259430Y392327D01*
X259344Y392347D01*
X259257Y392364D01*
X259169Y392377D01*
X259081Y392386D01*
X258993Y392392D01*
X258904Y392394D01*
X257859Y392394D01*
X257770Y392392D01*
X257682Y392386D01*
X257594Y392377D01*
X257506Y392364D01*
X257419Y392347D01*
X257333Y392327D01*
X257248Y392302D01*
X257163Y392275D01*
X257080Y392243D01*
X256999Y392209D01*
X256919Y392170D01*
X256841Y392129D01*
X256764Y392084D01*
X256690Y392036D01*
X256617Y391985D01*
X256547Y391931D01*
X256480Y391873D01*
X256414Y391813D01*
X256352Y391751D01*
X256292Y391685D01*
X256234Y391618D01*
X256180Y391548D01*
X256129Y391475D01*
X256081Y391401D01*
X256036Y391324D01*
X255995Y391246D01*
X255956Y391166D01*
X255922Y391085D01*
X255890Y391002D01*
X255863Y390917D01*
X255838Y390832D01*
X255818Y390746D01*
X255801Y390659D01*
X255788Y390571D01*
X255779Y390483D01*
X255773Y390395D01*
X255771Y390306D01*
X255771Y387173D01*
X251594Y387173D01*
X251594Y392394D01*
D125*
X416592Y274987D02*
X416592Y513112D01*
X248380Y513112D02*
X248380Y274987D01*
X248380Y513112D02*
X416592Y513112D01*
X416592Y274987D02*
X248380Y274987D01*
D124*
X456758Y401149D02*
X486218Y401149D01*
X486218Y381489D01*
X456758Y381489D01*
X456758Y401149D01*
D122*
X459669Y371062D02*
X461758Y371062D01*
X459669Y371063D02*
X459580Y371065D01*
X459492Y371071D01*
X459404Y371080D01*
X459316Y371093D01*
X459229Y371110D01*
X459143Y371130D01*
X459058Y371155D01*
X458973Y371182D01*
X458890Y371214D01*
X458809Y371248D01*
X458729Y371287D01*
X458651Y371328D01*
X458574Y371373D01*
X458500Y371421D01*
X458427Y371472D01*
X458357Y371526D01*
X458290Y371584D01*
X458224Y371644D01*
X458162Y371706D01*
X458102Y371772D01*
X458044Y371839D01*
X457990Y371909D01*
X457939Y371982D01*
X457891Y372056D01*
X457846Y372133D01*
X457805Y372211D01*
X457766Y372291D01*
X457732Y372372D01*
X457700Y372455D01*
X457673Y372540D01*
X457648Y372625D01*
X457628Y372711D01*
X457611Y372798D01*
X457598Y372886D01*
X457589Y372974D01*
X457583Y373062D01*
X457581Y373151D01*
X457581Y378372D01*
X457583Y378463D01*
X457589Y378554D01*
X457599Y378645D01*
X457613Y378735D01*
X457630Y378824D01*
X457652Y378912D01*
X457678Y379000D01*
X457707Y379086D01*
X457740Y379171D01*
X457777Y379254D01*
X457817Y379336D01*
X457861Y379416D01*
X457908Y379494D01*
X457959Y379570D01*
X458012Y379643D01*
X458069Y379714D01*
X458130Y379783D01*
X458193Y379848D01*
X458258Y379911D01*
X458327Y379971D01*
X458398Y380029D01*
X458471Y380082D01*
X458547Y380133D01*
X458625Y380180D01*
X458705Y380224D01*
X458787Y380264D01*
X458870Y380301D01*
X458955Y380334D01*
X459041Y380363D01*
X459129Y380389D01*
X459217Y380411D01*
X459306Y380428D01*
X459396Y380442D01*
X459487Y380452D01*
X459578Y380458D01*
X459669Y380460D01*
X461758Y380460D01*
X465227Y378372D02*
X467837Y380460D01*
X467837Y371062D01*
X465227Y371062D02*
X470448Y371062D01*
X474371Y371062D02*
X477503Y371062D01*
X477503Y371063D02*
X477592Y371065D01*
X477680Y371071D01*
X477768Y371080D01*
X477856Y371093D01*
X477943Y371110D01*
X478029Y371130D01*
X478114Y371155D01*
X478199Y371182D01*
X478282Y371214D01*
X478363Y371248D01*
X478443Y371287D01*
X478521Y371328D01*
X478598Y371373D01*
X478672Y371421D01*
X478745Y371472D01*
X478815Y371526D01*
X478882Y371584D01*
X478948Y371644D01*
X479010Y371706D01*
X479070Y371772D01*
X479128Y371839D01*
X479182Y371909D01*
X479233Y371982D01*
X479281Y372056D01*
X479326Y372133D01*
X479367Y372211D01*
X479406Y372291D01*
X479440Y372372D01*
X479472Y372455D01*
X479499Y372540D01*
X479524Y372625D01*
X479544Y372711D01*
X479561Y372798D01*
X479574Y372886D01*
X479583Y372974D01*
X479589Y373062D01*
X479591Y373151D01*
X479592Y373151D02*
X479592Y374195D01*
X479591Y374195D02*
X479589Y374284D01*
X479583Y374372D01*
X479574Y374460D01*
X479561Y374548D01*
X479544Y374635D01*
X479524Y374721D01*
X479499Y374806D01*
X479472Y374891D01*
X479440Y374974D01*
X479406Y375055D01*
X479367Y375135D01*
X479326Y375213D01*
X479281Y375290D01*
X479233Y375364D01*
X479182Y375437D01*
X479128Y375507D01*
X479070Y375574D01*
X479010Y375640D01*
X478948Y375702D01*
X478882Y375762D01*
X478815Y375820D01*
X478745Y375874D01*
X478672Y375925D01*
X478598Y375973D01*
X478521Y376018D01*
X478443Y376059D01*
X478363Y376098D01*
X478282Y376132D01*
X478199Y376164D01*
X478114Y376191D01*
X478029Y376216D01*
X477943Y376236D01*
X477856Y376253D01*
X477768Y376266D01*
X477680Y376275D01*
X477592Y376281D01*
X477503Y376283D01*
X474371Y376283D01*
X474371Y380460D01*
X479592Y380460D01*
D124*
X486218Y426733D02*
X456758Y426733D01*
X456758Y446393D01*
X486218Y446393D01*
X486218Y426733D01*
D122*
X464385Y447421D02*
X462297Y447421D01*
X462208Y447423D01*
X462120Y447429D01*
X462032Y447438D01*
X461944Y447451D01*
X461857Y447468D01*
X461771Y447488D01*
X461686Y447513D01*
X461601Y447540D01*
X461518Y447572D01*
X461437Y447606D01*
X461357Y447645D01*
X461279Y447686D01*
X461202Y447731D01*
X461128Y447779D01*
X461055Y447830D01*
X460985Y447884D01*
X460918Y447942D01*
X460852Y448002D01*
X460790Y448064D01*
X460730Y448130D01*
X460672Y448197D01*
X460618Y448267D01*
X460567Y448340D01*
X460519Y448414D01*
X460474Y448491D01*
X460433Y448569D01*
X460394Y448649D01*
X460360Y448730D01*
X460328Y448813D01*
X460301Y448898D01*
X460276Y448983D01*
X460256Y449069D01*
X460239Y449156D01*
X460226Y449244D01*
X460217Y449332D01*
X460211Y449420D01*
X460209Y449509D01*
X460208Y449509D02*
X460208Y454731D01*
X460209Y454731D02*
X460211Y454822D01*
X460217Y454913D01*
X460227Y455004D01*
X460241Y455094D01*
X460258Y455183D01*
X460280Y455271D01*
X460306Y455359D01*
X460335Y455445D01*
X460368Y455530D01*
X460405Y455613D01*
X460445Y455695D01*
X460489Y455775D01*
X460536Y455853D01*
X460587Y455929D01*
X460640Y456002D01*
X460697Y456073D01*
X460758Y456142D01*
X460821Y456207D01*
X460886Y456270D01*
X460955Y456330D01*
X461026Y456388D01*
X461099Y456441D01*
X461175Y456492D01*
X461253Y456539D01*
X461333Y456583D01*
X461415Y456623D01*
X461498Y456660D01*
X461583Y456693D01*
X461669Y456722D01*
X461757Y456748D01*
X461845Y456770D01*
X461934Y456787D01*
X462024Y456801D01*
X462115Y456811D01*
X462206Y456817D01*
X462297Y456819D01*
X464385Y456819D01*
X467854Y454731D02*
X470464Y456819D01*
X470464Y447421D01*
X467854Y447421D02*
X473075Y447421D01*
X476998Y452642D02*
X480131Y452642D01*
X480220Y452640D01*
X480308Y452634D01*
X480396Y452625D01*
X480484Y452612D01*
X480571Y452595D01*
X480657Y452575D01*
X480742Y452550D01*
X480827Y452523D01*
X480910Y452491D01*
X480991Y452457D01*
X481071Y452418D01*
X481149Y452377D01*
X481226Y452332D01*
X481300Y452284D01*
X481373Y452233D01*
X481443Y452179D01*
X481510Y452121D01*
X481576Y452061D01*
X481638Y451999D01*
X481698Y451933D01*
X481756Y451866D01*
X481810Y451796D01*
X481861Y451723D01*
X481909Y451649D01*
X481954Y451572D01*
X481995Y451494D01*
X482034Y451414D01*
X482068Y451333D01*
X482100Y451250D01*
X482127Y451165D01*
X482152Y451080D01*
X482172Y450994D01*
X482189Y450907D01*
X482202Y450819D01*
X482211Y450731D01*
X482217Y450643D01*
X482219Y450554D01*
X482219Y450032D01*
X482217Y449931D01*
X482211Y449830D01*
X482201Y449729D01*
X482188Y449629D01*
X482170Y449529D01*
X482149Y449430D01*
X482123Y449332D01*
X482094Y449235D01*
X482062Y449139D01*
X482025Y449045D01*
X481985Y448952D01*
X481941Y448860D01*
X481894Y448771D01*
X481843Y448683D01*
X481789Y448597D01*
X481732Y448514D01*
X481672Y448432D01*
X481608Y448354D01*
X481542Y448277D01*
X481472Y448204D01*
X481400Y448133D01*
X481325Y448065D01*
X481247Y448000D01*
X481167Y447938D01*
X481085Y447879D01*
X481000Y447823D01*
X480913Y447771D01*
X480825Y447722D01*
X480734Y447676D01*
X480642Y447635D01*
X480548Y447596D01*
X480453Y447562D01*
X480357Y447531D01*
X480259Y447504D01*
X480161Y447480D01*
X480061Y447461D01*
X479961Y447445D01*
X479861Y447433D01*
X479760Y447425D01*
X479659Y447421D01*
X479557Y447421D01*
X479456Y447425D01*
X479355Y447433D01*
X479255Y447445D01*
X479155Y447461D01*
X479055Y447480D01*
X478957Y447504D01*
X478859Y447531D01*
X478763Y447562D01*
X478668Y447596D01*
X478574Y447635D01*
X478482Y447676D01*
X478391Y447722D01*
X478303Y447771D01*
X478216Y447823D01*
X478131Y447879D01*
X478049Y447938D01*
X477969Y448000D01*
X477891Y448065D01*
X477816Y448133D01*
X477744Y448204D01*
X477674Y448277D01*
X477608Y448354D01*
X477544Y448432D01*
X477484Y448514D01*
X477427Y448597D01*
X477373Y448683D01*
X477322Y448771D01*
X477275Y448860D01*
X477231Y448952D01*
X477191Y449045D01*
X477154Y449139D01*
X477122Y449235D01*
X477093Y449332D01*
X477067Y449430D01*
X477046Y449529D01*
X477028Y449629D01*
X477015Y449729D01*
X477005Y449830D01*
X476999Y449931D01*
X476997Y450032D01*
X476998Y450032D02*
X476998Y452642D01*
X477000Y452771D01*
X477006Y452899D01*
X477016Y453027D01*
X477030Y453155D01*
X477047Y453283D01*
X477069Y453410D01*
X477095Y453536D01*
X477124Y453661D01*
X477157Y453785D01*
X477195Y453908D01*
X477235Y454030D01*
X477280Y454151D01*
X477328Y454270D01*
X477380Y454388D01*
X477436Y454504D01*
X477495Y454618D01*
X477558Y454730D01*
X477624Y454841D01*
X477693Y454949D01*
X477766Y455055D01*
X477842Y455159D01*
X477921Y455261D01*
X478003Y455360D01*
X478088Y455456D01*
X478176Y455550D01*
X478267Y455641D01*
X478361Y455729D01*
X478457Y455814D01*
X478556Y455896D01*
X478658Y455975D01*
X478762Y456051D01*
X478868Y456124D01*
X478976Y456193D01*
X479086Y456259D01*
X479199Y456322D01*
X479313Y456381D01*
X479429Y456437D01*
X479547Y456489D01*
X479666Y456537D01*
X479787Y456582D01*
X479909Y456622D01*
X480032Y456660D01*
X480156Y456693D01*
X480281Y456722D01*
X480407Y456748D01*
X480534Y456770D01*
X480662Y456787D01*
X480790Y456801D01*
X480918Y456811D01*
X481046Y456817D01*
X481175Y456819D01*
D11*
X211931Y408781D02*
X205581Y415131D01*
X211931Y408781D02*
X211931Y396081D01*
X205581Y389731D01*
X192881Y389731D01*
X186531Y396081D01*
X186531Y408781D01*
X192881Y415131D01*
X211931Y446881D02*
X211931Y459581D01*
X211931Y446881D02*
X205581Y440531D01*
X192881Y440531D01*
X186531Y446881D01*
X205581Y440531D02*
X211931Y434181D01*
X211931Y421481D01*
X205581Y415131D01*
X192881Y415131D01*
X186531Y421481D01*
X186531Y434181D01*
X192881Y440531D01*
X192881Y465931D02*
X205581Y465931D01*
X211931Y459581D01*
X192881Y465931D02*
X186531Y459581D01*
X186531Y446881D01*
X211931Y383381D02*
X211931Y370681D01*
X205581Y364331D01*
X192881Y364331D01*
X186531Y370681D01*
X205581Y389731D02*
X211931Y383381D01*
X192881Y389731D02*
X186531Y383381D01*
X186531Y370681D01*
D124*
X228951Y514839D02*
X258411Y514839D01*
X228951Y514839D02*
X228951Y534499D01*
X258411Y534499D01*
X258411Y514839D01*
D122*
X237208Y534734D02*
X237208Y544132D01*
X241385Y544132D01*
X241385Y539955D02*
X237208Y539955D01*
X245246Y539955D02*
X247857Y539955D01*
X247958Y539953D01*
X248059Y539947D01*
X248160Y539937D01*
X248260Y539924D01*
X248360Y539906D01*
X248459Y539885D01*
X248557Y539859D01*
X248654Y539830D01*
X248750Y539798D01*
X248844Y539761D01*
X248937Y539721D01*
X249029Y539677D01*
X249118Y539630D01*
X249206Y539579D01*
X249292Y539525D01*
X249375Y539468D01*
X249457Y539408D01*
X249535Y539344D01*
X249612Y539278D01*
X249685Y539208D01*
X249756Y539136D01*
X249824Y539061D01*
X249889Y538983D01*
X249951Y538903D01*
X250010Y538821D01*
X250066Y538736D01*
X250118Y538650D01*
X250167Y538561D01*
X250213Y538470D01*
X250254Y538378D01*
X250293Y538284D01*
X250327Y538189D01*
X250358Y538093D01*
X250385Y537995D01*
X250409Y537897D01*
X250428Y537797D01*
X250444Y537697D01*
X250456Y537597D01*
X250464Y537496D01*
X250468Y537395D01*
X250468Y537293D01*
X250464Y537192D01*
X250456Y537091D01*
X250444Y536991D01*
X250428Y536891D01*
X250409Y536791D01*
X250385Y536693D01*
X250358Y536595D01*
X250327Y536499D01*
X250293Y536404D01*
X250254Y536310D01*
X250213Y536218D01*
X250167Y536127D01*
X250118Y536039D01*
X250066Y535952D01*
X250010Y535867D01*
X249951Y535785D01*
X249889Y535705D01*
X249824Y535627D01*
X249756Y535552D01*
X249685Y535480D01*
X249612Y535410D01*
X249535Y535344D01*
X249457Y535280D01*
X249375Y535220D01*
X249292Y535163D01*
X249206Y535109D01*
X249118Y535058D01*
X249029Y535011D01*
X248937Y534967D01*
X248844Y534927D01*
X248750Y534890D01*
X248654Y534858D01*
X248557Y534829D01*
X248459Y534803D01*
X248360Y534782D01*
X248260Y534764D01*
X248160Y534751D01*
X248059Y534741D01*
X247958Y534735D01*
X247857Y534733D01*
X247857Y534734D02*
X245246Y534734D01*
X245246Y544132D01*
X247857Y544132D01*
X247857Y544131D02*
X247947Y544129D01*
X248036Y544123D01*
X248126Y544114D01*
X248215Y544100D01*
X248303Y544083D01*
X248390Y544062D01*
X248477Y544037D01*
X248562Y544008D01*
X248646Y543976D01*
X248728Y543941D01*
X248809Y543901D01*
X248888Y543859D01*
X248965Y543813D01*
X249040Y543763D01*
X249113Y543711D01*
X249184Y543655D01*
X249252Y543597D01*
X249317Y543535D01*
X249380Y543471D01*
X249440Y543404D01*
X249497Y543335D01*
X249551Y543263D01*
X249602Y543189D01*
X249650Y543113D01*
X249694Y543035D01*
X249735Y542955D01*
X249773Y542873D01*
X249807Y542790D01*
X249837Y542705D01*
X249864Y542619D01*
X249887Y542533D01*
X249906Y542445D01*
X249921Y542356D01*
X249933Y542267D01*
X249941Y542178D01*
X249945Y542088D01*
X249945Y541998D01*
X249941Y541908D01*
X249933Y541819D01*
X249921Y541730D01*
X249906Y541641D01*
X249887Y541553D01*
X249864Y541467D01*
X249837Y541381D01*
X249807Y541296D01*
X249773Y541213D01*
X249735Y541131D01*
X249694Y541051D01*
X249650Y540973D01*
X249602Y540897D01*
X249551Y540823D01*
X249497Y540751D01*
X249440Y540682D01*
X249380Y540615D01*
X249317Y540551D01*
X249252Y540489D01*
X249184Y540431D01*
X249113Y540375D01*
X249040Y540323D01*
X248965Y540273D01*
X248888Y540227D01*
X248809Y540185D01*
X248728Y540145D01*
X248646Y540110D01*
X248562Y540078D01*
X248477Y540049D01*
X248390Y540024D01*
X248303Y540003D01*
X248215Y539986D01*
X248126Y539972D01*
X248036Y539963D01*
X247947Y539957D01*
X247857Y539955D01*
X253954Y542043D02*
X256565Y544132D01*
X256565Y534734D01*
X259175Y534734D02*
X253954Y534734D01*
M02*
