G04 EAGLE Gerber RS-274X export*
G75*
%MOMM*%
%FSLAX34Y34*%
%LPD*%
%INSilkscreen Bottom*%
%IPPOS*%
%AMOC8*
5,1,8,0,0,1.08239X$1,22.5*%
G01*
%ADD10C,0.101600*%
%ADD11C,0.050800*%
%ADD12C,0.152400*%
%ADD13C,0.254000*%
%ADD14C,0.076200*%
%ADD15C,0.304800*%
%ADD16C,0.200000*%
%ADD17C,0.100000*%

G36*
X246420Y471457D02*
X246420Y471457D01*
X246422Y471457D01*
X246465Y471476D01*
X246509Y471495D01*
X246510Y471497D01*
X246512Y471498D01*
X246545Y471583D01*
X246545Y474123D01*
X246544Y474125D01*
X246544Y474127D01*
X246525Y474170D01*
X246506Y474213D01*
X246504Y474214D01*
X246503Y474216D01*
X246418Y474249D01*
X242608Y474249D01*
X242606Y474248D01*
X242604Y474249D01*
X242561Y474229D01*
X242518Y474211D01*
X242517Y474209D01*
X242515Y474208D01*
X242482Y474123D01*
X242482Y471583D01*
X242483Y471581D01*
X242482Y471579D01*
X242502Y471536D01*
X242520Y471492D01*
X242522Y471491D01*
X242523Y471489D01*
X242608Y471457D01*
X246418Y471457D01*
X246420Y471457D01*
G37*
G36*
X353697Y430748D02*
X353697Y430748D01*
X353699Y430747D01*
X353742Y430767D01*
X353786Y430785D01*
X353786Y430787D01*
X353788Y430788D01*
X353821Y430873D01*
X353821Y434683D01*
X353820Y434685D01*
X353821Y434687D01*
X353801Y434730D01*
X353783Y434774D01*
X353781Y434775D01*
X353780Y434777D01*
X353695Y434810D01*
X351155Y434810D01*
X351153Y434809D01*
X351151Y434809D01*
X351108Y434790D01*
X351064Y434771D01*
X351064Y434769D01*
X351062Y434768D01*
X351029Y434683D01*
X351029Y430873D01*
X351030Y430871D01*
X351029Y430869D01*
X351049Y430826D01*
X351067Y430783D01*
X351069Y430782D01*
X351070Y430780D01*
X351155Y430747D01*
X353695Y430747D01*
X353697Y430748D01*
G37*
G36*
X215870Y425903D02*
X215870Y425903D01*
X215872Y425903D01*
X215915Y425922D01*
X215959Y425941D01*
X215960Y425943D01*
X215962Y425944D01*
X215995Y426029D01*
X215995Y429839D01*
X215994Y429841D01*
X215994Y429843D01*
X215975Y429886D01*
X215956Y429929D01*
X215954Y429930D01*
X215953Y429932D01*
X215868Y429965D01*
X213328Y429965D01*
X213326Y429964D01*
X213324Y429965D01*
X213281Y429945D01*
X213238Y429927D01*
X213237Y429925D01*
X213235Y429924D01*
X213202Y429839D01*
X213202Y426029D01*
X213203Y426027D01*
X213202Y426025D01*
X213222Y425982D01*
X213240Y425938D01*
X213242Y425937D01*
X213243Y425935D01*
X213328Y425903D01*
X215868Y425903D01*
X215870Y425903D01*
G37*
G36*
X450471Y424248D02*
X450471Y424248D01*
X450473Y424247D01*
X450516Y424267D01*
X450560Y424285D01*
X450560Y424287D01*
X450562Y424288D01*
X450595Y424373D01*
X450595Y428183D01*
X450594Y428185D01*
X450595Y428187D01*
X450575Y428230D01*
X450557Y428274D01*
X450555Y428275D01*
X450554Y428277D01*
X450469Y428310D01*
X447929Y428310D01*
X447927Y428309D01*
X447925Y428309D01*
X447882Y428290D01*
X447838Y428271D01*
X447838Y428269D01*
X447836Y428268D01*
X447803Y428183D01*
X447803Y424373D01*
X447804Y424371D01*
X447803Y424369D01*
X447823Y424326D01*
X447841Y424283D01*
X447843Y424282D01*
X447844Y424280D01*
X447929Y424247D01*
X450469Y424247D01*
X450471Y424248D01*
G37*
G36*
X300706Y410900D02*
X300706Y410900D01*
X300708Y410900D01*
X300751Y410919D01*
X300795Y410938D01*
X300796Y410940D01*
X300798Y410941D01*
X300831Y411026D01*
X300831Y414836D01*
X300830Y414838D01*
X300830Y414840D01*
X300811Y414883D01*
X300792Y414926D01*
X300790Y414927D01*
X300789Y414929D01*
X300704Y414962D01*
X298164Y414962D01*
X298162Y414961D01*
X298160Y414962D01*
X298117Y414942D01*
X298074Y414924D01*
X298073Y414922D01*
X298071Y414921D01*
X298038Y414836D01*
X298038Y411026D01*
X298039Y411024D01*
X298038Y411022D01*
X298058Y410979D01*
X298076Y410935D01*
X298078Y410934D01*
X298079Y410932D01*
X298164Y410900D01*
X300704Y410900D01*
X300706Y410900D01*
G37*
G36*
X251421Y386621D02*
X251421Y386621D01*
X251423Y386621D01*
X251466Y386640D01*
X251510Y386659D01*
X251511Y386661D01*
X251513Y386662D01*
X251546Y386747D01*
X251546Y389287D01*
X251545Y389289D01*
X251545Y389291D01*
X251526Y389334D01*
X251507Y389377D01*
X251505Y389378D01*
X251504Y389380D01*
X251419Y389413D01*
X247609Y389413D01*
X247607Y389412D01*
X247605Y389413D01*
X247562Y389393D01*
X247519Y389375D01*
X247518Y389373D01*
X247516Y389372D01*
X247483Y389287D01*
X247483Y386747D01*
X247484Y386745D01*
X247483Y386743D01*
X247503Y386700D01*
X247521Y386656D01*
X247523Y386655D01*
X247524Y386653D01*
X247609Y386621D01*
X251419Y386621D01*
X251421Y386621D01*
G37*
D10*
X214682Y461087D02*
X211013Y461087D01*
X210893Y461085D01*
X210773Y461079D01*
X210653Y461069D01*
X210534Y461056D01*
X210415Y461038D01*
X210297Y461017D01*
X210180Y460991D01*
X210063Y460962D01*
X209948Y460929D01*
X209834Y460892D01*
X209721Y460852D01*
X209609Y460808D01*
X209499Y460760D01*
X209390Y460709D01*
X209283Y460654D01*
X209179Y460595D01*
X209076Y460534D01*
X208975Y460469D01*
X208876Y460400D01*
X208779Y460329D01*
X208685Y460254D01*
X208594Y460177D01*
X208505Y460096D01*
X208419Y460012D01*
X208335Y459926D01*
X208254Y459837D01*
X208177Y459746D01*
X208102Y459652D01*
X208031Y459555D01*
X207962Y459456D01*
X207897Y459355D01*
X207836Y459253D01*
X207777Y459148D01*
X207722Y459041D01*
X207671Y458932D01*
X207623Y458822D01*
X207579Y458710D01*
X207539Y458597D01*
X207502Y458483D01*
X207469Y458368D01*
X207440Y458251D01*
X207414Y458134D01*
X207393Y458016D01*
X207375Y457897D01*
X207362Y457778D01*
X207352Y457658D01*
X207346Y457538D01*
X207344Y457418D01*
X207346Y457298D01*
X207352Y457178D01*
X207362Y457058D01*
X207375Y456939D01*
X207393Y456820D01*
X207414Y456702D01*
X207440Y456585D01*
X207469Y456468D01*
X207502Y456353D01*
X207539Y456239D01*
X207579Y456126D01*
X207623Y456014D01*
X207671Y455904D01*
X207722Y455795D01*
X207777Y455688D01*
X207836Y455584D01*
X207897Y455481D01*
X207962Y455380D01*
X208031Y455281D01*
X208102Y455184D01*
X208177Y455090D01*
X208254Y454999D01*
X208335Y454910D01*
X208419Y454824D01*
X208505Y454740D01*
X208594Y454659D01*
X208685Y454582D01*
X208779Y454507D01*
X208876Y454436D01*
X208975Y454367D01*
X209076Y454302D01*
X209179Y454241D01*
X209283Y454182D01*
X209390Y454127D01*
X209499Y454076D01*
X209609Y454028D01*
X209721Y453984D01*
X209834Y453944D01*
X209948Y453907D01*
X210063Y453874D01*
X210180Y453845D01*
X210297Y453819D01*
X210415Y453798D01*
X210534Y453780D01*
X210653Y453767D01*
X210773Y453757D01*
X210893Y453751D01*
X211013Y453749D01*
X211013Y453750D02*
X214682Y453750D01*
X214682Y466958D01*
X211013Y466958D01*
X211013Y466957D02*
X210906Y466955D01*
X210799Y466949D01*
X210692Y466939D01*
X210586Y466926D01*
X210480Y466908D01*
X210375Y466887D01*
X210271Y466862D01*
X210167Y466833D01*
X210065Y466800D01*
X209965Y466763D01*
X209865Y466723D01*
X209767Y466679D01*
X209671Y466632D01*
X209577Y466581D01*
X209484Y466527D01*
X209394Y466470D01*
X209305Y466409D01*
X209219Y466345D01*
X209136Y466278D01*
X209054Y466208D01*
X208976Y466135D01*
X208900Y466059D01*
X208827Y465981D01*
X208757Y465899D01*
X208690Y465816D01*
X208626Y465730D01*
X208565Y465641D01*
X208508Y465551D01*
X208454Y465458D01*
X208403Y465364D01*
X208356Y465268D01*
X208312Y465170D01*
X208272Y465070D01*
X208235Y464970D01*
X208202Y464868D01*
X208173Y464764D01*
X208148Y464660D01*
X208127Y464555D01*
X208109Y464449D01*
X208096Y464343D01*
X208086Y464236D01*
X208080Y464129D01*
X208078Y464022D01*
X208080Y463915D01*
X208086Y463808D01*
X208096Y463701D01*
X208109Y463595D01*
X208127Y463489D01*
X208148Y463384D01*
X208173Y463280D01*
X208202Y463176D01*
X208235Y463074D01*
X208272Y462974D01*
X208312Y462874D01*
X208356Y462776D01*
X208403Y462680D01*
X208454Y462586D01*
X208508Y462493D01*
X208565Y462403D01*
X208626Y462314D01*
X208690Y462228D01*
X208757Y462145D01*
X208827Y462063D01*
X208900Y461985D01*
X208976Y461909D01*
X209054Y461836D01*
X209136Y461766D01*
X209219Y461699D01*
X209305Y461635D01*
X209394Y461574D01*
X209484Y461517D01*
X209577Y461463D01*
X209671Y461412D01*
X209767Y461365D01*
X209865Y461321D01*
X209965Y461281D01*
X210065Y461244D01*
X210167Y461211D01*
X210271Y461182D01*
X210375Y461157D01*
X210480Y461136D01*
X210586Y461118D01*
X210692Y461105D01*
X210799Y461095D01*
X210906Y461089D01*
X211013Y461087D01*
X213618Y393717D02*
X213618Y380509D01*
X213618Y393717D02*
X209949Y393717D01*
X209829Y393715D01*
X209709Y393709D01*
X209589Y393699D01*
X209470Y393686D01*
X209351Y393668D01*
X209233Y393647D01*
X209116Y393621D01*
X208999Y393592D01*
X208884Y393559D01*
X208770Y393522D01*
X208657Y393482D01*
X208545Y393438D01*
X208435Y393390D01*
X208326Y393339D01*
X208219Y393284D01*
X208115Y393225D01*
X208012Y393164D01*
X207911Y393099D01*
X207812Y393030D01*
X207715Y392959D01*
X207621Y392884D01*
X207530Y392807D01*
X207441Y392726D01*
X207355Y392642D01*
X207271Y392556D01*
X207190Y392467D01*
X207113Y392376D01*
X207038Y392282D01*
X206967Y392185D01*
X206898Y392086D01*
X206833Y391985D01*
X206772Y391883D01*
X206713Y391778D01*
X206658Y391671D01*
X206607Y391562D01*
X206559Y391452D01*
X206515Y391340D01*
X206475Y391227D01*
X206438Y391113D01*
X206405Y390998D01*
X206376Y390881D01*
X206350Y390764D01*
X206329Y390646D01*
X206311Y390527D01*
X206298Y390408D01*
X206288Y390288D01*
X206282Y390168D01*
X206280Y390048D01*
X206282Y389928D01*
X206288Y389808D01*
X206298Y389688D01*
X206311Y389569D01*
X206329Y389450D01*
X206350Y389332D01*
X206376Y389215D01*
X206405Y389098D01*
X206438Y388983D01*
X206475Y388869D01*
X206515Y388756D01*
X206559Y388644D01*
X206607Y388534D01*
X206658Y388425D01*
X206713Y388318D01*
X206772Y388214D01*
X206833Y388111D01*
X206898Y388010D01*
X206967Y387911D01*
X207038Y387814D01*
X207113Y387720D01*
X207190Y387629D01*
X207271Y387540D01*
X207355Y387454D01*
X207441Y387370D01*
X207530Y387289D01*
X207621Y387212D01*
X207715Y387137D01*
X207812Y387066D01*
X207911Y386997D01*
X208012Y386932D01*
X208115Y386871D01*
X208219Y386812D01*
X208326Y386757D01*
X208435Y386706D01*
X208545Y386658D01*
X208657Y386614D01*
X208770Y386574D01*
X208884Y386537D01*
X208999Y386504D01*
X209116Y386475D01*
X209233Y386449D01*
X209351Y386428D01*
X209470Y386410D01*
X209589Y386397D01*
X209709Y386387D01*
X209829Y386381D01*
X209949Y386379D01*
X213618Y386379D01*
X209215Y386379D02*
X206280Y380509D01*
X213544Y430896D02*
X213544Y444104D01*
X209875Y444104D01*
X209755Y444102D01*
X209635Y444096D01*
X209515Y444086D01*
X209396Y444073D01*
X209277Y444055D01*
X209159Y444034D01*
X209042Y444008D01*
X208925Y443979D01*
X208810Y443946D01*
X208696Y443909D01*
X208583Y443869D01*
X208471Y443825D01*
X208361Y443777D01*
X208252Y443726D01*
X208145Y443671D01*
X208041Y443612D01*
X207938Y443551D01*
X207837Y443486D01*
X207738Y443417D01*
X207641Y443346D01*
X207547Y443271D01*
X207456Y443194D01*
X207367Y443113D01*
X207281Y443029D01*
X207197Y442943D01*
X207116Y442854D01*
X207039Y442763D01*
X206964Y442669D01*
X206893Y442572D01*
X206824Y442473D01*
X206759Y442372D01*
X206698Y442270D01*
X206639Y442165D01*
X206584Y442058D01*
X206533Y441949D01*
X206485Y441839D01*
X206441Y441727D01*
X206401Y441614D01*
X206364Y441500D01*
X206331Y441385D01*
X206302Y441268D01*
X206276Y441151D01*
X206255Y441033D01*
X206237Y440914D01*
X206224Y440795D01*
X206214Y440675D01*
X206208Y440555D01*
X206206Y440435D01*
X206206Y434565D01*
X206208Y434445D01*
X206214Y434325D01*
X206224Y434205D01*
X206237Y434086D01*
X206255Y433967D01*
X206276Y433849D01*
X206302Y433732D01*
X206331Y433615D01*
X206364Y433500D01*
X206401Y433386D01*
X206441Y433273D01*
X206485Y433161D01*
X206533Y433051D01*
X206584Y432942D01*
X206639Y432835D01*
X206698Y432731D01*
X206759Y432628D01*
X206824Y432527D01*
X206893Y432428D01*
X206964Y432331D01*
X207039Y432237D01*
X207116Y432146D01*
X207197Y432057D01*
X207281Y431971D01*
X207367Y431887D01*
X207456Y431806D01*
X207547Y431729D01*
X207641Y431654D01*
X207738Y431583D01*
X207837Y431514D01*
X207938Y431449D01*
X208041Y431388D01*
X208145Y431329D01*
X208252Y431274D01*
X208361Y431223D01*
X208471Y431175D01*
X208583Y431131D01*
X208696Y431091D01*
X208810Y431054D01*
X208925Y431021D01*
X209042Y430992D01*
X209159Y430966D01*
X209277Y430945D01*
X209396Y430927D01*
X209515Y430914D01*
X209635Y430904D01*
X209755Y430898D01*
X209875Y430896D01*
X213544Y430896D01*
X211587Y402922D02*
X208652Y402922D01*
X211587Y402922D02*
X211694Y402924D01*
X211801Y402930D01*
X211908Y402940D01*
X212014Y402953D01*
X212120Y402971D01*
X212225Y402992D01*
X212329Y403017D01*
X212433Y403046D01*
X212535Y403079D01*
X212635Y403116D01*
X212735Y403156D01*
X212833Y403200D01*
X212929Y403247D01*
X213023Y403298D01*
X213116Y403352D01*
X213206Y403409D01*
X213295Y403470D01*
X213381Y403534D01*
X213464Y403601D01*
X213546Y403671D01*
X213624Y403744D01*
X213700Y403820D01*
X213773Y403898D01*
X213843Y403980D01*
X213910Y404063D01*
X213974Y404149D01*
X214035Y404238D01*
X214092Y404328D01*
X214146Y404421D01*
X214197Y404515D01*
X214245Y404611D01*
X214288Y404709D01*
X214328Y404809D01*
X214365Y404909D01*
X214398Y405011D01*
X214427Y405115D01*
X214452Y405219D01*
X214473Y405324D01*
X214491Y405430D01*
X214504Y405536D01*
X214514Y405643D01*
X214520Y405750D01*
X214522Y405857D01*
X214522Y413194D01*
X214520Y413301D01*
X214514Y413408D01*
X214504Y413515D01*
X214491Y413621D01*
X214473Y413727D01*
X214452Y413832D01*
X214427Y413936D01*
X214398Y414040D01*
X214365Y414142D01*
X214328Y414242D01*
X214288Y414342D01*
X214244Y414440D01*
X214197Y414536D01*
X214146Y414630D01*
X214092Y414723D01*
X214035Y414813D01*
X213974Y414902D01*
X213910Y414988D01*
X213843Y415071D01*
X213773Y415153D01*
X213700Y415231D01*
X213624Y415307D01*
X213546Y415380D01*
X213464Y415450D01*
X213381Y415517D01*
X213295Y415581D01*
X213206Y415642D01*
X213116Y415699D01*
X213023Y415753D01*
X212929Y415804D01*
X212833Y415851D01*
X212735Y415895D01*
X212636Y415935D01*
X212535Y415972D01*
X212433Y416005D01*
X212329Y416034D01*
X212225Y416059D01*
X212120Y416080D01*
X212014Y416098D01*
X211908Y416111D01*
X211801Y416121D01*
X211694Y416127D01*
X211587Y416129D01*
X211587Y416130D02*
X208652Y416130D01*
X274286Y556327D02*
X275452Y557613D01*
X274286Y556327D02*
X278572Y552441D01*
X280904Y555013D01*
X280965Y555083D01*
X281024Y555156D01*
X281079Y555231D01*
X281131Y555308D01*
X281180Y555387D01*
X281226Y555468D01*
X281269Y555551D01*
X281308Y555635D01*
X281344Y555722D01*
X281376Y555809D01*
X281405Y555898D01*
X281430Y555987D01*
X281452Y556078D01*
X281470Y556169D01*
X281484Y556262D01*
X281494Y556354D01*
X281501Y556447D01*
X281504Y556540D01*
X281503Y556633D01*
X281498Y556727D01*
X281490Y556819D01*
X281478Y556912D01*
X281462Y557004D01*
X281443Y557095D01*
X281420Y557185D01*
X281393Y557274D01*
X281363Y557363D01*
X281329Y557449D01*
X281292Y557535D01*
X281251Y557619D01*
X281207Y557701D01*
X281160Y557781D01*
X281109Y557859D01*
X281056Y557936D01*
X280999Y558010D01*
X280940Y558081D01*
X280877Y558151D01*
X280812Y558217D01*
X280744Y558281D01*
X280744Y558282D02*
X276458Y562168D01*
X276458Y562167D02*
X276386Y562230D01*
X276311Y562290D01*
X276234Y562346D01*
X276155Y562400D01*
X276073Y562450D01*
X275990Y562496D01*
X275905Y562539D01*
X275818Y562579D01*
X275729Y562615D01*
X275639Y562647D01*
X275548Y562676D01*
X275455Y562700D01*
X275362Y562721D01*
X275268Y562738D01*
X275173Y562751D01*
X275078Y562760D01*
X274982Y562766D01*
X274887Y562767D01*
X274791Y562764D01*
X274696Y562758D01*
X274601Y562747D01*
X274506Y562733D01*
X274412Y562714D01*
X274319Y562692D01*
X274227Y562666D01*
X274136Y562636D01*
X274047Y562602D01*
X273959Y562565D01*
X273872Y562524D01*
X273787Y562480D01*
X273705Y562432D01*
X273624Y562381D01*
X273545Y562326D01*
X273469Y562268D01*
X273395Y562208D01*
X273324Y562144D01*
X273256Y562077D01*
X273190Y562007D01*
X273189Y562008D02*
X270858Y559436D01*
X267373Y555594D02*
X275088Y548598D01*
X271202Y544312D02*
X267373Y555594D01*
X263487Y551308D02*
X271202Y544312D01*
X267717Y540470D02*
X260003Y547465D01*
X258059Y545322D01*
X257989Y545243D01*
X257923Y545161D01*
X257859Y545076D01*
X257799Y544990D01*
X257742Y544901D01*
X257688Y544810D01*
X257637Y544717D01*
X257590Y544622D01*
X257546Y544526D01*
X257506Y544428D01*
X257470Y544329D01*
X257437Y544229D01*
X257407Y544127D01*
X257382Y544025D01*
X257360Y543921D01*
X257342Y543817D01*
X257328Y543712D01*
X257318Y543607D01*
X257312Y543502D01*
X257309Y543396D01*
X257310Y543290D01*
X257316Y543185D01*
X257325Y543080D01*
X257337Y542975D01*
X257354Y542870D01*
X257375Y542767D01*
X257399Y542664D01*
X257427Y542562D01*
X257458Y542461D01*
X257494Y542362D01*
X257533Y542263D01*
X257575Y542167D01*
X257621Y542071D01*
X257671Y541978D01*
X257724Y541887D01*
X257780Y541797D01*
X257839Y541710D01*
X257902Y541624D01*
X257967Y541542D01*
X258036Y541461D01*
X258107Y541383D01*
X258182Y541308D01*
X258259Y541236D01*
X261688Y538127D01*
X261767Y538057D01*
X261849Y537991D01*
X261934Y537927D01*
X262020Y537867D01*
X262109Y537810D01*
X262200Y537756D01*
X262293Y537705D01*
X262388Y537658D01*
X262484Y537614D01*
X262582Y537574D01*
X262681Y537538D01*
X262781Y537505D01*
X262883Y537475D01*
X262985Y537450D01*
X263089Y537428D01*
X263193Y537410D01*
X263298Y537396D01*
X263403Y537386D01*
X263508Y537380D01*
X263614Y537377D01*
X263720Y537378D01*
X263825Y537384D01*
X263930Y537393D01*
X264035Y537405D01*
X264140Y537422D01*
X264243Y537443D01*
X264346Y537467D01*
X264448Y537495D01*
X264549Y537526D01*
X264648Y537562D01*
X264747Y537601D01*
X264843Y537643D01*
X264939Y537689D01*
X265032Y537739D01*
X265123Y537792D01*
X265213Y537848D01*
X265300Y537907D01*
X265386Y537970D01*
X265468Y538035D01*
X265549Y538104D01*
X265627Y538175D01*
X265702Y538250D01*
X265774Y538327D01*
X267717Y540470D01*
D11*
X491316Y431833D02*
X491680Y431164D01*
X491316Y431833D02*
X489084Y430621D01*
X489811Y429282D01*
X489842Y429229D01*
X489876Y429178D01*
X489913Y429129D01*
X489953Y429083D01*
X489996Y429039D01*
X490041Y428997D01*
X490089Y428958D01*
X490139Y428923D01*
X490191Y428890D01*
X490245Y428861D01*
X490300Y428835D01*
X490357Y428812D01*
X490415Y428793D01*
X490475Y428777D01*
X490535Y428765D01*
X490596Y428757D01*
X490657Y428752D01*
X490718Y428751D01*
X490780Y428754D01*
X490841Y428760D01*
X490901Y428770D01*
X490961Y428784D01*
X491020Y428801D01*
X491078Y428822D01*
X491134Y428846D01*
X491189Y428874D01*
X493421Y430086D01*
X493474Y430117D01*
X493525Y430151D01*
X493574Y430188D01*
X493620Y430228D01*
X493664Y430271D01*
X493706Y430316D01*
X493745Y430364D01*
X493780Y430414D01*
X493813Y430466D01*
X493842Y430520D01*
X493868Y430575D01*
X493891Y430632D01*
X493910Y430690D01*
X493926Y430750D01*
X493938Y430810D01*
X493946Y430871D01*
X493951Y430932D01*
X493952Y430993D01*
X493949Y431055D01*
X493943Y431116D01*
X493933Y431176D01*
X493919Y431236D01*
X493902Y431295D01*
X493881Y431353D01*
X493857Y431409D01*
X493829Y431464D01*
X493102Y432803D01*
X491987Y434856D02*
X487969Y432675D01*
X486757Y434907D02*
X491987Y434856D01*
X490775Y437089D02*
X486757Y434907D01*
X485642Y436961D02*
X489660Y439142D01*
X489054Y440258D01*
X489020Y440318D01*
X488982Y440375D01*
X488941Y440431D01*
X488898Y440484D01*
X488851Y440534D01*
X488802Y440583D01*
X488751Y440628D01*
X488696Y440671D01*
X488640Y440710D01*
X488582Y440747D01*
X488522Y440780D01*
X488460Y440810D01*
X488396Y440836D01*
X488332Y440859D01*
X488266Y440879D01*
X488199Y440895D01*
X488131Y440907D01*
X488063Y440916D01*
X487994Y440921D01*
X487925Y440922D01*
X487857Y440919D01*
X487788Y440913D01*
X487720Y440903D01*
X487653Y440890D01*
X487586Y440872D01*
X487521Y440851D01*
X487456Y440827D01*
X487393Y440799D01*
X487332Y440768D01*
X485546Y439799D01*
X485484Y439763D01*
X485425Y439724D01*
X485368Y439682D01*
X485313Y439636D01*
X485261Y439588D01*
X485211Y439536D01*
X485165Y439482D01*
X485122Y439426D01*
X485082Y439367D01*
X485045Y439306D01*
X485012Y439243D01*
X484982Y439178D01*
X484956Y439111D01*
X484934Y439044D01*
X484916Y438975D01*
X484902Y438905D01*
X484891Y438835D01*
X484885Y438764D01*
X484882Y438693D01*
X484884Y438621D01*
X484889Y438550D01*
X484898Y438480D01*
X484912Y438410D01*
X484929Y438341D01*
X484950Y438273D01*
X484975Y438206D01*
X485004Y438141D01*
X485036Y438077D01*
X485642Y436961D01*
D12*
X450198Y508963D02*
X436106Y500860D01*
X450198Y508963D02*
X447948Y512878D01*
X447879Y512993D01*
X447808Y513106D01*
X447733Y513217D01*
X447654Y513325D01*
X447573Y513432D01*
X447488Y513535D01*
X447400Y513636D01*
X447310Y513735D01*
X447216Y513830D01*
X447120Y513923D01*
X447021Y514013D01*
X446919Y514100D01*
X446815Y514184D01*
X446708Y514265D01*
X446599Y514343D01*
X446488Y514417D01*
X446375Y514489D01*
X446259Y514556D01*
X446142Y514620D01*
X446022Y514681D01*
X445901Y514738D01*
X445779Y514792D01*
X445655Y514842D01*
X445529Y514888D01*
X445402Y514930D01*
X445274Y514969D01*
X445145Y515004D01*
X445014Y515035D01*
X444883Y515062D01*
X444752Y515085D01*
X444619Y515105D01*
X444486Y515120D01*
X444353Y515132D01*
X444219Y515139D01*
X444085Y515143D01*
X443952Y515142D01*
X443818Y515138D01*
X443684Y515130D01*
X443551Y515117D01*
X443418Y515101D01*
X443286Y515081D01*
X443154Y515057D01*
X443023Y515029D01*
X442893Y514997D01*
X442764Y514961D01*
X442636Y514922D01*
X442510Y514878D01*
X442385Y514831D01*
X442261Y514781D01*
X442138Y514726D01*
X442018Y514668D01*
X441899Y514607D01*
X441782Y514542D01*
X441667Y514473D01*
X441554Y514402D01*
X441443Y514327D01*
X441335Y514248D01*
X441228Y514167D01*
X441125Y514082D01*
X441024Y513994D01*
X440925Y513904D01*
X440830Y513810D01*
X440737Y513714D01*
X440647Y513615D01*
X440560Y513513D01*
X440476Y513409D01*
X440395Y513302D01*
X440317Y513193D01*
X440243Y513082D01*
X440171Y512969D01*
X440104Y512853D01*
X440040Y512736D01*
X439979Y512616D01*
X439922Y512495D01*
X439868Y512373D01*
X439818Y512249D01*
X439772Y512123D01*
X439730Y511996D01*
X439691Y511868D01*
X439656Y511739D01*
X439625Y511609D01*
X439598Y511477D01*
X439575Y511346D01*
X439555Y511213D01*
X439540Y511080D01*
X439528Y510947D01*
X439521Y510813D01*
X439517Y510679D01*
X439518Y510546D01*
X439522Y510412D01*
X439530Y510278D01*
X439543Y510145D01*
X439559Y510012D01*
X439579Y509880D01*
X439603Y509748D01*
X439631Y509617D01*
X439663Y509487D01*
X439699Y509358D01*
X439738Y509230D01*
X439782Y509104D01*
X439829Y508979D01*
X439879Y508855D01*
X439934Y508732D01*
X439992Y508612D01*
X440053Y508493D01*
X440118Y508376D01*
X442369Y504461D01*
X439640Y520078D02*
X440520Y525794D01*
X426428Y517690D01*
X428679Y513776D02*
X424177Y521605D01*
X242949Y307967D02*
X228856Y299863D01*
X242949Y307967D02*
X240698Y311881D01*
X240629Y311996D01*
X240558Y312109D01*
X240483Y312220D01*
X240404Y312328D01*
X240323Y312435D01*
X240238Y312538D01*
X240150Y312639D01*
X240060Y312738D01*
X239966Y312833D01*
X239870Y312926D01*
X239771Y313016D01*
X239669Y313103D01*
X239565Y313187D01*
X239458Y313268D01*
X239349Y313346D01*
X239238Y313420D01*
X239125Y313492D01*
X239009Y313559D01*
X238892Y313623D01*
X238772Y313684D01*
X238651Y313741D01*
X238529Y313795D01*
X238405Y313845D01*
X238279Y313891D01*
X238152Y313933D01*
X238024Y313972D01*
X237895Y314007D01*
X237764Y314038D01*
X237633Y314065D01*
X237502Y314088D01*
X237369Y314108D01*
X237236Y314123D01*
X237103Y314135D01*
X236969Y314142D01*
X236835Y314146D01*
X236702Y314145D01*
X236568Y314141D01*
X236434Y314133D01*
X236301Y314120D01*
X236168Y314104D01*
X236036Y314084D01*
X235904Y314060D01*
X235773Y314032D01*
X235643Y314000D01*
X235514Y313964D01*
X235386Y313925D01*
X235260Y313881D01*
X235135Y313834D01*
X235011Y313784D01*
X234888Y313729D01*
X234768Y313671D01*
X234649Y313610D01*
X234532Y313545D01*
X234417Y313476D01*
X234304Y313405D01*
X234193Y313330D01*
X234085Y313251D01*
X233978Y313170D01*
X233875Y313085D01*
X233774Y312997D01*
X233675Y312907D01*
X233580Y312813D01*
X233487Y312717D01*
X233397Y312618D01*
X233310Y312516D01*
X233226Y312412D01*
X233145Y312305D01*
X233067Y312196D01*
X232993Y312085D01*
X232921Y311972D01*
X232854Y311856D01*
X232790Y311739D01*
X232729Y311619D01*
X232672Y311498D01*
X232618Y311376D01*
X232568Y311252D01*
X232522Y311126D01*
X232480Y310999D01*
X232441Y310871D01*
X232406Y310742D01*
X232375Y310612D01*
X232348Y310480D01*
X232325Y310349D01*
X232305Y310216D01*
X232290Y310083D01*
X232278Y309950D01*
X232271Y309816D01*
X232267Y309682D01*
X232268Y309549D01*
X232272Y309415D01*
X232280Y309281D01*
X232293Y309148D01*
X232309Y309015D01*
X232329Y308883D01*
X232353Y308751D01*
X232381Y308620D01*
X232413Y308490D01*
X232449Y308361D01*
X232488Y308233D01*
X232532Y308107D01*
X232579Y307982D01*
X232629Y307858D01*
X232684Y307735D01*
X232742Y307615D01*
X232803Y307496D01*
X232868Y307379D01*
X232869Y307379D02*
X235120Y303465D01*
X221429Y312779D02*
X219178Y316694D01*
X219113Y316811D01*
X219052Y316930D01*
X218994Y317050D01*
X218939Y317173D01*
X218889Y317297D01*
X218842Y317422D01*
X218798Y317548D01*
X218759Y317676D01*
X218723Y317805D01*
X218691Y317935D01*
X218663Y318066D01*
X218639Y318198D01*
X218619Y318330D01*
X218603Y318463D01*
X218590Y318596D01*
X218582Y318730D01*
X218578Y318864D01*
X218577Y318997D01*
X218581Y319131D01*
X218588Y319265D01*
X218600Y319398D01*
X218615Y319531D01*
X218635Y319664D01*
X218658Y319795D01*
X218685Y319926D01*
X218716Y320057D01*
X218751Y320186D01*
X218790Y320314D01*
X218832Y320441D01*
X218878Y320567D01*
X218928Y320691D01*
X218982Y320813D01*
X219039Y320934D01*
X219100Y321054D01*
X219164Y321171D01*
X219231Y321287D01*
X219303Y321400D01*
X219377Y321511D01*
X219455Y321620D01*
X219536Y321727D01*
X219620Y321831D01*
X219707Y321933D01*
X219797Y322032D01*
X219890Y322128D01*
X219985Y322222D01*
X220084Y322312D01*
X220185Y322400D01*
X220288Y322485D01*
X220395Y322566D01*
X220503Y322645D01*
X220614Y322720D01*
X220727Y322791D01*
X220842Y322860D01*
X220959Y322925D01*
X221078Y322986D01*
X221198Y323044D01*
X221321Y323099D01*
X221445Y323149D01*
X221570Y323196D01*
X221696Y323240D01*
X221824Y323279D01*
X221953Y323315D01*
X222083Y323347D01*
X222214Y323375D01*
X222346Y323399D01*
X222478Y323419D01*
X222611Y323435D01*
X222744Y323448D01*
X222878Y323456D01*
X223012Y323460D01*
X223145Y323461D01*
X223279Y323457D01*
X223413Y323450D01*
X223546Y323438D01*
X223679Y323423D01*
X223812Y323403D01*
X223943Y323380D01*
X224074Y323353D01*
X224205Y323322D01*
X224334Y323287D01*
X224462Y323248D01*
X224589Y323206D01*
X224715Y323160D01*
X224839Y323110D01*
X224961Y323056D01*
X225082Y322999D01*
X225202Y322938D01*
X225319Y322874D01*
X225435Y322807D01*
X225548Y322735D01*
X225659Y322661D01*
X225768Y322583D01*
X225875Y322502D01*
X225979Y322418D01*
X226081Y322331D01*
X226180Y322241D01*
X226276Y322148D01*
X226370Y322053D01*
X226460Y321954D01*
X226548Y321853D01*
X226633Y321750D01*
X226714Y321643D01*
X226793Y321535D01*
X226868Y321424D01*
X226939Y321311D01*
X227008Y321196D01*
X232820Y325580D02*
X235521Y320883D01*
X232820Y325580D02*
X232759Y325682D01*
X232694Y325783D01*
X232626Y325881D01*
X232555Y325977D01*
X232481Y326070D01*
X232404Y326161D01*
X232324Y326250D01*
X232240Y326336D01*
X232155Y326419D01*
X232066Y326499D01*
X231975Y326576D01*
X231881Y326650D01*
X231785Y326721D01*
X231686Y326788D01*
X231586Y326853D01*
X231483Y326914D01*
X231379Y326971D01*
X231272Y327026D01*
X231164Y327076D01*
X231054Y327123D01*
X230943Y327166D01*
X230830Y327206D01*
X230716Y327242D01*
X230601Y327274D01*
X230485Y327302D01*
X230368Y327327D01*
X230250Y327347D01*
X230132Y327364D01*
X230013Y327376D01*
X229894Y327385D01*
X229775Y327390D01*
X229655Y327391D01*
X229536Y327388D01*
X229417Y327381D01*
X229298Y327370D01*
X229179Y327355D01*
X229061Y327336D01*
X228944Y327313D01*
X228828Y327287D01*
X228712Y327256D01*
X228598Y327222D01*
X228485Y327184D01*
X228373Y327143D01*
X228262Y327097D01*
X228153Y327048D01*
X228046Y326996D01*
X227940Y326940D01*
X227837Y326880D01*
X227735Y326817D01*
X227636Y326751D01*
X227539Y326681D01*
X227444Y326609D01*
X227352Y326533D01*
X227262Y326454D01*
X227175Y326372D01*
X227091Y326288D01*
X227009Y326201D01*
X226930Y326111D01*
X226855Y326018D01*
X226782Y325923D01*
X226713Y325826D01*
X226647Y325726D01*
X226584Y325625D01*
X226525Y325521D01*
X226469Y325416D01*
X226417Y325308D01*
X226368Y325199D01*
X226323Y325089D01*
X226281Y324977D01*
X226244Y324863D01*
X226210Y324749D01*
X226179Y324633D01*
X226153Y324517D01*
X226131Y324399D01*
X226112Y324281D01*
X226097Y324163D01*
X226087Y324044D01*
X226080Y323925D01*
X226077Y323805D01*
X226078Y323686D01*
X226083Y323566D01*
X226092Y323447D01*
X226105Y323329D01*
X226122Y323210D01*
X226143Y323093D01*
X226167Y322976D01*
X226196Y322860D01*
X226228Y322745D01*
X226264Y322631D01*
X226304Y322518D01*
X226348Y322407D01*
X226395Y322297D01*
X226446Y322189D01*
X226500Y322083D01*
X226558Y321978D01*
X226557Y321979D02*
X228358Y318847D01*
X239927Y513264D02*
X225654Y521046D01*
X223493Y517081D01*
X223492Y517082D02*
X223430Y516964D01*
X223372Y516845D01*
X223317Y516725D01*
X223266Y516602D01*
X223218Y516479D01*
X223175Y516353D01*
X223134Y516227D01*
X223098Y516100D01*
X223065Y515971D01*
X223036Y515842D01*
X223011Y515712D01*
X222990Y515581D01*
X222972Y515449D01*
X222959Y515317D01*
X222949Y515185D01*
X222943Y515053D01*
X222941Y514920D01*
X222943Y514788D01*
X222949Y514655D01*
X222958Y514523D01*
X222972Y514391D01*
X222990Y514260D01*
X223011Y514129D01*
X223036Y513999D01*
X223065Y513869D01*
X223098Y513741D01*
X223134Y513613D01*
X223174Y513487D01*
X223218Y513362D01*
X223266Y513238D01*
X223317Y513116D01*
X223372Y512995D01*
X223430Y512876D01*
X223492Y512758D01*
X223557Y512643D01*
X223626Y512530D01*
X223697Y512418D01*
X223772Y512309D01*
X223851Y512202D01*
X223932Y512097D01*
X224016Y511995D01*
X224104Y511895D01*
X224194Y511798D01*
X224287Y511703D01*
X224383Y511612D01*
X224481Y511523D01*
X224582Y511437D01*
X224686Y511354D01*
X224792Y511274D01*
X224900Y511198D01*
X225010Y511124D01*
X225123Y511054D01*
X225237Y510987D01*
X225354Y510924D01*
X225472Y510864D01*
X225592Y510807D01*
X225713Y510754D01*
X225836Y510705D01*
X225961Y510659D01*
X226087Y510617D01*
X226213Y510579D01*
X226341Y510544D01*
X226470Y510513D01*
X226600Y510486D01*
X226731Y510463D01*
X226862Y510443D01*
X226994Y510428D01*
X227126Y510416D01*
X227258Y510408D01*
X227391Y510404D01*
X227523Y510404D01*
X227656Y510408D01*
X227788Y510416D01*
X227920Y510428D01*
X228052Y510443D01*
X228183Y510463D01*
X228313Y510486D01*
X228443Y510513D01*
X228572Y510544D01*
X228700Y510578D01*
X228827Y510617D01*
X228953Y510659D01*
X229077Y510705D01*
X229200Y510754D01*
X229322Y510807D01*
X229442Y510864D01*
X229560Y510924D01*
X229676Y510987D01*
X229791Y511054D01*
X229903Y511124D01*
X230014Y511198D01*
X230122Y511274D01*
X230228Y511354D01*
X230331Y511437D01*
X230432Y511523D01*
X230531Y511612D01*
X230627Y511703D01*
X230720Y511798D01*
X230810Y511895D01*
X230897Y511995D01*
X230982Y512097D01*
X231063Y512202D01*
X231141Y512309D01*
X231216Y512418D01*
X231288Y512529D01*
X231357Y512643D01*
X231422Y512758D01*
X233583Y516723D01*
X229623Y501912D02*
X216793Y504793D01*
X229623Y501912D02*
X225300Y493983D01*
X223425Y498091D02*
X229768Y494633D01*
X314046Y547157D02*
X314046Y563413D01*
X309530Y563413D01*
X309397Y563411D01*
X309265Y563405D01*
X309133Y563395D01*
X309001Y563382D01*
X308869Y563364D01*
X308739Y563343D01*
X308608Y563318D01*
X308479Y563289D01*
X308351Y563256D01*
X308223Y563220D01*
X308097Y563180D01*
X307972Y563136D01*
X307848Y563088D01*
X307726Y563037D01*
X307605Y562982D01*
X307486Y562924D01*
X307368Y562862D01*
X307253Y562797D01*
X307139Y562728D01*
X307028Y562657D01*
X306919Y562581D01*
X306812Y562503D01*
X306707Y562422D01*
X306605Y562337D01*
X306505Y562250D01*
X306408Y562160D01*
X306313Y562067D01*
X306222Y561971D01*
X306133Y561873D01*
X306047Y561772D01*
X305964Y561668D01*
X305884Y561562D01*
X305808Y561454D01*
X305734Y561344D01*
X305664Y561231D01*
X305597Y561117D01*
X305534Y561000D01*
X305474Y560882D01*
X305417Y560762D01*
X305364Y560640D01*
X305315Y560517D01*
X305269Y560393D01*
X305227Y560267D01*
X305189Y560140D01*
X305154Y560012D01*
X305123Y559883D01*
X305096Y559754D01*
X305073Y559623D01*
X305053Y559492D01*
X305038Y559360D01*
X305026Y559228D01*
X305018Y559096D01*
X305014Y558963D01*
X305014Y558831D01*
X305018Y558698D01*
X305026Y558566D01*
X305038Y558434D01*
X305053Y558302D01*
X305073Y558171D01*
X305096Y558040D01*
X305123Y557911D01*
X305154Y557782D01*
X305189Y557654D01*
X305227Y557527D01*
X305269Y557401D01*
X305315Y557277D01*
X305364Y557154D01*
X305417Y557032D01*
X305474Y556912D01*
X305534Y556794D01*
X305597Y556677D01*
X305664Y556563D01*
X305734Y556450D01*
X305808Y556340D01*
X305884Y556232D01*
X305964Y556126D01*
X306047Y556022D01*
X306133Y555921D01*
X306222Y555823D01*
X306313Y555727D01*
X306408Y555634D01*
X306505Y555544D01*
X306605Y555457D01*
X306707Y555372D01*
X306812Y555291D01*
X306919Y555213D01*
X307028Y555137D01*
X307139Y555066D01*
X307253Y554997D01*
X307368Y554932D01*
X307486Y554870D01*
X307605Y554812D01*
X307726Y554757D01*
X307848Y554706D01*
X307972Y554658D01*
X308097Y554614D01*
X308223Y554574D01*
X308351Y554538D01*
X308479Y554505D01*
X308608Y554476D01*
X308739Y554451D01*
X308869Y554430D01*
X309001Y554412D01*
X309133Y554399D01*
X309265Y554389D01*
X309397Y554383D01*
X309530Y554381D01*
X309530Y554382D02*
X314046Y554382D01*
X299147Y547157D02*
X293728Y547157D01*
X293610Y547159D01*
X293492Y547165D01*
X293374Y547174D01*
X293257Y547188D01*
X293140Y547205D01*
X293023Y547226D01*
X292908Y547251D01*
X292793Y547280D01*
X292679Y547313D01*
X292567Y547349D01*
X292456Y547389D01*
X292346Y547432D01*
X292237Y547479D01*
X292130Y547529D01*
X292025Y547584D01*
X291922Y547641D01*
X291821Y547702D01*
X291721Y547766D01*
X291624Y547833D01*
X291529Y547903D01*
X291437Y547977D01*
X291346Y548053D01*
X291259Y548133D01*
X291174Y548215D01*
X291092Y548300D01*
X291012Y548387D01*
X290936Y548478D01*
X290862Y548570D01*
X290792Y548665D01*
X290725Y548762D01*
X290661Y548862D01*
X290600Y548963D01*
X290543Y549066D01*
X290488Y549171D01*
X290438Y549278D01*
X290391Y549387D01*
X290348Y549497D01*
X290308Y549608D01*
X290272Y549720D01*
X290239Y549834D01*
X290210Y549949D01*
X290185Y550064D01*
X290164Y550181D01*
X290147Y550298D01*
X290133Y550415D01*
X290124Y550533D01*
X290118Y550651D01*
X290116Y550769D01*
X290116Y552575D01*
X290118Y552693D01*
X290124Y552811D01*
X290133Y552929D01*
X290147Y553046D01*
X290164Y553163D01*
X290185Y553280D01*
X290210Y553395D01*
X290239Y553510D01*
X290272Y553624D01*
X290308Y553736D01*
X290348Y553847D01*
X290391Y553957D01*
X290438Y554066D01*
X290488Y554173D01*
X290543Y554278D01*
X290600Y554381D01*
X290661Y554482D01*
X290725Y554582D01*
X290792Y554679D01*
X290862Y554774D01*
X290936Y554866D01*
X291012Y554957D01*
X291092Y555044D01*
X291174Y555129D01*
X291259Y555211D01*
X291346Y555291D01*
X291437Y555367D01*
X291529Y555441D01*
X291624Y555511D01*
X291721Y555578D01*
X291821Y555642D01*
X291922Y555703D01*
X292025Y555760D01*
X292130Y555815D01*
X292237Y555865D01*
X292346Y555912D01*
X292456Y555955D01*
X292567Y555995D01*
X292679Y556031D01*
X292793Y556064D01*
X292908Y556093D01*
X293023Y556118D01*
X293140Y556139D01*
X293257Y556156D01*
X293374Y556170D01*
X293492Y556179D01*
X293610Y556185D01*
X293728Y556187D01*
X293728Y556188D02*
X299147Y556188D01*
X299147Y563413D01*
X290116Y563413D01*
X377497Y297100D02*
X377497Y279320D01*
X377497Y289198D02*
X367619Y289198D01*
X367619Y297100D02*
X367619Y279320D01*
X360188Y293149D02*
X355249Y297100D01*
X355249Y279320D01*
X360188Y279320D02*
X350310Y279320D01*
X342879Y279320D02*
X342879Y297100D01*
X337940Y297100D01*
X337801Y297098D01*
X337663Y297092D01*
X337525Y297083D01*
X337387Y297069D01*
X337250Y297052D01*
X337113Y297030D01*
X336976Y297005D01*
X336841Y296976D01*
X336706Y296943D01*
X336573Y296907D01*
X336440Y296867D01*
X336309Y296823D01*
X336179Y296775D01*
X336050Y296724D01*
X335923Y296669D01*
X335797Y296611D01*
X335673Y296549D01*
X335551Y296484D01*
X335431Y296415D01*
X335312Y296343D01*
X335196Y296268D01*
X335082Y296189D01*
X334970Y296107D01*
X334861Y296022D01*
X334753Y295935D01*
X334649Y295844D01*
X334547Y295750D01*
X334448Y295653D01*
X334351Y295554D01*
X334257Y295452D01*
X334166Y295348D01*
X334079Y295240D01*
X333994Y295131D01*
X333912Y295019D01*
X333833Y294905D01*
X333758Y294789D01*
X333686Y294670D01*
X333617Y294550D01*
X333552Y294428D01*
X333490Y294304D01*
X333432Y294178D01*
X333377Y294051D01*
X333326Y293922D01*
X333278Y293792D01*
X333234Y293661D01*
X333194Y293528D01*
X333158Y293395D01*
X333125Y293260D01*
X333096Y293125D01*
X333071Y292988D01*
X333049Y292851D01*
X333032Y292714D01*
X333018Y292576D01*
X333009Y292438D01*
X333003Y292300D01*
X333001Y292161D01*
X333001Y284259D01*
X333003Y284120D01*
X333009Y283982D01*
X333018Y283844D01*
X333032Y283706D01*
X333049Y283569D01*
X333071Y283432D01*
X333096Y283295D01*
X333125Y283160D01*
X333158Y283025D01*
X333194Y282892D01*
X333234Y282759D01*
X333278Y282628D01*
X333326Y282498D01*
X333377Y282369D01*
X333432Y282242D01*
X333490Y282116D01*
X333552Y281992D01*
X333617Y281870D01*
X333686Y281750D01*
X333758Y281631D01*
X333833Y281515D01*
X333912Y281401D01*
X333994Y281289D01*
X334079Y281180D01*
X334166Y281072D01*
X334257Y280968D01*
X334351Y280866D01*
X334448Y280767D01*
X334547Y280670D01*
X334649Y280576D01*
X334753Y280485D01*
X334861Y280398D01*
X334970Y280313D01*
X335082Y280231D01*
X335196Y280152D01*
X335312Y280077D01*
X335431Y280005D01*
X335551Y279936D01*
X335673Y279871D01*
X335797Y279809D01*
X335923Y279751D01*
X336050Y279696D01*
X336179Y279645D01*
X336309Y279597D01*
X336440Y279553D01*
X336573Y279513D01*
X336706Y279477D01*
X336841Y279444D01*
X336976Y279415D01*
X337113Y279390D01*
X337250Y279368D01*
X337387Y279351D01*
X337525Y279337D01*
X337663Y279328D01*
X337801Y279322D01*
X337940Y279320D01*
X342879Y279320D01*
X324927Y279320D02*
X324927Y297100D01*
X319988Y297100D01*
X319848Y297098D01*
X319709Y297092D01*
X319569Y297082D01*
X319430Y297068D01*
X319291Y297051D01*
X319153Y297029D01*
X319016Y297003D01*
X318879Y296974D01*
X318743Y296941D01*
X318609Y296904D01*
X318475Y296863D01*
X318343Y296818D01*
X318211Y296769D01*
X318082Y296717D01*
X317954Y296662D01*
X317827Y296602D01*
X317702Y296539D01*
X317579Y296473D01*
X317458Y296403D01*
X317339Y296330D01*
X317222Y296253D01*
X317108Y296173D01*
X316995Y296090D01*
X316885Y296004D01*
X316778Y295914D01*
X316673Y295822D01*
X316571Y295727D01*
X316471Y295629D01*
X316374Y295528D01*
X316280Y295424D01*
X316190Y295318D01*
X316102Y295209D01*
X316017Y295098D01*
X315936Y294984D01*
X315857Y294869D01*
X315782Y294751D01*
X315711Y294631D01*
X315643Y294508D01*
X315578Y294385D01*
X315517Y294259D01*
X315459Y294131D01*
X315405Y294003D01*
X315355Y293872D01*
X315308Y293740D01*
X315265Y293607D01*
X315226Y293473D01*
X315191Y293338D01*
X315160Y293202D01*
X315132Y293064D01*
X315109Y292927D01*
X315089Y292788D01*
X315073Y292649D01*
X315061Y292510D01*
X315053Y292371D01*
X315049Y292231D01*
X315049Y292091D01*
X315053Y291951D01*
X315061Y291812D01*
X315073Y291673D01*
X315089Y291534D01*
X315109Y291395D01*
X315132Y291258D01*
X315160Y291120D01*
X315191Y290984D01*
X315226Y290849D01*
X315265Y290715D01*
X315308Y290582D01*
X315355Y290450D01*
X315405Y290319D01*
X315459Y290191D01*
X315517Y290063D01*
X315578Y289937D01*
X315643Y289814D01*
X315711Y289692D01*
X315782Y289571D01*
X315857Y289453D01*
X315936Y289338D01*
X316017Y289224D01*
X316102Y289113D01*
X316190Y289004D01*
X316280Y288898D01*
X316374Y288794D01*
X316471Y288693D01*
X316571Y288595D01*
X316673Y288500D01*
X316778Y288408D01*
X316885Y288318D01*
X316995Y288232D01*
X317108Y288149D01*
X317222Y288069D01*
X317339Y287992D01*
X317458Y287919D01*
X317579Y287849D01*
X317702Y287783D01*
X317827Y287720D01*
X317954Y287660D01*
X318082Y287605D01*
X318211Y287553D01*
X318343Y287504D01*
X318475Y287459D01*
X318609Y287418D01*
X318743Y287381D01*
X318879Y287348D01*
X319016Y287319D01*
X319153Y287293D01*
X319291Y287271D01*
X319430Y287254D01*
X319569Y287240D01*
X319709Y287230D01*
X319848Y287224D01*
X319988Y287222D01*
X324927Y287222D01*
X319000Y287222D02*
X315049Y279320D01*
X308262Y279320D02*
X302335Y279320D01*
X302211Y279322D01*
X302087Y279328D01*
X301963Y279338D01*
X301840Y279351D01*
X301717Y279369D01*
X301595Y279390D01*
X301473Y279415D01*
X301352Y279444D01*
X301233Y279477D01*
X301114Y279513D01*
X300997Y279554D01*
X300881Y279597D01*
X300766Y279645D01*
X300653Y279696D01*
X300541Y279751D01*
X300432Y279809D01*
X300324Y279870D01*
X300218Y279935D01*
X300114Y280003D01*
X300013Y280075D01*
X299913Y280149D01*
X299817Y280227D01*
X299722Y280307D01*
X299630Y280391D01*
X299541Y280477D01*
X299455Y280566D01*
X299371Y280658D01*
X299291Y280753D01*
X299213Y280849D01*
X299139Y280949D01*
X299067Y281050D01*
X298999Y281154D01*
X298934Y281260D01*
X298873Y281368D01*
X298815Y281477D01*
X298760Y281589D01*
X298709Y281702D01*
X298661Y281817D01*
X298618Y281933D01*
X298577Y282050D01*
X298541Y282169D01*
X298508Y282288D01*
X298479Y282409D01*
X298454Y282531D01*
X298433Y282653D01*
X298415Y282776D01*
X298402Y282899D01*
X298392Y283023D01*
X298386Y283147D01*
X298384Y283271D01*
X298384Y285247D01*
X298386Y285371D01*
X298392Y285495D01*
X298402Y285619D01*
X298415Y285742D01*
X298433Y285865D01*
X298454Y285987D01*
X298479Y286109D01*
X298508Y286230D01*
X298541Y286349D01*
X298577Y286468D01*
X298618Y286585D01*
X298661Y286701D01*
X298709Y286816D01*
X298760Y286929D01*
X298815Y287041D01*
X298873Y287150D01*
X298934Y287258D01*
X298999Y287364D01*
X299067Y287468D01*
X299139Y287569D01*
X299213Y287669D01*
X299291Y287765D01*
X299371Y287860D01*
X299455Y287952D01*
X299541Y288041D01*
X299630Y288127D01*
X299722Y288211D01*
X299817Y288291D01*
X299913Y288369D01*
X300013Y288443D01*
X300114Y288515D01*
X300218Y288583D01*
X300324Y288648D01*
X300432Y288709D01*
X300541Y288767D01*
X300653Y288822D01*
X300766Y288873D01*
X300881Y288921D01*
X300997Y288964D01*
X301114Y289005D01*
X301233Y289041D01*
X301352Y289074D01*
X301473Y289103D01*
X301595Y289128D01*
X301717Y289149D01*
X301840Y289167D01*
X301963Y289180D01*
X302087Y289190D01*
X302211Y289196D01*
X302335Y289198D01*
X308262Y289198D01*
X308262Y297100D01*
X298384Y297100D01*
X291511Y293149D02*
X286572Y297100D01*
X286572Y279320D01*
X291511Y279320D02*
X281633Y279320D01*
X431513Y319091D02*
X445147Y310237D01*
X431513Y319091D02*
X429054Y315304D01*
X428983Y315191D01*
X428916Y315077D01*
X428852Y314961D01*
X428791Y314843D01*
X428735Y314723D01*
X428681Y314602D01*
X428631Y314479D01*
X428585Y314355D01*
X428543Y314229D01*
X428504Y314102D01*
X428469Y313974D01*
X428437Y313846D01*
X428410Y313716D01*
X428386Y313585D01*
X428366Y313454D01*
X428350Y313323D01*
X428338Y313191D01*
X428330Y313058D01*
X428326Y312926D01*
X428325Y312793D01*
X428329Y312661D01*
X428336Y312528D01*
X428347Y312396D01*
X428362Y312264D01*
X428381Y312133D01*
X428404Y312003D01*
X428431Y311873D01*
X428461Y311744D01*
X428495Y311616D01*
X428533Y311488D01*
X428575Y311363D01*
X428620Y311238D01*
X428669Y311115D01*
X428722Y310993D01*
X428778Y310873D01*
X428837Y310755D01*
X428901Y310638D01*
X428967Y310523D01*
X429037Y310410D01*
X429110Y310300D01*
X429186Y310191D01*
X429266Y310085D01*
X429348Y309981D01*
X429434Y309880D01*
X429522Y309781D01*
X429614Y309685D01*
X429708Y309592D01*
X429804Y309501D01*
X429904Y309414D01*
X430006Y309329D01*
X430110Y309247D01*
X430217Y309169D01*
X430326Y309093D01*
X430437Y309021D01*
X430551Y308952D01*
X430666Y308886D01*
X430783Y308824D01*
X430902Y308766D01*
X431022Y308710D01*
X431144Y308659D01*
X431268Y308611D01*
X431393Y308566D01*
X431519Y308526D01*
X431647Y308489D01*
X431775Y308456D01*
X431904Y308426D01*
X432034Y308401D01*
X432165Y308379D01*
X432296Y308361D01*
X432428Y308347D01*
X432561Y308337D01*
X432693Y308330D01*
X432826Y308328D01*
X432958Y308330D01*
X433091Y308335D01*
X433223Y308344D01*
X433355Y308357D01*
X433486Y308374D01*
X433617Y308395D01*
X433747Y308420D01*
X433877Y308448D01*
X434006Y308481D01*
X434133Y308517D01*
X434260Y308557D01*
X434385Y308600D01*
X434509Y308647D01*
X434631Y308698D01*
X434752Y308752D01*
X434872Y308810D01*
X434989Y308872D01*
X435105Y308936D01*
X435218Y309004D01*
X435330Y309076D01*
X435440Y309151D01*
X435547Y309229D01*
X435652Y309310D01*
X435755Y309394D01*
X435855Y309481D01*
X435952Y309571D01*
X436047Y309663D01*
X436139Y309759D01*
X436228Y309857D01*
X436314Y309958D01*
X436397Y310061D01*
X436478Y310166D01*
X436555Y310274D01*
X436628Y310384D01*
X436628Y310385D02*
X439087Y314172D01*
X420694Y302429D02*
X420627Y302323D01*
X420564Y302215D01*
X420504Y302105D01*
X420447Y301994D01*
X420394Y301880D01*
X420345Y301765D01*
X420299Y301649D01*
X420257Y301531D01*
X420218Y301412D01*
X420183Y301292D01*
X420152Y301171D01*
X420124Y301049D01*
X420100Y300926D01*
X420081Y300802D01*
X420064Y300678D01*
X420052Y300554D01*
X420044Y300429D01*
X420039Y300304D01*
X420038Y300178D01*
X420041Y300053D01*
X420048Y299928D01*
X420059Y299804D01*
X420074Y299679D01*
X420092Y299556D01*
X420114Y299432D01*
X420140Y299310D01*
X420170Y299188D01*
X420204Y299068D01*
X420241Y298948D01*
X420282Y298830D01*
X420326Y298713D01*
X420374Y298597D01*
X420426Y298483D01*
X420481Y298371D01*
X420539Y298260D01*
X420601Y298152D01*
X420667Y298045D01*
X420735Y297940D01*
X420807Y297837D01*
X420882Y297737D01*
X420959Y297639D01*
X421040Y297544D01*
X421124Y297450D01*
X421211Y297360D01*
X421300Y297272D01*
X421392Y297188D01*
X421486Y297106D01*
X421584Y297026D01*
X421683Y296950D01*
X421785Y296877D01*
X421889Y296808D01*
X420693Y302430D02*
X420773Y302548D01*
X420855Y302665D01*
X420941Y302779D01*
X421030Y302890D01*
X421122Y303000D01*
X421216Y303106D01*
X421314Y303210D01*
X421415Y303312D01*
X421518Y303410D01*
X421624Y303506D01*
X421732Y303599D01*
X421843Y303689D01*
X421956Y303776D01*
X422072Y303859D01*
X422190Y303940D01*
X422310Y304017D01*
X422432Y304091D01*
X422556Y304161D01*
X422682Y304228D01*
X422810Y304292D01*
X422940Y304352D01*
X423071Y304408D01*
X423203Y304461D01*
X423337Y304510D01*
X423473Y304556D01*
X423609Y304598D01*
X423747Y304636D01*
X423885Y304670D01*
X424025Y304701D01*
X424165Y304728D01*
X424306Y304750D01*
X424447Y304769D01*
X424589Y304785D01*
X424731Y304796D01*
X424874Y304803D01*
X425017Y304807D01*
X425159Y304806D01*
X425302Y304802D01*
X425444Y304794D01*
X425587Y304782D01*
X425728Y304766D01*
X425870Y304746D01*
X426011Y304722D01*
X426151Y304694D01*
X426290Y304663D01*
X426428Y304628D01*
X425277Y296222D02*
X425149Y296193D01*
X425021Y296169D01*
X424892Y296148D01*
X424762Y296131D01*
X424632Y296118D01*
X424501Y296109D01*
X424370Y296104D01*
X424239Y296103D01*
X424108Y296106D01*
X423978Y296113D01*
X423847Y296123D01*
X423717Y296138D01*
X423587Y296156D01*
X423458Y296178D01*
X423330Y296204D01*
X423203Y296234D01*
X423076Y296268D01*
X422951Y296306D01*
X422827Y296347D01*
X422704Y296392D01*
X422582Y296441D01*
X422462Y296493D01*
X422344Y296549D01*
X422227Y296608D01*
X422112Y296671D01*
X422000Y296738D01*
X421889Y296807D01*
X425277Y296222D02*
X437032Y297741D01*
X432113Y290167D01*
X423034Y288714D02*
X423034Y294133D01*
X423034Y288714D02*
X419873Y284650D01*
X423034Y288714D02*
X426195Y284650D01*
X423034Y288714D02*
X418067Y290521D01*
X423034Y288714D02*
X428001Y290521D01*
D10*
X395774Y558463D02*
X394038Y558463D01*
X394038Y552678D01*
X397510Y552678D01*
X397603Y552680D01*
X397696Y552686D01*
X397789Y552695D01*
X397881Y552708D01*
X397973Y552725D01*
X398064Y552745D01*
X398154Y552769D01*
X398243Y552797D01*
X398331Y552828D01*
X398417Y552863D01*
X398502Y552901D01*
X398585Y552943D01*
X398667Y552988D01*
X398747Y553036D01*
X398825Y553088D01*
X398900Y553142D01*
X398973Y553200D01*
X399044Y553260D01*
X399113Y553323D01*
X399179Y553389D01*
X399242Y553458D01*
X399302Y553529D01*
X399360Y553602D01*
X399414Y553678D01*
X399466Y553755D01*
X399514Y553835D01*
X399559Y553917D01*
X399601Y554000D01*
X399639Y554085D01*
X399674Y554171D01*
X399705Y554259D01*
X399733Y554348D01*
X399757Y554438D01*
X399777Y554529D01*
X399794Y554621D01*
X399807Y554713D01*
X399816Y554806D01*
X399822Y554899D01*
X399824Y554992D01*
X399824Y560777D01*
X399822Y560873D01*
X399816Y560968D01*
X399806Y561063D01*
X399792Y561158D01*
X399775Y561252D01*
X399753Y561345D01*
X399728Y561437D01*
X399699Y561528D01*
X399666Y561618D01*
X399629Y561707D01*
X399589Y561793D01*
X399545Y561878D01*
X399498Y561961D01*
X399447Y562043D01*
X399393Y562122D01*
X399336Y562198D01*
X399276Y562273D01*
X399212Y562344D01*
X399146Y562413D01*
X399077Y562479D01*
X399006Y562543D01*
X398931Y562603D01*
X398855Y562660D01*
X398776Y562714D01*
X398695Y562765D01*
X398611Y562812D01*
X398526Y562856D01*
X398440Y562896D01*
X398351Y562933D01*
X398261Y562966D01*
X398170Y562995D01*
X398078Y563020D01*
X397985Y563042D01*
X397891Y563059D01*
X397796Y563073D01*
X397701Y563083D01*
X397606Y563089D01*
X397510Y563091D01*
X397510Y563092D02*
X394038Y563092D01*
X388851Y563092D02*
X388851Y552678D01*
X383065Y552678D02*
X388851Y563092D01*
X383065Y563092D02*
X383065Y552678D01*
X377878Y552678D02*
X377878Y563092D01*
X374985Y563092D01*
X374879Y563090D01*
X374774Y563084D01*
X374669Y563075D01*
X374564Y563061D01*
X374460Y563044D01*
X374356Y563023D01*
X374253Y562998D01*
X374152Y562969D01*
X374051Y562937D01*
X373952Y562901D01*
X373854Y562862D01*
X373757Y562818D01*
X373662Y562772D01*
X373569Y562722D01*
X373478Y562668D01*
X373389Y562612D01*
X373302Y562552D01*
X373217Y562489D01*
X373134Y562423D01*
X373054Y562354D01*
X372977Y562282D01*
X372902Y562207D01*
X372830Y562130D01*
X372761Y562050D01*
X372695Y561967D01*
X372632Y561882D01*
X372572Y561795D01*
X372516Y561706D01*
X372462Y561615D01*
X372412Y561522D01*
X372366Y561427D01*
X372322Y561330D01*
X372283Y561232D01*
X372247Y561133D01*
X372215Y561032D01*
X372186Y560931D01*
X372161Y560828D01*
X372140Y560725D01*
X372123Y560620D01*
X372109Y560515D01*
X372100Y560410D01*
X372094Y560305D01*
X372092Y560199D01*
X372093Y560199D02*
X372093Y555570D01*
X372092Y555570D02*
X372094Y555464D01*
X372100Y555359D01*
X372109Y555254D01*
X372123Y555149D01*
X372140Y555045D01*
X372161Y554941D01*
X372186Y554838D01*
X372215Y554737D01*
X372247Y554636D01*
X372283Y554537D01*
X372322Y554439D01*
X372366Y554342D01*
X372412Y554247D01*
X372462Y554154D01*
X372516Y554063D01*
X372572Y553974D01*
X372632Y553887D01*
X372695Y553802D01*
X372761Y553719D01*
X372830Y553639D01*
X372902Y553562D01*
X372977Y553487D01*
X373054Y553415D01*
X373134Y553346D01*
X373217Y553280D01*
X373302Y553217D01*
X373389Y553157D01*
X373478Y553101D01*
X373569Y553047D01*
X373662Y552997D01*
X373757Y552951D01*
X373854Y552907D01*
X373952Y552868D01*
X374051Y552832D01*
X374152Y552800D01*
X374253Y552771D01*
X374356Y552746D01*
X374460Y552725D01*
X374564Y552708D01*
X374669Y552694D01*
X374774Y552685D01*
X374879Y552679D01*
X374985Y552677D01*
X374985Y552678D02*
X377878Y552678D01*
X185718Y405342D02*
X185718Y403606D01*
X185718Y405342D02*
X179932Y405342D01*
X179932Y401871D01*
X179933Y401871D02*
X179935Y401778D01*
X179941Y401685D01*
X179950Y401592D01*
X179963Y401500D01*
X179980Y401408D01*
X180000Y401317D01*
X180024Y401227D01*
X180052Y401138D01*
X180083Y401050D01*
X180118Y400964D01*
X180156Y400879D01*
X180198Y400796D01*
X180243Y400714D01*
X180291Y400634D01*
X180343Y400556D01*
X180397Y400481D01*
X180455Y400408D01*
X180515Y400337D01*
X180578Y400268D01*
X180644Y400202D01*
X180713Y400139D01*
X180784Y400079D01*
X180857Y400021D01*
X180932Y399967D01*
X181010Y399915D01*
X181090Y399867D01*
X181172Y399822D01*
X181255Y399780D01*
X181340Y399742D01*
X181426Y399707D01*
X181514Y399676D01*
X181603Y399648D01*
X181693Y399624D01*
X181784Y399604D01*
X181876Y399587D01*
X181968Y399574D01*
X182061Y399565D01*
X182154Y399559D01*
X182247Y399557D01*
X188032Y399557D01*
X188128Y399559D01*
X188223Y399565D01*
X188318Y399575D01*
X188413Y399589D01*
X188507Y399606D01*
X188600Y399628D01*
X188692Y399653D01*
X188783Y399682D01*
X188873Y399715D01*
X188962Y399752D01*
X189048Y399792D01*
X189133Y399836D01*
X189216Y399883D01*
X189298Y399934D01*
X189377Y399988D01*
X189453Y400045D01*
X189528Y400105D01*
X189599Y400169D01*
X189668Y400235D01*
X189734Y400304D01*
X189798Y400375D01*
X189858Y400450D01*
X189915Y400526D01*
X189969Y400605D01*
X190020Y400686D01*
X190067Y400770D01*
X190111Y400855D01*
X190151Y400941D01*
X190188Y401030D01*
X190221Y401120D01*
X190250Y401211D01*
X190275Y401303D01*
X190297Y401396D01*
X190314Y401490D01*
X190328Y401585D01*
X190338Y401680D01*
X190344Y401775D01*
X190346Y401871D01*
X190346Y405342D01*
X190346Y410529D02*
X179932Y410529D01*
X179932Y416315D02*
X190346Y410529D01*
X190346Y416315D02*
X179932Y416315D01*
X179932Y421502D02*
X190346Y421502D01*
X190346Y424395D01*
X190347Y424395D02*
X190345Y424501D01*
X190339Y424606D01*
X190330Y424711D01*
X190316Y424816D01*
X190299Y424920D01*
X190278Y425024D01*
X190253Y425127D01*
X190224Y425228D01*
X190192Y425329D01*
X190156Y425428D01*
X190117Y425526D01*
X190073Y425623D01*
X190027Y425718D01*
X189977Y425811D01*
X189923Y425902D01*
X189867Y425991D01*
X189807Y426078D01*
X189744Y426163D01*
X189678Y426246D01*
X189609Y426326D01*
X189537Y426403D01*
X189462Y426478D01*
X189385Y426550D01*
X189305Y426619D01*
X189222Y426685D01*
X189137Y426748D01*
X189050Y426808D01*
X188961Y426864D01*
X188870Y426918D01*
X188777Y426968D01*
X188682Y427014D01*
X188585Y427058D01*
X188487Y427097D01*
X188388Y427133D01*
X188287Y427165D01*
X188186Y427194D01*
X188083Y427219D01*
X187979Y427240D01*
X187875Y427257D01*
X187770Y427271D01*
X187665Y427280D01*
X187560Y427286D01*
X187454Y427288D01*
X182825Y427288D01*
X182719Y427286D01*
X182614Y427280D01*
X182509Y427271D01*
X182404Y427257D01*
X182300Y427240D01*
X182196Y427219D01*
X182093Y427194D01*
X181992Y427165D01*
X181891Y427133D01*
X181792Y427097D01*
X181694Y427058D01*
X181597Y427014D01*
X181502Y426968D01*
X181409Y426918D01*
X181318Y426864D01*
X181229Y426808D01*
X181142Y426748D01*
X181057Y426685D01*
X180974Y426619D01*
X180894Y426550D01*
X180817Y426478D01*
X180742Y426403D01*
X180670Y426326D01*
X180601Y426246D01*
X180535Y426163D01*
X180472Y426078D01*
X180412Y425991D01*
X180356Y425902D01*
X180302Y425811D01*
X180252Y425718D01*
X180206Y425623D01*
X180162Y425526D01*
X180123Y425428D01*
X180087Y425329D01*
X180055Y425228D01*
X180026Y425127D01*
X180001Y425024D01*
X179980Y424920D01*
X179963Y424816D01*
X179949Y424711D01*
X179940Y424606D01*
X179934Y424501D01*
X179932Y424395D01*
X179932Y421502D01*
D13*
X326081Y406503D02*
X326081Y442063D01*
X305761Y442063D01*
X305761Y406503D01*
X326081Y406503D01*
D14*
X326596Y403085D02*
X333962Y407996D01*
X333962Y403085D02*
X326596Y407996D01*
X332325Y410810D02*
X333962Y412856D01*
X326596Y412856D01*
X326596Y410810D02*
X326596Y414902D01*
D12*
X293846Y393605D02*
X289120Y393605D01*
X220186Y393605D02*
X220186Y398331D01*
X220186Y467265D02*
X224912Y467265D01*
X293846Y467265D02*
X293846Y462539D01*
X293846Y398331D02*
X293846Y393605D01*
X224912Y393605D02*
X220186Y393605D01*
X220186Y462539D02*
X220186Y467265D01*
X289120Y467265D02*
X293846Y467265D01*
D13*
X293993Y471710D02*
X293995Y471777D01*
X294001Y471843D01*
X294011Y471909D01*
X294024Y471974D01*
X294042Y472038D01*
X294063Y472101D01*
X294088Y472163D01*
X294117Y472223D01*
X294149Y472281D01*
X294185Y472337D01*
X294223Y472391D01*
X294265Y472443D01*
X294310Y472492D01*
X294358Y472539D01*
X294408Y472582D01*
X294461Y472622D01*
X294517Y472660D01*
X294574Y472693D01*
X294633Y472724D01*
X294694Y472751D01*
X294756Y472774D01*
X294820Y472793D01*
X294885Y472809D01*
X294950Y472821D01*
X295016Y472829D01*
X295083Y472833D01*
X295149Y472833D01*
X295216Y472829D01*
X295282Y472821D01*
X295347Y472809D01*
X295412Y472793D01*
X295476Y472774D01*
X295538Y472751D01*
X295599Y472724D01*
X295658Y472693D01*
X295715Y472660D01*
X295771Y472622D01*
X295824Y472582D01*
X295874Y472539D01*
X295922Y472492D01*
X295967Y472443D01*
X296009Y472391D01*
X296047Y472337D01*
X296083Y472281D01*
X296115Y472223D01*
X296144Y472163D01*
X296169Y472101D01*
X296190Y472038D01*
X296208Y471974D01*
X296221Y471909D01*
X296231Y471843D01*
X296237Y471777D01*
X296239Y471710D01*
X296237Y471643D01*
X296231Y471577D01*
X296221Y471511D01*
X296208Y471446D01*
X296190Y471382D01*
X296169Y471319D01*
X296144Y471257D01*
X296115Y471197D01*
X296083Y471139D01*
X296047Y471083D01*
X296009Y471029D01*
X295967Y470977D01*
X295922Y470928D01*
X295874Y470881D01*
X295824Y470838D01*
X295771Y470798D01*
X295715Y470760D01*
X295658Y470727D01*
X295599Y470696D01*
X295538Y470669D01*
X295476Y470646D01*
X295412Y470627D01*
X295347Y470611D01*
X295282Y470599D01*
X295216Y470591D01*
X295149Y470587D01*
X295083Y470587D01*
X295016Y470591D01*
X294950Y470599D01*
X294885Y470611D01*
X294820Y470627D01*
X294756Y470646D01*
X294694Y470669D01*
X294633Y470696D01*
X294574Y470727D01*
X294517Y470760D01*
X294461Y470798D01*
X294408Y470838D01*
X294358Y470881D01*
X294310Y470928D01*
X294265Y470977D01*
X294223Y471029D01*
X294185Y471083D01*
X294149Y471139D01*
X294117Y471197D01*
X294088Y471257D01*
X294063Y471319D01*
X294042Y471382D01*
X294024Y471446D01*
X294011Y471511D01*
X294001Y471577D01*
X293995Y471643D01*
X293993Y471710D01*
D11*
X264369Y477661D02*
X264369Y507121D01*
X244709Y507121D01*
X244709Y477661D01*
X264369Y477661D01*
D14*
X244295Y487119D02*
X234897Y487119D01*
X244295Y487119D02*
X244295Y489730D01*
X244293Y489831D01*
X244287Y489932D01*
X244277Y490033D01*
X244264Y490133D01*
X244246Y490233D01*
X244225Y490332D01*
X244199Y490430D01*
X244170Y490527D01*
X244138Y490623D01*
X244101Y490717D01*
X244061Y490810D01*
X244017Y490902D01*
X243970Y490991D01*
X243919Y491079D01*
X243865Y491165D01*
X243808Y491248D01*
X243748Y491330D01*
X243684Y491408D01*
X243618Y491485D01*
X243548Y491558D01*
X243476Y491629D01*
X243401Y491697D01*
X243323Y491762D01*
X243243Y491824D01*
X243161Y491883D01*
X243076Y491939D01*
X242990Y491991D01*
X242901Y492040D01*
X242810Y492086D01*
X242718Y492127D01*
X242624Y492166D01*
X242529Y492200D01*
X242433Y492231D01*
X242335Y492258D01*
X242237Y492282D01*
X242137Y492301D01*
X242037Y492317D01*
X241937Y492329D01*
X241836Y492337D01*
X241735Y492341D01*
X241633Y492341D01*
X241532Y492337D01*
X241431Y492329D01*
X241331Y492317D01*
X241231Y492301D01*
X241131Y492282D01*
X241033Y492258D01*
X240935Y492231D01*
X240839Y492200D01*
X240744Y492166D01*
X240650Y492127D01*
X240558Y492086D01*
X240467Y492040D01*
X240379Y491991D01*
X240292Y491939D01*
X240207Y491883D01*
X240125Y491824D01*
X240045Y491762D01*
X239967Y491697D01*
X239892Y491629D01*
X239820Y491558D01*
X239750Y491485D01*
X239684Y491408D01*
X239620Y491330D01*
X239560Y491248D01*
X239503Y491165D01*
X239449Y491079D01*
X239398Y490991D01*
X239351Y490902D01*
X239307Y490810D01*
X239267Y490717D01*
X239230Y490623D01*
X239198Y490527D01*
X239169Y490430D01*
X239143Y490332D01*
X239122Y490233D01*
X239104Y490133D01*
X239091Y490033D01*
X239081Y489932D01*
X239075Y489831D01*
X239073Y489730D01*
X239073Y487119D01*
X239073Y490252D02*
X234897Y492340D01*
X242206Y496206D02*
X244295Y498817D01*
X234897Y498817D01*
X234897Y501427D02*
X234897Y496206D01*
D11*
X305584Y403727D02*
X305584Y374267D01*
X325244Y374267D01*
X325244Y403727D01*
X305584Y403727D01*
D14*
X326147Y383855D02*
X326147Y381767D01*
X326148Y381767D02*
X326150Y381678D01*
X326156Y381590D01*
X326165Y381502D01*
X326178Y381414D01*
X326195Y381327D01*
X326215Y381241D01*
X326240Y381156D01*
X326267Y381071D01*
X326299Y380988D01*
X326333Y380907D01*
X326372Y380827D01*
X326413Y380749D01*
X326458Y380672D01*
X326506Y380598D01*
X326557Y380525D01*
X326611Y380455D01*
X326669Y380388D01*
X326729Y380322D01*
X326791Y380260D01*
X326857Y380200D01*
X326924Y380142D01*
X326994Y380088D01*
X327067Y380037D01*
X327141Y379989D01*
X327218Y379944D01*
X327296Y379903D01*
X327376Y379864D01*
X327457Y379830D01*
X327540Y379798D01*
X327625Y379771D01*
X327710Y379746D01*
X327796Y379726D01*
X327883Y379709D01*
X327971Y379696D01*
X328059Y379687D01*
X328147Y379681D01*
X328236Y379679D01*
X333457Y379679D01*
X333548Y379681D01*
X333639Y379687D01*
X333730Y379697D01*
X333820Y379711D01*
X333909Y379728D01*
X333997Y379750D01*
X334085Y379776D01*
X334171Y379805D01*
X334256Y379838D01*
X334339Y379875D01*
X334421Y379915D01*
X334501Y379959D01*
X334579Y380006D01*
X334655Y380057D01*
X334728Y380110D01*
X334799Y380167D01*
X334868Y380228D01*
X334933Y380291D01*
X334996Y380356D01*
X335056Y380425D01*
X335114Y380496D01*
X335167Y380569D01*
X335218Y380645D01*
X335265Y380723D01*
X335309Y380803D01*
X335349Y380885D01*
X335386Y380968D01*
X335419Y381053D01*
X335448Y381139D01*
X335474Y381227D01*
X335496Y381315D01*
X335513Y381404D01*
X335527Y381494D01*
X335537Y381585D01*
X335543Y381676D01*
X335545Y381767D01*
X335545Y383855D01*
X333457Y387324D02*
X335545Y389935D01*
X326147Y389935D01*
X326147Y392545D02*
X326147Y387324D01*
D11*
X327292Y461990D02*
X297832Y461990D01*
X327292Y461990D02*
X327292Y481650D01*
X297832Y481650D01*
X297832Y461990D01*
D14*
X321632Y491505D02*
X323439Y491505D01*
X323522Y491507D01*
X323606Y491513D01*
X323689Y491522D01*
X323771Y491536D01*
X323852Y491553D01*
X323933Y491574D01*
X324013Y491599D01*
X324091Y491627D01*
X324168Y491659D01*
X324244Y491694D01*
X324318Y491733D01*
X324390Y491776D01*
X324460Y491821D01*
X324527Y491870D01*
X324593Y491922D01*
X324656Y491976D01*
X324716Y492034D01*
X324774Y492094D01*
X324828Y492157D01*
X324880Y492223D01*
X324929Y492290D01*
X324975Y492360D01*
X325017Y492432D01*
X325056Y492506D01*
X325091Y492582D01*
X325123Y492659D01*
X325151Y492737D01*
X325176Y492817D01*
X325197Y492898D01*
X325214Y492979D01*
X325228Y493062D01*
X325237Y493144D01*
X325243Y493228D01*
X325245Y493311D01*
X325245Y497827D01*
X325243Y497910D01*
X325237Y497994D01*
X325228Y498077D01*
X325214Y498159D01*
X325197Y498240D01*
X325176Y498321D01*
X325151Y498401D01*
X325123Y498479D01*
X325091Y498556D01*
X325056Y498632D01*
X325017Y498706D01*
X324975Y498778D01*
X324929Y498848D01*
X324880Y498915D01*
X324828Y498981D01*
X324774Y499044D01*
X324716Y499104D01*
X324656Y499162D01*
X324593Y499216D01*
X324527Y499268D01*
X324460Y499317D01*
X324390Y499362D01*
X324318Y499405D01*
X324244Y499444D01*
X324169Y499479D01*
X324091Y499511D01*
X324013Y499539D01*
X323933Y499564D01*
X323853Y499585D01*
X323771Y499602D01*
X323689Y499616D01*
X323606Y499625D01*
X323522Y499631D01*
X323439Y499633D01*
X321632Y499633D01*
X318553Y496020D02*
X315844Y496020D01*
X315761Y496018D01*
X315677Y496012D01*
X315594Y496003D01*
X315512Y495989D01*
X315431Y495972D01*
X315350Y495951D01*
X315270Y495926D01*
X315192Y495898D01*
X315115Y495866D01*
X315039Y495831D01*
X314965Y495792D01*
X314893Y495749D01*
X314823Y495704D01*
X314756Y495655D01*
X314690Y495603D01*
X314627Y495549D01*
X314567Y495491D01*
X314509Y495431D01*
X314455Y495368D01*
X314403Y495302D01*
X314354Y495235D01*
X314309Y495165D01*
X314266Y495093D01*
X314227Y495019D01*
X314192Y494944D01*
X314160Y494866D01*
X314132Y494788D01*
X314107Y494708D01*
X314086Y494628D01*
X314069Y494546D01*
X314055Y494464D01*
X314046Y494381D01*
X314040Y494297D01*
X314038Y494214D01*
X314038Y493763D01*
X314040Y493670D01*
X314046Y493577D01*
X314055Y493484D01*
X314069Y493391D01*
X314086Y493300D01*
X314107Y493209D01*
X314132Y493119D01*
X314160Y493030D01*
X314192Y492942D01*
X314228Y492856D01*
X314267Y492771D01*
X314310Y492688D01*
X314356Y492607D01*
X314406Y492528D01*
X314458Y492451D01*
X314514Y492376D01*
X314573Y492304D01*
X314635Y492234D01*
X314699Y492166D01*
X314767Y492102D01*
X314837Y492040D01*
X314909Y491981D01*
X314984Y491925D01*
X315061Y491873D01*
X315140Y491823D01*
X315221Y491777D01*
X315304Y491734D01*
X315389Y491695D01*
X315475Y491659D01*
X315563Y491627D01*
X315652Y491599D01*
X315742Y491574D01*
X315833Y491553D01*
X315924Y491536D01*
X316017Y491522D01*
X316110Y491513D01*
X316203Y491507D01*
X316296Y491505D01*
X316389Y491507D01*
X316482Y491513D01*
X316575Y491522D01*
X316668Y491536D01*
X316759Y491553D01*
X316850Y491574D01*
X316940Y491599D01*
X317029Y491627D01*
X317117Y491659D01*
X317203Y491695D01*
X317288Y491734D01*
X317371Y491777D01*
X317452Y491823D01*
X317531Y491873D01*
X317608Y491925D01*
X317683Y491981D01*
X317755Y492040D01*
X317825Y492102D01*
X317893Y492166D01*
X317957Y492234D01*
X318019Y492304D01*
X318078Y492376D01*
X318134Y492451D01*
X318186Y492528D01*
X318236Y492607D01*
X318282Y492688D01*
X318325Y492771D01*
X318364Y492856D01*
X318400Y492942D01*
X318432Y493030D01*
X318460Y493119D01*
X318485Y493209D01*
X318506Y493300D01*
X318523Y493391D01*
X318537Y493484D01*
X318546Y493577D01*
X318552Y493670D01*
X318554Y493763D01*
X318553Y493763D02*
X318553Y496020D01*
X318551Y496138D01*
X318545Y496256D01*
X318536Y496374D01*
X318522Y496491D01*
X318505Y496608D01*
X318484Y496725D01*
X318459Y496840D01*
X318430Y496955D01*
X318397Y497069D01*
X318361Y497181D01*
X318321Y497292D01*
X318278Y497402D01*
X318231Y497511D01*
X318181Y497618D01*
X318126Y497723D01*
X318069Y497826D01*
X318008Y497927D01*
X317944Y498027D01*
X317877Y498124D01*
X317807Y498219D01*
X317733Y498311D01*
X317657Y498402D01*
X317577Y498489D01*
X317495Y498574D01*
X317410Y498656D01*
X317323Y498736D01*
X317232Y498812D01*
X317140Y498886D01*
X317045Y498956D01*
X316948Y499023D01*
X316848Y499087D01*
X316747Y499148D01*
X316644Y499205D01*
X316539Y499260D01*
X316432Y499310D01*
X316323Y499357D01*
X316213Y499400D01*
X316102Y499440D01*
X315990Y499476D01*
X315876Y499509D01*
X315761Y499538D01*
X315646Y499563D01*
X315529Y499584D01*
X315412Y499601D01*
X315295Y499615D01*
X315177Y499624D01*
X315059Y499630D01*
X314941Y499632D01*
D11*
X328088Y442732D02*
X298628Y442732D01*
X328088Y442732D02*
X328088Y462392D01*
X298628Y462392D01*
X298628Y442732D01*
D14*
X321795Y481843D02*
X323602Y481843D01*
X323685Y481845D01*
X323769Y481851D01*
X323852Y481860D01*
X323934Y481874D01*
X324015Y481891D01*
X324096Y481912D01*
X324176Y481937D01*
X324254Y481965D01*
X324331Y481997D01*
X324407Y482032D01*
X324481Y482071D01*
X324553Y482114D01*
X324623Y482159D01*
X324690Y482208D01*
X324756Y482260D01*
X324819Y482314D01*
X324879Y482372D01*
X324937Y482432D01*
X324991Y482495D01*
X325043Y482561D01*
X325092Y482628D01*
X325138Y482698D01*
X325180Y482770D01*
X325219Y482844D01*
X325254Y482920D01*
X325286Y482997D01*
X325314Y483075D01*
X325339Y483155D01*
X325360Y483236D01*
X325377Y483317D01*
X325391Y483400D01*
X325400Y483482D01*
X325406Y483566D01*
X325408Y483649D01*
X325408Y488164D01*
X325407Y488164D02*
X325405Y488247D01*
X325399Y488331D01*
X325390Y488414D01*
X325376Y488496D01*
X325359Y488577D01*
X325338Y488658D01*
X325313Y488738D01*
X325285Y488816D01*
X325253Y488893D01*
X325218Y488969D01*
X325179Y489043D01*
X325137Y489115D01*
X325091Y489185D01*
X325042Y489252D01*
X324990Y489318D01*
X324936Y489381D01*
X324878Y489441D01*
X324818Y489499D01*
X324755Y489553D01*
X324689Y489605D01*
X324622Y489654D01*
X324552Y489699D01*
X324480Y489742D01*
X324406Y489781D01*
X324331Y489816D01*
X324253Y489848D01*
X324175Y489876D01*
X324095Y489901D01*
X324015Y489922D01*
X323933Y489939D01*
X323851Y489953D01*
X323768Y489962D01*
X323684Y489968D01*
X323601Y489970D01*
X323602Y489971D02*
X321795Y489971D01*
X316910Y489971D02*
X318716Y483649D01*
X314201Y483649D01*
X315555Y485455D02*
X315555Y481843D01*
D11*
X327049Y463584D02*
X327049Y503044D01*
X346709Y503044D02*
X346709Y463584D01*
X346709Y503044D02*
X327049Y503044D01*
X327049Y463584D02*
X346709Y463584D01*
D12*
X347052Y506644D02*
X326922Y506644D01*
D14*
X318764Y505049D02*
X318764Y503412D01*
X318766Y503334D01*
X318771Y503256D01*
X318781Y503179D01*
X318794Y503102D01*
X318810Y503026D01*
X318830Y502951D01*
X318854Y502877D01*
X318881Y502804D01*
X318912Y502732D01*
X318946Y502662D01*
X318983Y502594D01*
X319024Y502527D01*
X319068Y502462D01*
X319114Y502400D01*
X319164Y502340D01*
X319216Y502282D01*
X319271Y502227D01*
X319329Y502175D01*
X319389Y502125D01*
X319451Y502079D01*
X319516Y502035D01*
X319583Y501994D01*
X319651Y501957D01*
X319721Y501923D01*
X319793Y501892D01*
X319866Y501865D01*
X319940Y501841D01*
X320015Y501821D01*
X320091Y501805D01*
X320168Y501792D01*
X320245Y501782D01*
X320323Y501777D01*
X320401Y501775D01*
X320401Y501776D02*
X324493Y501776D01*
X324493Y501775D02*
X324571Y501777D01*
X324649Y501782D01*
X324726Y501792D01*
X324803Y501805D01*
X324879Y501821D01*
X324954Y501841D01*
X325028Y501865D01*
X325101Y501892D01*
X325173Y501923D01*
X325243Y501957D01*
X325312Y501994D01*
X325378Y502035D01*
X325443Y502079D01*
X325505Y502125D01*
X325565Y502175D01*
X325623Y502227D01*
X325678Y502282D01*
X325730Y502340D01*
X325780Y502400D01*
X325826Y502462D01*
X325870Y502527D01*
X325911Y502594D01*
X325948Y502662D01*
X325982Y502732D01*
X326013Y502804D01*
X326040Y502877D01*
X326064Y502951D01*
X326084Y503026D01*
X326100Y503102D01*
X326113Y503179D01*
X326123Y503256D01*
X326128Y503334D01*
X326130Y503412D01*
X326130Y505049D01*
X320810Y507895D02*
X320899Y507897D01*
X320988Y507903D01*
X321077Y507913D01*
X321165Y507926D01*
X321253Y507943D01*
X321340Y507965D01*
X321425Y507990D01*
X321510Y508018D01*
X321593Y508051D01*
X321675Y508087D01*
X321755Y508126D01*
X321833Y508169D01*
X321909Y508215D01*
X321984Y508265D01*
X322056Y508318D01*
X322125Y508374D01*
X322192Y508433D01*
X322257Y508494D01*
X322318Y508559D01*
X322377Y508626D01*
X322433Y508695D01*
X322486Y508767D01*
X322536Y508842D01*
X322582Y508918D01*
X322625Y508996D01*
X322664Y509076D01*
X322700Y509158D01*
X322733Y509241D01*
X322761Y509326D01*
X322786Y509411D01*
X322808Y509498D01*
X322825Y509586D01*
X322838Y509674D01*
X322848Y509763D01*
X322854Y509852D01*
X322856Y509941D01*
X322854Y510030D01*
X322848Y510119D01*
X322838Y510208D01*
X322825Y510296D01*
X322808Y510384D01*
X322786Y510471D01*
X322761Y510556D01*
X322733Y510641D01*
X322700Y510724D01*
X322664Y510806D01*
X322625Y510886D01*
X322582Y510964D01*
X322536Y511040D01*
X322486Y511115D01*
X322433Y511187D01*
X322377Y511256D01*
X322318Y511323D01*
X322257Y511388D01*
X322192Y511449D01*
X322125Y511508D01*
X322056Y511564D01*
X321984Y511617D01*
X321909Y511667D01*
X321833Y511713D01*
X321755Y511756D01*
X321675Y511795D01*
X321593Y511831D01*
X321510Y511864D01*
X321425Y511892D01*
X321340Y511917D01*
X321253Y511939D01*
X321165Y511956D01*
X321077Y511969D01*
X320988Y511979D01*
X320899Y511985D01*
X320810Y511987D01*
X320721Y511985D01*
X320632Y511979D01*
X320543Y511969D01*
X320455Y511956D01*
X320367Y511939D01*
X320280Y511917D01*
X320195Y511892D01*
X320110Y511864D01*
X320027Y511831D01*
X319945Y511795D01*
X319865Y511756D01*
X319787Y511713D01*
X319711Y511667D01*
X319636Y511617D01*
X319564Y511564D01*
X319495Y511508D01*
X319428Y511449D01*
X319363Y511388D01*
X319302Y511323D01*
X319243Y511256D01*
X319187Y511187D01*
X319134Y511115D01*
X319084Y511040D01*
X319038Y510964D01*
X318995Y510886D01*
X318956Y510806D01*
X318920Y510724D01*
X318887Y510641D01*
X318859Y510556D01*
X318834Y510471D01*
X318812Y510384D01*
X318795Y510296D01*
X318782Y510208D01*
X318772Y510119D01*
X318766Y510030D01*
X318764Y509941D01*
X318766Y509852D01*
X318772Y509763D01*
X318782Y509674D01*
X318795Y509586D01*
X318812Y509498D01*
X318834Y509411D01*
X318859Y509326D01*
X318887Y509241D01*
X318920Y509158D01*
X318956Y509076D01*
X318995Y508996D01*
X319038Y508918D01*
X319084Y508842D01*
X319134Y508767D01*
X319187Y508695D01*
X319243Y508626D01*
X319302Y508559D01*
X319363Y508494D01*
X319428Y508433D01*
X319495Y508374D01*
X319564Y508318D01*
X319636Y508265D01*
X319711Y508215D01*
X319787Y508169D01*
X319865Y508126D01*
X319945Y508087D01*
X320027Y508051D01*
X320110Y508018D01*
X320195Y507990D01*
X320280Y507965D01*
X320367Y507943D01*
X320455Y507926D01*
X320543Y507913D01*
X320632Y507903D01*
X320721Y507897D01*
X320810Y507895D01*
X324493Y508304D02*
X324572Y508306D01*
X324651Y508312D01*
X324730Y508321D01*
X324808Y508334D01*
X324885Y508352D01*
X324961Y508372D01*
X325036Y508397D01*
X325110Y508425D01*
X325183Y508456D01*
X325254Y508492D01*
X325323Y508530D01*
X325390Y508572D01*
X325455Y508617D01*
X325518Y508665D01*
X325579Y508716D01*
X325636Y508770D01*
X325692Y508826D01*
X325744Y508885D01*
X325794Y508947D01*
X325840Y509011D01*
X325884Y509077D01*
X325924Y509145D01*
X325960Y509215D01*
X325994Y509287D01*
X326024Y509361D01*
X326050Y509435D01*
X326073Y509511D01*
X326091Y509588D01*
X326107Y509665D01*
X326118Y509744D01*
X326126Y509822D01*
X326130Y509901D01*
X326130Y509981D01*
X326126Y510060D01*
X326118Y510138D01*
X326107Y510217D01*
X326091Y510294D01*
X326073Y510371D01*
X326050Y510447D01*
X326024Y510521D01*
X325994Y510595D01*
X325960Y510667D01*
X325924Y510737D01*
X325884Y510805D01*
X325840Y510871D01*
X325794Y510935D01*
X325744Y510997D01*
X325692Y511056D01*
X325636Y511112D01*
X325579Y511166D01*
X325518Y511217D01*
X325455Y511265D01*
X325390Y511310D01*
X325323Y511352D01*
X325254Y511390D01*
X325183Y511426D01*
X325110Y511457D01*
X325036Y511485D01*
X324961Y511510D01*
X324885Y511530D01*
X324808Y511548D01*
X324730Y511561D01*
X324651Y511570D01*
X324572Y511576D01*
X324493Y511578D01*
X324414Y511576D01*
X324335Y511570D01*
X324256Y511561D01*
X324178Y511548D01*
X324101Y511530D01*
X324025Y511510D01*
X323950Y511485D01*
X323876Y511457D01*
X323803Y511426D01*
X323732Y511390D01*
X323663Y511352D01*
X323596Y511310D01*
X323531Y511265D01*
X323468Y511217D01*
X323407Y511166D01*
X323350Y511112D01*
X323294Y511056D01*
X323242Y510997D01*
X323192Y510935D01*
X323146Y510871D01*
X323102Y510805D01*
X323062Y510737D01*
X323026Y510667D01*
X322992Y510595D01*
X322962Y510521D01*
X322936Y510447D01*
X322913Y510371D01*
X322895Y510294D01*
X322879Y510217D01*
X322868Y510138D01*
X322860Y510060D01*
X322856Y509981D01*
X322856Y509901D01*
X322860Y509822D01*
X322868Y509744D01*
X322879Y509665D01*
X322895Y509588D01*
X322913Y509511D01*
X322936Y509435D01*
X322962Y509361D01*
X322992Y509287D01*
X323026Y509215D01*
X323062Y509145D01*
X323102Y509077D01*
X323146Y509011D01*
X323192Y508947D01*
X323242Y508885D01*
X323294Y508826D01*
X323350Y508770D01*
X323407Y508716D01*
X323468Y508665D01*
X323531Y508617D01*
X323596Y508572D01*
X323663Y508530D01*
X323732Y508492D01*
X323803Y508456D01*
X323876Y508425D01*
X323950Y508397D01*
X324025Y508372D01*
X324101Y508352D01*
X324178Y508334D01*
X324256Y508321D01*
X324335Y508312D01*
X324414Y508306D01*
X324493Y508304D01*
D11*
X328720Y458054D02*
X328720Y418594D01*
X348380Y418594D02*
X348380Y458054D01*
X328720Y458054D01*
X328720Y418594D02*
X348380Y418594D01*
D12*
X348723Y461654D02*
X328594Y461654D01*
D14*
X344649Y407616D02*
X346738Y407616D01*
X346738Y407617D02*
X346827Y407619D01*
X346915Y407625D01*
X347003Y407634D01*
X347091Y407647D01*
X347178Y407664D01*
X347264Y407684D01*
X347349Y407709D01*
X347434Y407736D01*
X347517Y407768D01*
X347598Y407802D01*
X347678Y407841D01*
X347756Y407882D01*
X347833Y407927D01*
X347907Y407975D01*
X347980Y408026D01*
X348050Y408080D01*
X348117Y408138D01*
X348183Y408198D01*
X348245Y408260D01*
X348305Y408326D01*
X348363Y408393D01*
X348417Y408463D01*
X348468Y408536D01*
X348516Y408610D01*
X348561Y408687D01*
X348602Y408765D01*
X348641Y408845D01*
X348675Y408926D01*
X348707Y409009D01*
X348734Y409094D01*
X348759Y409179D01*
X348779Y409265D01*
X348796Y409352D01*
X348809Y409440D01*
X348818Y409528D01*
X348824Y409616D01*
X348826Y409705D01*
X348826Y414926D01*
X348824Y415015D01*
X348818Y415103D01*
X348809Y415191D01*
X348796Y415279D01*
X348779Y415366D01*
X348759Y415452D01*
X348734Y415537D01*
X348707Y415622D01*
X348675Y415705D01*
X348641Y415786D01*
X348602Y415866D01*
X348561Y415944D01*
X348516Y416021D01*
X348468Y416095D01*
X348417Y416168D01*
X348363Y416238D01*
X348305Y416305D01*
X348245Y416371D01*
X348183Y416433D01*
X348117Y416493D01*
X348050Y416551D01*
X347980Y416605D01*
X347907Y416656D01*
X347833Y416704D01*
X347756Y416749D01*
X347678Y416790D01*
X347598Y416829D01*
X347517Y416863D01*
X347434Y416895D01*
X347349Y416922D01*
X347264Y416947D01*
X347178Y416967D01*
X347091Y416984D01*
X347003Y416997D01*
X346915Y417006D01*
X346827Y417012D01*
X346738Y417014D01*
X344649Y417014D01*
X338309Y417015D02*
X338214Y417013D01*
X338120Y417007D01*
X338026Y416998D01*
X337932Y416985D01*
X337839Y416968D01*
X337747Y416947D01*
X337655Y416922D01*
X337565Y416894D01*
X337476Y416862D01*
X337388Y416827D01*
X337302Y416788D01*
X337217Y416746D01*
X337134Y416700D01*
X337053Y416651D01*
X336974Y416599D01*
X336897Y416544D01*
X336823Y416485D01*
X336751Y416424D01*
X336681Y416360D01*
X336614Y416293D01*
X336550Y416223D01*
X336489Y416151D01*
X336430Y416077D01*
X336375Y416000D01*
X336323Y415921D01*
X336274Y415840D01*
X336228Y415757D01*
X336186Y415672D01*
X336147Y415586D01*
X336112Y415498D01*
X336080Y415409D01*
X336052Y415319D01*
X336027Y415227D01*
X336006Y415135D01*
X335989Y415042D01*
X335976Y414948D01*
X335967Y414854D01*
X335961Y414760D01*
X335959Y414665D01*
X338309Y417014D02*
X338417Y417012D01*
X338526Y417006D01*
X338634Y416996D01*
X338741Y416983D01*
X338848Y416965D01*
X338955Y416944D01*
X339060Y416919D01*
X339165Y416890D01*
X339268Y416858D01*
X339370Y416821D01*
X339471Y416781D01*
X339570Y416738D01*
X339668Y416691D01*
X339764Y416640D01*
X339858Y416586D01*
X339950Y416529D01*
X340040Y416468D01*
X340128Y416404D01*
X340213Y416338D01*
X340296Y416268D01*
X340376Y416195D01*
X340454Y416119D01*
X340529Y416041D01*
X340601Y415960D01*
X340670Y415876D01*
X340736Y415790D01*
X340799Y415702D01*
X340858Y415611D01*
X340915Y415519D01*
X340968Y415424D01*
X341017Y415327D01*
X341063Y415229D01*
X341106Y415130D01*
X341145Y415028D01*
X341180Y414926D01*
X336742Y412837D02*
X336673Y412906D01*
X336607Y412977D01*
X336543Y413050D01*
X336482Y413126D01*
X336424Y413205D01*
X336370Y413285D01*
X336318Y413368D01*
X336270Y413452D01*
X336224Y413538D01*
X336183Y413626D01*
X336144Y413716D01*
X336109Y413807D01*
X336078Y413899D01*
X336050Y413992D01*
X336026Y414086D01*
X336006Y414181D01*
X335989Y414277D01*
X335976Y414374D01*
X335967Y414471D01*
X335961Y414568D01*
X335959Y414665D01*
X336743Y412837D02*
X341181Y407616D01*
X335960Y407616D01*
D12*
X371602Y470249D02*
X430022Y470249D01*
X430022Y464264D01*
X430022Y362807D02*
X371602Y362807D01*
X371602Y368792D01*
X371602Y464264D02*
X371602Y470249D01*
X430022Y368792D02*
X430022Y362807D01*
D15*
X350327Y370967D02*
X350329Y371040D01*
X350335Y371114D01*
X350345Y371186D01*
X350358Y371259D01*
X350376Y371330D01*
X350397Y371400D01*
X350423Y371469D01*
X350451Y371537D01*
X350484Y371603D01*
X350520Y371667D01*
X350559Y371729D01*
X350601Y371789D01*
X350647Y371846D01*
X350696Y371901D01*
X350747Y371954D01*
X350802Y372003D01*
X350859Y372050D01*
X350918Y372093D01*
X350979Y372133D01*
X351043Y372170D01*
X351109Y372203D01*
X351176Y372233D01*
X351244Y372259D01*
X351314Y372281D01*
X351385Y372300D01*
X351457Y372314D01*
X351530Y372325D01*
X351603Y372332D01*
X351677Y372335D01*
X351750Y372334D01*
X351823Y372329D01*
X351896Y372320D01*
X351969Y372307D01*
X352040Y372291D01*
X352111Y372270D01*
X352180Y372246D01*
X352248Y372218D01*
X352314Y372187D01*
X352379Y372152D01*
X352442Y372113D01*
X352502Y372072D01*
X352560Y372027D01*
X352616Y371979D01*
X352669Y371928D01*
X352719Y371874D01*
X352766Y371818D01*
X352810Y371759D01*
X352851Y371698D01*
X352889Y371635D01*
X352923Y371570D01*
X352954Y371503D01*
X352980Y371435D01*
X353004Y371365D01*
X353023Y371294D01*
X353039Y371223D01*
X353051Y371150D01*
X353059Y371077D01*
X353063Y371004D01*
X353063Y370930D01*
X353059Y370857D01*
X353051Y370784D01*
X353039Y370711D01*
X353023Y370640D01*
X353004Y370569D01*
X352980Y370499D01*
X352954Y370431D01*
X352923Y370364D01*
X352889Y370299D01*
X352851Y370236D01*
X352810Y370175D01*
X352766Y370116D01*
X352719Y370060D01*
X352669Y370006D01*
X352616Y369955D01*
X352560Y369907D01*
X352502Y369862D01*
X352442Y369821D01*
X352379Y369782D01*
X352314Y369747D01*
X352248Y369716D01*
X352180Y369688D01*
X352111Y369664D01*
X352040Y369643D01*
X351969Y369627D01*
X351896Y369614D01*
X351823Y369605D01*
X351750Y369600D01*
X351677Y369599D01*
X351603Y369602D01*
X351530Y369609D01*
X351457Y369620D01*
X351385Y369634D01*
X351314Y369653D01*
X351244Y369675D01*
X351176Y369701D01*
X351109Y369731D01*
X351043Y369764D01*
X350979Y369801D01*
X350918Y369841D01*
X350859Y369884D01*
X350802Y369931D01*
X350747Y369980D01*
X350696Y370033D01*
X350647Y370088D01*
X350601Y370145D01*
X350559Y370205D01*
X350520Y370267D01*
X350484Y370331D01*
X350451Y370397D01*
X350423Y370465D01*
X350397Y370534D01*
X350376Y370604D01*
X350358Y370675D01*
X350345Y370748D01*
X350335Y370820D01*
X350329Y370894D01*
X350327Y370967D01*
D16*
X452059Y388639D02*
X484059Y388639D01*
X484059Y438639D02*
X452059Y438639D01*
D17*
X452059Y388639D01*
X484059Y388639D02*
X484059Y438639D01*
D14*
X472758Y412461D02*
X463360Y406195D01*
X463360Y412461D02*
X472758Y406195D01*
X472758Y418733D02*
X472756Y418828D01*
X472750Y418922D01*
X472741Y419016D01*
X472728Y419110D01*
X472711Y419203D01*
X472690Y419295D01*
X472665Y419387D01*
X472637Y419477D01*
X472605Y419566D01*
X472570Y419654D01*
X472531Y419740D01*
X472489Y419825D01*
X472443Y419908D01*
X472394Y419989D01*
X472342Y420068D01*
X472287Y420145D01*
X472228Y420219D01*
X472167Y420291D01*
X472103Y420361D01*
X472036Y420428D01*
X471966Y420492D01*
X471894Y420553D01*
X471820Y420612D01*
X471743Y420667D01*
X471664Y420719D01*
X471583Y420768D01*
X471500Y420814D01*
X471415Y420856D01*
X471329Y420895D01*
X471241Y420930D01*
X471152Y420962D01*
X471062Y420990D01*
X470970Y421015D01*
X470878Y421036D01*
X470785Y421053D01*
X470691Y421066D01*
X470597Y421075D01*
X470503Y421081D01*
X470408Y421083D01*
X472757Y418733D02*
X472755Y418625D01*
X472749Y418516D01*
X472739Y418408D01*
X472726Y418301D01*
X472708Y418194D01*
X472687Y418087D01*
X472662Y417982D01*
X472633Y417877D01*
X472601Y417774D01*
X472564Y417672D01*
X472524Y417571D01*
X472481Y417472D01*
X472434Y417374D01*
X472383Y417278D01*
X472329Y417184D01*
X472272Y417092D01*
X472211Y417002D01*
X472147Y416914D01*
X472081Y416829D01*
X472011Y416746D01*
X471938Y416666D01*
X471862Y416588D01*
X471784Y416513D01*
X471703Y416441D01*
X471619Y416372D01*
X471533Y416306D01*
X471445Y416243D01*
X471354Y416184D01*
X471262Y416127D01*
X471167Y416074D01*
X471071Y416025D01*
X470972Y415979D01*
X470873Y415936D01*
X470771Y415897D01*
X470669Y415862D01*
X468580Y420300D02*
X468649Y420369D01*
X468720Y420435D01*
X468793Y420499D01*
X468869Y420560D01*
X468948Y420618D01*
X469028Y420672D01*
X469111Y420724D01*
X469195Y420772D01*
X469281Y420818D01*
X469369Y420859D01*
X469459Y420898D01*
X469550Y420933D01*
X469642Y420964D01*
X469735Y420992D01*
X469829Y421016D01*
X469924Y421036D01*
X470020Y421053D01*
X470117Y421066D01*
X470214Y421075D01*
X470311Y421081D01*
X470408Y421083D01*
X468581Y420299D02*
X463360Y415861D01*
X463360Y421083D01*
D11*
X423511Y521983D02*
X394051Y521983D01*
X423511Y521983D02*
X423511Y541643D01*
X394051Y541643D01*
X394051Y521983D01*
D14*
X424847Y525056D02*
X432213Y525056D01*
X432213Y528330D01*
X428939Y528330D02*
X428939Y525056D01*
X428939Y531498D02*
X428939Y533544D01*
X428937Y533633D01*
X428931Y533722D01*
X428921Y533811D01*
X428908Y533899D01*
X428891Y533987D01*
X428869Y534074D01*
X428844Y534159D01*
X428816Y534244D01*
X428783Y534327D01*
X428747Y534409D01*
X428708Y534489D01*
X428665Y534567D01*
X428619Y534643D01*
X428569Y534718D01*
X428516Y534790D01*
X428460Y534859D01*
X428401Y534926D01*
X428340Y534991D01*
X428275Y535052D01*
X428208Y535111D01*
X428139Y535167D01*
X428067Y535220D01*
X427992Y535270D01*
X427916Y535316D01*
X427838Y535359D01*
X427758Y535398D01*
X427676Y535434D01*
X427593Y535467D01*
X427508Y535495D01*
X427423Y535520D01*
X427336Y535542D01*
X427248Y535559D01*
X427160Y535572D01*
X427071Y535582D01*
X426982Y535588D01*
X426893Y535590D01*
X426804Y535588D01*
X426715Y535582D01*
X426626Y535572D01*
X426538Y535559D01*
X426450Y535542D01*
X426363Y535520D01*
X426278Y535495D01*
X426193Y535467D01*
X426110Y535434D01*
X426028Y535398D01*
X425948Y535359D01*
X425870Y535316D01*
X425794Y535270D01*
X425719Y535220D01*
X425647Y535167D01*
X425578Y535111D01*
X425511Y535052D01*
X425446Y534991D01*
X425385Y534926D01*
X425326Y534859D01*
X425270Y534790D01*
X425217Y534718D01*
X425167Y534643D01*
X425121Y534567D01*
X425078Y534489D01*
X425039Y534409D01*
X425003Y534327D01*
X424970Y534244D01*
X424942Y534159D01*
X424917Y534074D01*
X424895Y533987D01*
X424878Y533899D01*
X424865Y533811D01*
X424855Y533722D01*
X424849Y533633D01*
X424847Y533544D01*
X424847Y531498D01*
X432213Y531498D01*
X432213Y533544D01*
X432211Y533623D01*
X432205Y533702D01*
X432196Y533781D01*
X432183Y533859D01*
X432165Y533936D01*
X432145Y534012D01*
X432120Y534087D01*
X432092Y534161D01*
X432061Y534234D01*
X432025Y534305D01*
X431987Y534374D01*
X431945Y534441D01*
X431900Y534506D01*
X431852Y534569D01*
X431801Y534630D01*
X431747Y534687D01*
X431691Y534743D01*
X431632Y534795D01*
X431570Y534845D01*
X431506Y534891D01*
X431440Y534935D01*
X431372Y534975D01*
X431302Y535011D01*
X431230Y535045D01*
X431156Y535075D01*
X431082Y535101D01*
X431006Y535124D01*
X430929Y535142D01*
X430852Y535158D01*
X430773Y535169D01*
X430695Y535177D01*
X430616Y535181D01*
X430536Y535181D01*
X430457Y535177D01*
X430379Y535169D01*
X430300Y535158D01*
X430223Y535142D01*
X430146Y535124D01*
X430070Y535101D01*
X429996Y535075D01*
X429922Y535045D01*
X429850Y535011D01*
X429780Y534975D01*
X429712Y534935D01*
X429646Y534891D01*
X429582Y534845D01*
X429520Y534795D01*
X429461Y534743D01*
X429405Y534687D01*
X429351Y534630D01*
X429300Y534569D01*
X429252Y534506D01*
X429207Y534441D01*
X429165Y534374D01*
X429127Y534305D01*
X429091Y534234D01*
X429060Y534161D01*
X429032Y534087D01*
X429007Y534012D01*
X428987Y533936D01*
X428969Y533859D01*
X428956Y533781D01*
X428947Y533702D01*
X428941Y533623D01*
X428939Y533544D01*
X432213Y540703D02*
X432211Y540788D01*
X432205Y540873D01*
X432195Y540957D01*
X432182Y541041D01*
X432164Y541125D01*
X432143Y541207D01*
X432118Y541288D01*
X432089Y541368D01*
X432056Y541447D01*
X432020Y541524D01*
X431980Y541599D01*
X431937Y541673D01*
X431891Y541744D01*
X431841Y541813D01*
X431788Y541880D01*
X431732Y541944D01*
X431673Y542005D01*
X431612Y542064D01*
X431548Y542120D01*
X431481Y542173D01*
X431412Y542223D01*
X431341Y542269D01*
X431267Y542312D01*
X431192Y542352D01*
X431115Y542388D01*
X431036Y542421D01*
X430956Y542450D01*
X430875Y542475D01*
X430793Y542496D01*
X430709Y542514D01*
X430625Y542527D01*
X430541Y542537D01*
X430456Y542543D01*
X430371Y542545D01*
X432213Y540703D02*
X432211Y540607D01*
X432205Y540511D01*
X432195Y540416D01*
X432182Y540321D01*
X432164Y540226D01*
X432143Y540133D01*
X432118Y540040D01*
X432089Y539949D01*
X432057Y539858D01*
X432021Y539769D01*
X431981Y539682D01*
X431938Y539596D01*
X431892Y539512D01*
X431842Y539430D01*
X431788Y539350D01*
X431732Y539273D01*
X431672Y539198D01*
X431610Y539125D01*
X431544Y539055D01*
X431476Y538987D01*
X431405Y538922D01*
X431332Y538861D01*
X431256Y538802D01*
X431177Y538746D01*
X431097Y538694D01*
X431014Y538645D01*
X430930Y538599D01*
X430844Y538557D01*
X430756Y538519D01*
X430667Y538484D01*
X430576Y538452D01*
X428939Y541930D02*
X428998Y541990D01*
X429060Y542047D01*
X429124Y542102D01*
X429191Y542153D01*
X429260Y542202D01*
X429330Y542248D01*
X429403Y542291D01*
X429477Y542331D01*
X429553Y542367D01*
X429631Y542400D01*
X429710Y542430D01*
X429790Y542457D01*
X429871Y542480D01*
X429953Y542499D01*
X430035Y542515D01*
X430119Y542528D01*
X430203Y542537D01*
X430287Y542542D01*
X430371Y542544D01*
X428939Y541930D02*
X424847Y538452D01*
X424847Y542544D01*
D11*
X361186Y365854D02*
X312422Y365854D01*
X312422Y343250D01*
X361186Y343250D01*
X361186Y365854D01*
D12*
X365504Y366108D02*
X365504Y343504D01*
D14*
X345467Y366776D02*
X343379Y366776D01*
X345467Y366776D02*
X345556Y366778D01*
X345644Y366784D01*
X345732Y366793D01*
X345820Y366806D01*
X345907Y366823D01*
X345993Y366843D01*
X346078Y366868D01*
X346163Y366895D01*
X346246Y366927D01*
X346327Y366961D01*
X346407Y367000D01*
X346485Y367041D01*
X346562Y367086D01*
X346636Y367134D01*
X346709Y367185D01*
X346779Y367239D01*
X346846Y367297D01*
X346912Y367357D01*
X346974Y367419D01*
X347034Y367485D01*
X347092Y367552D01*
X347146Y367622D01*
X347197Y367695D01*
X347245Y367769D01*
X347290Y367846D01*
X347331Y367924D01*
X347370Y368004D01*
X347404Y368085D01*
X347436Y368168D01*
X347463Y368253D01*
X347488Y368338D01*
X347508Y368424D01*
X347525Y368511D01*
X347538Y368599D01*
X347547Y368687D01*
X347553Y368775D01*
X347555Y368864D01*
X347555Y374086D01*
X347553Y374175D01*
X347547Y374263D01*
X347538Y374351D01*
X347525Y374439D01*
X347508Y374526D01*
X347488Y374612D01*
X347463Y374697D01*
X347436Y374782D01*
X347404Y374865D01*
X347370Y374946D01*
X347331Y375026D01*
X347290Y375104D01*
X347245Y375181D01*
X347197Y375255D01*
X347146Y375328D01*
X347092Y375398D01*
X347034Y375465D01*
X346974Y375531D01*
X346912Y375593D01*
X346846Y375653D01*
X346779Y375711D01*
X346709Y375765D01*
X346636Y375816D01*
X346562Y375864D01*
X346485Y375909D01*
X346407Y375950D01*
X346327Y375989D01*
X346246Y376023D01*
X346163Y376055D01*
X346078Y376082D01*
X345993Y376107D01*
X345907Y376127D01*
X345820Y376144D01*
X345732Y376157D01*
X345644Y376166D01*
X345556Y376172D01*
X345467Y376174D01*
X343379Y376174D01*
X339910Y374086D02*
X337299Y376174D01*
X337299Y366776D01*
X334689Y366776D02*
X339910Y366776D01*
X327894Y376175D02*
X327799Y376173D01*
X327705Y376167D01*
X327611Y376158D01*
X327517Y376145D01*
X327424Y376128D01*
X327332Y376107D01*
X327240Y376082D01*
X327150Y376054D01*
X327061Y376022D01*
X326973Y375987D01*
X326887Y375948D01*
X326802Y375906D01*
X326719Y375860D01*
X326638Y375811D01*
X326559Y375759D01*
X326482Y375704D01*
X326408Y375645D01*
X326336Y375584D01*
X326266Y375520D01*
X326199Y375453D01*
X326135Y375383D01*
X326074Y375311D01*
X326015Y375237D01*
X325960Y375160D01*
X325908Y375081D01*
X325859Y375000D01*
X325813Y374917D01*
X325771Y374832D01*
X325732Y374746D01*
X325697Y374658D01*
X325665Y374569D01*
X325637Y374479D01*
X325612Y374387D01*
X325591Y374295D01*
X325574Y374202D01*
X325561Y374108D01*
X325552Y374014D01*
X325546Y373920D01*
X325544Y373825D01*
X327894Y376174D02*
X328002Y376172D01*
X328111Y376166D01*
X328219Y376156D01*
X328326Y376143D01*
X328433Y376125D01*
X328540Y376104D01*
X328645Y376079D01*
X328750Y376050D01*
X328853Y376018D01*
X328955Y375981D01*
X329056Y375941D01*
X329155Y375898D01*
X329253Y375851D01*
X329349Y375800D01*
X329443Y375746D01*
X329535Y375689D01*
X329625Y375628D01*
X329713Y375564D01*
X329798Y375498D01*
X329881Y375428D01*
X329961Y375355D01*
X330039Y375279D01*
X330114Y375201D01*
X330186Y375120D01*
X330255Y375036D01*
X330321Y374950D01*
X330384Y374862D01*
X330443Y374771D01*
X330500Y374679D01*
X330553Y374584D01*
X330602Y374487D01*
X330648Y374389D01*
X330691Y374290D01*
X330730Y374188D01*
X330765Y374086D01*
X326327Y371997D02*
X326258Y372066D01*
X326192Y372137D01*
X326128Y372210D01*
X326067Y372286D01*
X326009Y372365D01*
X325955Y372445D01*
X325903Y372528D01*
X325855Y372612D01*
X325809Y372698D01*
X325768Y372786D01*
X325729Y372876D01*
X325694Y372967D01*
X325663Y373059D01*
X325635Y373152D01*
X325611Y373246D01*
X325591Y373341D01*
X325574Y373437D01*
X325561Y373534D01*
X325552Y373631D01*
X325546Y373728D01*
X325544Y373825D01*
X326328Y371997D02*
X330766Y366776D01*
X325545Y366776D01*
D11*
X448820Y463061D02*
X478280Y463061D01*
X448820Y463061D02*
X448820Y443401D01*
X478280Y443401D01*
X478280Y463061D01*
D14*
X471057Y463931D02*
X469420Y463931D01*
X471057Y463931D02*
X471135Y463933D01*
X471213Y463938D01*
X471290Y463948D01*
X471367Y463961D01*
X471443Y463977D01*
X471518Y463997D01*
X471592Y464021D01*
X471665Y464048D01*
X471737Y464079D01*
X471807Y464113D01*
X471876Y464150D01*
X471942Y464191D01*
X472007Y464235D01*
X472069Y464281D01*
X472129Y464331D01*
X472187Y464383D01*
X472242Y464438D01*
X472294Y464496D01*
X472344Y464556D01*
X472390Y464618D01*
X472434Y464683D01*
X472475Y464750D01*
X472512Y464818D01*
X472546Y464888D01*
X472577Y464960D01*
X472604Y465033D01*
X472628Y465107D01*
X472648Y465182D01*
X472664Y465258D01*
X472677Y465335D01*
X472687Y465412D01*
X472692Y465490D01*
X472694Y465568D01*
X472694Y469660D01*
X472692Y469738D01*
X472687Y469816D01*
X472677Y469893D01*
X472664Y469970D01*
X472648Y470046D01*
X472628Y470121D01*
X472604Y470195D01*
X472577Y470268D01*
X472546Y470340D01*
X472512Y470410D01*
X472475Y470479D01*
X472434Y470545D01*
X472390Y470610D01*
X472344Y470672D01*
X472294Y470732D01*
X472242Y470790D01*
X472187Y470845D01*
X472129Y470897D01*
X472069Y470947D01*
X472007Y470993D01*
X471942Y471037D01*
X471876Y471078D01*
X471807Y471115D01*
X471737Y471149D01*
X471665Y471180D01*
X471592Y471207D01*
X471518Y471231D01*
X471443Y471251D01*
X471367Y471267D01*
X471290Y471280D01*
X471213Y471290D01*
X471135Y471295D01*
X471057Y471297D01*
X469420Y471297D01*
X466575Y469660D02*
X464529Y471297D01*
X464529Y463931D01*
X466575Y463931D02*
X462483Y463931D01*
X457623Y467205D02*
X455168Y467205D01*
X457623Y467205D02*
X457701Y467207D01*
X457779Y467212D01*
X457856Y467222D01*
X457933Y467235D01*
X458009Y467251D01*
X458084Y467271D01*
X458158Y467295D01*
X458231Y467322D01*
X458303Y467353D01*
X458373Y467387D01*
X458442Y467424D01*
X458508Y467465D01*
X458573Y467509D01*
X458635Y467555D01*
X458695Y467605D01*
X458753Y467657D01*
X458808Y467712D01*
X458860Y467770D01*
X458910Y467830D01*
X458956Y467892D01*
X459000Y467957D01*
X459041Y468024D01*
X459078Y468092D01*
X459112Y468162D01*
X459143Y468234D01*
X459170Y468307D01*
X459194Y468381D01*
X459214Y468456D01*
X459230Y468532D01*
X459243Y468609D01*
X459253Y468686D01*
X459258Y468764D01*
X459260Y468842D01*
X459260Y469251D01*
X459258Y469340D01*
X459252Y469429D01*
X459242Y469518D01*
X459229Y469606D01*
X459212Y469694D01*
X459190Y469781D01*
X459165Y469866D01*
X459137Y469951D01*
X459104Y470034D01*
X459068Y470116D01*
X459029Y470196D01*
X458986Y470274D01*
X458940Y470350D01*
X458890Y470425D01*
X458837Y470497D01*
X458781Y470566D01*
X458722Y470633D01*
X458661Y470698D01*
X458596Y470759D01*
X458529Y470818D01*
X458460Y470874D01*
X458388Y470927D01*
X458313Y470977D01*
X458237Y471023D01*
X458159Y471066D01*
X458079Y471105D01*
X457997Y471141D01*
X457914Y471174D01*
X457829Y471202D01*
X457744Y471227D01*
X457657Y471249D01*
X457569Y471266D01*
X457481Y471279D01*
X457392Y471289D01*
X457303Y471295D01*
X457214Y471297D01*
X457125Y471295D01*
X457036Y471289D01*
X456947Y471279D01*
X456859Y471266D01*
X456771Y471249D01*
X456684Y471227D01*
X456599Y471202D01*
X456514Y471174D01*
X456431Y471141D01*
X456349Y471105D01*
X456269Y471066D01*
X456191Y471023D01*
X456115Y470977D01*
X456040Y470927D01*
X455968Y470874D01*
X455899Y470818D01*
X455832Y470759D01*
X455767Y470698D01*
X455706Y470633D01*
X455647Y470566D01*
X455591Y470497D01*
X455538Y470425D01*
X455488Y470350D01*
X455442Y470274D01*
X455399Y470196D01*
X455360Y470116D01*
X455324Y470034D01*
X455291Y469951D01*
X455263Y469866D01*
X455238Y469781D01*
X455216Y469694D01*
X455199Y469606D01*
X455186Y469518D01*
X455176Y469429D01*
X455170Y469340D01*
X455168Y469251D01*
X455168Y467205D01*
X455167Y467205D02*
X455169Y467093D01*
X455175Y466982D01*
X455184Y466870D01*
X455197Y466759D01*
X455215Y466649D01*
X455235Y466539D01*
X455260Y466430D01*
X455288Y466322D01*
X455320Y466215D01*
X455356Y466109D01*
X455395Y466004D01*
X455438Y465901D01*
X455484Y465799D01*
X455534Y465699D01*
X455587Y465600D01*
X455644Y465504D01*
X455703Y465409D01*
X455766Y465317D01*
X455832Y465227D01*
X455901Y465139D01*
X455973Y465053D01*
X456048Y464970D01*
X456126Y464890D01*
X456206Y464812D01*
X456289Y464737D01*
X456375Y464665D01*
X456463Y464596D01*
X456553Y464530D01*
X456645Y464467D01*
X456740Y464408D01*
X456836Y464351D01*
X456935Y464298D01*
X457035Y464248D01*
X457137Y464202D01*
X457240Y464159D01*
X457345Y464120D01*
X457451Y464084D01*
X457558Y464052D01*
X457666Y464024D01*
X457775Y463999D01*
X457885Y463979D01*
X457995Y463961D01*
X458106Y463948D01*
X458218Y463939D01*
X458329Y463933D01*
X458441Y463931D01*
D11*
X433830Y341008D02*
X404370Y341008D01*
X433830Y341008D02*
X433830Y360668D01*
X404370Y360668D01*
X404370Y341008D01*
D14*
X401549Y347250D02*
X399461Y347250D01*
X401549Y347250D02*
X401638Y347252D01*
X401726Y347258D01*
X401814Y347267D01*
X401902Y347280D01*
X401989Y347297D01*
X402075Y347317D01*
X402160Y347342D01*
X402245Y347369D01*
X402328Y347401D01*
X402409Y347435D01*
X402489Y347474D01*
X402567Y347515D01*
X402644Y347560D01*
X402718Y347608D01*
X402791Y347659D01*
X402861Y347713D01*
X402928Y347771D01*
X402994Y347831D01*
X403056Y347893D01*
X403116Y347959D01*
X403174Y348026D01*
X403228Y348096D01*
X403279Y348169D01*
X403327Y348243D01*
X403372Y348320D01*
X403413Y348398D01*
X403452Y348478D01*
X403486Y348559D01*
X403518Y348642D01*
X403545Y348727D01*
X403570Y348812D01*
X403590Y348898D01*
X403607Y348985D01*
X403620Y349073D01*
X403629Y349161D01*
X403635Y349249D01*
X403637Y349338D01*
X403638Y349338D02*
X403638Y354559D01*
X403637Y354559D02*
X403635Y354648D01*
X403629Y354736D01*
X403620Y354824D01*
X403607Y354912D01*
X403590Y354999D01*
X403570Y355085D01*
X403545Y355170D01*
X403518Y355255D01*
X403486Y355338D01*
X403452Y355419D01*
X403413Y355499D01*
X403372Y355577D01*
X403327Y355654D01*
X403279Y355728D01*
X403228Y355801D01*
X403174Y355871D01*
X403116Y355938D01*
X403056Y356004D01*
X402994Y356066D01*
X402928Y356126D01*
X402861Y356184D01*
X402791Y356238D01*
X402718Y356289D01*
X402644Y356337D01*
X402567Y356382D01*
X402489Y356423D01*
X402409Y356462D01*
X402328Y356496D01*
X402245Y356528D01*
X402160Y356555D01*
X402075Y356580D01*
X401989Y356600D01*
X401902Y356617D01*
X401814Y356630D01*
X401726Y356639D01*
X401638Y356645D01*
X401549Y356647D01*
X401549Y356648D02*
X399461Y356648D01*
X395992Y354559D02*
X393382Y356648D01*
X393382Y347250D01*
X395992Y347250D02*
X390771Y347250D01*
X386848Y349338D02*
X384760Y356648D01*
X386848Y349338D02*
X381627Y349338D01*
X383193Y351427D02*
X383193Y347250D01*
D11*
X411514Y480708D02*
X440974Y480708D01*
X440974Y500368D01*
X411514Y500368D01*
X411514Y480708D01*
D14*
X431759Y470440D02*
X433847Y470440D01*
X433936Y470442D01*
X434024Y470448D01*
X434112Y470457D01*
X434200Y470470D01*
X434287Y470487D01*
X434373Y470507D01*
X434458Y470532D01*
X434543Y470559D01*
X434626Y470591D01*
X434707Y470625D01*
X434787Y470664D01*
X434865Y470705D01*
X434942Y470750D01*
X435016Y470798D01*
X435089Y470849D01*
X435159Y470903D01*
X435226Y470961D01*
X435292Y471021D01*
X435354Y471083D01*
X435414Y471149D01*
X435472Y471216D01*
X435526Y471286D01*
X435577Y471359D01*
X435625Y471433D01*
X435670Y471510D01*
X435711Y471588D01*
X435750Y471668D01*
X435784Y471749D01*
X435816Y471832D01*
X435843Y471917D01*
X435868Y472002D01*
X435888Y472088D01*
X435905Y472175D01*
X435918Y472263D01*
X435927Y472351D01*
X435933Y472439D01*
X435935Y472528D01*
X435936Y472528D02*
X435936Y477749D01*
X435935Y477749D02*
X435933Y477838D01*
X435927Y477926D01*
X435918Y478014D01*
X435905Y478102D01*
X435888Y478189D01*
X435868Y478275D01*
X435843Y478360D01*
X435816Y478445D01*
X435784Y478528D01*
X435750Y478609D01*
X435711Y478689D01*
X435670Y478767D01*
X435625Y478844D01*
X435577Y478918D01*
X435526Y478991D01*
X435472Y479061D01*
X435414Y479128D01*
X435354Y479194D01*
X435292Y479256D01*
X435226Y479316D01*
X435159Y479374D01*
X435089Y479428D01*
X435016Y479479D01*
X434942Y479527D01*
X434865Y479572D01*
X434787Y479613D01*
X434707Y479652D01*
X434626Y479686D01*
X434543Y479718D01*
X434458Y479745D01*
X434373Y479770D01*
X434287Y479790D01*
X434200Y479807D01*
X434112Y479820D01*
X434024Y479829D01*
X433936Y479835D01*
X433847Y479837D01*
X433847Y479838D02*
X431759Y479838D01*
X428290Y477749D02*
X425679Y479838D01*
X425679Y470440D01*
X423069Y470440D02*
X428290Y470440D01*
X419146Y470440D02*
X416535Y470440D01*
X416535Y470439D02*
X416434Y470441D01*
X416333Y470447D01*
X416232Y470457D01*
X416132Y470470D01*
X416032Y470488D01*
X415933Y470509D01*
X415835Y470535D01*
X415738Y470564D01*
X415642Y470596D01*
X415548Y470633D01*
X415455Y470673D01*
X415363Y470717D01*
X415274Y470764D01*
X415186Y470815D01*
X415100Y470869D01*
X415017Y470926D01*
X414935Y470986D01*
X414857Y471050D01*
X414780Y471116D01*
X414707Y471186D01*
X414636Y471258D01*
X414568Y471333D01*
X414503Y471411D01*
X414441Y471491D01*
X414382Y471573D01*
X414326Y471658D01*
X414274Y471745D01*
X414225Y471833D01*
X414179Y471924D01*
X414138Y472016D01*
X414099Y472110D01*
X414065Y472205D01*
X414034Y472301D01*
X414007Y472399D01*
X413983Y472497D01*
X413964Y472597D01*
X413948Y472697D01*
X413936Y472797D01*
X413928Y472898D01*
X413924Y472999D01*
X413924Y473101D01*
X413928Y473202D01*
X413936Y473303D01*
X413948Y473403D01*
X413964Y473503D01*
X413983Y473603D01*
X414007Y473701D01*
X414034Y473799D01*
X414065Y473895D01*
X414099Y473990D01*
X414138Y474084D01*
X414179Y474176D01*
X414225Y474267D01*
X414274Y474356D01*
X414326Y474442D01*
X414382Y474527D01*
X414441Y474609D01*
X414503Y474689D01*
X414568Y474767D01*
X414636Y474842D01*
X414707Y474914D01*
X414780Y474984D01*
X414857Y475050D01*
X414935Y475114D01*
X415017Y475174D01*
X415100Y475231D01*
X415186Y475285D01*
X415274Y475336D01*
X415363Y475383D01*
X415455Y475427D01*
X415548Y475467D01*
X415642Y475504D01*
X415738Y475536D01*
X415835Y475565D01*
X415933Y475591D01*
X416032Y475612D01*
X416132Y475630D01*
X416232Y475643D01*
X416333Y475653D01*
X416434Y475659D01*
X416535Y475661D01*
X416013Y479838D02*
X419146Y479838D01*
X416013Y479837D02*
X415923Y479835D01*
X415834Y479829D01*
X415744Y479820D01*
X415655Y479806D01*
X415567Y479789D01*
X415480Y479768D01*
X415393Y479743D01*
X415308Y479714D01*
X415224Y479682D01*
X415142Y479647D01*
X415061Y479607D01*
X414982Y479565D01*
X414905Y479519D01*
X414830Y479469D01*
X414757Y479417D01*
X414686Y479361D01*
X414618Y479303D01*
X414553Y479241D01*
X414490Y479177D01*
X414430Y479110D01*
X414373Y479041D01*
X414319Y478969D01*
X414268Y478895D01*
X414220Y478819D01*
X414176Y478741D01*
X414135Y478661D01*
X414097Y478579D01*
X414063Y478496D01*
X414033Y478411D01*
X414006Y478325D01*
X413983Y478239D01*
X413964Y478151D01*
X413949Y478062D01*
X413937Y477973D01*
X413929Y477884D01*
X413925Y477794D01*
X413925Y477704D01*
X413929Y477614D01*
X413937Y477525D01*
X413949Y477436D01*
X413964Y477347D01*
X413983Y477259D01*
X414006Y477173D01*
X414033Y477087D01*
X414063Y477002D01*
X414097Y476919D01*
X414135Y476837D01*
X414176Y476757D01*
X414220Y476679D01*
X414268Y476603D01*
X414319Y476529D01*
X414373Y476457D01*
X414430Y476388D01*
X414490Y476321D01*
X414553Y476257D01*
X414618Y476195D01*
X414686Y476137D01*
X414757Y476081D01*
X414830Y476029D01*
X414905Y475979D01*
X414982Y475933D01*
X415061Y475891D01*
X415142Y475851D01*
X415224Y475816D01*
X415308Y475784D01*
X415393Y475755D01*
X415480Y475730D01*
X415567Y475709D01*
X415655Y475692D01*
X415744Y475678D01*
X415834Y475669D01*
X415923Y475663D01*
X416013Y475661D01*
X418102Y475661D01*
D11*
X402545Y321164D02*
X442005Y321164D01*
X442005Y340824D02*
X402545Y340824D01*
X402545Y321164D01*
X442005Y321164D02*
X442005Y340824D01*
D12*
X398945Y341166D02*
X398945Y321037D01*
D14*
X408527Y300873D02*
X408527Y298784D01*
X408528Y298784D02*
X408530Y298695D01*
X408536Y298607D01*
X408545Y298519D01*
X408558Y298431D01*
X408575Y298344D01*
X408595Y298258D01*
X408620Y298173D01*
X408647Y298088D01*
X408679Y298005D01*
X408713Y297924D01*
X408752Y297844D01*
X408793Y297766D01*
X408838Y297689D01*
X408886Y297615D01*
X408937Y297542D01*
X408991Y297472D01*
X409049Y297405D01*
X409109Y297339D01*
X409171Y297277D01*
X409237Y297217D01*
X409304Y297159D01*
X409374Y297105D01*
X409447Y297054D01*
X409521Y297006D01*
X409598Y296961D01*
X409676Y296920D01*
X409756Y296881D01*
X409837Y296847D01*
X409920Y296815D01*
X410005Y296788D01*
X410090Y296763D01*
X410176Y296743D01*
X410263Y296726D01*
X410351Y296713D01*
X410439Y296704D01*
X410527Y296698D01*
X410616Y296696D01*
X415837Y296696D01*
X415928Y296698D01*
X416019Y296704D01*
X416110Y296714D01*
X416200Y296728D01*
X416289Y296745D01*
X416377Y296767D01*
X416465Y296793D01*
X416551Y296822D01*
X416636Y296855D01*
X416719Y296892D01*
X416801Y296932D01*
X416881Y296976D01*
X416959Y297023D01*
X417035Y297074D01*
X417108Y297127D01*
X417179Y297184D01*
X417248Y297245D01*
X417313Y297308D01*
X417376Y297373D01*
X417436Y297442D01*
X417494Y297513D01*
X417547Y297586D01*
X417598Y297662D01*
X417645Y297740D01*
X417689Y297820D01*
X417729Y297902D01*
X417766Y297985D01*
X417799Y298070D01*
X417828Y298156D01*
X417854Y298244D01*
X417876Y298332D01*
X417893Y298421D01*
X417907Y298511D01*
X417917Y298602D01*
X417923Y298693D01*
X417925Y298784D01*
X417925Y300873D01*
X415837Y304341D02*
X417925Y306952D01*
X408527Y306952D01*
X408527Y304341D02*
X408527Y309563D01*
X416881Y313485D02*
X417925Y313485D01*
X417925Y318707D01*
X408527Y316096D01*
D11*
X371170Y511526D02*
X371170Y540986D01*
X371170Y511526D02*
X390830Y511526D01*
X390830Y540986D01*
X371170Y540986D01*
D14*
X392317Y541719D02*
X394406Y541719D01*
X394495Y541721D01*
X394583Y541727D01*
X394671Y541736D01*
X394759Y541749D01*
X394846Y541766D01*
X394932Y541786D01*
X395017Y541811D01*
X395102Y541838D01*
X395185Y541870D01*
X395266Y541904D01*
X395346Y541943D01*
X395424Y541984D01*
X395501Y542029D01*
X395575Y542077D01*
X395648Y542128D01*
X395718Y542182D01*
X395785Y542240D01*
X395851Y542300D01*
X395913Y542362D01*
X395973Y542428D01*
X396031Y542495D01*
X396085Y542565D01*
X396136Y542638D01*
X396184Y542712D01*
X396229Y542789D01*
X396270Y542867D01*
X396309Y542947D01*
X396343Y543028D01*
X396375Y543111D01*
X396402Y543196D01*
X396427Y543281D01*
X396447Y543367D01*
X396464Y543454D01*
X396477Y543542D01*
X396486Y543630D01*
X396492Y543718D01*
X396494Y543807D01*
X396494Y549028D01*
X396492Y549117D01*
X396486Y549205D01*
X396477Y549293D01*
X396464Y549381D01*
X396447Y549468D01*
X396427Y549554D01*
X396402Y549639D01*
X396375Y549724D01*
X396343Y549807D01*
X396309Y549888D01*
X396270Y549968D01*
X396229Y550046D01*
X396184Y550123D01*
X396136Y550197D01*
X396085Y550270D01*
X396031Y550340D01*
X395973Y550407D01*
X395913Y550473D01*
X395851Y550535D01*
X395785Y550595D01*
X395718Y550653D01*
X395648Y550707D01*
X395575Y550758D01*
X395501Y550806D01*
X395424Y550851D01*
X395346Y550892D01*
X395266Y550931D01*
X395185Y550965D01*
X395102Y550997D01*
X395017Y551024D01*
X394932Y551049D01*
X394846Y551069D01*
X394759Y551086D01*
X394671Y551099D01*
X394583Y551108D01*
X394495Y551114D01*
X394406Y551116D01*
X394406Y551117D02*
X392317Y551117D01*
X388848Y549028D02*
X386238Y551117D01*
X386238Y541719D01*
X388848Y541719D02*
X383627Y541719D01*
X379705Y546418D02*
X379703Y546603D01*
X379696Y546788D01*
X379685Y546972D01*
X379670Y547156D01*
X379650Y547340D01*
X379626Y547524D01*
X379597Y547706D01*
X379564Y547888D01*
X379527Y548069D01*
X379485Y548249D01*
X379439Y548429D01*
X379389Y548607D01*
X379335Y548783D01*
X379276Y548959D01*
X379214Y549133D01*
X379147Y549305D01*
X379076Y549476D01*
X379001Y549645D01*
X378922Y549812D01*
X378892Y549892D01*
X378859Y549971D01*
X378822Y550048D01*
X378782Y550124D01*
X378739Y550198D01*
X378693Y550270D01*
X378643Y550339D01*
X378591Y550407D01*
X378535Y550472D01*
X378477Y550535D01*
X378415Y550594D01*
X378352Y550652D01*
X378285Y550706D01*
X378217Y550757D01*
X378146Y550805D01*
X378073Y550850D01*
X377999Y550892D01*
X377922Y550930D01*
X377844Y550965D01*
X377765Y550997D01*
X377684Y551025D01*
X377602Y551049D01*
X377518Y551070D01*
X377435Y551087D01*
X377350Y551100D01*
X377265Y551109D01*
X377180Y551115D01*
X377094Y551117D01*
X377008Y551115D01*
X376923Y551109D01*
X376838Y551100D01*
X376753Y551087D01*
X376670Y551070D01*
X376586Y551049D01*
X376504Y551025D01*
X376424Y550997D01*
X376344Y550965D01*
X376266Y550930D01*
X376189Y550892D01*
X376115Y550850D01*
X376042Y550805D01*
X375971Y550757D01*
X375903Y550706D01*
X375836Y550652D01*
X375773Y550594D01*
X375712Y550535D01*
X375653Y550472D01*
X375598Y550407D01*
X375545Y550339D01*
X375495Y550270D01*
X375449Y550198D01*
X375406Y550124D01*
X375366Y550048D01*
X375329Y549971D01*
X375296Y549892D01*
X375266Y549812D01*
X375187Y549645D01*
X375112Y549476D01*
X375041Y549305D01*
X374974Y549133D01*
X374912Y548959D01*
X374853Y548783D01*
X374799Y548607D01*
X374749Y548429D01*
X374703Y548249D01*
X374661Y548069D01*
X374624Y547888D01*
X374591Y547706D01*
X374562Y547524D01*
X374538Y547340D01*
X374518Y547156D01*
X374503Y546972D01*
X374492Y546788D01*
X374485Y546603D01*
X374483Y546418D01*
X379704Y546418D02*
X379702Y546233D01*
X379695Y546048D01*
X379684Y545864D01*
X379669Y545680D01*
X379649Y545496D01*
X379625Y545312D01*
X379596Y545130D01*
X379563Y544948D01*
X379526Y544767D01*
X379484Y544587D01*
X379438Y544407D01*
X379388Y544229D01*
X379334Y544053D01*
X379275Y543877D01*
X379213Y543703D01*
X379146Y543531D01*
X379075Y543360D01*
X379000Y543191D01*
X378921Y543024D01*
X378922Y543023D02*
X378892Y542943D01*
X378859Y542864D01*
X378822Y542787D01*
X378782Y542711D01*
X378739Y542637D01*
X378693Y542565D01*
X378643Y542496D01*
X378590Y542428D01*
X378535Y542363D01*
X378476Y542300D01*
X378415Y542241D01*
X378352Y542183D01*
X378285Y542129D01*
X378217Y542078D01*
X378146Y542030D01*
X378073Y541985D01*
X377999Y541943D01*
X377922Y541905D01*
X377844Y541870D01*
X377765Y541838D01*
X377684Y541810D01*
X377602Y541786D01*
X377518Y541765D01*
X377435Y541748D01*
X377350Y541735D01*
X377265Y541726D01*
X377180Y541720D01*
X377094Y541718D01*
X375266Y543024D02*
X375187Y543191D01*
X375112Y543360D01*
X375041Y543531D01*
X374974Y543703D01*
X374912Y543877D01*
X374853Y544053D01*
X374799Y544229D01*
X374749Y544407D01*
X374703Y544587D01*
X374661Y544767D01*
X374624Y544948D01*
X374591Y545130D01*
X374562Y545312D01*
X374538Y545496D01*
X374518Y545680D01*
X374503Y545864D01*
X374492Y546048D01*
X374485Y546233D01*
X374483Y546418D01*
X375266Y543023D02*
X375296Y542943D01*
X375329Y542864D01*
X375366Y542787D01*
X375406Y542711D01*
X375449Y542637D01*
X375495Y542565D01*
X375545Y542496D01*
X375598Y542428D01*
X375653Y542363D01*
X375712Y542300D01*
X375773Y542241D01*
X375836Y542183D01*
X375903Y542129D01*
X375971Y542078D01*
X376042Y542030D01*
X376115Y541985D01*
X376189Y541943D01*
X376266Y541905D01*
X376344Y541870D01*
X376424Y541838D01*
X376504Y541810D01*
X376586Y541786D01*
X376670Y541765D01*
X376753Y541748D01*
X376838Y541735D01*
X376923Y541726D01*
X377008Y541720D01*
X377094Y541718D01*
X379182Y543807D02*
X375005Y549028D01*
D11*
X376589Y502749D02*
X406049Y502749D01*
X376589Y502749D02*
X376589Y483089D01*
X406049Y483089D01*
X406049Y502749D01*
D14*
X398864Y483013D02*
X398864Y473615D01*
X398864Y483013D02*
X396253Y483013D01*
X396152Y483011D01*
X396051Y483005D01*
X395950Y482995D01*
X395850Y482982D01*
X395750Y482964D01*
X395651Y482943D01*
X395553Y482917D01*
X395456Y482888D01*
X395360Y482856D01*
X395266Y482819D01*
X395173Y482779D01*
X395081Y482735D01*
X394992Y482688D01*
X394904Y482637D01*
X394818Y482583D01*
X394735Y482526D01*
X394653Y482466D01*
X394575Y482402D01*
X394498Y482336D01*
X394425Y482266D01*
X394354Y482194D01*
X394286Y482119D01*
X394221Y482041D01*
X394159Y481961D01*
X394100Y481879D01*
X394044Y481794D01*
X393992Y481708D01*
X393943Y481619D01*
X393897Y481528D01*
X393856Y481436D01*
X393817Y481342D01*
X393783Y481247D01*
X393752Y481151D01*
X393725Y481053D01*
X393701Y480955D01*
X393682Y480855D01*
X393666Y480755D01*
X393654Y480655D01*
X393646Y480554D01*
X393642Y480453D01*
X393642Y480351D01*
X393646Y480250D01*
X393654Y480149D01*
X393666Y480049D01*
X393682Y479949D01*
X393701Y479849D01*
X393725Y479751D01*
X393752Y479653D01*
X393783Y479557D01*
X393817Y479462D01*
X393856Y479368D01*
X393897Y479276D01*
X393943Y479185D01*
X393992Y479097D01*
X394044Y479010D01*
X394100Y478925D01*
X394159Y478843D01*
X394221Y478763D01*
X394286Y478685D01*
X394354Y478610D01*
X394425Y478538D01*
X394498Y478468D01*
X394575Y478402D01*
X394653Y478338D01*
X394735Y478278D01*
X394818Y478221D01*
X394904Y478167D01*
X394992Y478116D01*
X395081Y478069D01*
X395173Y478025D01*
X395266Y477985D01*
X395360Y477948D01*
X395456Y477916D01*
X395553Y477887D01*
X395651Y477861D01*
X395750Y477840D01*
X395850Y477822D01*
X395950Y477809D01*
X396051Y477799D01*
X396152Y477793D01*
X396253Y477791D01*
X396253Y477792D02*
X398864Y477792D01*
X395731Y477792D02*
X393643Y473615D01*
X389778Y476225D02*
X389776Y476326D01*
X389770Y476427D01*
X389760Y476528D01*
X389747Y476628D01*
X389729Y476728D01*
X389708Y476827D01*
X389682Y476925D01*
X389653Y477022D01*
X389621Y477118D01*
X389584Y477212D01*
X389544Y477305D01*
X389500Y477397D01*
X389453Y477486D01*
X389402Y477574D01*
X389348Y477660D01*
X389291Y477743D01*
X389231Y477825D01*
X389167Y477903D01*
X389101Y477980D01*
X389031Y478053D01*
X388959Y478124D01*
X388884Y478192D01*
X388806Y478257D01*
X388726Y478319D01*
X388644Y478378D01*
X388559Y478434D01*
X388473Y478486D01*
X388384Y478535D01*
X388293Y478581D01*
X388201Y478622D01*
X388107Y478661D01*
X388012Y478695D01*
X387916Y478726D01*
X387818Y478753D01*
X387720Y478777D01*
X387620Y478796D01*
X387520Y478812D01*
X387420Y478824D01*
X387319Y478832D01*
X387218Y478836D01*
X387116Y478836D01*
X387015Y478832D01*
X386914Y478824D01*
X386814Y478812D01*
X386714Y478796D01*
X386614Y478777D01*
X386516Y478753D01*
X386418Y478726D01*
X386322Y478695D01*
X386227Y478661D01*
X386133Y478622D01*
X386041Y478581D01*
X385950Y478535D01*
X385862Y478486D01*
X385775Y478434D01*
X385690Y478378D01*
X385608Y478319D01*
X385528Y478257D01*
X385450Y478192D01*
X385375Y478124D01*
X385303Y478053D01*
X385233Y477980D01*
X385167Y477903D01*
X385103Y477825D01*
X385043Y477743D01*
X384986Y477660D01*
X384932Y477574D01*
X384881Y477486D01*
X384834Y477397D01*
X384790Y477305D01*
X384750Y477212D01*
X384713Y477118D01*
X384681Y477022D01*
X384652Y476925D01*
X384626Y476827D01*
X384605Y476728D01*
X384587Y476628D01*
X384574Y476528D01*
X384564Y476427D01*
X384558Y476326D01*
X384556Y476225D01*
X384558Y476124D01*
X384564Y476023D01*
X384574Y475922D01*
X384587Y475822D01*
X384605Y475722D01*
X384626Y475623D01*
X384652Y475525D01*
X384681Y475428D01*
X384713Y475332D01*
X384750Y475238D01*
X384790Y475145D01*
X384834Y475053D01*
X384881Y474964D01*
X384932Y474876D01*
X384986Y474790D01*
X385043Y474707D01*
X385103Y474625D01*
X385167Y474547D01*
X385233Y474470D01*
X385303Y474397D01*
X385375Y474326D01*
X385450Y474258D01*
X385528Y474193D01*
X385608Y474131D01*
X385690Y474072D01*
X385775Y474016D01*
X385862Y473964D01*
X385950Y473915D01*
X386041Y473869D01*
X386133Y473828D01*
X386227Y473789D01*
X386322Y473755D01*
X386418Y473724D01*
X386516Y473697D01*
X386614Y473673D01*
X386714Y473654D01*
X386814Y473638D01*
X386914Y473626D01*
X387015Y473618D01*
X387116Y473614D01*
X387218Y473614D01*
X387319Y473618D01*
X387420Y473626D01*
X387520Y473638D01*
X387620Y473654D01*
X387720Y473673D01*
X387818Y473697D01*
X387916Y473724D01*
X388012Y473755D01*
X388107Y473789D01*
X388201Y473828D01*
X388293Y473869D01*
X388384Y473915D01*
X388472Y473964D01*
X388559Y474016D01*
X388644Y474072D01*
X388726Y474131D01*
X388806Y474193D01*
X388884Y474258D01*
X388959Y474326D01*
X389031Y474397D01*
X389101Y474470D01*
X389167Y474547D01*
X389231Y474625D01*
X389291Y474707D01*
X389348Y474790D01*
X389402Y474876D01*
X389453Y474964D01*
X389500Y475053D01*
X389544Y475145D01*
X389584Y475238D01*
X389621Y475332D01*
X389653Y475428D01*
X389682Y475525D01*
X389708Y475623D01*
X389729Y475722D01*
X389747Y475822D01*
X389760Y475922D01*
X389770Y476023D01*
X389776Y476124D01*
X389778Y476225D01*
X389255Y480924D02*
X389253Y481014D01*
X389247Y481103D01*
X389238Y481193D01*
X389224Y481282D01*
X389207Y481370D01*
X389186Y481457D01*
X389161Y481544D01*
X389132Y481629D01*
X389100Y481713D01*
X389065Y481795D01*
X389025Y481876D01*
X388983Y481955D01*
X388937Y482032D01*
X388887Y482107D01*
X388835Y482180D01*
X388779Y482251D01*
X388721Y482319D01*
X388659Y482384D01*
X388595Y482447D01*
X388528Y482507D01*
X388459Y482564D01*
X388387Y482618D01*
X388313Y482669D01*
X388237Y482717D01*
X388159Y482761D01*
X388079Y482802D01*
X387997Y482840D01*
X387914Y482874D01*
X387829Y482904D01*
X387743Y482931D01*
X387657Y482954D01*
X387569Y482973D01*
X387480Y482988D01*
X387391Y483000D01*
X387302Y483008D01*
X387212Y483012D01*
X387122Y483012D01*
X387032Y483008D01*
X386943Y483000D01*
X386854Y482988D01*
X386765Y482973D01*
X386677Y482954D01*
X386591Y482931D01*
X386505Y482904D01*
X386420Y482874D01*
X386337Y482840D01*
X386255Y482802D01*
X386175Y482761D01*
X386097Y482717D01*
X386021Y482669D01*
X385947Y482618D01*
X385875Y482564D01*
X385806Y482507D01*
X385739Y482447D01*
X385675Y482384D01*
X385613Y482319D01*
X385555Y482251D01*
X385499Y482180D01*
X385447Y482107D01*
X385397Y482032D01*
X385351Y481955D01*
X385309Y481876D01*
X385269Y481795D01*
X385234Y481713D01*
X385202Y481629D01*
X385173Y481544D01*
X385148Y481457D01*
X385127Y481370D01*
X385110Y481282D01*
X385096Y481193D01*
X385087Y481103D01*
X385081Y481014D01*
X385079Y480924D01*
X385081Y480834D01*
X385087Y480745D01*
X385096Y480655D01*
X385110Y480566D01*
X385127Y480478D01*
X385148Y480391D01*
X385173Y480304D01*
X385202Y480219D01*
X385234Y480135D01*
X385269Y480053D01*
X385309Y479972D01*
X385351Y479893D01*
X385397Y479816D01*
X385447Y479741D01*
X385499Y479668D01*
X385555Y479597D01*
X385613Y479529D01*
X385675Y479464D01*
X385739Y479401D01*
X385806Y479341D01*
X385875Y479284D01*
X385947Y479230D01*
X386021Y479179D01*
X386097Y479131D01*
X386175Y479087D01*
X386255Y479046D01*
X386337Y479008D01*
X386420Y478974D01*
X386505Y478944D01*
X386591Y478917D01*
X386677Y478894D01*
X386765Y478875D01*
X386854Y478860D01*
X386943Y478848D01*
X387032Y478840D01*
X387122Y478836D01*
X387212Y478836D01*
X387302Y478840D01*
X387391Y478848D01*
X387480Y478860D01*
X387569Y478875D01*
X387657Y478894D01*
X387743Y478917D01*
X387829Y478944D01*
X387914Y478974D01*
X387997Y479008D01*
X388079Y479046D01*
X388159Y479087D01*
X388237Y479131D01*
X388313Y479179D01*
X388387Y479230D01*
X388459Y479284D01*
X388528Y479341D01*
X388595Y479401D01*
X388659Y479464D01*
X388721Y479529D01*
X388779Y479597D01*
X388835Y479668D01*
X388887Y479741D01*
X388937Y479816D01*
X388983Y479893D01*
X389025Y479972D01*
X389065Y480053D01*
X389100Y480135D01*
X389132Y480219D01*
X389161Y480304D01*
X389186Y480391D01*
X389207Y480478D01*
X389224Y480566D01*
X389238Y480655D01*
X389247Y480745D01*
X389253Y480834D01*
X389255Y480924D01*
D11*
X394051Y502139D02*
X423511Y502139D01*
X423511Y521799D01*
X394051Y521799D01*
X394051Y502139D01*
D14*
X424244Y502031D02*
X431610Y502031D01*
X431610Y504077D01*
X431609Y504077D02*
X431607Y504166D01*
X431601Y504255D01*
X431591Y504344D01*
X431578Y504432D01*
X431561Y504520D01*
X431539Y504607D01*
X431514Y504692D01*
X431486Y504777D01*
X431453Y504860D01*
X431417Y504942D01*
X431378Y505022D01*
X431335Y505100D01*
X431289Y505176D01*
X431239Y505251D01*
X431186Y505323D01*
X431130Y505392D01*
X431071Y505459D01*
X431010Y505524D01*
X430945Y505585D01*
X430878Y505644D01*
X430809Y505700D01*
X430737Y505753D01*
X430662Y505803D01*
X430586Y505849D01*
X430508Y505892D01*
X430428Y505931D01*
X430346Y505967D01*
X430263Y506000D01*
X430178Y506028D01*
X430093Y506053D01*
X430006Y506075D01*
X429918Y506092D01*
X429830Y506105D01*
X429741Y506115D01*
X429652Y506121D01*
X429563Y506123D01*
X429474Y506121D01*
X429385Y506115D01*
X429296Y506105D01*
X429208Y506092D01*
X429120Y506075D01*
X429033Y506053D01*
X428948Y506028D01*
X428863Y506000D01*
X428780Y505967D01*
X428698Y505931D01*
X428618Y505892D01*
X428540Y505849D01*
X428464Y505803D01*
X428389Y505753D01*
X428317Y505700D01*
X428248Y505644D01*
X428181Y505585D01*
X428116Y505524D01*
X428055Y505459D01*
X427996Y505392D01*
X427940Y505323D01*
X427887Y505251D01*
X427837Y505176D01*
X427791Y505100D01*
X427748Y505022D01*
X427709Y504942D01*
X427673Y504860D01*
X427640Y504777D01*
X427612Y504692D01*
X427587Y504607D01*
X427565Y504520D01*
X427548Y504432D01*
X427535Y504344D01*
X427525Y504255D01*
X427519Y504166D01*
X427517Y504077D01*
X427517Y502031D01*
X427517Y504486D02*
X424244Y506123D01*
X430791Y509295D02*
X431610Y509295D01*
X431610Y513387D01*
X424244Y511341D01*
D11*
X370986Y511526D02*
X370986Y540986D01*
X351326Y540986D01*
X351326Y511526D01*
X370986Y511526D01*
D14*
X370300Y541719D02*
X370300Y551117D01*
X367690Y551117D01*
X367589Y551115D01*
X367488Y551109D01*
X367387Y551099D01*
X367287Y551086D01*
X367187Y551068D01*
X367088Y551047D01*
X366990Y551021D01*
X366893Y550992D01*
X366797Y550960D01*
X366703Y550923D01*
X366610Y550883D01*
X366518Y550839D01*
X366429Y550792D01*
X366341Y550741D01*
X366255Y550687D01*
X366172Y550630D01*
X366090Y550570D01*
X366012Y550506D01*
X365935Y550440D01*
X365862Y550370D01*
X365791Y550298D01*
X365723Y550223D01*
X365658Y550145D01*
X365596Y550065D01*
X365537Y549983D01*
X365481Y549898D01*
X365429Y549812D01*
X365380Y549723D01*
X365334Y549632D01*
X365293Y549540D01*
X365254Y549446D01*
X365220Y549351D01*
X365189Y549255D01*
X365162Y549157D01*
X365138Y549059D01*
X365119Y548959D01*
X365103Y548859D01*
X365091Y548759D01*
X365083Y548658D01*
X365079Y548557D01*
X365079Y548455D01*
X365083Y548354D01*
X365091Y548253D01*
X365103Y548153D01*
X365119Y548053D01*
X365138Y547953D01*
X365162Y547855D01*
X365189Y547757D01*
X365220Y547661D01*
X365254Y547566D01*
X365293Y547472D01*
X365334Y547380D01*
X365380Y547289D01*
X365429Y547201D01*
X365481Y547114D01*
X365537Y547029D01*
X365596Y546947D01*
X365658Y546867D01*
X365723Y546789D01*
X365791Y546714D01*
X365862Y546642D01*
X365935Y546572D01*
X366012Y546506D01*
X366090Y546442D01*
X366172Y546382D01*
X366255Y546325D01*
X366341Y546271D01*
X366429Y546220D01*
X366518Y546173D01*
X366610Y546129D01*
X366703Y546089D01*
X366797Y546052D01*
X366893Y546020D01*
X366990Y545991D01*
X367088Y545965D01*
X367187Y545944D01*
X367287Y545926D01*
X367387Y545913D01*
X367488Y545903D01*
X367589Y545897D01*
X367690Y545895D01*
X370300Y545895D01*
X367168Y545895D02*
X365079Y541719D01*
X361213Y549028D02*
X358603Y551117D01*
X358603Y541719D01*
X361213Y541719D02*
X355992Y541719D01*
X346848Y548767D02*
X346850Y548862D01*
X346856Y548956D01*
X346865Y549050D01*
X346878Y549144D01*
X346895Y549237D01*
X346916Y549329D01*
X346941Y549421D01*
X346969Y549511D01*
X347001Y549600D01*
X347036Y549688D01*
X347075Y549774D01*
X347117Y549859D01*
X347163Y549942D01*
X347212Y550023D01*
X347264Y550102D01*
X347319Y550179D01*
X347378Y550253D01*
X347439Y550325D01*
X347503Y550395D01*
X347570Y550462D01*
X347640Y550526D01*
X347712Y550587D01*
X347786Y550646D01*
X347863Y550701D01*
X347942Y550753D01*
X348023Y550802D01*
X348106Y550848D01*
X348191Y550890D01*
X348277Y550929D01*
X348365Y550964D01*
X348454Y550996D01*
X348544Y551024D01*
X348636Y551049D01*
X348728Y551070D01*
X348821Y551087D01*
X348915Y551100D01*
X349009Y551109D01*
X349103Y551115D01*
X349198Y551117D01*
X349198Y551116D02*
X349306Y551114D01*
X349415Y551108D01*
X349523Y551098D01*
X349630Y551085D01*
X349737Y551067D01*
X349844Y551046D01*
X349949Y551021D01*
X350054Y550992D01*
X350157Y550960D01*
X350259Y550923D01*
X350360Y550883D01*
X350459Y550840D01*
X350557Y550793D01*
X350653Y550742D01*
X350747Y550688D01*
X350839Y550631D01*
X350929Y550570D01*
X351017Y550506D01*
X351102Y550440D01*
X351185Y550370D01*
X351265Y550297D01*
X351343Y550221D01*
X351418Y550143D01*
X351490Y550062D01*
X351559Y549978D01*
X351625Y549892D01*
X351688Y549804D01*
X351747Y549713D01*
X351804Y549621D01*
X351857Y549526D01*
X351906Y549429D01*
X351952Y549331D01*
X351995Y549232D01*
X352034Y549130D01*
X352069Y549028D01*
X347631Y546939D02*
X347562Y547008D01*
X347496Y547079D01*
X347432Y547152D01*
X347371Y547228D01*
X347313Y547307D01*
X347259Y547387D01*
X347207Y547470D01*
X347159Y547554D01*
X347113Y547640D01*
X347072Y547728D01*
X347033Y547818D01*
X346998Y547909D01*
X346967Y548001D01*
X346939Y548094D01*
X346915Y548188D01*
X346895Y548283D01*
X346878Y548379D01*
X346865Y548476D01*
X346856Y548573D01*
X346850Y548670D01*
X346848Y548767D01*
X347631Y546940D02*
X352069Y541719D01*
X346848Y541719D01*
D11*
X268730Y515633D02*
X239270Y515633D01*
X268730Y515633D02*
X268730Y535293D01*
X239270Y535293D01*
X239270Y515633D01*
D14*
X270256Y512350D02*
X279654Y512350D01*
X279654Y514960D01*
X279652Y515061D01*
X279646Y515162D01*
X279636Y515263D01*
X279623Y515363D01*
X279605Y515463D01*
X279584Y515562D01*
X279558Y515660D01*
X279529Y515757D01*
X279497Y515853D01*
X279460Y515947D01*
X279420Y516040D01*
X279376Y516132D01*
X279329Y516221D01*
X279278Y516309D01*
X279224Y516395D01*
X279167Y516478D01*
X279107Y516560D01*
X279043Y516638D01*
X278977Y516715D01*
X278907Y516788D01*
X278835Y516859D01*
X278760Y516927D01*
X278682Y516992D01*
X278602Y517054D01*
X278520Y517113D01*
X278435Y517169D01*
X278349Y517221D01*
X278260Y517270D01*
X278169Y517316D01*
X278077Y517357D01*
X277983Y517396D01*
X277888Y517430D01*
X277792Y517461D01*
X277694Y517488D01*
X277596Y517512D01*
X277496Y517531D01*
X277396Y517547D01*
X277296Y517559D01*
X277195Y517567D01*
X277094Y517571D01*
X276992Y517571D01*
X276891Y517567D01*
X276790Y517559D01*
X276690Y517547D01*
X276590Y517531D01*
X276490Y517512D01*
X276392Y517488D01*
X276294Y517461D01*
X276198Y517430D01*
X276103Y517396D01*
X276009Y517357D01*
X275917Y517316D01*
X275826Y517270D01*
X275738Y517221D01*
X275651Y517169D01*
X275566Y517113D01*
X275484Y517054D01*
X275404Y516992D01*
X275326Y516927D01*
X275251Y516859D01*
X275179Y516788D01*
X275109Y516715D01*
X275043Y516638D01*
X274979Y516560D01*
X274919Y516478D01*
X274862Y516395D01*
X274808Y516309D01*
X274757Y516221D01*
X274710Y516132D01*
X274666Y516040D01*
X274626Y515947D01*
X274589Y515853D01*
X274557Y515757D01*
X274528Y515660D01*
X274502Y515562D01*
X274481Y515463D01*
X274463Y515363D01*
X274450Y515263D01*
X274440Y515162D01*
X274434Y515061D01*
X274432Y514960D01*
X274433Y514960D02*
X274433Y512350D01*
X274433Y515482D02*
X270256Y517571D01*
X277566Y521437D02*
X279654Y524047D01*
X270256Y524047D01*
X270256Y521437D02*
X270256Y526658D01*
X270256Y530581D02*
X270256Y533191D01*
X270258Y533292D01*
X270264Y533393D01*
X270274Y533494D01*
X270287Y533594D01*
X270305Y533694D01*
X270326Y533793D01*
X270352Y533891D01*
X270381Y533988D01*
X270413Y534084D01*
X270450Y534178D01*
X270490Y534271D01*
X270534Y534363D01*
X270581Y534452D01*
X270632Y534540D01*
X270686Y534626D01*
X270743Y534709D01*
X270803Y534791D01*
X270867Y534869D01*
X270933Y534946D01*
X271003Y535019D01*
X271075Y535090D01*
X271150Y535158D01*
X271228Y535223D01*
X271308Y535285D01*
X271390Y535344D01*
X271475Y535400D01*
X271562Y535452D01*
X271650Y535501D01*
X271741Y535547D01*
X271833Y535588D01*
X271927Y535627D01*
X272022Y535661D01*
X272118Y535692D01*
X272216Y535719D01*
X272314Y535743D01*
X272414Y535762D01*
X272514Y535778D01*
X272614Y535790D01*
X272715Y535798D01*
X272816Y535802D01*
X272918Y535802D01*
X273019Y535798D01*
X273120Y535790D01*
X273220Y535778D01*
X273320Y535762D01*
X273420Y535743D01*
X273518Y535719D01*
X273616Y535692D01*
X273712Y535661D01*
X273807Y535627D01*
X273901Y535588D01*
X273993Y535547D01*
X274084Y535501D01*
X274173Y535452D01*
X274259Y535400D01*
X274344Y535344D01*
X274426Y535285D01*
X274506Y535223D01*
X274584Y535158D01*
X274659Y535090D01*
X274731Y535019D01*
X274801Y534946D01*
X274867Y534869D01*
X274931Y534791D01*
X274991Y534709D01*
X275048Y534626D01*
X275102Y534540D01*
X275153Y534452D01*
X275200Y534363D01*
X275244Y534271D01*
X275284Y534178D01*
X275321Y534084D01*
X275353Y533988D01*
X275382Y533891D01*
X275408Y533793D01*
X275429Y533694D01*
X275447Y533594D01*
X275460Y533494D01*
X275470Y533393D01*
X275476Y533292D01*
X275478Y533191D01*
X279654Y533713D02*
X279654Y530581D01*
X279654Y533713D02*
X279652Y533803D01*
X279646Y533892D01*
X279637Y533982D01*
X279623Y534071D01*
X279606Y534159D01*
X279585Y534246D01*
X279560Y534333D01*
X279531Y534418D01*
X279499Y534502D01*
X279464Y534584D01*
X279424Y534665D01*
X279382Y534744D01*
X279336Y534821D01*
X279286Y534896D01*
X279234Y534969D01*
X279178Y535040D01*
X279120Y535108D01*
X279058Y535173D01*
X278994Y535236D01*
X278927Y535296D01*
X278858Y535353D01*
X278786Y535407D01*
X278712Y535458D01*
X278636Y535506D01*
X278558Y535550D01*
X278478Y535591D01*
X278396Y535629D01*
X278313Y535663D01*
X278228Y535693D01*
X278142Y535720D01*
X278056Y535743D01*
X277968Y535762D01*
X277879Y535777D01*
X277790Y535789D01*
X277701Y535797D01*
X277611Y535801D01*
X277521Y535801D01*
X277431Y535797D01*
X277342Y535789D01*
X277253Y535777D01*
X277164Y535762D01*
X277076Y535743D01*
X276990Y535720D01*
X276904Y535693D01*
X276819Y535663D01*
X276736Y535629D01*
X276654Y535591D01*
X276574Y535550D01*
X276496Y535506D01*
X276420Y535458D01*
X276346Y535407D01*
X276274Y535353D01*
X276205Y535296D01*
X276138Y535236D01*
X276074Y535173D01*
X276012Y535108D01*
X275954Y535040D01*
X275898Y534969D01*
X275846Y534896D01*
X275796Y534821D01*
X275750Y534744D01*
X275708Y534665D01*
X275668Y534584D01*
X275633Y534502D01*
X275601Y534418D01*
X275572Y534333D01*
X275547Y534246D01*
X275526Y534159D01*
X275509Y534071D01*
X275495Y533982D01*
X275486Y533892D01*
X275480Y533803D01*
X275478Y533713D01*
X275477Y533713D02*
X275477Y531625D01*
D11*
X318645Y536086D02*
X348105Y536086D01*
X318645Y536086D02*
X318645Y516426D01*
X348105Y516426D01*
X348105Y536086D01*
D14*
X339333Y536321D02*
X339333Y545719D01*
X336722Y545719D01*
X336621Y545717D01*
X336520Y545711D01*
X336419Y545701D01*
X336319Y545688D01*
X336219Y545670D01*
X336120Y545649D01*
X336022Y545623D01*
X335925Y545594D01*
X335829Y545562D01*
X335735Y545525D01*
X335642Y545485D01*
X335550Y545441D01*
X335461Y545394D01*
X335373Y545343D01*
X335287Y545289D01*
X335204Y545232D01*
X335122Y545172D01*
X335044Y545108D01*
X334967Y545042D01*
X334894Y544972D01*
X334823Y544900D01*
X334755Y544825D01*
X334690Y544747D01*
X334628Y544667D01*
X334569Y544585D01*
X334513Y544500D01*
X334461Y544414D01*
X334412Y544325D01*
X334366Y544234D01*
X334325Y544142D01*
X334286Y544048D01*
X334252Y543953D01*
X334221Y543857D01*
X334194Y543759D01*
X334170Y543661D01*
X334151Y543561D01*
X334135Y543461D01*
X334123Y543361D01*
X334115Y543260D01*
X334111Y543159D01*
X334111Y543057D01*
X334115Y542956D01*
X334123Y542855D01*
X334135Y542755D01*
X334151Y542655D01*
X334170Y542555D01*
X334194Y542457D01*
X334221Y542359D01*
X334252Y542263D01*
X334286Y542168D01*
X334325Y542074D01*
X334366Y541982D01*
X334412Y541891D01*
X334461Y541803D01*
X334513Y541716D01*
X334569Y541631D01*
X334628Y541549D01*
X334690Y541469D01*
X334755Y541391D01*
X334823Y541316D01*
X334894Y541244D01*
X334967Y541174D01*
X335044Y541108D01*
X335122Y541044D01*
X335204Y540984D01*
X335287Y540927D01*
X335373Y540873D01*
X335461Y540822D01*
X335550Y540775D01*
X335642Y540731D01*
X335735Y540691D01*
X335829Y540654D01*
X335925Y540622D01*
X336022Y540593D01*
X336120Y540567D01*
X336219Y540546D01*
X336319Y540528D01*
X336419Y540515D01*
X336520Y540505D01*
X336621Y540499D01*
X336722Y540497D01*
X336722Y540498D02*
X339333Y540498D01*
X336200Y540498D02*
X334112Y536321D01*
X328157Y540498D02*
X325025Y540498D01*
X328157Y540498D02*
X328246Y540500D01*
X328334Y540506D01*
X328422Y540515D01*
X328510Y540528D01*
X328597Y540545D01*
X328683Y540565D01*
X328768Y540590D01*
X328853Y540617D01*
X328936Y540649D01*
X329017Y540683D01*
X329097Y540722D01*
X329175Y540763D01*
X329252Y540808D01*
X329326Y540856D01*
X329399Y540907D01*
X329469Y540961D01*
X329536Y541019D01*
X329602Y541079D01*
X329664Y541141D01*
X329724Y541207D01*
X329782Y541274D01*
X329836Y541344D01*
X329887Y541417D01*
X329935Y541491D01*
X329980Y541568D01*
X330021Y541646D01*
X330060Y541726D01*
X330094Y541807D01*
X330126Y541890D01*
X330153Y541975D01*
X330178Y542060D01*
X330198Y542146D01*
X330215Y542233D01*
X330228Y542321D01*
X330237Y542409D01*
X330243Y542497D01*
X330245Y542586D01*
X330246Y542586D02*
X330246Y543108D01*
X330244Y543209D01*
X330238Y543310D01*
X330228Y543411D01*
X330215Y543511D01*
X330197Y543611D01*
X330176Y543710D01*
X330150Y543808D01*
X330121Y543905D01*
X330089Y544001D01*
X330052Y544095D01*
X330012Y544188D01*
X329968Y544280D01*
X329921Y544369D01*
X329870Y544457D01*
X329816Y544543D01*
X329759Y544626D01*
X329699Y544708D01*
X329635Y544786D01*
X329569Y544863D01*
X329499Y544936D01*
X329427Y545007D01*
X329352Y545075D01*
X329274Y545140D01*
X329194Y545202D01*
X329112Y545261D01*
X329027Y545317D01*
X328941Y545369D01*
X328852Y545418D01*
X328761Y545464D01*
X328669Y545505D01*
X328575Y545544D01*
X328480Y545578D01*
X328384Y545609D01*
X328286Y545636D01*
X328188Y545660D01*
X328088Y545679D01*
X327988Y545695D01*
X327888Y545707D01*
X327787Y545715D01*
X327686Y545719D01*
X327584Y545719D01*
X327483Y545715D01*
X327382Y545707D01*
X327282Y545695D01*
X327182Y545679D01*
X327082Y545660D01*
X326984Y545636D01*
X326886Y545609D01*
X326790Y545578D01*
X326695Y545544D01*
X326601Y545505D01*
X326509Y545464D01*
X326418Y545418D01*
X326330Y545369D01*
X326243Y545317D01*
X326158Y545261D01*
X326076Y545202D01*
X325996Y545140D01*
X325918Y545075D01*
X325843Y545007D01*
X325771Y544936D01*
X325701Y544863D01*
X325635Y544786D01*
X325571Y544708D01*
X325511Y544626D01*
X325454Y544543D01*
X325400Y544457D01*
X325349Y544369D01*
X325302Y544280D01*
X325258Y544188D01*
X325218Y544095D01*
X325181Y544001D01*
X325149Y543905D01*
X325120Y543808D01*
X325094Y543710D01*
X325073Y543611D01*
X325055Y543511D01*
X325042Y543411D01*
X325032Y543310D01*
X325026Y543209D01*
X325024Y543108D01*
X325025Y543108D02*
X325025Y540498D01*
X325027Y540372D01*
X325033Y540246D01*
X325042Y540120D01*
X325055Y539995D01*
X325073Y539870D01*
X325093Y539745D01*
X325118Y539621D01*
X325146Y539498D01*
X325178Y539376D01*
X325214Y539255D01*
X325253Y539135D01*
X325296Y539017D01*
X325343Y538900D01*
X325393Y538784D01*
X325447Y538669D01*
X325503Y538557D01*
X325564Y538446D01*
X325627Y538337D01*
X325694Y538230D01*
X325764Y538125D01*
X325838Y538022D01*
X325914Y537922D01*
X325993Y537824D01*
X326075Y537728D01*
X326161Y537635D01*
X326248Y537544D01*
X326339Y537457D01*
X326432Y537371D01*
X326528Y537289D01*
X326626Y537210D01*
X326726Y537134D01*
X326829Y537060D01*
X326934Y536990D01*
X327041Y536923D01*
X327150Y536860D01*
X327261Y536799D01*
X327373Y536743D01*
X327488Y536689D01*
X327604Y536639D01*
X327721Y536592D01*
X327839Y536549D01*
X327959Y536510D01*
X328080Y536474D01*
X328202Y536442D01*
X328325Y536414D01*
X328449Y536389D01*
X328574Y536369D01*
X328699Y536351D01*
X328824Y536338D01*
X328950Y536329D01*
X329076Y536323D01*
X329202Y536321D01*
D11*
X317149Y536086D02*
X287689Y536086D01*
X287689Y516426D01*
X317149Y516426D01*
X317149Y536086D01*
D14*
X311964Y536321D02*
X311964Y545719D01*
X309354Y545719D01*
X309253Y545717D01*
X309152Y545711D01*
X309051Y545701D01*
X308951Y545688D01*
X308851Y545670D01*
X308752Y545649D01*
X308654Y545623D01*
X308557Y545594D01*
X308461Y545562D01*
X308367Y545525D01*
X308274Y545485D01*
X308182Y545441D01*
X308093Y545394D01*
X308005Y545343D01*
X307919Y545289D01*
X307836Y545232D01*
X307754Y545172D01*
X307676Y545108D01*
X307599Y545042D01*
X307526Y544972D01*
X307455Y544900D01*
X307387Y544825D01*
X307322Y544747D01*
X307260Y544667D01*
X307201Y544585D01*
X307145Y544500D01*
X307093Y544414D01*
X307044Y544325D01*
X306998Y544234D01*
X306957Y544142D01*
X306918Y544048D01*
X306884Y543953D01*
X306853Y543857D01*
X306826Y543759D01*
X306802Y543661D01*
X306783Y543561D01*
X306767Y543461D01*
X306755Y543361D01*
X306747Y543260D01*
X306743Y543159D01*
X306743Y543057D01*
X306747Y542956D01*
X306755Y542855D01*
X306767Y542755D01*
X306783Y542655D01*
X306802Y542555D01*
X306826Y542457D01*
X306853Y542359D01*
X306884Y542263D01*
X306918Y542168D01*
X306957Y542074D01*
X306998Y541982D01*
X307044Y541891D01*
X307093Y541803D01*
X307145Y541716D01*
X307201Y541631D01*
X307260Y541549D01*
X307322Y541469D01*
X307387Y541391D01*
X307455Y541316D01*
X307526Y541244D01*
X307599Y541174D01*
X307676Y541108D01*
X307754Y541044D01*
X307836Y540984D01*
X307919Y540927D01*
X308005Y540873D01*
X308093Y540822D01*
X308182Y540775D01*
X308274Y540731D01*
X308367Y540691D01*
X308461Y540654D01*
X308557Y540622D01*
X308654Y540593D01*
X308752Y540567D01*
X308851Y540546D01*
X308951Y540528D01*
X309051Y540515D01*
X309152Y540505D01*
X309253Y540499D01*
X309354Y540497D01*
X309354Y540498D02*
X311964Y540498D01*
X308832Y540498D02*
X306743Y536321D01*
X302877Y543631D02*
X300267Y545719D01*
X300267Y536321D01*
X302877Y536321D02*
X297656Y536321D01*
X293734Y541020D02*
X293732Y541205D01*
X293725Y541390D01*
X293714Y541574D01*
X293699Y541758D01*
X293679Y541942D01*
X293655Y542126D01*
X293626Y542308D01*
X293593Y542490D01*
X293556Y542671D01*
X293514Y542851D01*
X293468Y543031D01*
X293418Y543209D01*
X293364Y543385D01*
X293305Y543561D01*
X293243Y543735D01*
X293176Y543907D01*
X293105Y544078D01*
X293030Y544247D01*
X292951Y544414D01*
X292921Y544494D01*
X292888Y544573D01*
X292851Y544650D01*
X292811Y544726D01*
X292768Y544800D01*
X292722Y544872D01*
X292672Y544941D01*
X292620Y545009D01*
X292564Y545074D01*
X292506Y545137D01*
X292444Y545196D01*
X292381Y545254D01*
X292314Y545308D01*
X292246Y545359D01*
X292175Y545407D01*
X292102Y545452D01*
X292028Y545494D01*
X291951Y545532D01*
X291873Y545567D01*
X291794Y545599D01*
X291713Y545627D01*
X291631Y545651D01*
X291547Y545672D01*
X291464Y545689D01*
X291379Y545702D01*
X291294Y545711D01*
X291209Y545717D01*
X291123Y545719D01*
X291037Y545717D01*
X290952Y545711D01*
X290867Y545702D01*
X290782Y545689D01*
X290699Y545672D01*
X290615Y545651D01*
X290533Y545627D01*
X290453Y545599D01*
X290373Y545567D01*
X290295Y545532D01*
X290218Y545494D01*
X290144Y545452D01*
X290071Y545407D01*
X290000Y545359D01*
X289932Y545308D01*
X289865Y545254D01*
X289802Y545196D01*
X289741Y545137D01*
X289682Y545074D01*
X289627Y545009D01*
X289574Y544941D01*
X289524Y544872D01*
X289478Y544800D01*
X289435Y544726D01*
X289395Y544650D01*
X289358Y544573D01*
X289325Y544494D01*
X289295Y544414D01*
X289216Y544247D01*
X289141Y544078D01*
X289070Y543907D01*
X289003Y543735D01*
X288941Y543561D01*
X288882Y543385D01*
X288828Y543209D01*
X288778Y543031D01*
X288732Y542851D01*
X288690Y542671D01*
X288653Y542490D01*
X288620Y542308D01*
X288591Y542126D01*
X288567Y541942D01*
X288547Y541758D01*
X288532Y541574D01*
X288521Y541390D01*
X288514Y541205D01*
X288512Y541020D01*
X293733Y541020D02*
X293731Y540835D01*
X293724Y540650D01*
X293713Y540466D01*
X293698Y540282D01*
X293678Y540098D01*
X293654Y539914D01*
X293625Y539732D01*
X293592Y539550D01*
X293555Y539369D01*
X293513Y539189D01*
X293467Y539009D01*
X293417Y538831D01*
X293363Y538655D01*
X293304Y538479D01*
X293242Y538305D01*
X293175Y538133D01*
X293104Y537962D01*
X293029Y537793D01*
X292950Y537626D01*
X292951Y537626D02*
X292921Y537546D01*
X292888Y537467D01*
X292851Y537390D01*
X292811Y537314D01*
X292768Y537240D01*
X292722Y537168D01*
X292672Y537099D01*
X292619Y537031D01*
X292564Y536966D01*
X292505Y536903D01*
X292444Y536844D01*
X292381Y536786D01*
X292314Y536732D01*
X292246Y536681D01*
X292175Y536633D01*
X292102Y536588D01*
X292028Y536546D01*
X291951Y536508D01*
X291873Y536473D01*
X291794Y536441D01*
X291713Y536413D01*
X291631Y536389D01*
X291547Y536368D01*
X291464Y536351D01*
X291379Y536338D01*
X291294Y536329D01*
X291209Y536323D01*
X291123Y536321D01*
X289295Y537626D02*
X289216Y537793D01*
X289141Y537962D01*
X289070Y538133D01*
X289003Y538305D01*
X288941Y538479D01*
X288882Y538655D01*
X288828Y538831D01*
X288778Y539009D01*
X288732Y539189D01*
X288690Y539369D01*
X288653Y539550D01*
X288620Y539732D01*
X288591Y539914D01*
X288567Y540098D01*
X288547Y540282D01*
X288532Y540466D01*
X288521Y540650D01*
X288514Y540835D01*
X288512Y541020D01*
X289295Y537626D02*
X289325Y537546D01*
X289358Y537467D01*
X289395Y537390D01*
X289435Y537314D01*
X289478Y537240D01*
X289524Y537168D01*
X289574Y537099D01*
X289627Y537031D01*
X289682Y536966D01*
X289741Y536903D01*
X289802Y536844D01*
X289865Y536786D01*
X289932Y536732D01*
X290000Y536681D01*
X290071Y536633D01*
X290144Y536588D01*
X290218Y536546D01*
X290295Y536508D01*
X290373Y536473D01*
X290453Y536441D01*
X290533Y536413D01*
X290615Y536389D01*
X290699Y536368D01*
X290782Y536351D01*
X290867Y536338D01*
X290952Y536329D01*
X291037Y536323D01*
X291123Y536321D01*
X293211Y538409D02*
X289034Y543631D01*
D11*
X282926Y504336D02*
X312386Y504336D01*
X282926Y504336D02*
X282926Y484676D01*
X312386Y484676D01*
X312386Y504336D01*
D14*
X272002Y488991D02*
X272002Y486903D01*
X272003Y486903D02*
X272005Y486814D01*
X272011Y486726D01*
X272020Y486638D01*
X272033Y486550D01*
X272050Y486463D01*
X272070Y486377D01*
X272095Y486292D01*
X272122Y486207D01*
X272154Y486124D01*
X272188Y486043D01*
X272227Y485963D01*
X272268Y485885D01*
X272313Y485808D01*
X272361Y485734D01*
X272412Y485661D01*
X272466Y485591D01*
X272524Y485524D01*
X272584Y485458D01*
X272646Y485396D01*
X272712Y485336D01*
X272779Y485278D01*
X272849Y485224D01*
X272922Y485173D01*
X272996Y485125D01*
X273073Y485080D01*
X273151Y485039D01*
X273231Y485000D01*
X273312Y484966D01*
X273395Y484934D01*
X273480Y484907D01*
X273565Y484882D01*
X273651Y484862D01*
X273738Y484845D01*
X273826Y484832D01*
X273914Y484823D01*
X274002Y484817D01*
X274091Y484815D01*
X279312Y484815D01*
X279403Y484817D01*
X279494Y484823D01*
X279585Y484833D01*
X279675Y484847D01*
X279764Y484864D01*
X279852Y484886D01*
X279940Y484912D01*
X280026Y484941D01*
X280111Y484974D01*
X280194Y485011D01*
X280276Y485051D01*
X280356Y485095D01*
X280434Y485142D01*
X280510Y485193D01*
X280583Y485246D01*
X280654Y485303D01*
X280723Y485364D01*
X280788Y485427D01*
X280851Y485492D01*
X280911Y485561D01*
X280969Y485632D01*
X281022Y485705D01*
X281073Y485781D01*
X281120Y485859D01*
X281164Y485939D01*
X281204Y486021D01*
X281241Y486104D01*
X281274Y486189D01*
X281303Y486275D01*
X281329Y486363D01*
X281351Y486451D01*
X281368Y486540D01*
X281382Y486630D01*
X281392Y486721D01*
X281398Y486812D01*
X281400Y486903D01*
X281400Y488991D01*
X279312Y492460D02*
X281400Y495071D01*
X272002Y495071D01*
X272002Y497681D02*
X272002Y492460D01*
X279312Y501604D02*
X281400Y504215D01*
X272002Y504215D01*
X272002Y506825D02*
X272002Y501604D01*
D11*
X367811Y497330D02*
X367811Y467870D01*
X367811Y497330D02*
X348151Y497330D01*
X348151Y467870D01*
X367811Y467870D01*
D14*
X371094Y499650D02*
X371094Y509048D01*
X368483Y509048D01*
X368382Y509046D01*
X368281Y509040D01*
X368180Y509030D01*
X368080Y509017D01*
X367980Y508999D01*
X367881Y508978D01*
X367783Y508952D01*
X367686Y508923D01*
X367590Y508891D01*
X367496Y508854D01*
X367403Y508814D01*
X367311Y508770D01*
X367222Y508723D01*
X367134Y508672D01*
X367048Y508618D01*
X366965Y508561D01*
X366883Y508501D01*
X366805Y508437D01*
X366728Y508371D01*
X366655Y508301D01*
X366584Y508229D01*
X366516Y508154D01*
X366451Y508076D01*
X366389Y507996D01*
X366330Y507914D01*
X366274Y507829D01*
X366222Y507743D01*
X366173Y507654D01*
X366127Y507563D01*
X366086Y507471D01*
X366047Y507377D01*
X366013Y507282D01*
X365982Y507186D01*
X365955Y507088D01*
X365931Y506990D01*
X365912Y506890D01*
X365896Y506790D01*
X365884Y506690D01*
X365876Y506589D01*
X365872Y506488D01*
X365872Y506386D01*
X365876Y506285D01*
X365884Y506184D01*
X365896Y506084D01*
X365912Y505984D01*
X365931Y505884D01*
X365955Y505786D01*
X365982Y505688D01*
X366013Y505592D01*
X366047Y505497D01*
X366086Y505403D01*
X366127Y505311D01*
X366173Y505220D01*
X366222Y505132D01*
X366274Y505045D01*
X366330Y504960D01*
X366389Y504878D01*
X366451Y504798D01*
X366516Y504720D01*
X366584Y504645D01*
X366655Y504573D01*
X366728Y504503D01*
X366805Y504437D01*
X366883Y504373D01*
X366965Y504313D01*
X367048Y504256D01*
X367134Y504202D01*
X367222Y504151D01*
X367311Y504104D01*
X367403Y504060D01*
X367496Y504020D01*
X367590Y503983D01*
X367686Y503951D01*
X367783Y503922D01*
X367881Y503896D01*
X367980Y503875D01*
X368080Y503857D01*
X368180Y503844D01*
X368281Y503834D01*
X368382Y503828D01*
X368483Y503826D01*
X368483Y503827D02*
X371094Y503827D01*
X367961Y503827D02*
X365873Y499650D01*
X362007Y506959D02*
X359397Y509048D01*
X359397Y499650D01*
X362007Y499650D02*
X356786Y499650D01*
X352863Y506959D02*
X350253Y509048D01*
X350253Y499650D01*
X352863Y499650D02*
X347642Y499650D01*
D11*
X315561Y324949D02*
X286101Y324949D01*
X286101Y305289D01*
X315561Y305289D01*
X315561Y324949D01*
D14*
X309975Y326612D02*
X309975Y336010D01*
X307365Y336010D01*
X307365Y336011D02*
X307264Y336009D01*
X307163Y336003D01*
X307062Y335993D01*
X306962Y335980D01*
X306862Y335962D01*
X306763Y335941D01*
X306665Y335915D01*
X306568Y335886D01*
X306472Y335854D01*
X306378Y335817D01*
X306285Y335777D01*
X306193Y335733D01*
X306104Y335686D01*
X306016Y335635D01*
X305930Y335581D01*
X305847Y335524D01*
X305765Y335464D01*
X305687Y335400D01*
X305610Y335334D01*
X305537Y335264D01*
X305466Y335192D01*
X305398Y335117D01*
X305333Y335039D01*
X305271Y334959D01*
X305212Y334877D01*
X305156Y334792D01*
X305104Y334706D01*
X305055Y334617D01*
X305009Y334526D01*
X304968Y334434D01*
X304929Y334340D01*
X304895Y334245D01*
X304864Y334149D01*
X304837Y334051D01*
X304813Y333953D01*
X304794Y333853D01*
X304778Y333753D01*
X304766Y333653D01*
X304758Y333552D01*
X304754Y333451D01*
X304754Y333349D01*
X304758Y333248D01*
X304766Y333147D01*
X304778Y333047D01*
X304794Y332947D01*
X304813Y332847D01*
X304837Y332749D01*
X304864Y332651D01*
X304895Y332555D01*
X304929Y332460D01*
X304968Y332366D01*
X305009Y332274D01*
X305055Y332183D01*
X305104Y332095D01*
X305156Y332008D01*
X305212Y331923D01*
X305271Y331841D01*
X305333Y331761D01*
X305398Y331683D01*
X305466Y331608D01*
X305537Y331536D01*
X305610Y331466D01*
X305687Y331400D01*
X305765Y331336D01*
X305847Y331276D01*
X305930Y331219D01*
X306016Y331165D01*
X306104Y331114D01*
X306193Y331067D01*
X306285Y331023D01*
X306378Y330983D01*
X306472Y330946D01*
X306568Y330914D01*
X306665Y330885D01*
X306763Y330859D01*
X306862Y330838D01*
X306962Y330820D01*
X307062Y330807D01*
X307163Y330797D01*
X307264Y330791D01*
X307365Y330789D01*
X309975Y330789D01*
X306843Y330789D02*
X304754Y326612D01*
X300888Y326612D02*
X297756Y326612D01*
X297756Y326613D02*
X297667Y326615D01*
X297579Y326621D01*
X297491Y326630D01*
X297403Y326643D01*
X297316Y326660D01*
X297230Y326680D01*
X297145Y326705D01*
X297060Y326732D01*
X296977Y326764D01*
X296896Y326798D01*
X296816Y326837D01*
X296738Y326878D01*
X296661Y326923D01*
X296587Y326971D01*
X296514Y327022D01*
X296444Y327076D01*
X296377Y327134D01*
X296311Y327194D01*
X296249Y327256D01*
X296189Y327322D01*
X296131Y327389D01*
X296077Y327459D01*
X296026Y327532D01*
X295978Y327606D01*
X295933Y327683D01*
X295892Y327761D01*
X295853Y327841D01*
X295819Y327922D01*
X295787Y328005D01*
X295760Y328090D01*
X295735Y328175D01*
X295715Y328261D01*
X295698Y328348D01*
X295685Y328436D01*
X295676Y328524D01*
X295670Y328612D01*
X295668Y328701D01*
X295667Y328701D02*
X295667Y329745D01*
X295668Y329745D02*
X295670Y329834D01*
X295676Y329922D01*
X295685Y330010D01*
X295698Y330098D01*
X295715Y330185D01*
X295735Y330271D01*
X295760Y330356D01*
X295787Y330441D01*
X295819Y330524D01*
X295853Y330605D01*
X295892Y330685D01*
X295933Y330763D01*
X295978Y330840D01*
X296026Y330914D01*
X296077Y330987D01*
X296131Y331057D01*
X296189Y331124D01*
X296249Y331190D01*
X296311Y331252D01*
X296377Y331312D01*
X296444Y331370D01*
X296514Y331424D01*
X296587Y331475D01*
X296661Y331523D01*
X296738Y331568D01*
X296816Y331609D01*
X296896Y331648D01*
X296977Y331682D01*
X297060Y331714D01*
X297145Y331741D01*
X297230Y331766D01*
X297316Y331786D01*
X297403Y331803D01*
X297491Y331816D01*
X297579Y331825D01*
X297667Y331831D01*
X297756Y331833D01*
X300888Y331833D01*
X300888Y336010D01*
X295667Y336010D01*
D11*
X375598Y312308D02*
X397764Y331713D01*
X384814Y346505D01*
X362648Y327100D01*
X375598Y312308D01*
D14*
X378640Y341660D02*
X372450Y348731D01*
X370485Y347011D01*
X370485Y347012D02*
X370410Y346943D01*
X370338Y346872D01*
X370269Y346799D01*
X370202Y346722D01*
X370139Y346643D01*
X370078Y346562D01*
X370021Y346478D01*
X369967Y346393D01*
X369917Y346305D01*
X369870Y346215D01*
X369826Y346124D01*
X369786Y346031D01*
X369750Y345936D01*
X369717Y345840D01*
X369689Y345743D01*
X369663Y345645D01*
X369642Y345546D01*
X369625Y345446D01*
X369611Y345346D01*
X369602Y345245D01*
X369596Y345144D01*
X369594Y345043D01*
X369596Y344942D01*
X369602Y344841D01*
X369612Y344740D01*
X369626Y344640D01*
X369644Y344540D01*
X369665Y344441D01*
X369691Y344343D01*
X369720Y344246D01*
X369753Y344150D01*
X369789Y344056D01*
X369830Y343963D01*
X369874Y343872D01*
X369921Y343782D01*
X369972Y343694D01*
X370026Y343609D01*
X370083Y343525D01*
X370144Y343444D01*
X370207Y343366D01*
X370274Y343289D01*
X370344Y343216D01*
X370416Y343145D01*
X370491Y343077D01*
X370569Y343012D01*
X370649Y342950D01*
X370732Y342891D01*
X370816Y342836D01*
X370903Y342784D01*
X370992Y342735D01*
X371082Y342690D01*
X371175Y342648D01*
X371268Y342610D01*
X371364Y342575D01*
X371460Y342545D01*
X371558Y342518D01*
X371656Y342494D01*
X371756Y342475D01*
X371856Y342459D01*
X371956Y342448D01*
X372057Y342440D01*
X372158Y342436D01*
X372260Y342437D01*
X372361Y342441D01*
X372462Y342449D01*
X372562Y342461D01*
X372662Y342476D01*
X372762Y342496D01*
X372860Y342520D01*
X372958Y342547D01*
X373054Y342578D01*
X373149Y342613D01*
X373243Y342651D01*
X373335Y342693D01*
X373425Y342739D01*
X373514Y342788D01*
X373601Y342840D01*
X373685Y342896D01*
X373767Y342955D01*
X373847Y343017D01*
X373925Y343082D01*
X373925Y343083D02*
X375889Y344802D01*
X373532Y342739D02*
X374712Y338220D01*
X368364Y339602D02*
X366007Y337539D01*
X365941Y337479D01*
X365878Y337417D01*
X365818Y337352D01*
X365761Y337284D01*
X365707Y337214D01*
X365655Y337142D01*
X365607Y337067D01*
X365562Y336991D01*
X365520Y336913D01*
X365482Y336833D01*
X365447Y336752D01*
X365415Y336669D01*
X365387Y336585D01*
X365363Y336499D01*
X365342Y336413D01*
X365325Y336326D01*
X365312Y336239D01*
X365302Y336151D01*
X365296Y336062D01*
X365294Y335974D01*
X365296Y335885D01*
X365301Y335796D01*
X365310Y335708D01*
X365323Y335621D01*
X365340Y335534D01*
X365360Y335447D01*
X365384Y335362D01*
X365411Y335278D01*
X365443Y335195D01*
X365477Y335113D01*
X365515Y335033D01*
X365556Y334955D01*
X365601Y334878D01*
X365649Y334803D01*
X365700Y334731D01*
X365754Y334661D01*
X365811Y334593D01*
X365811Y334592D02*
X366155Y334199D01*
X366154Y334199D02*
X366223Y334124D01*
X366294Y334052D01*
X366367Y333983D01*
X366444Y333916D01*
X366523Y333853D01*
X366604Y333792D01*
X366688Y333735D01*
X366773Y333681D01*
X366861Y333631D01*
X366951Y333584D01*
X367042Y333540D01*
X367135Y333500D01*
X367230Y333464D01*
X367326Y333431D01*
X367423Y333403D01*
X367521Y333377D01*
X367620Y333356D01*
X367720Y333339D01*
X367820Y333325D01*
X367921Y333316D01*
X368022Y333310D01*
X368123Y333308D01*
X368224Y333310D01*
X368325Y333316D01*
X368426Y333326D01*
X368526Y333340D01*
X368626Y333358D01*
X368725Y333379D01*
X368823Y333405D01*
X368920Y333434D01*
X369016Y333467D01*
X369110Y333503D01*
X369203Y333544D01*
X369294Y333588D01*
X369384Y333635D01*
X369472Y333686D01*
X369557Y333740D01*
X369641Y333797D01*
X369722Y333858D01*
X369800Y333921D01*
X369877Y333988D01*
X369950Y334058D01*
X370021Y334130D01*
X370089Y334205D01*
X370154Y334283D01*
X370216Y334363D01*
X370275Y334446D01*
X370330Y334530D01*
X370382Y334617D01*
X370431Y334706D01*
X370476Y334796D01*
X370518Y334889D01*
X370556Y334982D01*
X370591Y335078D01*
X370621Y335174D01*
X370648Y335272D01*
X370672Y335370D01*
X370691Y335470D01*
X370707Y335570D01*
X370718Y335670D01*
X370726Y335771D01*
X370730Y335872D01*
X370729Y335974D01*
X370725Y336075D01*
X370717Y336176D01*
X370705Y336276D01*
X370690Y336376D01*
X370670Y336476D01*
X370646Y336574D01*
X370619Y336672D01*
X370588Y336768D01*
X370553Y336863D01*
X370515Y336957D01*
X370473Y337049D01*
X370427Y337139D01*
X370378Y337228D01*
X370326Y337315D01*
X370270Y337399D01*
X370211Y337481D01*
X370149Y337561D01*
X370084Y337639D01*
X370083Y337638D02*
X368364Y339602D01*
X368278Y339698D01*
X368188Y339791D01*
X368097Y339881D01*
X368002Y339968D01*
X367905Y340052D01*
X367805Y340133D01*
X367702Y340211D01*
X367598Y340286D01*
X367491Y340357D01*
X367382Y340426D01*
X367271Y340490D01*
X367158Y340552D01*
X367043Y340610D01*
X366926Y340664D01*
X366808Y340715D01*
X366688Y340762D01*
X366567Y340805D01*
X366445Y340845D01*
X366321Y340881D01*
X366197Y340912D01*
X366071Y340941D01*
X365945Y340965D01*
X365818Y340985D01*
X365690Y341002D01*
X365562Y341014D01*
X365434Y341023D01*
X365305Y341027D01*
X365176Y341028D01*
X365048Y341024D01*
X364919Y341017D01*
X364791Y341006D01*
X364663Y340991D01*
X364536Y340971D01*
X364410Y340948D01*
X364284Y340922D01*
X364159Y340891D01*
X364035Y340856D01*
X363912Y340818D01*
X363791Y340776D01*
X363671Y340730D01*
X363552Y340680D01*
X363435Y340627D01*
X363319Y340570D01*
X363206Y340510D01*
X363094Y340446D01*
X362984Y340379D01*
X362877Y340308D01*
X362771Y340234D01*
X362668Y340157D01*
X362568Y340077D01*
X362470Y339994D01*
D11*
X358424Y324949D02*
X328964Y324949D01*
X328964Y305289D01*
X358424Y305289D01*
X358424Y324949D01*
D14*
X352838Y326612D02*
X352838Y336010D01*
X350227Y336010D01*
X350227Y336011D02*
X350126Y336009D01*
X350025Y336003D01*
X349924Y335993D01*
X349824Y335980D01*
X349724Y335962D01*
X349625Y335941D01*
X349527Y335915D01*
X349430Y335886D01*
X349334Y335854D01*
X349240Y335817D01*
X349147Y335777D01*
X349055Y335733D01*
X348966Y335686D01*
X348878Y335635D01*
X348792Y335581D01*
X348709Y335524D01*
X348627Y335464D01*
X348549Y335400D01*
X348472Y335334D01*
X348399Y335264D01*
X348328Y335192D01*
X348260Y335117D01*
X348195Y335039D01*
X348133Y334959D01*
X348074Y334877D01*
X348018Y334792D01*
X347966Y334706D01*
X347917Y334617D01*
X347871Y334526D01*
X347830Y334434D01*
X347791Y334340D01*
X347757Y334245D01*
X347726Y334149D01*
X347699Y334051D01*
X347675Y333953D01*
X347656Y333853D01*
X347640Y333753D01*
X347628Y333653D01*
X347620Y333552D01*
X347616Y333451D01*
X347616Y333349D01*
X347620Y333248D01*
X347628Y333147D01*
X347640Y333047D01*
X347656Y332947D01*
X347675Y332847D01*
X347699Y332749D01*
X347726Y332651D01*
X347757Y332555D01*
X347791Y332460D01*
X347830Y332366D01*
X347871Y332274D01*
X347917Y332183D01*
X347966Y332095D01*
X348018Y332008D01*
X348074Y331923D01*
X348133Y331841D01*
X348195Y331761D01*
X348260Y331683D01*
X348328Y331608D01*
X348399Y331536D01*
X348472Y331466D01*
X348549Y331400D01*
X348627Y331336D01*
X348709Y331276D01*
X348792Y331219D01*
X348878Y331165D01*
X348966Y331114D01*
X349055Y331067D01*
X349147Y331023D01*
X349240Y330983D01*
X349334Y330946D01*
X349430Y330914D01*
X349527Y330885D01*
X349625Y330859D01*
X349724Y330838D01*
X349824Y330820D01*
X349924Y330807D01*
X350025Y330797D01*
X350126Y330791D01*
X350227Y330789D01*
X352838Y330789D01*
X349705Y330789D02*
X347617Y326612D01*
X343751Y328701D02*
X341662Y336010D01*
X343751Y328701D02*
X338530Y328701D01*
X340096Y330789D02*
X340096Y326612D01*
D11*
X435567Y366245D02*
X458845Y384302D01*
X435567Y366245D02*
X447617Y350711D01*
X470895Y368767D01*
X458845Y384302D01*
D14*
X472459Y367851D02*
X473462Y366558D01*
X473463Y366558D02*
X473512Y366497D01*
X473564Y366439D01*
X473618Y366384D01*
X473676Y366331D01*
X473736Y366281D01*
X473798Y366234D01*
X473862Y366190D01*
X473928Y366149D01*
X473996Y366111D01*
X474066Y366076D01*
X474137Y366045D01*
X474210Y366018D01*
X474284Y365993D01*
X474359Y365973D01*
X474436Y365956D01*
X474512Y365942D01*
X474590Y365932D01*
X474667Y365926D01*
X474745Y365924D01*
X474823Y365925D01*
X474901Y365930D01*
X474978Y365939D01*
X475055Y365952D01*
X475131Y365968D01*
X475207Y365987D01*
X475281Y366011D01*
X475354Y366037D01*
X475426Y366067D01*
X475496Y366101D01*
X475565Y366138D01*
X475632Y366178D01*
X475697Y366221D01*
X475759Y366268D01*
X478992Y368776D01*
X479053Y368825D01*
X479111Y368877D01*
X479166Y368931D01*
X479219Y368989D01*
X479269Y369049D01*
X479316Y369111D01*
X479360Y369175D01*
X479401Y369241D01*
X479439Y369309D01*
X479474Y369379D01*
X479505Y369450D01*
X479532Y369523D01*
X479557Y369597D01*
X479577Y369672D01*
X479594Y369748D01*
X479608Y369825D01*
X479618Y369903D01*
X479624Y369980D01*
X479626Y370058D01*
X479625Y370136D01*
X479620Y370214D01*
X479611Y370291D01*
X479598Y370368D01*
X479582Y370444D01*
X479563Y370520D01*
X479539Y370594D01*
X479513Y370667D01*
X479483Y370739D01*
X479449Y370809D01*
X479412Y370878D01*
X479372Y370945D01*
X479329Y371010D01*
X479282Y371072D01*
X479283Y371073D02*
X478279Y372366D01*
X475156Y376393D02*
X475103Y376459D01*
X475046Y376522D01*
X474987Y376583D01*
X474924Y376641D01*
X474859Y376696D01*
X474792Y376748D01*
X474722Y376797D01*
X474650Y376843D01*
X474576Y376885D01*
X474501Y376923D01*
X474423Y376959D01*
X474344Y376990D01*
X474264Y377018D01*
X474182Y377042D01*
X474100Y377062D01*
X474016Y377079D01*
X473932Y377091D01*
X473847Y377100D01*
X473762Y377105D01*
X473677Y377106D01*
X473592Y377103D01*
X473507Y377096D01*
X473423Y377085D01*
X473339Y377070D01*
X473256Y377051D01*
X473174Y377029D01*
X473093Y377003D01*
X473013Y376973D01*
X472935Y376939D01*
X472859Y376902D01*
X472784Y376862D01*
X472711Y376817D01*
X472640Y376770D01*
X472572Y376719D01*
X475156Y376393D02*
X475214Y376316D01*
X475268Y376237D01*
X475319Y376155D01*
X475366Y376072D01*
X475410Y375987D01*
X475451Y375900D01*
X475488Y375811D01*
X475521Y375721D01*
X475551Y375630D01*
X475577Y375538D01*
X475599Y375444D01*
X475618Y375350D01*
X475632Y375255D01*
X475643Y375160D01*
X475650Y375064D01*
X475653Y374968D01*
X475652Y374872D01*
X475647Y374776D01*
X475638Y374681D01*
X475626Y374586D01*
X475609Y374491D01*
X475589Y374397D01*
X475565Y374304D01*
X475537Y374212D01*
X475506Y374122D01*
X475471Y374032D01*
X475432Y373945D01*
X475390Y373858D01*
X475344Y373774D01*
X475295Y373692D01*
X475243Y373611D01*
X471816Y375356D02*
X471826Y375440D01*
X471840Y375523D01*
X471858Y375605D01*
X471879Y375687D01*
X471903Y375768D01*
X471931Y375847D01*
X471962Y375926D01*
X471996Y376002D01*
X472034Y376078D01*
X472075Y376152D01*
X472119Y376224D01*
X472166Y376294D01*
X472216Y376361D01*
X472269Y376427D01*
X472324Y376491D01*
X472382Y376552D01*
X472443Y376610D01*
X472506Y376666D01*
X472572Y376719D01*
X471817Y375356D02*
X470715Y370100D01*
X468207Y373333D01*
X469142Y378137D02*
X469261Y378233D01*
X469378Y378331D01*
X469493Y378432D01*
X469605Y378536D01*
X469715Y378643D01*
X469822Y378752D01*
X469925Y378865D01*
X470027Y378979D01*
X470125Y379097D01*
X470220Y379216D01*
X470312Y379339D01*
X470401Y379463D01*
X470487Y379590D01*
X470570Y379718D01*
X470649Y379849D01*
X470725Y379982D01*
X470798Y380116D01*
X470867Y380253D01*
X470867Y380252D02*
X470906Y380316D01*
X470943Y380382D01*
X470976Y380449D01*
X471006Y380518D01*
X471032Y380589D01*
X471055Y380660D01*
X471074Y380733D01*
X471090Y380806D01*
X471101Y380880D01*
X471110Y380955D01*
X471114Y381030D01*
X471115Y381105D01*
X471112Y381180D01*
X471105Y381255D01*
X471095Y381329D01*
X471081Y381403D01*
X471063Y381476D01*
X471042Y381548D01*
X471017Y381619D01*
X470989Y381689D01*
X470957Y381757D01*
X470922Y381823D01*
X470883Y381888D01*
X470842Y381950D01*
X470797Y382011D01*
X470798Y382011D02*
X470751Y382069D01*
X470700Y382125D01*
X470647Y382178D01*
X470592Y382229D01*
X470534Y382276D01*
X470473Y382321D01*
X470411Y382363D01*
X470347Y382401D01*
X470280Y382437D01*
X470212Y382469D01*
X470143Y382497D01*
X470072Y382522D01*
X470000Y382544D01*
X469927Y382562D01*
X469853Y382576D01*
X469779Y382587D01*
X469704Y382594D01*
X469629Y382597D01*
X469554Y382596D01*
X469479Y382592D01*
X469404Y382584D01*
X469330Y382572D01*
X469257Y382557D01*
X469184Y382538D01*
X469112Y382516D01*
X468963Y382482D01*
X468814Y382445D01*
X468667Y382405D01*
X468520Y382360D01*
X468375Y382312D01*
X468231Y382261D01*
X468089Y382205D01*
X467948Y382146D01*
X467808Y382084D01*
X467670Y382018D01*
X467534Y381949D01*
X467399Y381876D01*
X467266Y381800D01*
X467136Y381720D01*
X467007Y381638D01*
X466881Y381552D01*
X466756Y381463D01*
X466634Y381370D01*
X469141Y378138D02*
X469019Y378046D01*
X468895Y377956D01*
X468768Y377870D01*
X468640Y377788D01*
X468509Y377708D01*
X468377Y377632D01*
X468242Y377559D01*
X468106Y377490D01*
X467968Y377424D01*
X467828Y377362D01*
X467687Y377303D01*
X467544Y377247D01*
X467400Y377196D01*
X467255Y377148D01*
X467109Y377103D01*
X466961Y377063D01*
X466813Y377026D01*
X466664Y376993D01*
X466664Y376991D02*
X466592Y376969D01*
X466519Y376950D01*
X466446Y376935D01*
X466372Y376923D01*
X466297Y376915D01*
X466222Y376911D01*
X466147Y376910D01*
X466072Y376913D01*
X465997Y376920D01*
X465923Y376931D01*
X465849Y376945D01*
X465776Y376963D01*
X465704Y376985D01*
X465633Y377010D01*
X465564Y377038D01*
X465496Y377070D01*
X465429Y377106D01*
X465365Y377144D01*
X465303Y377186D01*
X465242Y377231D01*
X465184Y377278D01*
X465129Y377329D01*
X465076Y377382D01*
X465025Y377438D01*
X464978Y377496D01*
X464908Y379255D02*
X464977Y379391D01*
X465050Y379526D01*
X465126Y379659D01*
X465206Y379789D01*
X465288Y379918D01*
X465374Y380045D01*
X465463Y380169D01*
X465555Y380291D01*
X465650Y380411D01*
X465749Y380528D01*
X465850Y380643D01*
X465954Y380755D01*
X466060Y380865D01*
X466170Y380972D01*
X466282Y381076D01*
X466397Y381177D01*
X466514Y381275D01*
X466634Y381370D01*
X464908Y379255D02*
X464869Y379191D01*
X464832Y379125D01*
X464799Y379058D01*
X464769Y378989D01*
X464743Y378918D01*
X464720Y378847D01*
X464701Y378774D01*
X464685Y378701D01*
X464674Y378627D01*
X464665Y378552D01*
X464661Y378477D01*
X464660Y378402D01*
X464663Y378327D01*
X464670Y378252D01*
X464680Y378177D01*
X464694Y378104D01*
X464712Y378031D01*
X464733Y377959D01*
X464758Y377888D01*
X464786Y377818D01*
X464818Y377750D01*
X464853Y377684D01*
X464892Y377619D01*
X464933Y377557D01*
X464978Y377496D01*
X467274Y377206D02*
X468501Y382301D01*
M02*
