G04 EAGLE Gerber RS-274X export*
G75*
%MOMM*%
%FSLAX34Y34*%
%LPD*%
%INSolderpaste Bottom*%
%IPPOS*%
%AMOC8*
5,1,8,0,0,1.08239X$1,22.5*%
G01*
%ADD10R,1.399997X0.400000*%
%ADD11R,0.812800X0.254000*%
%ADD12R,0.254000X0.812800*%
%ADD13R,1.100000X1.000000*%
%ADD14R,1.000000X1.100000*%
%ADD15R,1.500000X1.300000*%
%ADD16R,1.663700X0.431800*%
%ADD17R,2.400000X1.900000*%
%ADD18R,1.800000X1.230000*%
%ADD19R,1.300000X1.500000*%

G36*
X241794Y445533D02*
X241794Y445533D01*
X241796Y445533D01*
X241839Y445552D01*
X241883Y445571D01*
X241884Y445573D01*
X241886Y445574D01*
X241919Y445659D01*
X241919Y457883D01*
X241918Y457885D01*
X241918Y457887D01*
X241899Y457930D01*
X241880Y457973D01*
X241878Y457974D01*
X241877Y457976D01*
X241792Y458009D01*
X229568Y458009D01*
X229566Y458008D01*
X229564Y458009D01*
X229521Y457989D01*
X229478Y457971D01*
X229477Y457969D01*
X229475Y457968D01*
X229442Y457883D01*
X229442Y445659D01*
X229443Y445657D01*
X229442Y445655D01*
X229462Y445612D01*
X229480Y445568D01*
X229482Y445567D01*
X229483Y445565D01*
X229568Y445533D01*
X241792Y445533D01*
X241794Y445533D01*
G37*
G36*
X270242Y445533D02*
X270242Y445533D01*
X270244Y445533D01*
X270287Y445552D01*
X270331Y445571D01*
X270332Y445573D01*
X270334Y445574D01*
X270367Y445659D01*
X270367Y457883D01*
X270366Y457885D01*
X270366Y457887D01*
X270347Y457930D01*
X270328Y457973D01*
X270326Y457974D01*
X270325Y457976D01*
X270240Y458009D01*
X258016Y458009D01*
X258014Y458008D01*
X258012Y458009D01*
X257969Y457989D01*
X257926Y457971D01*
X257925Y457969D01*
X257923Y457968D01*
X257890Y457883D01*
X257890Y445659D01*
X257891Y445657D01*
X257890Y445655D01*
X257910Y445612D01*
X257928Y445568D01*
X257930Y445567D01*
X257931Y445565D01*
X258016Y445533D01*
X270240Y445533D01*
X270242Y445533D01*
G37*
G36*
X256018Y445533D02*
X256018Y445533D01*
X256020Y445533D01*
X256063Y445552D01*
X256107Y445571D01*
X256108Y445573D01*
X256110Y445574D01*
X256143Y445659D01*
X256143Y457883D01*
X256142Y457885D01*
X256142Y457887D01*
X256123Y457930D01*
X256104Y457973D01*
X256102Y457974D01*
X256101Y457976D01*
X256016Y458009D01*
X243792Y458009D01*
X243790Y458008D01*
X243788Y458009D01*
X243745Y457989D01*
X243702Y457971D01*
X243701Y457969D01*
X243699Y457968D01*
X243666Y457883D01*
X243666Y445659D01*
X243667Y445657D01*
X243666Y445655D01*
X243686Y445612D01*
X243704Y445568D01*
X243706Y445567D01*
X243707Y445565D01*
X243792Y445533D01*
X256016Y445533D01*
X256018Y445533D01*
G37*
G36*
X284466Y445533D02*
X284466Y445533D01*
X284468Y445533D01*
X284511Y445552D01*
X284555Y445571D01*
X284556Y445573D01*
X284558Y445574D01*
X284591Y445659D01*
X284591Y457883D01*
X284590Y457885D01*
X284590Y457887D01*
X284571Y457930D01*
X284552Y457973D01*
X284550Y457974D01*
X284549Y457976D01*
X284464Y458009D01*
X272240Y458009D01*
X272238Y458008D01*
X272236Y458009D01*
X272193Y457989D01*
X272150Y457971D01*
X272149Y457969D01*
X272147Y457968D01*
X272114Y457883D01*
X272114Y445659D01*
X272115Y445657D01*
X272114Y445655D01*
X272134Y445612D01*
X272152Y445568D01*
X272154Y445567D01*
X272155Y445565D01*
X272240Y445533D01*
X284464Y445533D01*
X284466Y445533D01*
G37*
G36*
X270242Y431309D02*
X270242Y431309D01*
X270244Y431309D01*
X270287Y431328D01*
X270331Y431347D01*
X270332Y431349D01*
X270334Y431350D01*
X270367Y431435D01*
X270367Y443659D01*
X270366Y443661D01*
X270366Y443663D01*
X270347Y443706D01*
X270328Y443749D01*
X270326Y443750D01*
X270325Y443752D01*
X270240Y443785D01*
X258016Y443785D01*
X258014Y443784D01*
X258012Y443785D01*
X257969Y443765D01*
X257926Y443747D01*
X257925Y443745D01*
X257923Y443744D01*
X257890Y443659D01*
X257890Y431435D01*
X257891Y431433D01*
X257890Y431431D01*
X257910Y431388D01*
X257928Y431344D01*
X257930Y431343D01*
X257931Y431341D01*
X258016Y431309D01*
X270240Y431309D01*
X270242Y431309D01*
G37*
G36*
X241794Y431309D02*
X241794Y431309D01*
X241796Y431309D01*
X241839Y431328D01*
X241883Y431347D01*
X241884Y431349D01*
X241886Y431350D01*
X241919Y431435D01*
X241919Y443659D01*
X241918Y443661D01*
X241918Y443663D01*
X241899Y443706D01*
X241880Y443749D01*
X241878Y443750D01*
X241877Y443752D01*
X241792Y443785D01*
X229568Y443785D01*
X229566Y443784D01*
X229564Y443785D01*
X229521Y443765D01*
X229478Y443747D01*
X229477Y443745D01*
X229475Y443744D01*
X229442Y443659D01*
X229442Y431435D01*
X229443Y431433D01*
X229442Y431431D01*
X229462Y431388D01*
X229480Y431344D01*
X229482Y431343D01*
X229483Y431341D01*
X229568Y431309D01*
X241792Y431309D01*
X241794Y431309D01*
G37*
G36*
X256018Y431309D02*
X256018Y431309D01*
X256020Y431309D01*
X256063Y431328D01*
X256107Y431347D01*
X256108Y431349D01*
X256110Y431350D01*
X256143Y431435D01*
X256143Y443659D01*
X256142Y443661D01*
X256142Y443663D01*
X256123Y443706D01*
X256104Y443749D01*
X256102Y443750D01*
X256101Y443752D01*
X256016Y443785D01*
X243792Y443785D01*
X243790Y443784D01*
X243788Y443785D01*
X243745Y443765D01*
X243702Y443747D01*
X243701Y443745D01*
X243699Y443744D01*
X243666Y443659D01*
X243666Y431435D01*
X243667Y431433D01*
X243666Y431431D01*
X243686Y431388D01*
X243704Y431344D01*
X243706Y431343D01*
X243707Y431341D01*
X243792Y431309D01*
X256016Y431309D01*
X256018Y431309D01*
G37*
G36*
X284466Y431309D02*
X284466Y431309D01*
X284468Y431309D01*
X284511Y431328D01*
X284555Y431347D01*
X284556Y431349D01*
X284558Y431350D01*
X284591Y431435D01*
X284591Y443659D01*
X284590Y443661D01*
X284590Y443663D01*
X284571Y443706D01*
X284552Y443749D01*
X284550Y443750D01*
X284549Y443752D01*
X284464Y443785D01*
X272240Y443785D01*
X272238Y443784D01*
X272236Y443785D01*
X272193Y443765D01*
X272150Y443747D01*
X272149Y443745D01*
X272147Y443744D01*
X272114Y443659D01*
X272114Y431435D01*
X272115Y431433D01*
X272114Y431431D01*
X272134Y431388D01*
X272152Y431344D01*
X272154Y431343D01*
X272155Y431341D01*
X272240Y431309D01*
X284464Y431309D01*
X284466Y431309D01*
G37*
G36*
X241794Y417085D02*
X241794Y417085D01*
X241796Y417085D01*
X241839Y417104D01*
X241883Y417123D01*
X241884Y417125D01*
X241886Y417126D01*
X241919Y417211D01*
X241919Y429435D01*
X241918Y429437D01*
X241918Y429439D01*
X241899Y429482D01*
X241880Y429525D01*
X241878Y429526D01*
X241877Y429528D01*
X241792Y429561D01*
X229568Y429561D01*
X229566Y429560D01*
X229564Y429561D01*
X229521Y429541D01*
X229478Y429523D01*
X229477Y429521D01*
X229475Y429520D01*
X229442Y429435D01*
X229442Y417211D01*
X229443Y417209D01*
X229442Y417207D01*
X229462Y417164D01*
X229480Y417120D01*
X229482Y417119D01*
X229483Y417117D01*
X229568Y417085D01*
X241792Y417085D01*
X241794Y417085D01*
G37*
G36*
X270242Y417085D02*
X270242Y417085D01*
X270244Y417085D01*
X270287Y417104D01*
X270331Y417123D01*
X270332Y417125D01*
X270334Y417126D01*
X270367Y417211D01*
X270367Y429435D01*
X270366Y429437D01*
X270366Y429439D01*
X270347Y429482D01*
X270328Y429525D01*
X270326Y429526D01*
X270325Y429528D01*
X270240Y429561D01*
X258016Y429561D01*
X258014Y429560D01*
X258012Y429561D01*
X257969Y429541D01*
X257926Y429523D01*
X257925Y429521D01*
X257923Y429520D01*
X257890Y429435D01*
X257890Y417211D01*
X257891Y417209D01*
X257890Y417207D01*
X257910Y417164D01*
X257928Y417120D01*
X257930Y417119D01*
X257931Y417117D01*
X258016Y417085D01*
X270240Y417085D01*
X270242Y417085D01*
G37*
G36*
X256018Y417085D02*
X256018Y417085D01*
X256020Y417085D01*
X256063Y417104D01*
X256107Y417123D01*
X256108Y417125D01*
X256110Y417126D01*
X256143Y417211D01*
X256143Y429435D01*
X256142Y429437D01*
X256142Y429439D01*
X256123Y429482D01*
X256104Y429525D01*
X256102Y429526D01*
X256101Y429528D01*
X256016Y429561D01*
X243792Y429561D01*
X243790Y429560D01*
X243788Y429561D01*
X243745Y429541D01*
X243702Y429523D01*
X243701Y429521D01*
X243699Y429520D01*
X243666Y429435D01*
X243666Y417211D01*
X243667Y417209D01*
X243666Y417207D01*
X243686Y417164D01*
X243704Y417120D01*
X243706Y417119D01*
X243707Y417117D01*
X243792Y417085D01*
X256016Y417085D01*
X256018Y417085D01*
G37*
G36*
X284466Y417085D02*
X284466Y417085D01*
X284468Y417085D01*
X284511Y417104D01*
X284555Y417123D01*
X284556Y417125D01*
X284558Y417126D01*
X284591Y417211D01*
X284591Y429435D01*
X284590Y429437D01*
X284590Y429439D01*
X284571Y429482D01*
X284552Y429525D01*
X284550Y429526D01*
X284549Y429528D01*
X284464Y429561D01*
X272240Y429561D01*
X272238Y429560D01*
X272236Y429561D01*
X272193Y429541D01*
X272150Y429523D01*
X272149Y429521D01*
X272147Y429520D01*
X272114Y429435D01*
X272114Y417211D01*
X272115Y417209D01*
X272114Y417207D01*
X272134Y417164D01*
X272152Y417120D01*
X272154Y417119D01*
X272155Y417117D01*
X272240Y417085D01*
X284464Y417085D01*
X284466Y417085D01*
G37*
G36*
X256018Y402861D02*
X256018Y402861D01*
X256020Y402861D01*
X256063Y402880D01*
X256107Y402899D01*
X256108Y402901D01*
X256110Y402902D01*
X256143Y402987D01*
X256143Y415211D01*
X256142Y415213D01*
X256142Y415215D01*
X256123Y415258D01*
X256104Y415301D01*
X256102Y415302D01*
X256101Y415304D01*
X256016Y415337D01*
X243792Y415337D01*
X243790Y415336D01*
X243788Y415337D01*
X243745Y415317D01*
X243702Y415299D01*
X243701Y415297D01*
X243699Y415296D01*
X243666Y415211D01*
X243666Y402987D01*
X243667Y402985D01*
X243666Y402983D01*
X243686Y402940D01*
X243704Y402896D01*
X243706Y402895D01*
X243707Y402893D01*
X243792Y402861D01*
X256016Y402861D01*
X256018Y402861D01*
G37*
G36*
X270242Y402861D02*
X270242Y402861D01*
X270244Y402861D01*
X270287Y402880D01*
X270331Y402899D01*
X270332Y402901D01*
X270334Y402902D01*
X270367Y402987D01*
X270367Y415211D01*
X270366Y415213D01*
X270366Y415215D01*
X270347Y415258D01*
X270328Y415301D01*
X270326Y415302D01*
X270325Y415304D01*
X270240Y415337D01*
X258016Y415337D01*
X258014Y415336D01*
X258012Y415337D01*
X257969Y415317D01*
X257926Y415299D01*
X257925Y415297D01*
X257923Y415296D01*
X257890Y415211D01*
X257890Y402987D01*
X257891Y402985D01*
X257890Y402983D01*
X257910Y402940D01*
X257928Y402896D01*
X257930Y402895D01*
X257931Y402893D01*
X258016Y402861D01*
X270240Y402861D01*
X270242Y402861D01*
G37*
G36*
X284466Y402861D02*
X284466Y402861D01*
X284468Y402861D01*
X284511Y402880D01*
X284555Y402899D01*
X284556Y402901D01*
X284558Y402902D01*
X284591Y402987D01*
X284591Y415211D01*
X284590Y415213D01*
X284590Y415215D01*
X284571Y415258D01*
X284552Y415301D01*
X284550Y415302D01*
X284549Y415304D01*
X284464Y415337D01*
X272240Y415337D01*
X272238Y415336D01*
X272236Y415337D01*
X272193Y415317D01*
X272150Y415299D01*
X272149Y415297D01*
X272147Y415296D01*
X272114Y415211D01*
X272114Y402987D01*
X272115Y402985D01*
X272114Y402983D01*
X272134Y402940D01*
X272152Y402896D01*
X272154Y402895D01*
X272155Y402893D01*
X272240Y402861D01*
X284464Y402861D01*
X284466Y402861D01*
G37*
G36*
X241794Y402861D02*
X241794Y402861D01*
X241796Y402861D01*
X241839Y402880D01*
X241883Y402899D01*
X241884Y402901D01*
X241886Y402902D01*
X241919Y402987D01*
X241919Y415211D01*
X241918Y415213D01*
X241918Y415215D01*
X241899Y415258D01*
X241880Y415301D01*
X241878Y415302D01*
X241877Y415304D01*
X241792Y415337D01*
X229568Y415337D01*
X229566Y415336D01*
X229564Y415337D01*
X229521Y415317D01*
X229478Y415299D01*
X229477Y415297D01*
X229475Y415296D01*
X229442Y415211D01*
X229442Y402987D01*
X229443Y402985D01*
X229442Y402983D01*
X229462Y402940D01*
X229480Y402896D01*
X229482Y402895D01*
X229483Y402893D01*
X229568Y402861D01*
X241792Y402861D01*
X241794Y402861D01*
G37*
D10*
X315921Y412283D03*
X315921Y424283D03*
X315921Y436283D03*
D11*
X291560Y457942D03*
X291560Y452941D03*
X291560Y447939D03*
X291560Y442938D03*
X291560Y437937D03*
X291560Y432936D03*
X291560Y427934D03*
X291560Y422933D03*
X291560Y417932D03*
X291560Y412931D03*
X291560Y407929D03*
X291560Y402928D03*
D12*
X284523Y395891D03*
X279522Y395891D03*
X274520Y395891D03*
X269519Y395891D03*
X264518Y395891D03*
X259517Y395891D03*
X254515Y395891D03*
X249514Y395891D03*
X244513Y395891D03*
X239512Y395891D03*
X234510Y395891D03*
X229509Y395891D03*
D11*
X222472Y402928D03*
X222472Y407929D03*
X222472Y412931D03*
X222472Y417932D03*
X222472Y422933D03*
X222472Y427934D03*
X222472Y432936D03*
X222472Y437937D03*
X222472Y442938D03*
X222472Y447939D03*
X222472Y452941D03*
X222472Y457942D03*
D12*
X229509Y464979D03*
X234510Y464979D03*
X239512Y464979D03*
X244513Y464979D03*
X249514Y464979D03*
X254515Y464979D03*
X259517Y464979D03*
X264518Y464979D03*
X269519Y464979D03*
X274520Y464979D03*
X279522Y464979D03*
X284523Y464979D03*
D13*
X254539Y483891D03*
X254539Y500891D03*
D14*
X315414Y397497D03*
X315414Y380497D03*
D13*
X304062Y471820D03*
X321062Y471820D03*
X304858Y452562D03*
X321858Y452562D03*
D15*
X336879Y492814D03*
X336879Y473814D03*
X338550Y447824D03*
X338550Y428824D03*
D16*
X364554Y374278D03*
X364554Y380778D03*
X364554Y387278D03*
X364554Y393778D03*
X364554Y400278D03*
X364554Y406778D03*
X364554Y413278D03*
X364554Y419778D03*
X364554Y426278D03*
X364554Y432778D03*
X364554Y439278D03*
X364554Y445778D03*
X364554Y452278D03*
X364554Y458778D03*
X437070Y458778D03*
X437070Y452278D03*
X437070Y445778D03*
X437070Y439278D03*
X437070Y432778D03*
X437070Y426278D03*
X437070Y419778D03*
X437070Y413278D03*
X437070Y406778D03*
X437070Y400278D03*
X437070Y393778D03*
X437070Y387278D03*
X437070Y380778D03*
X437070Y374278D03*
D17*
X468059Y434139D03*
X468059Y393139D03*
D14*
X400281Y531813D03*
X417281Y531813D03*
D18*
X349650Y354806D03*
X323450Y354806D03*
D13*
X472050Y453231D03*
X455050Y453231D03*
X410600Y350838D03*
X427600Y350838D03*
X417744Y490538D03*
X434744Y490538D03*
D19*
X412775Y330994D03*
X431775Y330994D03*
D14*
X381000Y534756D03*
X381000Y517756D03*
X399819Y492919D03*
X382819Y492919D03*
X400281Y511969D03*
X417281Y511969D03*
D13*
X361156Y517756D03*
X361156Y534756D03*
D14*
X245500Y525463D03*
X262500Y525463D03*
X341875Y526256D03*
X324875Y526256D03*
X310919Y526256D03*
X293919Y526256D03*
D13*
X306156Y494506D03*
X289156Y494506D03*
X357981Y474100D03*
X357981Y491100D03*
D14*
X309331Y315119D03*
X292331Y315119D03*
G36*
X381195Y322963D02*
X373672Y316376D01*
X366427Y324651D01*
X373950Y331238D01*
X381195Y322963D01*
G37*
G36*
X393986Y334161D02*
X386463Y327574D01*
X379218Y335849D01*
X386741Y342436D01*
X393986Y334161D01*
G37*
X352194Y315119D03*
X335194Y315119D03*
D13*
G36*
X452538Y373295D02*
X461229Y380037D01*
X467358Y372137D01*
X458667Y365395D01*
X452538Y373295D01*
G37*
G36*
X439105Y362876D02*
X447796Y369618D01*
X453925Y361718D01*
X445234Y354976D01*
X439105Y362876D01*
G37*
M02*
