M48
;GenerationSoftware,Autodesk,EAGLE,9.6.2*%
;CreationDate,2022-08-22T18:30:42Z*%
FMAT,2
ICI,OFF
METRIC,TZ,000.000
T3C0.350
T2C1.016
T1C2.800
%
G90
M71
T1
X39599Y31191
X26899Y31191
T2
X19923Y37703
X19923Y45323
X19923Y42783
X19923Y40243
T3
X21811Y38593
X42704Y36513
X45085Y42069
X42545Y30639
X24924Y30559
X21075Y41910
X44920Y43101
X41989Y43691
X42624Y52229
X41529Y37012
X39529Y29210
X33922Y46088
X31195Y46185
X23677Y50506
X30401Y37766
X37288Y54292
X39704Y46125
X41026Y45551
X36274Y54550
X38719Y48022
X40958Y43736
X26436Y53980
X33838Y50929
X31639Y51167
X24662Y38497
X37941Y39053
X40154Y42217
X37897Y42183
X22725Y50103
X30162Y40038
X48022Y41091
X29289Y39529
X29845Y36909
X28813Y37148
X43966Y34965
X22405Y32682
X44205Y47429
X29607Y48498
X24765Y43894
X32797Y38243
X34606Y37149
X23654Y36478
X28665Y55658
M30